<?xml version="1.0" encoding="UTF-8" standalone="no"?>
<!-- Created with Inkscape (http://www.inkscape.org/) -->

<svg
   xmlns:dc="http://purl.org/dc/elements/1.1/"
   xmlns:cc="http://creativecommons.org/ns#"
   xmlns:rdf="http://www.w3.org/1999/02/22-rdf-syntax-ns#"
   xmlns:svg="http://www.w3.org/2000/svg"
   xmlns="http://www.w3.org/2000/svg"
   xmlns:xlink="http://www.w3.org/1999/xlink"
   xmlns:sodipodi="http://sodipodi.sourceforge.net/DTD/sodipodi-0.dtd"
   xmlns:inkscape="http://www.inkscape.org/namespaces/inkscape"
   width="512"
   height="512"
   id="svg3336"
   version="1.1"
   inkscape:version="0.91 r13725"
   sodipodi:docname="calendar-app.svg"
   inkscape:export-filename="app_shape02.png"
   inkscape:export-xdpi="180"
   inkscape:export-ydpi="180"
   style="enable-background:new"
   viewBox="0 0 512 512">
  <sodipodi:namedview
     id="base"
     pagecolor="#b4b4b4"
     bordercolor="#666666"
     borderopacity="1.0"
     inkscape:pageopacity="0"
     inkscape:pageshadow="2"
     inkscape:zoom="1.5625"
     inkscape:cx="-4.404311"
     inkscape:cy="100.65422"
     inkscape:document-units="px"
     inkscape:current-layer="layer3"
     showgrid="false"
     inkscape:window-width="1920"
     inkscape:window-height="1029"
     inkscape:window-x="0"
     inkscape:window-y="24"
     inkscape:window-maximized="1"
     inkscape:snap-page="true"
     inkscape:showpageshadow="false"
     showborder="true"
     inkscape:snap-bbox="true"
     inkscape:bbox-paths="true"
     inkscape:bbox-nodes="true"
     inkscape:snap-bbox-edge-midpoints="true"
     inkscape:snap-bbox-midpoints="true"
     inkscape:object-paths="true"
     inkscape:object-nodes="true"
     inkscape:snap-intersection-paths="true"
     inkscape:snap-smooth-nodes="true"
     inkscape:snap-midpoints="true"
     inkscape:snap-object-midpoints="true"
     inkscape:snap-center="true"
     showguides="false"
     inkscape:guide-bbox="true"
     inkscape:snap-grids="true"
     fit-margin-top="18"
     fit-margin-left="0"
     fit-margin-right="0"
     fit-margin-bottom="18"
     inkscape:snap-global="true">
    <inkscape:grid
       enabled="true"
       visible="true"
       originy="15.999999"
       originx="0"
       id="grid811"
       type="xygrid" />
    <sodipodi:guide
       id="guide819"
       position="104,176"
       orientation="1,0"
       inkscape:locked="false" />
    <sodipodi:guide
       id="guide821"
       position="120,160"
       orientation="1,0"
       inkscape:locked="false" />
    <sodipodi:guide
       id="guide823"
       position="392,144"
       orientation="1,0"
       inkscape:locked="false" />
    <sodipodi:guide
       id="guide825"
       position="408,144"
       orientation="1,0"
       inkscape:locked="false" />
    <sodipodi:guide
       id="guide827"
       position="328,408"
       orientation="0,1"
       inkscape:locked="false" />
    <sodipodi:guide
       id="guide829"
       position="336,392"
       orientation="0,1"
       inkscape:locked="false" />
    <sodipodi:guide
       id="guide831"
       position="176,120"
       orientation="0,1"
       inkscape:locked="false" />
    <sodipodi:guide
       id="guide833"
       position="216,104"
       orientation="0,1"
       inkscape:locked="false" />
    <inkscape:grid
       originy="16.999996"
       originx="0"
       enabled="false"
       spacingy="3.522px"
       gridanglez="42.9"
       gridanglex="42.9"
       empspacing="60"
       units="px"
       id="grid835"
       type="axonomgrid" />
    <sodipodi:guide
       id="guide4126"
       position="344,376"
       orientation="0,1"
       inkscape:locked="false" />
    <sodipodi:guide
       id="guide4128"
       position="160,136"
       orientation="0,1"
       inkscape:locked="false" />
    <sodipodi:guide
       id="guide4130"
       position="136,96"
       orientation="1,0"
       inkscape:locked="false" />
    <sodipodi:guide
       id="guide4134"
       position="376,136"
       orientation="1,0"
       inkscape:locked="false" />
    <sodipodi:guide
       id="guide4136"
       position="256,256"
       orientation="-0.70710678,0.70710678"
       inkscape:locked="false" />
    <sodipodi:guide
       id="guide4138"
       position="256,232"
       orientation="1,0"
       inkscape:locked="false" />
    <sodipodi:guide
       id="guide4140"
       position="288,256"
       orientation="0,1"
       inkscape:locked="false" />
    <sodipodi:guide
       id="guide4142"
       position="256,256"
       orientation="0.70710678,0.70710678"
       inkscape:locked="false" />
    <sodipodi:guide
       id="guide4152"
       position="248,15.999999"
       orientation="0,1"
       inkscape:locked="false" />
    <sodipodi:guide
       id="guide4154"
       position="336,496"
       orientation="0,1"
       inkscape:locked="false" />
  </sodipodi:namedview>
  <defs
     id="defs3338">
    <linearGradient
       inkscape:collect="always"
       id="linearGradient4262">
      <stop
         style="stop-color:#000000;stop-opacity:1;"
         offset="0"
         id="stop4264" />
      <stop
         style="stop-color:#000000;stop-opacity:0;"
         offset="1"
         id="stop4266" />
    </linearGradient>
    <linearGradient
       inkscape:collect="always"
       id="linearGradient4245">
      <stop
         style="stop-color:#d9d9d9;stop-opacity:1"
         offset="0"
         id="stop4247" />
      <stop
         style="stop-color:#ececec;stop-opacity:1"
         offset="1"
         id="stop4249" />
    </linearGradient>
    <linearGradient
       id="linearGradient4220"
       inkscape:collect="always">
      <stop
         id="stop4222"
         offset="0"
         style="stop-color:#e93549;stop-opacity:1" />
      <stop
         id="stop4224"
         offset="1"
         style="stop-color:#ef6b6b;stop-opacity:1" />
    </linearGradient>
    <filter
       id="filter4154"
       inkscape:label="Colorize"
       style="color-interpolation-filters:sRGB">
      <feComposite
         k4="0"
         k3="0"
         id="feComposite4156"
         result="composite1"
         k2="1"
         k1="0"
         operator="arithmetic"
         in2="SourceGraphic" />
      <feColorMatrix
         id="feColorMatrix4158"
         result="colormatrix1"
         type="saturate"
         values="0"
         in="composite1" />
      <feFlood
         id="feFlood4160"
         result="flood1"
         flood-color="rgb(89,132,51)"
         flood-opacity="1" />
      <feBlend
         id="feBlend4162"
         result="blend1"
         mode="multiply"
         in2="colormatrix1"
         in="flood1" />
      <feBlend
         id="feBlend4164"
         result="blend2"
         mode="screen"
         in2="blend1" />
      <feColorMatrix
         id="feColorMatrix4166"
         result="colormatrix2"
         type="saturate"
         values="1"
         in="blend2" />
      <feComposite
         id="feComposite4168"
         result="composite2"
         operator="in"
         in2="SourceGraphic"
         in="colormatrix2" />
    </filter>
    <filter
       height="1.048"
       y="-0.024"
       width="1.048"
       x="-0.024"
       id="filter4264"
       style="color-interpolation-filters:sRGB"
       inkscape:collect="always" />
    <linearGradient
       id="linearGradient7537">
      <stop
         id="stop7539"
         offset="0"
         style="stop-color:#44d459;stop-opacity:1" />
      <stop
         id="stop7541"
         offset="1"
         style="stop-color:#38b44a;stop-opacity:1" />
    </linearGradient>
    <clipPath
       id="clipPath4231-6"
       clipPathUnits="userSpaceOnUse">
      <rect
         y="18"
         x="0"
         height="238"
         width="256"
         id="rect4233-8"
         style="color:#000000;display:inline;overflow:visible;visibility:visible;opacity:0.46400003;fill:#ff00ff;fill-opacity:1;fill-rule:nonzero;stroke:none;stroke-width:1;marker:none;enable-background:accumulate" />
    </clipPath>
    <linearGradient
       inkscape:collect="always"
       xlink:href="#linearGradient4245"
       id="linearGradient4251"
       x1="16"
       y1="304"
       x2="16"
       y2="208"
       gradientUnits="userSpaceOnUse"
       gradientTransform="matrix(0.75,0,0,0.83333332,0,42.666672)" />
    <linearGradient
       inkscape:collect="always"
       xlink:href="#linearGradient4262"
       id="linearGradient4268"
       x1="0"
       y1="258"
       x2="0"
       y2="208"
       gradientUnits="userSpaceOnUse"
       spreadMethod="reflect"
       gradientTransform="matrix(1,0,0,0.83333335,-40,42.999994)" />
    <clipPath
       clipPathUnits="userSpaceOnUse"
       id="clipPath4258">
      <path
         style="color:#000000;display:inline;overflow:visible;visibility:visible;fill:url(#linearGradient4263);fill-opacity:1;fill-rule:nonzero;stroke:none;stroke-width:1;marker:none;enable-background:accumulate"
         d="M 126.05469,18 C -19.242615,18 -40,38.736657 -40,183.89844 l 0,144.20312 C -40,473.26274 -19.242615,494 126.05469,494 l 179.89062,0 C 451.2426,494 472,473.26274 472,328.10156 l 0,-144.20312 C 472,38.736657 451.2426,18 305.94531,18 Z"
         id="path4260"
         inkscape:connector-curvature="0" />
    </clipPath>
    <linearGradient
       inkscape:collect="always"
       xlink:href="#linearGradient4220"
       id="linearGradient4263"
       gradientUnits="userSpaceOnUse"
       gradientTransform="translate(-40,0)"
       x1="0"
       y1="18"
       x2="512"
       y2="494" />
    <filter
       inkscape:collect="always"
       style="color-interpolation-filters:sRGB"
       id="filter4277"
       x="-0.02775"
       width="1.0555"
       y="-0.1776"
       height="1.3552001">
      <feGaussianBlur
         inkscape:collect="always"
         stdDeviation="5.92"
         id="feGaussianBlur4279" />
    </filter>
    <linearGradient
       inkscape:collect="always"
       xlink:href="#linearGradient4203"
       id="linearGradient4209"
       x1="167.5"
       y1="17.25"
       x2="343.25"
       y2="491"
       gradientUnits="userSpaceOnUse" />
    <linearGradient
       inkscape:collect="always"
       id="linearGradient4203">
      <stop
         style="stop-color:#1eb8b8;stop-opacity:1"
         offset="0"
         id="stop4205" />
      <stop
         style="stop-color:#4fe7c8;stop-opacity:1"
         offset="1"
         id="stop4207" />
    </linearGradient>
  </defs>
  <metadata
     id="metadata3341">
    <rdf:RDF>
      <cc:Work
         rdf:about="">
        <dc:format>image/svg+xml</dc:format>
        <dc:type
           rdf:resource="http://purl.org/dc/dcmitype/StillImage" />
        <dc:title />
      </cc:Work>
    </rdf:RDF>
  </metadata>
  <g
     inkscape:label="Background"
     id="layer3"
     inkscape:groupmode="layer">
    <path
       style="color:#000000;display:inline;overflow:visible;visibility:visible;fill:url(#linearGradient4209);fill-opacity:1;fill-rule:nonzero;stroke:none;stroke-width:1;marker:none;enable-background:accumulate"
       d="M 0 0 L 0 183.89844 L 0 328.10156 L 0 512 L 512 512 L 512 328.10156 L 512 183.89844 L 512 0 L 0 0 z "
       id="rect4158" />
    <path
       style="color:#000000;display:inline;overflow:visible;visibility:visible;opacity:0.15;fill:#ffffff;fill-opacity:1;fill-rule:nonzero;stroke:none;stroke-width:1;marker:none;enable-background:accumulate"
       d="M 0 256 L 0 328.10156 L 0 512 L 512 512 L 512 328.10156 L 512 256 L 0 256 z "
       id="path4269" />
    <path
       style="font-style:normal;font-variant:normal;font-weight:normal;font-stretch:normal;font-size:medium;line-height:129.48895264px;font-family:Ubuntu;-inkscape-font-specification:'Ubuntu, Normal';text-align:center;letter-spacing:0px;word-spacing:0px;writing-mode:lr-tb;text-anchor:middle;fill:#ececec;fill-opacity:1;stroke:none;stroke-width:1px;stroke-linecap:butt;stroke-linejoin:miter;stroke-opacity:1;enable-background:new"
       d="m 178.83008,143.91211 c -5.98629,0 -11.76641,0.61888 -17.33985,1.85742 -5.36701,1.03212 -10.42413,2.37401 -15.17187,4.02539 -4.74774,1.6514 -9.08186,3.50999 -13.00391,5.57422 -3.71562,1.85781 -6.81197,3.61229 -9.28906,5.26367 l 11.14649,21.98438 c 4.74774,-3.09636 10.52787,-6.09054 17.33984,-8.98047 7.0184,-2.88993 15.48229,-4.33399 25.39062,-4.33399 4.95417,0 9.5987,0.61889 13.9336,1.85743 4.54131,1.03212 8.46284,2.88876 11.76562,5.57226 3.5092,2.68351 6.29514,6.09028 8.35938,10.21875 2.06422,4.12848 3.09765,9.08343 3.09765,14.86328 0,7.0184 -1.44601,12.9007 -4.33593,17.64844 -2.88994,4.54132 -6.60517,8.15439 -11.14649,10.83789 -4.54131,2.68351 -9.59843,4.54015 -15.17187,5.57227 -5.36701,1.03211 -10.63043,1.54883 -15.79102,1.54883 l -10.21875,0 0,23.5332 7.43164,0 c 7.43124,0 14.65542,0.72105 21.67383,2.16601 7.22482,1.23854 13.52167,3.50972 18.88867,6.8125 5.36702,3.09635 9.70113,7.3283 13.00391,12.69532 3.30278,5.36701 4.95508,11.97231 4.95508,19.8164 0,12.17899 -4.02566,21.88064 -12.07618,29.10547 -7.8441,7.22482 -20.95253,10.83789 -39.32421,10.83789 -11.76614,0 -21.77821,-1.34189 -30.03516,-4.02539 -8.05052,-2.68351 -13.82869,-4.85056 -17.33789,-6.50195 L 120,356.94141 c 1.65139,0.82569 4.33516,1.85716 8.05078,3.0957 3.71563,1.23855 8.04975,2.47826 13.00391,3.7168 4.95416,1.23854 10.21758,2.27001 15.79101,3.0957 5.77986,0.82569 11.35369,1.23828 16.72071,1.23828 13.83037,0 25.80321,-1.6523 35.91797,-4.95508 10.11475,-3.30278 18.47452,-7.84318 25.08007,-13.62304 6.81198,-5.77986 11.76692,-12.59146 14.86328,-20.43555 3.30277,-8.05052 4.95313,-16.72071 4.95313,-26.00977 0,-7.63766 -1.23776,-14.55338 -3.71484,-20.74609 -2.27066,-6.1927 -5.36702,-11.66241 -9.28907,-16.41016 -3.71562,-4.74774 -8.15386,-8.66928 -13.31445,-11.76562 -5.16059,-3.09636 -10.52814,-5.46972 -16.10156,-7.1211 9.08262,-4.12847 16.82352,-10.11489 23.22265,-17.95898 6.39913,-8.05052 9.59961,-17.65001 9.59961,-28.79688 0,-8.05052 -1.34189,-15.48098 -4.02539,-22.29296 -2.68351,-7.0184 -6.70916,-13.00483 -12.07617,-17.95899 -5.36701,-5.16058 -12.17861,-9.08407 -20.43555,-11.76758 -8.25694,-2.88993 -18.06272,-4.33398 -29.41601,-4.33398 z m 182.73437,0.95312 c -9.28905,10.73402 -19.50742,19.71463 -30.65429,26.93946 -11.14687,7.0184 -22.603,12.79852 -34.36914,17.33984 l 8.97851,21.67383 c 4.33489,-1.44497 8.77314,-3.19944 13.31445,-5.26367 4.74775,-2.06424 9.18599,-4.2313 13.31446,-6.50196 4.33489,-2.27066 8.25643,-4.64401 11.76562,-7.12109 3.71563,-2.47708 6.81198,-4.85239 9.28906,-7.12305 l 0,182.63477 28.79688,0 0,-222.57813 z"
       id="path4321"
       inkscape:connector-curvature="0" />
    <path
       inkscape:connector-curvature="0"
       style="color:#000000;display:inline;overflow:visible;visibility:visible;opacity:1;fill:#f9f9f9;fill-opacity:1;fill-rule:nonzero;stroke:none;stroke-width:1;marker:none;enable-background:accumulate"
       d="m 158.39453,256 0,4.95508 7.43164,0 c 7.43124,0 14.65542,0.72105 21.67383,2.16601 7.22482,1.23854 13.52167,3.50972 18.88867,6.8125 5.36702,3.09635 9.70113,7.3283 13.00391,12.69532 3.30278,5.36701 4.95508,11.97231 4.95508,19.8164 0,12.17899 -4.02566,21.88064 -12.07618,29.10547 -7.8441,7.22482 -20.95253,10.83789 -39.32421,10.83789 -11.76614,0 -21.77821,-1.34189 -30.03516,-4.02539 -8.05052,-2.68351 -13.82869,-4.85056 -17.33789,-6.50195 L 120,356.94141 c 1.65139,0.82569 4.33516,1.85716 8.05078,3.0957 3.71563,1.23855 8.04975,2.47826 13.00391,3.7168 4.95416,1.23854 10.21758,2.27001 15.79101,3.0957 5.77986,0.82569 11.35369,1.23828 16.72071,1.23828 13.83037,0 25.8032,-1.6523 35.91797,-4.95508 10.11475,-3.30278 18.47452,-7.84318 25.08007,-13.62304 6.81198,-5.77986 11.76692,-12.59146 14.86328,-20.43555 3.30277,-8.05052 4.95313,-16.72071 4.95313,-26.00977 0,-7.63766 -1.23776,-14.55338 -3.71484,-20.74609 -2.27066,-6.1927 -5.36702,-11.66241 -9.28907,-16.41016 -3.01179,-3.8484 -6.50753,-7.14495 -10.46875,-9.9082 l -72.51367,0 z m 194.80859,0 0,111.44336 28.79688,0 L 382,256 l -28.79688,0 z"
       id="path4319" />
  </g>
  <g
     inkscape:label="Pictogram"
     id="layer4"
     inkscape:groupmode="layer">
    <path
       sodipodi:nodetypes="cccsccccccccccccccc"
       style="color:#000000;display:inline;overflow:visible;visibility:visible;opacity:0.05;fill:#ff0000;fill-opacity:0;fill-rule:nonzero;stroke:none;stroke-width:40;marker:none;enable-background:accumulate"
       d="m 219.3125,124 -35.1875,71.65625 0,59.25 c -4.93993,5.78797 -10.33923,11.62048 -15.96875,17.25 -18.50312,18.50309 -39.2477,34.68678 -53.125,39.3125 L 91.65625,288.125 20,323.3125 20,494 l 256,0 0,-317.5625 C 260.58338,142.99385 243.63185,130.51631 219.3125,124 Z M 121.75,353 c 0.007,-0.005 0.0239,0.005 0.0312,0 -2.61074,1.63039 -5.25098,3.22668 -7.90625,4.8125 2.65593,-1.58559 5.2637,-3.18237 7.87505,-4.8125 z m -24.09375,14.0625 c 0.008,-0.004 0.0234,0.004 0.0312,0 -2.74184,1.4991 -5.52861,2.98055 -8.3125,4.4375 2.78427,-1.45683 5.53906,-2.93856 8.2813,-4.4375 z"
       id="path4505-6"
       inkscape:connector-curvature="0" />
    <g
       inkscape:groupmode="maskhelper"
       id="g4255"
       clip-path="url(#clipPath4258)"
       transform="translate(40,0)"
       style="filter:url(#filter4277)">
      <path
         style="color:#000000;display:inline;overflow:visible;visibility:visible;opacity:0.4;fill:url(#linearGradient4268);fill-opacity:1;fill-rule:nonzero;stroke:none;stroke-width:48;stroke-linecap:butt;stroke-linejoin:miter;stroke-miterlimit:4;stroke-dasharray:none;stroke-dashoffset:0;stroke-opacity:1;marker:none;enable-background:accumulate"
         d="m -40,218 0,80 24,0 0,-80 z m 488,0 0,80 24,0 0,-80 z"
         id="path4258"
         inkscape:connector-curvature="0" />
    </g>
    <path
       style="color:#000000;display:inline;overflow:visible;visibility:visible;opacity:1;fill:url(#linearGradient4251);fill-opacity:1;fill-rule:nonzero;stroke:none;stroke-width:48;stroke-linecap:butt;stroke-linejoin:miter;stroke-miterlimit:4;stroke-dasharray:none;stroke-dashoffset:0;stroke-opacity:1;marker:none;enable-background:accumulate"
       d="m 0,216 0,80 24,0 0,-80 z m 488,0 0,80 24,0 0,-80 z"
       id="rect4243"
       inkscape:connector-curvature="0" />
    <path
       style="color:#000000;display:inline;overflow:visible;visibility:visible;opacity:1;fill:#ffffff;fill-opacity:1;fill-rule:nonzero;stroke:none;stroke-width:48;stroke-linecap:butt;stroke-linejoin:miter;stroke-miterlimit:4;stroke-dasharray:none;stroke-dashoffset:0;stroke-opacity:1;marker:none;enable-background:accumulate"
       d="m 0,216 0,2 24,0 0,-2 z m 488,0 0,2 24,0 0,-2 z"
       id="path4344"
       inkscape:connector-curvature="0" />
  </g>
</svg>
