<?xml version="1.0" encoding="UTF-8" standalone="no"?>
<!-- Created with Inkscape (http://www.inkscape.org/) -->

<svg
   xmlns:dc="http://purl.org/dc/elements/1.1/"
   xmlns:cc="http://creativecommons.org/ns#"
   xmlns:rdf="http://www.w3.org/1999/02/22-rdf-syntax-ns#"
   xmlns:svg="http://www.w3.org/2000/svg"
   xmlns="http://www.w3.org/2000/svg"
   xmlns:xlink="http://www.w3.org/1999/xlink"
   xmlns:sodipodi="http://sodipodi.sourceforge.net/DTD/sodipodi-0.dtd"
   xmlns:inkscape="http://www.inkscape.org/namespaces/inkscape"
   width="512"
   height="512"
   id="svg3336"
   version="1.1"
   inkscape:version="0.91+devel r"
   sodipodi:docname="calendar-app.svg"
   inkscape:export-filename="app_shape02.png"
   inkscape:export-xdpi="180"
   inkscape:export-ydpi="180"
   style="enable-background:new"
   viewBox="0 0 512 512">
  <sodipodi:namedview
     id="base"
     pagecolor="#b4b4b4"
     bordercolor="#666666"
     borderopacity="1.0"
     inkscape:pageopacity="0"
     inkscape:pageshadow="2"
     inkscape:zoom="0.512"
     inkscape:cx="-84.437016"
     inkscape:cy="57.953516"
     inkscape:document-units="px"
     inkscape:current-layer="layer3"
     showgrid="false"
     inkscape:window-width="1920"
     inkscape:window-height="1029"
     inkscape:window-x="0"
     inkscape:window-y="24"
     inkscape:window-maximized="1"
     inkscape:snap-page="true"
     inkscape:showpageshadow="false"
     showborder="true"
     inkscape:snap-bbox="true"
     inkscape:bbox-paths="true"
     inkscape:bbox-nodes="true"
     inkscape:snap-bbox-edge-midpoints="true"
     inkscape:snap-bbox-midpoints="true"
     inkscape:object-paths="true"
     inkscape:object-nodes="true"
     inkscape:snap-intersection-paths="true"
     inkscape:snap-smooth-nodes="true"
     inkscape:snap-midpoints="true"
     inkscape:snap-object-midpoints="true"
     inkscape:snap-center="true"
     showguides="false"
     inkscape:guide-bbox="true"
     inkscape:snap-grids="true"
     fit-margin-top="18"
     fit-margin-left="0"
     fit-margin-right="0"
     fit-margin-bottom="18"
     inkscape:snap-global="true">
    <inkscape:grid
       enabled="true"
       visible="true"
       originy="15.999999"
       originx="0"
       id="grid811"
       type="xygrid" />
    <sodipodi:guide
       id="guide819"
       position="104,176"
       orientation="1,0" />
    <sodipodi:guide
       id="guide821"
       position="120,160"
       orientation="1,0" />
    <sodipodi:guide
       id="guide823"
       position="392,144"
       orientation="1,0" />
    <sodipodi:guide
       id="guide825"
       position="408,144"
       orientation="1,0" />
    <sodipodi:guide
       id="guide827"
       position="328,408"
       orientation="0,1" />
    <sodipodi:guide
       id="guide829"
       position="336,392"
       orientation="0,1" />
    <sodipodi:guide
       id="guide831"
       position="176,120"
       orientation="0,1" />
    <sodipodi:guide
       id="guide833"
       position="216,104"
       orientation="0,1" />
    <inkscape:grid
       originy="16.999996"
       originx="0"
       enabled="false"
       spacingy="3.522px"
       gridanglez="42.9"
       gridanglex="42.9"
       empspacing="60"
       units="px"
       id="grid835"
       type="axonomgrid" />
    <sodipodi:guide
       id="guide4126"
       position="344,376"
       orientation="0,1" />
    <sodipodi:guide
       id="guide4128"
       position="160,136"
       orientation="0,1" />
    <sodipodi:guide
       id="guide4130"
       position="136,96"
       orientation="1,0" />
    <sodipodi:guide
       id="guide4134"
       position="376,136"
       orientation="1,0" />
    <sodipodi:guide
       id="guide4136"
       position="256,256"
       orientation="-0.70710678,0.70710678" />
    <sodipodi:guide
       id="guide4138"
       position="256,232"
       orientation="1,0" />
    <sodipodi:guide
       id="guide4140"
       position="288,256"
       orientation="0,1" />
    <sodipodi:guide
       id="guide4142"
       position="256,256"
       orientation="0.70710678,0.70710678" />
    <sodipodi:guide
       id="guide4152"
       position="248,15.999999"
       orientation="0,1" />
    <sodipodi:guide
       id="guide4154"
       position="336,496"
       orientation="0,1" />
  </sodipodi:namedview>
  <defs
     id="defs3338">
    <linearGradient
       inkscape:collect="always"
       id="linearGradient4262">
      <stop
         style="stop-color:#000000;stop-opacity:1;"
         offset="0"
         id="stop4264" />
      <stop
         style="stop-color:#000000;stop-opacity:0;"
         offset="1"
         id="stop4266" />
    </linearGradient>
    <linearGradient
       inkscape:collect="always"
       id="linearGradient4245">
      <stop
         style="stop-color:#d9d9d9;stop-opacity:1"
         offset="0"
         id="stop4247" />
      <stop
         style="stop-color:#ececec;stop-opacity:1"
         offset="1"
         id="stop4249" />
    </linearGradient>
    <linearGradient
       id="linearGradient4220"
       inkscape:collect="always">
      <stop
         id="stop4222"
         offset="0"
         style="stop-color:#e93549;stop-opacity:1" />
      <stop
         id="stop4224"
         offset="1"
         style="stop-color:#ef6b6b;stop-opacity:1" />
    </linearGradient>
    <filter
       id="filter4154"
       inkscape:label="Colorize"
       style="color-interpolation-filters:sRGB">
      <feComposite
         k4="0"
         k3="0"
         id="feComposite4156"
         result="composite1"
         k2="1"
         k1="0"
         operator="arithmetic"
         in2="SourceGraphic" />
      <feColorMatrix
         id="feColorMatrix4158"
         result="colormatrix1"
         type="saturate"
         values="0"
         in="composite1" />
      <feFlood
         id="feFlood4160"
         result="flood1"
         flood-color="rgb(89,132,51)"
         flood-opacity="1" />
      <feBlend
         id="feBlend4162"
         result="blend1"
         mode="multiply"
         in2="colormatrix1"
         in="flood1" />
      <feBlend
         id="feBlend4164"
         result="blend2"
         mode="screen"
         in2="blend1" />
      <feColorMatrix
         id="feColorMatrix4166"
         result="colormatrix2"
         type="saturate"
         values="1"
         in="blend2" />
      <feComposite
         id="feComposite4168"
         result="composite2"
         operator="in"
         in2="SourceGraphic"
         in="colormatrix2" />
    </filter>
    <filter
       height="1.048"
       y="-0.024"
       width="1.048"
       x="-0.024"
       id="filter4264"
       style="color-interpolation-filters:sRGB"
       inkscape:collect="always" />
    <linearGradient
       id="linearGradient7537">
      <stop
         id="stop7539"
         offset="0"
         style="stop-color:#44d459;stop-opacity:1" />
      <stop
         id="stop7541"
         offset="1"
         style="stop-color:#38b44a;stop-opacity:1" />
    </linearGradient>
    <clipPath
       id="clipPath4231-6"
       clipPathUnits="userSpaceOnUse">
      <rect
         y="18"
         x="0"
         height="238"
         width="256"
         id="rect4233-8"
         style="color:#000000;display:inline;overflow:visible;visibility:visible;opacity:0.46400003;fill:#ff00ff;fill-opacity:1;fill-rule:nonzero;stroke:none;stroke-width:1;marker:none;enable-background:accumulate" />
    </clipPath>
    <linearGradient
       gradientUnits="userSpaceOnUse"
       y2="512"
       x2="351.84375"
       y1="0"
       x1="138.67188"
       id="linearGradient4226"
       xlink:href="#linearGradient4338-7"
       inkscape:collect="always" />
    <linearGradient
       inkscape:collect="always"
       xlink:href="#linearGradient4245"
       id="linearGradient4251"
       x1="16"
       y1="304"
       x2="16"
       y2="208"
       gradientUnits="userSpaceOnUse"
       gradientTransform="matrix(0.75,0,0,0.83333332,0,42.666672)" />
    <linearGradient
       inkscape:collect="always"
       xlink:href="#linearGradient4262"
       id="linearGradient4268"
       x1="0"
       y1="258"
       x2="0"
       y2="208"
       gradientUnits="userSpaceOnUse"
       spreadMethod="reflect"
       gradientTransform="matrix(1,0,0,0.83333335,-40,42.999994)" />
    <clipPath
       clipPathUnits="userSpaceOnUse"
       id="clipPath4258">
      <path
         style="color:#000000;display:inline;overflow:visible;visibility:visible;fill:url(#linearGradient4263);fill-opacity:1;fill-rule:nonzero;stroke:none;stroke-width:1;marker:none;enable-background:accumulate"
         d="M 126.05469,18 C -19.242615,18 -40,38.736657 -40,183.89844 l 0,144.20312 C -40,473.26274 -19.242615,494 126.05469,494 l 179.89062,0 C 451.2426,494 472,473.26274 472,328.10156 l 0,-144.20312 C 472,38.736657 451.2426,18 305.94531,18 l -179.89062,0 z"
         id="path4260"
         inkscape:connector-curvature="0" />
    </clipPath>
    <linearGradient
       inkscape:collect="always"
       xlink:href="#linearGradient4220"
       id="linearGradient4263"
       gradientUnits="userSpaceOnUse"
       gradientTransform="translate(-40)"
       x1="0"
       y1="18"
       x2="512"
       y2="494" />
    <filter
       inkscape:collect="always"
       style="color-interpolation-filters:sRGB"
       id="filter4277"
       x="-0.02775"
       width="1.0555"
       y="-0.1776"
       height="1.3552001">
      <feGaussianBlur
         inkscape:collect="always"
         stdDeviation="5.92"
         id="feGaussianBlur4279" />
    </filter>
    <linearGradient
       inkscape:collect="always"
       id="linearGradient4338-7">
      <stop
         style="stop-color:#3e3e3e;stop-opacity:1"
         offset="0"
         id="stop4340-2" />
      <stop
         style="stop-color:#5c5c5c;stop-opacity:1"
         offset="1"
         id="stop4342-6" />
    </linearGradient>
  </defs>
  <metadata
     id="metadata3341">
    <rdf:RDF>
      <cc:Work
         rdf:about="">
        <dc:format>image/svg+xml</dc:format>
        <dc:type
           rdf:resource="http://purl.org/dc/dcmitype/StillImage" />
        <dc:title></dc:title>
      </cc:Work>
    </rdf:RDF>
  </metadata>
  <g
     inkscape:label="Background"
     id="layer3"
     inkscape:groupmode="layer">
    <path
       style="color:#000000;display:inline;overflow:visible;visibility:visible;fill:url(#linearGradient4226);fill-opacity:1;fill-rule:nonzero;stroke:none;stroke-width:1;marker:none;enable-background:accumulate"
       d="M 0 0 L 0 183.89844 L 0 328.10156 L 0 512 L 512 512 L 512 328.10156 L 512 183.89844 L 512 0 L 0 0 z "
       id="rect4158" />
    <text
       xml:space="preserve"
       style="font-style:normal;font-variant:normal;font-weight:normal;font-stretch:normal;font-size:296.13256836px;line-height:125%;font-family:Ubuntu;-inkscape-font-specification:'Ubuntu, Normal';text-align:start;letter-spacing:0px;word-spacing:0px;writing-mode:lr-tb;text-anchor:start;fill:#ececec;fill-opacity:1;stroke:none;stroke-width:1px;stroke-linecap:butt;stroke-linejoin:miter;stroke-opacity:1"
       x="88.766083"
       y="358.758"
       id="text4319"
       sodipodi:linespacing="125%"><tspan
         sodipodi:role="line"
         id="tspan4321"
         x="88.766083"
         y="358.758"
         style="fill:#ececec;stroke-width:1px">28</tspan></text>
    <path
       style="color:#000000;display:inline;overflow:visible;visibility:visible;opacity:0.08;fill:#ffffff;fill-opacity:1;fill-rule:nonzero;stroke:none;stroke-width:1;marker:none;enable-background:accumulate"
       d="M 0 256 L 0 328.10156 L 0 512 L 512 512 L 512 328.10156 L 512 256 L 0 256 z "
       id="path4269" />
    <path
       style="font-style:normal;font-variant:normal;font-weight:normal;font-stretch:normal;font-size:medium;line-height:125%;font-family:Ubuntu;-inkscape-font-specification:'Ubuntu, Normal';text-align:start;letter-spacing:0px;word-spacing:0px;writing-mode:lr-tb;text-anchor:start;fill:#f9f9f9;fill-opacity:1;stroke:none;stroke-width:1px;stroke-linecap:butt;stroke-linejoin:miter;stroke-opacity:1"
       d="m 201.44141,288 c -2.88953,2.92354 -5.88432,5.88246 -9.01172,8.88477 -5.92265,5.92265 -11.94438,12.04188 -18.06446,18.35937 -6.12007,6.31749 -11.64648,13.02953 -16.58203,20.13672 -4.93554,7.10718 -8.98382,14.70845 -12.14258,22.80273 -2.96132,7.89688 -4.4414,16.48486 -4.4414,25.76368 l 0,3.25781 c 0,1.18453 0.0994,2.3682 0.29687,3.55273 l 124.375,0 0,-23.39453 -94.46679,0 c 0,-3.35617 1.28312,-7.305 3.84961,-11.8457 2.7639,-4.5407 6.11992,-9.27735 10.06836,-14.21289 3.94843,-4.93555 8.09422,-9.67415 12.4375,-14.21485 l 11.8457,-11.8457 c 5.92265,-5.92265 11.84492,-11.94438 17.76758,-18.06445 2.86848,-3.05972 5.59076,-6.12029 8.18164,-9.17969 l -34.11328,0 z m 133.30078,0 c -3.38282,2.28229 -6.65225,4.84524 -9.80664,7.69922 -3.94844,3.55359 -7.50141,7.60188 -10.66016,12.14258 -2.96133,4.5407 -5.43008,9.47626 -7.4043,14.80664 -1.77679,5.13296 -2.66406,10.56187 -2.66406,16.28711 0,5.92264 1.08422,12.23883 3.25586,18.95117 2.17163,6.51492 5.82407,12.53665 10.95703,18.06445 5.13297,5.52781 11.94446,10.16696 20.4336,13.91797 8.68655,3.55359 19.44688,5.33008 32.27929,5.33008 11.05562,0 20.82728,-1.48009 29.31641,-4.44141 8.48913,-2.7639 15.49758,-6.71273 21.02539,-11.8457 5.72523,-5.33039 9.97047,-11.44962 12.73437,-18.35938 2.96132,-7.10718 4.44141,-14.80594 4.44141,-23.09765 C 438.28909,315.59614 428.33374,299.11403 408.79688,288 l -74.05469,0 z m 25.13672,6.81055 c 7.89686,1.7768 14.90531,3.94914 21.02539,6.51562 6.3175,2.36906 11.64891,5.32922 15.99218,8.88281 4.5407,3.55359 7.99423,7.70134 10.36329,12.43946 2.36906,4.73812 3.55468,10.26454 3.55468,16.58203 0,4.14585 -0.78976,8.19414 -2.36914,12.14258 -1.57937,3.94844 -3.94867,7.50141 -7.10742,10.66015 -3.15875,2.96132 -7.30453,5.42813 -12.4375,7.40235 -4.93554,1.97422 -10.76032,2.96289 -17.47266,2.96289 -7.50202,0 -13.72071,-1.08617 -18.65625,-3.25782 -4.93554,-2.17162 -8.98187,-4.83734 -12.14062,-7.99609 -3.15875,-3.35617 -5.42859,-6.90915 -6.81055,-10.66015 -1.18452,-3.94845 -1.77734,-7.70032 -1.77734,-11.25391 0,-10.06851 2.3693,-18.75399 7.10742,-26.05859 4.93555,-7.3046 11.84454,-13.42579 20.72852,-18.36133 z"
       transform="translate(-32,-32)"
       id="path4330"
       inkscape:connector-curvature="0" />
  </g>
  <g
     inkscape:label="Pictogram"
     id="layer4"
     inkscape:groupmode="layer">
    <path
       sodipodi:nodetypes="cccsccccccccccccccc"
       style="color:#000000;display:inline;overflow:visible;visibility:visible;opacity:0.05;fill:#ff0000;fill-opacity:0;fill-rule:nonzero;stroke:none;stroke-width:40;marker:none;enable-background:accumulate"
       d="m 219.3125,124 -35.1875,71.65625 0,59.25 c -4.93993,5.78797 -10.33923,11.62048 -15.96875,17.25 -18.50312,18.50309 -39.2477,34.68678 -53.125,39.3125 L 91.65625,288.125 20,323.3125 20,494 l 256,0 0,-317.5625 C 260.58338,142.99385 243.63185,130.51631 219.3125,124 Z M 121.75,353 c 0.007,-0.005 0.0239,0.005 0.0312,0 -2.61074,1.63039 -5.25098,3.22668 -7.90625,4.8125 2.65593,-1.58559 5.2637,-3.18237 7.87505,-4.8125 z m -24.09375,14.0625 c 0.008,-0.004 0.0234,0.004 0.0312,0 -2.74184,1.4991 -5.52861,2.98055 -8.3125,4.4375 2.78427,-1.45683 5.53906,-2.93856 8.2813,-4.4375 z"
       id="path4505-6"
       inkscape:connector-curvature="0" />
    <g
       inkscape:groupmode="maskhelper"
       id="g4255"
       clip-path="url(#clipPath4258)"
       transform="translate(40)"
       style="filter:url(#filter4277)">
      <path
         style="color:#000000;display:inline;overflow:visible;visibility:visible;opacity:0.4;fill:url(#linearGradient4268);fill-opacity:1;fill-rule:nonzero;stroke:none;stroke-width:48;stroke-linecap:butt;stroke-linejoin:miter;stroke-miterlimit:4;stroke-dasharray:none;stroke-dashoffset:0;stroke-opacity:1;marker:none;enable-background:accumulate"
         d="m -40,218 0,80 24,0 0,-80 -24,0 z m 488,0 0,80 24,0 0,-80 -24,0 z"
         id="path4258"
         inkscape:connector-curvature="0" />
    </g>
    <path
       style="color:#000000;display:inline;overflow:visible;visibility:visible;opacity:1;fill:url(#linearGradient4251);fill-opacity:1;fill-rule:nonzero;stroke:none;stroke-width:48;stroke-linecap:butt;stroke-linejoin:miter;stroke-miterlimit:4;stroke-dasharray:none;stroke-dashoffset:0;stroke-opacity:1;marker:none;enable-background:accumulate"
       d="m 0,216 0,80 24,0 0,-80 -24,0 z m 488,0 0,80 24,0 0,-80 -24,0 z"
       id="rect4243"
       inkscape:connector-curvature="0" />
    <path
       style="color:#000000;display:inline;overflow:visible;visibility:visible;opacity:1;fill:#ffffff;fill-opacity:1;fill-rule:nonzero;stroke:none;stroke-width:48;stroke-linecap:butt;stroke-linejoin:miter;stroke-miterlimit:4;stroke-dasharray:none;stroke-dashoffset:0;stroke-opacity:1;marker:none;enable-background:accumulate"
       d="m 0,216 0,2 24,0 0,-2 -24,0 z m 488,0 0,2 24,0 0,-2 -24,0 z"
       id="path4344"
       inkscape:connector-curvature="0" />
  </g>
</svg>
