<?xml version="1.0" encoding="UTF-8" standalone="no"?>
<!-- Created with Inkscape (http://www.inkscape.org/) -->

<svg
   xmlns:dc="http://purl.org/dc/elements/1.1/"
   xmlns:cc="http://creativecommons.org/ns#"
   xmlns:rdf="http://www.w3.org/1999/02/22-rdf-syntax-ns#"
   xmlns:svg="http://www.w3.org/2000/svg"
   xmlns="http://www.w3.org/2000/svg"
   xmlns:xlink="http://www.w3.org/1999/xlink"
   xmlns:sodipodi="http://sodipodi.sourceforge.net/DTD/sodipodi-0.dtd"
   xmlns:inkscape="http://www.inkscape.org/namespaces/inkscape"
   width="512"
   height="512"
   id="svg3336"
   version="1.1"
   inkscape:version="0.92pre1 unknown"
   sodipodi:docname="dialer-app.svg"
   inkscape:export-filename="app_shape02.png"
   inkscape:export-xdpi="180"
   inkscape:export-ydpi="180"
   style="enable-background:new"
   viewBox="0 0 512 512">
  <sodipodi:namedview
     id="base"
     pagecolor="#b4b4b4"
     bordercolor="#666666"
     borderopacity="1.0"
     inkscape:pageopacity="0"
     inkscape:pageshadow="2"
     inkscape:zoom="1"
     inkscape:cx="-344.78176"
     inkscape:cy="210.6722"
     inkscape:document-units="px"
     inkscape:current-layer="layer3"
     showgrid="false"
     inkscape:window-width="1920"
     inkscape:window-height="1029"
     inkscape:window-x="0"
     inkscape:window-y="24"
     inkscape:window-maximized="1"
     inkscape:snap-page="true"
     inkscape:showpageshadow="false"
     showborder="true"
     inkscape:snap-bbox="true"
     inkscape:bbox-paths="true"
     inkscape:bbox-nodes="true"
     inkscape:snap-bbox-edge-midpoints="true"
     inkscape:snap-bbox-midpoints="true"
     inkscape:object-paths="true"
     inkscape:object-nodes="true"
     inkscape:snap-intersection-paths="true"
     inkscape:snap-smooth-nodes="true"
     inkscape:snap-midpoints="true"
     inkscape:snap-object-midpoints="true"
     inkscape:snap-center="true"
     showguides="false"
     inkscape:guide-bbox="true"
     inkscape:snap-grids="true"
     fit-margin-top="18"
     fit-margin-left="0"
     fit-margin-right="0"
     fit-margin-bottom="18"
     inkscape:snap-global="true">
    <inkscape:grid
       enabled="true"
       visible="true"
       originy="15.999999"
       originx="0"
       id="grid811"
       type="xygrid" />
    <sodipodi:guide
       id="guide819"
       position="104,176"
       orientation="1,0"
       inkscape:locked="false" />
    <sodipodi:guide
       id="guide821"
       position="120,160"
       orientation="1,0"
       inkscape:locked="false" />
    <sodipodi:guide
       id="guide823"
       position="392,144"
       orientation="1,0"
       inkscape:locked="false" />
    <sodipodi:guide
       id="guide825"
       position="408,144"
       orientation="1,0"
       inkscape:locked="false" />
    <sodipodi:guide
       id="guide827"
       position="328,408"
       orientation="0,1"
       inkscape:locked="false" />
    <sodipodi:guide
       id="guide829"
       position="336,392"
       orientation="0,1"
       inkscape:locked="false" />
    <sodipodi:guide
       id="guide831"
       position="176,120"
       orientation="0,1"
       inkscape:locked="false" />
    <sodipodi:guide
       id="guide833"
       position="216,104"
       orientation="0,1"
       inkscape:locked="false" />
    <inkscape:grid
       originy="16.999996"
       originx="0"
       enabled="false"
       spacingy="3.522px"
       gridanglez="42.9"
       gridanglex="42.9"
       empspacing="60"
       units="px"
       id="grid835"
       type="axonomgrid" />
    <sodipodi:guide
       id="guide4126"
       position="344,376"
       orientation="0,1"
       inkscape:locked="false" />
    <sodipodi:guide
       id="guide4128"
       position="160,136"
       orientation="0,1"
       inkscape:locked="false" />
    <sodipodi:guide
       id="guide4130"
       position="136,96"
       orientation="1,0"
       inkscape:locked="false" />
    <sodipodi:guide
       id="guide4134"
       position="376,136"
       orientation="1,0"
       inkscape:locked="false" />
    <sodipodi:guide
       id="guide4136"
       position="256,256"
       orientation="-0.70710678,0.70710678"
       inkscape:locked="false" />
    <sodipodi:guide
       id="guide4138"
       position="256,232"
       orientation="1,0"
       inkscape:locked="false" />
    <sodipodi:guide
       id="guide4140"
       position="288,256"
       orientation="0,1"
       inkscape:locked="false" />
    <sodipodi:guide
       id="guide4142"
       position="256,256"
       orientation="0.70710678,0.70710678"
       inkscape:locked="false" />
    <sodipodi:guide
       id="guide4152"
       position="248,15.999999"
       orientation="0,1"
       inkscape:locked="false" />
    <sodipodi:guide
       id="guide4154"
       position="336,496"
       orientation="0,1"
       inkscape:locked="false" />
  </sodipodi:namedview>
  <defs
     id="defs3338">
    <linearGradient
       id="linearGradient4220"
       inkscape:collect="always">
      <stop
         id="stop4222"
         offset="0"
         style="stop-color:#45a926;stop-opacity:1" />
      <stop
         id="stop4224"
         offset="1"
         style="stop-color:#79c32a;stop-opacity:1" />
    </linearGradient>
    <linearGradient
       id="linearGradient4347"
       inkscape:collect="always">
      <stop
         id="stop4349"
         offset="0"
         style="stop-color:#000000;stop-opacity:0" />
      <stop
         style="stop-color:#000000;stop-opacity:1"
         offset="0.49620295"
         id="stop4355" />
      <stop
         id="stop4351"
         offset="1"
         style="stop-color:#000000;stop-opacity:0" />
    </linearGradient>
    <filter
       id="filter4154"
       inkscape:label="Colorize"
       style="color-interpolation-filters:sRGB">
      <feComposite
         k4="0"
         k3="0"
         id="feComposite4156"
         result="composite1"
         k2="1"
         k1="0"
         operator="arithmetic"
         in2="SourceGraphic" />
      <feColorMatrix
         id="feColorMatrix4158"
         result="colormatrix1"
         type="saturate"
         values="0"
         in="composite1" />
      <feFlood
         id="feFlood4160"
         result="flood1"
         flood-color="rgb(89,132,51)"
         flood-opacity="1" />
      <feBlend
         id="feBlend4162"
         result="blend1"
         mode="multiply"
         in2="colormatrix1"
         in="flood1" />
      <feBlend
         id="feBlend4164"
         result="blend2"
         mode="screen"
         in2="blend1" />
      <feColorMatrix
         id="feColorMatrix4166"
         result="colormatrix2"
         type="saturate"
         values="1"
         in="blend2" />
      <feComposite
         id="feComposite4168"
         result="composite2"
         operator="in"
         in2="SourceGraphic"
         in="colormatrix2" />
    </filter>
    <filter
       height="1.048"
       y="-0.024"
       width="1.048"
       x="-0.024"
       id="filter4264"
       style="color-interpolation-filters:sRGB"
       inkscape:collect="always" />
    <linearGradient
       id="linearGradient7537">
      <stop
         id="stop7539"
         offset="0"
         style="stop-color:#44d459;stop-opacity:1" />
      <stop
         id="stop7541"
         offset="1"
         style="stop-color:#38b44a;stop-opacity:1" />
    </linearGradient>
    <clipPath
       id="clipPath4231-6"
       clipPathUnits="userSpaceOnUse">
      <rect
         y="18"
         x="0"
         height="238"
         width="256"
         id="rect4233-8"
         style="color:#000000;display:inline;overflow:visible;visibility:visible;opacity:0.46400003;fill:#ff00ff;fill-opacity:1;fill-rule:nonzero;stroke:none;stroke-width:1;marker:none;enable-background:accumulate" />
    </clipPath>
    <linearGradient
       gradientUnits="userSpaceOnUse"
       y2="494"
       x2="512"
       y1="18"
       x1="0"
       id="linearGradient4226"
       xlink:href="#linearGradient4220"
       inkscape:collect="always" />
    <linearGradient
       gradientUnits="userSpaceOnUse"
       y2="255.66826"
       x2="344.64804"
       y1="236.4198"
       x1="364.34528"
       id="linearGradient4432"
       xlink:href="#linearGradient4142"
       inkscape:collect="always" />
    <linearGradient
       id="linearGradient4142"
       inkscape:collect="always">
      <stop
         id="stop4144"
         offset="0"
         style="stop-color:#88b637;stop-opacity:1" />
      <stop
         id="stop4146"
         offset="1"
         style="stop-color:#88b637;stop-opacity:0" />
    </linearGradient>
    <linearGradient
       gradientTransform="translate(-1.655943e-6,2.8859727)"
       y2="48.20969"
       x2="309.44595"
       y1="463.79126"
       x1="309.44595"
       gradientUnits="userSpaceOnUse"
       id="linearGradient4284"
       xlink:href="#linearGradient4347"
       inkscape:collect="always" />
    <filter
       height="1.1920038"
       y="-0.09600196"
       width="1.1919961"
       x="-0.095998034"
       id="filter4300"
       style="color-interpolation-filters:sRGB"
       inkscape:collect="always">
      <feGaussianBlur
         id="feGaussianBlur4302"
         stdDeviation="16.623603"
         inkscape:collect="always" />
    </filter>
    <filter
       height="1.0240005"
       y="-0.012000245"
       width="1.0239995"
       x="-0.011999755"
       id="filter4315"
       style="color-interpolation-filters:sRGB"
       inkscape:collect="always">
      <feGaussianBlur
         id="feGaussianBlur4317"
         stdDeviation="2.0779504"
         inkscape:collect="always" />
    </filter>
  </defs>
  <metadata
     id="metadata3341">
    <rdf:RDF>
      <cc:Work
         rdf:about="">
        <dc:format>image/svg+xml</dc:format>
        <dc:type
           rdf:resource="http://purl.org/dc/dcmitype/StillImage" />
        <dc:title></dc:title>
      </cc:Work>
    </rdf:RDF>
  </metadata>
  <g
     inkscape:label="Background"
     id="layer3"
     inkscape:groupmode="layer">
    <path
       style="color:#000000;display:inline;overflow:visible;visibility:visible;fill:url(#linearGradient4226);fill-opacity:1;fill-rule:nonzero;stroke:none;stroke-width:1;marker:none;enable-background:accumulate"
       d="M 0 0 L 0 183.89844 L 0 328.10156 L 0 512 L 512 512 L 512 328.10156 L 512 183.89844 L 512 0 L 0 0 z "
       id="rect4158" />
    <path
       style="color:#000000;display:inline;overflow:visible;visibility:visible;opacity:0.1;fill:#ffffff;fill-opacity:1;fill-rule:nonzero;stroke:none;stroke-width:1;marker:none;enable-background:accumulate"
       d="M 0 256 L 0 328.10156 L 0 512 L 512 512 L 512 328.10156 L 512 256 L 0 256 z "
       id="path4269" />
    <path
       id="path4245"
       transform="translate(-32,-32)"
       d="M 163.31445,144 C 150.44024,144 144,143.99977 144,158.99609 v 18.00782 C 144,192.00022 150.44024,192 163.31445,192 h 9.375 C 185.56366,192 192,192.00022 192,177.00391 V 158.99609 C 192,144.53538 185.56366,144 172.68945,144 Z m 60,0 C 210.44024,144 204,143.99977 204,158.99609 v 18.00782 C 204,192.00022 210.44024,192 223.31445,192 h 9.375 C 245.56366,192 252,192.00022 252,177.00391 V 158.99609 C 252,144.53538 245.56366,144 232.68945,144 Z m 60,0 C 270.44024,144 264,143.99977 264,158.99609 v 18.00782 C 264,192.00022 270.44024,192 283.31445,192 h 9.375 C 305.56366,192 312,192.00022 312,177.00391 V 158.99609 C 312,144.53538 305.56366,144 292.68945,144 Z m -120,60 C 150.44024,204 144,203.99977 144,218.99609 v 18.00782 C 144,252.00022 150.44024,252 163.31445,252 h 9.375 C 185.56366,252 192,252.00022 192,237.00391 V 218.99609 C 192,204.53538 185.56366,204 172.68945,204 Z m 60,0 C 210.44024,204 204,203.99977 204,218.99609 v 18.00782 C 204,252.00022 210.44024,252 223.31445,252 h 9.375 C 245.56366,252 252,252.00022 252,237.00391 V 218.99609 C 252,204.53538 245.56366,204 232.68945,204 Z m -60,60 C 150.44024,264 144,263.99977 144,278.99609 v 18.00782 C 144,312.00022 150.44024,312 163.31445,312 h 9.375 C 185.56366,312 192,312.00022 192,297.00391 V 278.99609 C 192,264.53538 185.56366,264 172.68945,264 Z"
       style="color:#000000;display:inline;overflow:visible;visibility:visible;opacity:0.2;fill:#a4ff80;fill-opacity:1;fill-rule:nonzero;stroke:none;stroke-width:10;marker:none;enable-background:accumulate"
       inkscape:connector-curvature="0" />
  </g>
  <g
     inkscape:label="Pictogram"
     id="layer4"
     inkscape:groupmode="layer">
    <path
       sodipodi:nodetypes="cccsccccccccccccccc"
       style="color:#000000;display:inline;overflow:visible;visibility:visible;opacity:0.05;fill:#ff0000;fill-opacity:0;fill-rule:nonzero;stroke:none;stroke-width:40;marker:none;enable-background:accumulate"
       d="m 219.3125,124 -35.1875,71.65625 v 59.25 c -4.93993,5.78797 -10.33923,11.62048 -15.96875,17.25 -18.50312,18.50309 -39.2477,34.68678 -53.125,39.3125 L 91.65625,288.125 20,323.3125 V 494 H 276 V 176.4375 C 260.58338,142.99385 243.63185,130.51631 219.3125,124 Z M 121.75,353 c 0.007,-0.005 0.0239,0.005 0.0312,0 -2.61074,1.63039 -5.25098,3.22668 -7.90625,4.8125 2.65593,-1.58559 5.2637,-3.18237 7.87505,-4.8125 z m -24.09375,14.0625 c 0.008,-0.004 0.0234,0.004 0.0312,0 -2.74184,1.4991 -5.52861,2.98055 -8.3125,4.4375 2.78427,-1.45683 5.53906,-2.93856 8.2813,-4.4375 z"
       id="path4505-6"
       inkscape:connector-curvature="0" />
    <g
       style="stroke-width:1.44298828;enable-background:new"
       transform="matrix(0.6930063,0,0,0.6930063,78.65179,78.59038)"
       id="g4342">
      <path
         inkscape:connector-curvature="0"
         id="path4277"
         d="m 377.0604,51.095662 -52.99035,120.503618 25.46366,42.43569 c -0.0369,0.0579 -0.0783,0.11964 -0.11555,0.17756 l 4.41915,7.42913 c -19.13771,25.88597 -40.55985,49.80119 -62.6037,71.8535 l 0.003,0.003 c -0.0523,0.0521 -0.10561,0.10277 -0.15783,0.15501 l -0.15782,0.15782 c -22.08963,22.08117 -46.04947,43.53441 -71.98595,62.69671 l -7.42069,-4.41351 c -0.0579,0.0372 -0.11684,0.0787 -0.17473,0.11556 L 168.9037,326.74871 48.400091,379.73625 c 8.44659,37.30755 21.008251,101.08139 77.786089,84.13298 52.31512,-15.61629 96.19126,-46.80634 135.5197,-81.92059 l -0.008,-0.006 c 21.41516,-17.9596 41.50101,-37.33726 60.76333,-56.5922 l 0.003,0.003 0.15784,-0.15784 c 0.0517,-0.0517 0.10326,-0.10617 0.155,-0.15782 19.21912,-19.22646 38.55928,-39.2746 56.49074,-60.64496 l 0.006,0.008 C 414.38706,225.07303 445.57427,181.19689 461.19057,128.88175 478.13896,72.103926 414.36794,59.542266 377.0604,51.095662 Z"
         style="color:#000000;display:inline;overflow:visible;visibility:visible;opacity:0.2;fill:url(#linearGradient4284);fill-opacity:1;fill-rule:nonzero;stroke:none;stroke-width:17.31585884;marker:none;filter:url(#filter4300);enable-background:accumulate" />
      <path
         id="path4277-6"
         d="m 377.06041,51.095748 -52.99036,120.503632 25.46366,42.43569 c -0.0369,0.0579 -0.0784,0.11962 -0.11558,0.17756 l 4.41915,7.42912 c -19.1377,25.88597 -40.55984,49.80119 -62.6037,71.8535 l 0.003,0.003 c -0.0524,0.0521 -0.10562,0.10274 -0.15783,0.15501 l -0.15782,0.15782 c -22.08964,22.08115 -46.04948,43.53439 -71.98597,62.6967 l -7.42068,-4.41351 c -0.0579,0.0372 -0.11688,0.0786 -0.17473,0.11558 L 168.9037,326.7488 48.400094,379.73634 c 8.44659,37.30756 21.00825,101.08139 77.786086,84.13299 52.31513,-15.61629 96.19126,-46.80634 135.51971,-81.9206 l -0.009,-0.006 c 21.41516,-17.9596 41.50101,-37.33726 60.76333,-56.5922 l 0.003,0.003 0.15784,-0.15783 c 0.0516,-0.0518 0.10331,-0.10621 0.155,-0.15782 19.21912,-19.22647 38.55928,-39.27461 56.49074,-60.64496 l 0.006,0.009 C 414.38706,225.07347 445.57427,181.19733 461.19058,128.8822 478.13897,72.104238 414.36795,59.542578 377.06041,51.095968 Z"
         style="color:#000000;display:inline;overflow:visible;visibility:visible;opacity:0.1;fill:#000000;fill-opacity:1;fill-rule:nonzero;stroke:none;stroke-width:17.31585884;marker:none;filter:url(#filter4315);enable-background:accumulate"
         inkscape:connector-curvature="0" />
      <path
         style="color:#000000;display:inline;overflow:visible;visibility:visible;fill:#e5f1d0;fill-opacity:1;fill-rule:nonzero;stroke:none;stroke-width:11.99999905;marker:none;enable-background:accumulate"
         d="m 400.08398,157.86914 c 1.49968,5.84872 1.34031,12.70746 -1.07617,20.80274 -15.7082,52.62299 -49.89392,96.6631 -86.52929,133.3125 l 0.002,0.002 c -0.0363,0.0361 -0.0732,0.0712 -0.10938,0.10742 l -0.10937,0.10937 c -15.30825,15.30239 -31.91257,30.16962 -49.88672,43.44922 l -5.14258,-3.05859 c -0.0401,0.0258 -0.081,0.0545 -0.12109,0.0801 L 227.70312,335.0293 144.19336,371.75 c 5.85354,25.85437 14.55885,70.05004 53.90625,58.30469 36.25471,-10.82219 66.66115,-32.43709 93.91601,-56.77149 l -0.006,-0.004 c 14.84084,-12.44612 28.76046,-25.87496 42.10937,-39.21875 l 0.002,0.002 0.10938,-0.10938 c 0.0358,-0.0359 0.0716,-0.0736 0.10742,-0.10937 36.63538,-36.64938 73.94415,-77.56842 89.65234,-130.19141 7.34223,-24.59674 -6.08826,-37.81376 -23.90625,-45.7832 z"
         transform="matrix(1.4429883,0,0,1.4429883,-159.66924,-159.58063)"
         id="path4341"
         inkscape:connector-curvature="0" />
      <path
         inkscape:connector-curvature="0"
         id="path4421"
         d="m 378.77734,181.50977 c -12.58725,20.968 -26.92112,40.7735 -42.28906,59.46875 l 23.56641,42.42578 c 19.40976,-21.24813 37.87044,-43.73219 53.67773,-68.02344 z"
         style="color:#000000;display:inline;overflow:visible;visibility:visible;opacity:0.1;fill:url(#linearGradient4432);fill-opacity:1;fill-rule:nonzero;stroke:none;stroke-width:4.32896471;stroke-linecap:butt;stroke-linejoin:miter;stroke-miterlimit:4;stroke-dasharray:none;stroke-dashoffset:0;stroke-opacity:1;marker:none;enable-background:accumulate" />
      <path
         inkscape:connector-curvature="0"
         id="path4325"
         d="M 377.06066,48.209688 324.07131,168.71216 349.533,211.15004 c -0.0369,0.0579 -0.0787,0.11725 -0.11594,0.17517 l 29.85642,50.18919 c 35.11426,-39.32844 66.30214,-83.20317 81.91844,-135.51831 16.9484,-56.77783 -46.82372,-69.339804 -84.13126,-77.786402 z"
         style="color:#000000;display:inline;overflow:visible;visibility:visible;opacity:1;fill:#f1f8e7;fill-opacity:1;fill-rule:nonzero;stroke:none;stroke-width:11.54390335;stroke-linecap:butt;stroke-linejoin:miter;stroke-miterlimit:4;stroke-dasharray:none;stroke-dashoffset:0;stroke-opacity:1;marker:none;enable-background:accumulate" />
      <path
         inkscape:connector-curvature="0"
         id="path4349"
         transform="matrix(1.4429883,0,0,1.4429883,-113.49361,-113.405)"
         d="m 339.95703,112 -36.72265,83.50977 0.50781,0.8457 L 339.95703,114 c 22.61992,5.12126 59.27826,12.42563 60.23047,40.52344 C 400.94154,124.7708 363.10345,117.24046 339.95703,112 Z m -16.75976,119.07031 c -13.09464,17.59853 -27.69452,33.88407 -42.71875,48.91407 l 0.002,0.002 c -0.0363,0.0361 -0.0732,0.0712 -0.10938,0.10742 l -0.10937,0.10937 c -15.30825,15.30239 -31.91257,30.16962 -49.88672,43.44922 l -5.14258,-3.05859 c -0.0401,0.0258 -0.081,0.0545 -0.12109,0.0801 L 195.70312,303.0293 112.19336,339.75 c 0.13199,0.583 0.27494,1.21951 0.41016,1.82031 l 83.0996,-36.54101 29.40821,17.64453 c 0.0401,-0.0255 0.081,-0.0543 0.12109,-0.0801 l 5.14258,3.05859 c 17.97415,-13.2796 34.57847,-28.14683 49.88672,-43.44922 l 0.10937,-0.10937 c 0.0362,-0.0362 0.0731,-0.0713 0.10938,-0.10742 l -0.002,-0.002 c 15.27653,-15.28239 30.12221,-31.85579 43.38476,-49.79493 l -0.66601,-1.11914 z"
         style="color:#000000;display:inline;overflow:visible;visibility:visible;opacity:0.6;fill:#ffffff;fill-opacity:1;fill-rule:nonzero;stroke:none;stroke-width:11.99999905;marker:none;enable-background:accumulate" />
    </g>
  </g>
</svg>
