<?xml version="1.0" encoding="UTF-8" standalone="no"?>
<!-- Created with Inkscape (http://www.inkscape.org/) -->

<svg
   xmlns:dc="http://purl.org/dc/elements/1.1/"
   xmlns:cc="http://creativecommons.org/ns#"
   xmlns:rdf="http://www.w3.org/1999/02/22-rdf-syntax-ns#"
   xmlns:svg="http://www.w3.org/2000/svg"
   xmlns="http://www.w3.org/2000/svg"
   xmlns:xlink="http://www.w3.org/1999/xlink"
   xmlns:sodipodi="http://sodipodi.sourceforge.net/DTD/sodipodi-0.dtd"
   xmlns:inkscape="http://www.inkscape.org/namespaces/inkscape"
   width="512"
   height="512"
   id="svg3336"
   version="1.1"
   inkscape:version="0.92pre1 unknown"
   sodipodi:docname="maps-app.svg"
   inkscape:export-filename="app_shape02.png"
   inkscape:export-xdpi="180"
   inkscape:export-ydpi="180"
   style="enable-background:new"
   viewBox="0 0 512 512">
  <defs
     id="defs3338">
    <filter
       style="color-interpolation-filters:sRGB"
       inkscape:label="Colorize"
       id="filter4154">
      <feComposite
         in2="SourceGraphic"
         operator="arithmetic"
         k1="0"
         k2="1"
         result="composite1"
         id="feComposite4156"
         k3="0"
         k4="0" />
      <feColorMatrix
         in="composite1"
         values="0"
         type="saturate"
         result="colormatrix1"
         id="feColorMatrix4158" />
      <feFlood
         flood-opacity="1"
         flood-color="rgb(89,132,51)"
         result="flood1"
         id="feFlood4160" />
      <feBlend
         in="flood1"
         in2="colormatrix1"
         mode="multiply"
         result="blend1"
         id="feBlend4162" />
      <feBlend
         in2="blend1"
         mode="screen"
         result="blend2"
         id="feBlend4164" />
      <feColorMatrix
         in="blend2"
         values="1"
         type="saturate"
         result="colormatrix2"
         id="feColorMatrix4166" />
      <feComposite
         in="colormatrix2"
         in2="SourceGraphic"
         operator="in"
         result="composite2"
         id="feComposite4168" />
    </filter>
    <filter
       inkscape:collect="always"
       style="color-interpolation-filters:sRGB"
       id="filter4264"
       x="-0.024"
       width="1.048"
       y="-0.024"
       height="1.048" />
    <linearGradient
       id="linearGradient7537">
      <stop
         style="stop-color:#44d459;stop-opacity:1"
         offset="0"
         id="stop7539" />
      <stop
         style="stop-color:#38b44a;stop-opacity:1"
         offset="1"
         id="stop7541" />
    </linearGradient>
    <clipPath
       clipPathUnits="userSpaceOnUse"
       id="clipPath4231-6">
      <rect
         style="color:#000000;display:inline;overflow:visible;visibility:visible;opacity:0.46400003;fill:#ff00ff;fill-opacity:1;fill-rule:nonzero;stroke:none;stroke-width:1;marker:none;enable-background:accumulate"
         id="rect4233-8"
         width="256"
         height="238"
         x="0"
         y="18" />
    </clipPath>
    <clipPath
       clipPathUnits="userSpaceOnUse"
       id="clipPath4273">
      <path
         inkscape:connector-curvature="0"
         id="path4275"
         d="M 166.05469,18 C 20.757385,18 0,38.736657 0,183.89844 V 328.10156 C 0,473.26274 20.757385,494 166.05469,494 H 345.94531 C 491.2426,494 512,473.26274 512,328.10156 V 183.89844 C 512,38.736657 491.2426,18 345.94531,18 Z"
         style="color:#000000;display:inline;overflow:visible;visibility:visible;fill:#2ab7ec;fill-opacity:1;fill-rule:nonzero;stroke:none;stroke-width:1;marker:none;enable-background:accumulate" />
    </clipPath>
    <linearGradient
       inkscape:collect="always"
       xlink:href="#linearGradient5588"
       id="linearGradient4250"
       x1="681.4715"
       y1="15.511845"
       x2="762.90112"
       y2="15.511845"
       gradientUnits="userSpaceOnUse"
       spreadMethod="reflect"
       gradientTransform="translate(-337.22615,127.39245)" />
    <linearGradient
       inkscape:collect="always"
       id="linearGradient5588">
      <stop
         style="stop-color:#ffffff;stop-opacity:1;"
         offset="0"
         id="stop5590" />
      <stop
         style="stop-color:#ffffff;stop-opacity:0;"
         offset="1"
         id="stop5592" />
    </linearGradient>
    <linearGradient
       gradientTransform="translate(-307.22615,125.39245)"
       inkscape:collect="always"
       xlink:href="#linearGradient4311"
       id="linearGradient4317"
       x1="667.97504"
       y1="-19.787647"
       x2="667.97504"
       y2="282.68454"
       gradientUnits="userSpaceOnUse" />
    <linearGradient
       inkscape:collect="always"
       id="linearGradient4311">
      <stop
         style="stop-color:#000000;stop-opacity:0"
         offset="0"
         id="stop4313" />
      <stop
         id="stop4319"
         offset="0.50383204"
         style="stop-color:#000000;stop-opacity:1" />
      <stop
         style="stop-color:#000000;stop-opacity:0;"
         offset="1"
         id="stop4315" />
    </linearGradient>
    <filter
       inkscape:collect="always"
       style="color-interpolation-filters:sRGB"
       id="filter4321"
       x="-0.1380356"
       width="1.2760712"
       y="-0.073589876"
       height="1.1471798">
      <feGaussianBlur
         inkscape:collect="always"
         stdDeviation="9.3237456"
         id="feGaussianBlur4323" />
    </filter>
    <filter
       inkscape:collect="always"
       style="color-interpolation-filters:sRGB"
       id="filter4398"
       x="-0.017254449"
       width="1.0345089"
       y="-0.0091987345"
       height="1.0183975">
      <feGaussianBlur
         inkscape:collect="always"
         stdDeviation="1.1654682"
         id="feGaussianBlur4400" />
    </filter>
  </defs>
  <sodipodi:namedview
     id="base"
     pagecolor="#b4b4b4"
     bordercolor="#666666"
     borderopacity="1.0"
     inkscape:pageopacity="0"
     inkscape:pageshadow="2"
     inkscape:zoom="0.64"
     inkscape:cx="-586.69021"
     inkscape:cy="268.00342"
     inkscape:document-units="px"
     inkscape:current-layer="layer3"
     showgrid="false"
     inkscape:window-width="1920"
     inkscape:window-height="1029"
     inkscape:window-x="0"
     inkscape:window-y="24"
     inkscape:window-maximized="1"
     inkscape:snap-page="true"
     inkscape:showpageshadow="false"
     showborder="true"
     inkscape:snap-bbox="true"
     inkscape:bbox-paths="true"
     inkscape:bbox-nodes="true"
     inkscape:snap-bbox-edge-midpoints="true"
     inkscape:snap-bbox-midpoints="true"
     inkscape:object-paths="true"
     inkscape:object-nodes="true"
     inkscape:snap-intersection-paths="true"
     inkscape:snap-smooth-nodes="true"
     inkscape:snap-midpoints="true"
     inkscape:snap-object-midpoints="true"
     inkscape:snap-center="true"
     showguides="false"
     inkscape:guide-bbox="true"
     inkscape:snap-grids="true"
     fit-margin-top="18"
     fit-margin-left="0"
     fit-margin-right="0"
     fit-margin-bottom="18"
     inkscape:snap-global="true">
    <inkscape:grid
       type="xygrid"
       id="grid811"
       originx="0"
       originy="15.999999"
       visible="true"
       enabled="true" />
    <sodipodi:guide
       orientation="1,0"
       position="104,176"
       id="guide819"
       inkscape:locked="false" />
    <sodipodi:guide
       orientation="1,0"
       position="120,160"
       id="guide821"
       inkscape:locked="false" />
    <sodipodi:guide
       orientation="1,0"
       position="392,144"
       id="guide823"
       inkscape:locked="false" />
    <sodipodi:guide
       orientation="1,0"
       position="408,144"
       id="guide825"
       inkscape:locked="false" />
    <sodipodi:guide
       orientation="0,1"
       position="328,408"
       id="guide827"
       inkscape:locked="false" />
    <sodipodi:guide
       orientation="0,1"
       position="336,392"
       id="guide829"
       inkscape:locked="false" />
    <sodipodi:guide
       orientation="0,1"
       position="176,120"
       id="guide831"
       inkscape:locked="false" />
    <sodipodi:guide
       orientation="0,1"
       position="216,104"
       id="guide833"
       inkscape:locked="false" />
    <inkscape:grid
       type="axonomgrid"
       id="grid835"
       units="px"
       empspacing="60"
       gridanglex="42.9"
       gridanglez="42.9"
       spacingy="3.522px"
       enabled="false"
       originx="0"
       originy="16.999996" />
    <sodipodi:guide
       orientation="0,1"
       position="344,376"
       id="guide4126"
       inkscape:locked="false" />
    <sodipodi:guide
       orientation="0,1"
       position="160,136"
       id="guide4128"
       inkscape:locked="false" />
    <sodipodi:guide
       orientation="1,0"
       position="136,96"
       id="guide4130"
       inkscape:locked="false" />
    <sodipodi:guide
       orientation="1,0"
       position="376,136"
       id="guide4134"
       inkscape:locked="false" />
    <sodipodi:guide
       orientation="-0.70710678,0.70710678"
       position="256,256"
       id="guide4136"
       inkscape:locked="false" />
    <sodipodi:guide
       orientation="1,0"
       position="256,232"
       id="guide4138"
       inkscape:locked="false" />
    <sodipodi:guide
       orientation="0,1"
       position="288,256"
       id="guide4140"
       inkscape:locked="false" />
    <sodipodi:guide
       orientation="0.70710678,0.70710678"
       position="256,256"
       id="guide4142"
       inkscape:locked="false" />
    <sodipodi:guide
       orientation="0,1"
       position="248,15.999999"
       id="guide4152"
       inkscape:locked="false" />
    <sodipodi:guide
       orientation="0,1"
       position="336,496"
       id="guide4154"
       inkscape:locked="false" />
  </sodipodi:namedview>
  <metadata
     id="metadata3341">
    <rdf:RDF>
      <cc:Work
         rdf:about="">
        <dc:format>image/svg+xml</dc:format>
        <dc:type
           rdf:resource="http://purl.org/dc/dcmitype/StillImage" />
        <dc:title></dc:title>
      </cc:Work>
    </rdf:RDF>
  </metadata>
  <g
     inkscape:groupmode="layer"
     id="layer3"
     inkscape:label="Background">
    <path
       style="color:#000000;display:inline;overflow:visible;visibility:visible;fill:#37b4f0;fill-opacity:1;fill-rule:nonzero;stroke:none;stroke-width:1;marker:none;enable-background:accumulate"
       d="M 0 0 L 0 183.89844 L 0 328.10156 L 0 512 L 512 512 L 512 328.10156 L 512 183.89844 L 512 0 L 0 0 z "
       id="rect4158" />
    <path
       style="color:#000000;display:inline;overflow:visible;visibility:visible;fill:#ece9e2;fill-opacity:1;fill-rule:nonzero;stroke:none;stroke-width:2.00627851;marker:none;enable-background:accumulate"
       clip-path="none"
       d="M 289.51953 0 L 195.70312 372.92773 L 327.83203 512 L 512 512 L 512 328.10156 L 512 183.89844 L 512 0 L 289.51953 0 z "
       id="path4267" />
    <path
       style="color:#000000;display:inline;overflow:visible;visibility:visible;fill:#95d353;fill-opacity:1;fill-rule:nonzero;stroke:none;stroke-width:2.00627851;marker:none;enable-background:accumulate"
       d="M 0 0 L 0 170.69727 L 201.16406 377.79297 L 512 46.431641 L 512 0 L 0 0 z "
       id="path4208" />
    <path
       style="color:#000000;display:inline;overflow:visible;visibility:visible;fill:#f9f9f9;fill-opacity:0.99607843;fill-rule:nonzero;stroke:none;stroke-width:2.00627851;marker:none;enable-background:accumulate"
       d="M 0 141.82812 L 0 183.89844 L 0 199.89453 L 305.16406 512 L 361.9375 512 L 0 141.82812 z "
       id="rect4236" />
    <path
       style="color:#000000;display:inline;overflow:visible;visibility:visible;fill:#ffe44c;fill-opacity:1;fill-rule:nonzero;stroke:none;stroke-width:4.01255703;marker:none;enable-background:accumulate"
       d="M 512 28.695312 L 26.125 512 L 83.552734 512 L 512 85.820312 L 512 28.695312 z "
       id="path4288" />
    <path
       style="color:#000000;display:inline;overflow:visible;visibility:visible;opacity:0.15;fill:#ffffff;fill-opacity:1;fill-rule:nonzero;stroke:none;stroke-width:0.99999994;marker:none;enable-background:accumulate"
       d="M 0 256 L 0 328.10156 L 0 512 L 512 512 L 512 328.10156 L 512 256 L 0 256 z "
       id="path4269" />
    <rect
       style="color:#000000;display:inline;overflow:visible;visibility:visible;opacity:0.15;fill:#ffffff;fill-opacity:1;fill-rule:nonzero;stroke:none;stroke-width:2;stroke-linecap:butt;stroke-linejoin:miter;stroke-miterlimit:4;stroke-dasharray:none;stroke-dashoffset:0;stroke-opacity:1;marker:none;enable-background:accumulate"
       id="rect4277"
       width="179.89101"
       height="512"
       x="166.05469"
       y="-8.3374026e-08" />
    <g
       style="enable-background:new"
       id="g4212"
       transform="translate(-341.22615,107.39245)" />
  </g>
  <g
     inkscape:groupmode="layer"
     id="layer4"
     inkscape:label="Pictogram"
     sodipodi:insensitive="true">
    <path
       inkscape:connector-curvature="0"
       id="path4505-6"
       d="m 219.3125,124 -35.1875,71.65625 v 59.25 c -4.93993,5.78797 -10.33923,11.62048 -15.96875,17.25 -18.50312,18.50309 -39.2477,34.68678 -53.125,39.3125 L 91.65625,288.125 20,323.3125 V 494 H 276 V 176.4375 C 260.58338,142.99385 243.63185,130.51631 219.3125,124 Z M 121.75,353 c 0.007,-0.005 0.0239,0.005 0.0312,0 -2.61074,1.63039 -5.25098,3.22668 -7.90625,4.8125 2.65593,-1.58559 5.2637,-3.18237 7.87505,-4.8125 z m -24.09375,14.0625 c 0.008,-0.004 0.0234,0.004 0.0312,0 -2.74184,1.4991 -5.52861,2.98055 -8.3125,4.4375 2.78427,-1.45683 5.53906,-2.93856 8.2813,-4.4375 z"
       style="color:#000000;display:inline;overflow:visible;visibility:visible;opacity:0.05;fill:#ff0000;fill-opacity:0;fill-rule:nonzero;stroke:none;stroke-width:40;marker:none;enable-background:accumulate"
       sodipodi:nodetypes="cccsccccccccccccccc" />
    <path
       inkscape:connector-curvature="0"
       style="color:#000000;display:inline;overflow:visible;visibility:visible;opacity:0.1;fill:#000000;fill-opacity:1;fill-rule:nonzero;stroke:none;stroke-width:3;marker:none;filter:url(#filter4398);enable-background:accumulate"
       d="m 344.62023,104 c -44.76554,0 -81.05518,36.28966 -81.05518,81.05519 0,8.88851 1.49956,17.4171 4.14327,25.41957 0.26885,0.81383 0.48141,1.64776 0.77513,2.44993 2.06461,6.83163 32.32582,106.11802 76.22181,195.15231 0.0123,0 0.0303,-0.007 0.0445,-0.0201 0.0175,-0.009 0.0336,-0.027 0.0496,-0.0448 0.0175,-0.0175 0.0338,-0.0345 0.0504,-0.0462 0.0175,-0.0123 0.0338,-0.0236 0.0473,-0.0236 46.90025,-97.24086 76.71206,-197.46607 76.71206,-197.46607 h -0.0236 c 2.64047,-7.99809 4.08981,-16.53778 4.08981,-25.42064 2.1e-4,-44.76582 -36.28945,-81.05548 -81.05497,-81.05548 z"
       id="path4394"
       inkscape:transform-center-x="0.2769014"
       inkscape:transform-center-y="-151.90341" />
    <path
       inkscape:connector-curvature="0"
       style="color:#000000;display:inline;overflow:visible;visibility:visible;opacity:0.4;fill:url(#linearGradient4317);fill-opacity:1;fill-rule:nonzero;stroke:none;stroke-width:3;marker:none;filter:url(#filter4321);enable-background:accumulate"
       d="m 344.62023,104 c -44.76554,0 -81.05518,36.28966 -81.05518,81.05519 0,8.88851 1.49956,17.4171 4.14327,25.41957 0.26885,0.81383 0.48141,1.64776 0.77513,2.44993 2.06461,6.83163 32.32582,106.11802 76.22181,195.15231 0.0123,0 0.0303,-0.007 0.0445,-0.0201 0.0175,-0.009 0.0336,-0.027 0.0496,-0.0448 0.0175,-0.0175 0.0338,-0.0345 0.0504,-0.0462 0.0175,-0.0123 0.0338,-0.0236 0.0473,-0.0236 46.90025,-97.24086 76.71206,-197.46607 76.71206,-197.46607 h -0.0236 c 2.64047,-7.99809 4.08981,-16.53778 4.08981,-25.42064 2.1e-4,-44.76582 -36.28945,-81.05548 -81.05497,-81.05548 z"
       id="path4307"
       inkscape:transform-center-x="0.2769014"
       inkscape:transform-center-y="-151.90341" />
    <path
       inkscape:transform-center-y="-151.90341"
       inkscape:transform-center-x="0.2769014"
       id="path4789"
       d="m 344.62023,102 c -44.76554,0 -81.05518,36.28966 -81.05518,81.05519 0,8.88851 1.49956,17.4171 4.14327,25.41957 0.26885,0.81383 0.48141,1.64776 0.77513,2.44993 2.06461,6.83163 32.32582,106.11802 76.22181,195.15231 0.0123,0 0.0303,-0.007 0.0445,-0.0201 0.0175,-0.009 0.0336,-0.027 0.0496,-0.0448 0.0175,-0.0175 0.0338,-0.0345 0.0504,-0.0462 0.0175,-0.0123 0.0338,-0.0236 0.0473,-0.0236 46.90025,-97.24086 76.71206,-197.46607 76.71206,-197.46607 h -0.0236 c 2.64047,-7.99809 4.08981,-16.53778 4.08981,-25.42064 2.1e-4,-44.76582 -36.28945,-81.05548 -81.05497,-81.05548 z"
       style="color:#000000;display:inline;overflow:visible;visibility:visible;fill:#f02e44;fill-opacity:1;fill-rule:nonzero;stroke:none;stroke-width:3;marker:none;enable-background:accumulate"
       inkscape:connector-curvature="0" />
    <circle
       inkscape:transform-center-y="-222.88671"
       inkscape:transform-center-x="0.2768527"
       style="color:#000000;display:inline;overflow:visible;visibility:visible;opacity:1;fill:#cd0f24;fill-opacity:1;fill-rule:nonzero;stroke:none;stroke-width:2;marker:none;enable-background:accumulate"
       id="path4793"
       cx="344.62024"
       cy="183.05521"
       r="40.63031" />
    <path
       style="color:#000000;display:inline;overflow:visible;visibility:visible;opacity:0.4;fill:url(#linearGradient4250);fill-opacity:1;fill-rule:nonzero;stroke:none;stroke-width:3;marker:none;enable-background:accumulate"
       d="m 344.62032,102 c -44.76554,0 -81.05469,36.28915 -81.05469,81.05469 0,0.24865 0.0133,0.4941 0.0156,0.74219 C 264.2543,139.61214 300.27534,104 344.62029,104 c 44.34884,0 80.37238,35.61817 81.03906,79.80859 0.002,-0.25185 0.0156,-0.50149 0.0156,-0.7539 C 425.67516,138.28887 389.38578,102 344.62026,102 Z"
       id="path4235"
       inkscape:connector-curvature="0" />
  </g>
</svg>
