<?xml version="1.0" encoding="UTF-8" standalone="no"?>
<!-- Created with Inkscape (http://www.inkscape.org/) -->

<svg
   xmlns:dc="http://purl.org/dc/elements/1.1/"
   xmlns:cc="http://creativecommons.org/ns#"
   xmlns:rdf="http://www.w3.org/1999/02/22-rdf-syntax-ns#"
   xmlns:svg="http://www.w3.org/2000/svg"
   xmlns="http://www.w3.org/2000/svg"
   xmlns:xlink="http://www.w3.org/1999/xlink"
   xmlns:sodipodi="http://sodipodi.sourceforge.net/DTD/sodipodi-0.dtd"
   xmlns:inkscape="http://www.inkscape.org/namespaces/inkscape"
   width="512"
   height="512"
   id="svg3336"
   version="1.1"
   inkscape:version="0.92pre1 unknown"
   sodipodi:docname="music-app.svg"
   inkscape:export-filename="app_shape02.png"
   inkscape:export-xdpi="180"
   inkscape:export-ydpi="180"
   style="enable-background:new"
   viewBox="0 0 512 512">
  <defs
     id="defs3338">
    <linearGradient
       inkscape:collect="always"
       id="linearGradient4335">
      <stop
         style="stop-color:#ff9169;stop-opacity:1"
         offset="0"
         id="stop4331" />
      <stop
         style="stop-color:#ff9069;stop-opacity:0"
         offset="1"
         id="stop4333" />
    </linearGradient>
    <linearGradient
       inkscape:collect="always"
       id="linearGradient4417">
      <stop
         style="stop-color:#000000;stop-opacity:1;"
         offset="0"
         id="stop4413" />
      <stop
         style="stop-color:#000000;stop-opacity:0;"
         offset="1"
         id="stop4415" />
    </linearGradient>
    <linearGradient
       inkscape:collect="always"
       id="linearGradient4319">
      <stop
         style="stop-color:#fed965;stop-opacity:1"
         offset="0"
         id="stop4322" />
      <stop
         style="stop-color:#fed965;stop-opacity:0"
         offset="1"
         id="stop4324" />
    </linearGradient>
    <linearGradient
       inkscape:collect="always"
       id="linearGradient4290">
      <stop
         style="stop-color:#ef1e5f;stop-opacity:1"
         offset="0"
         id="stop4292" />
      <stop
         id="stop4272"
         offset="0.48271722"
         style="stop-color:#f1374c;stop-opacity:1" />
      <stop
         style="stop-color:#ff725b;stop-opacity:1"
         offset="1"
         id="stop4294" />
    </linearGradient>
    <linearGradient
       inkscape:collect="always"
       id="linearGradient4338">
      <stop
         style="stop-color:#ef5145;stop-opacity:0"
         offset="0"
         id="stop4340" />
      <stop
         id="stop4346"
         offset="1"
         style="stop-color:#ef5145;stop-opacity:1" />
    </linearGradient>
    <linearGradient
       inkscape:collect="always"
       xlink:href="#linearGradient4290"
       id="linearGradient4296"
       x1="34"
       y1="41.649899"
       x2="475.40479"
       y2="478.30945"
       gradientUnits="userSpaceOnUse" />
    <linearGradient
       inkscape:collect="always"
       xlink:href="#linearGradient4335"
       id="linearGradient4348"
       x1="456"
       y1="368"
       x2="456"
       y2="192"
       gradientUnits="userSpaceOnUse" />
    <linearGradient
       inkscape:collect="always"
       xlink:href="#linearGradient4335"
       id="linearGradient4350"
       x1="416"
       y1="336"
       x2="416"
       y2="128"
       gradientUnits="userSpaceOnUse" />
    <linearGradient
       inkscape:collect="always"
       xlink:href="#linearGradient4335"
       id="linearGradient4352"
       x1="376"
       y1="304"
       x2="376"
       y2="96"
       gradientUnits="userSpaceOnUse" />
    <linearGradient
       inkscape:collect="always"
       xlink:href="#linearGradient4335"
       id="linearGradient4354"
       x1="336"
       y1="288"
       x2="336"
       y2="152"
       gradientUnits="userSpaceOnUse" />
    <linearGradient
       inkscape:collect="always"
       xlink:href="#linearGradient4335"
       id="linearGradient4356"
       x1="296"
       y1="280"
       x2="296"
       y2="72"
       gradientUnits="userSpaceOnUse" />
    <linearGradient
       inkscape:collect="always"
       xlink:href="#linearGradient4335"
       id="linearGradient4358"
       x1="56"
       y1="360"
       x2="56"
       y2="184"
       gradientUnits="userSpaceOnUse" />
    <linearGradient
       inkscape:collect="always"
       xlink:href="#linearGradient4335"
       id="linearGradient4360"
       x1="96.800003"
       y1="352"
       x2="96.800003"
       y2="162.39999"
       gradientUnits="userSpaceOnUse" />
    <linearGradient
       inkscape:collect="always"
       xlink:href="#linearGradient4335"
       id="linearGradient4362"
       x1="136"
       y1="312"
       x2="136"
       y2="80"
       gradientUnits="userSpaceOnUse" />
    <linearGradient
       inkscape:collect="always"
       xlink:href="#linearGradient4335"
       id="linearGradient4364"
       x1="177.60001"
       y1="264"
       x2="176"
       y2="136"
       gradientUnits="userSpaceOnUse" />
    <linearGradient
       inkscape:collect="always"
       xlink:href="#linearGradient4335"
       id="linearGradient4366"
       x1="216"
       y1="326.10156"
       x2="218"
       y2="-32"
       gradientUnits="userSpaceOnUse" />
    <linearGradient
       inkscape:collect="always"
       xlink:href="#linearGradient4335"
       id="linearGradient4368"
       x1="288"
       y1="296"
       x2="288"
       y2="72"
       gradientUnits="userSpaceOnUse" />
    <linearGradient
       inkscape:collect="always"
       xlink:href="#linearGradient4319"
       id="linearGradient4390"
       x1="256"
       y1="232"
       x2="256"
       y2="400"
       gradientUnits="userSpaceOnUse" />
    <linearGradient
       inkscape:collect="always"
       xlink:href="#linearGradient4319"
       id="linearGradient4394"
       gradientUnits="userSpaceOnUse"
       x1="256"
       y1="232"
       x2="256"
       y2="472"
       gradientTransform="translate(-40)" />
    <linearGradient
       inkscape:collect="always"
       xlink:href="#linearGradient4319"
       id="linearGradient4398"
       gradientUnits="userSpaceOnUse"
       gradientTransform="translate(-80)"
       x1="256"
       y1="200"
       x2="256"
       y2="400" />
    <linearGradient
       inkscape:collect="always"
       xlink:href="#linearGradient4319"
       id="linearGradient4402"
       gradientUnits="userSpaceOnUse"
       gradientTransform="translate(-120)"
       x1="256"
       y1="152"
       x2="256"
       y2="368" />
    <linearGradient
       inkscape:collect="always"
       xlink:href="#linearGradient4319"
       id="linearGradient4406"
       gradientUnits="userSpaceOnUse"
       gradientTransform="translate(-160)"
       x1="256"
       y1="112"
       x2="256"
       y2="408" />
    <linearGradient
       inkscape:collect="always"
       xlink:href="#linearGradient4319"
       id="linearGradient4411"
       gradientUnits="userSpaceOnUse"
       gradientTransform="translate(-200)"
       x1="256"
       y1="160"
       x2="256"
       y2="312" />
    <linearGradient
       inkscape:collect="always"
       xlink:href="#linearGradient4319"
       id="linearGradient4415"
       gradientUnits="userSpaceOnUse"
       x1="256"
       y1="160"
       x2="256"
       y2="544"
       gradientTransform="translate(40)" />
    <linearGradient
       inkscape:collect="always"
       xlink:href="#linearGradient4319"
       id="linearGradient4419"
       gradientUnits="userSpaceOnUse"
       gradientTransform="translate(80)"
       x1="256"
       y1="208"
       x2="256"
       y2="456" />
    <linearGradient
       inkscape:collect="always"
       xlink:href="#linearGradient4319"
       id="linearGradient4423"
       gradientUnits="userSpaceOnUse"
       gradientTransform="translate(120)"
       x1="256"
       y1="176"
       x2="256"
       y2="368" />
    <linearGradient
       inkscape:collect="always"
       xlink:href="#linearGradient4319"
       id="linearGradient4427"
       gradientUnits="userSpaceOnUse"
       gradientTransform="translate(160)"
       x1="256"
       y1="185.89844"
       x2="256"
       y2="376" />
    <linearGradient
       inkscape:collect="always"
       xlink:href="#linearGradient4319"
       id="linearGradient4431"
       gradientUnits="userSpaceOnUse"
       gradientTransform="translate(200)"
       x1="256"
       y1="128"
       x2="256"
       y2="352" />
    <linearGradient
       inkscape:collect="always"
       xlink:href="#linearGradient4338"
       id="linearGradient4399"
       gradientUnits="userSpaceOnUse"
       x1="-126.57149"
       y1="280.98227"
       x2="-251.82808"
       y2="280.98227"
       gradientTransform="translate(458,-32)" />
    <filter
       inkscape:collect="always"
       style="color-interpolation-filters:sRGB"
       id="filter4403"
       x="-0.013440566"
       width="1.0268811"
       y="-0.010838342"
       height="1.0216767">
      <feGaussianBlur
         inkscape:collect="always"
         stdDeviation="1.3415057"
         id="feGaussianBlur4405" />
    </filter>
    <filter
       inkscape:collect="always"
       style="color-interpolation-filters:sRGB"
       id="filter4409"
       x="-0.10752453"
       width="1.2150491"
       y="-0.086706735"
       height="1.1734135">
      <feGaussianBlur
         inkscape:collect="always"
         stdDeviation="10.732046"
         id="feGaussianBlur4411" />
    </filter>
    <linearGradient
       inkscape:collect="always"
       xlink:href="#linearGradient4417"
       id="linearGradient4420"
       x1="94.470848"
       y1="256.72034"
       x2="94.470848"
       y2="398.16034"
       gradientUnits="userSpaceOnUse"
       spreadMethod="reflect" />
  </defs>
  <sodipodi:namedview
     id="base"
     pagecolor="#b4b4b4"
     bordercolor="#666666"
     borderopacity="1.0"
     inkscape:pageopacity="0"
     inkscape:pageshadow="2"
     inkscape:zoom="1.5625"
     inkscape:cx="127.24368"
     inkscape:cy="204.97421"
     inkscape:document-units="px"
     inkscape:current-layer="layer3"
     showgrid="false"
     inkscape:window-width="1920"
     inkscape:window-height="1029"
     inkscape:window-x="0"
     inkscape:window-y="24"
     inkscape:window-maximized="1"
     inkscape:snap-page="true"
     inkscape:showpageshadow="false"
     showborder="true"
     inkscape:snap-bbox="true"
     inkscape:bbox-paths="true"
     inkscape:bbox-nodes="true"
     inkscape:snap-bbox-edge-midpoints="true"
     inkscape:snap-bbox-midpoints="true"
     inkscape:object-paths="true"
     inkscape:object-nodes="true"
     inkscape:snap-intersection-paths="true"
     inkscape:snap-smooth-nodes="true"
     inkscape:snap-midpoints="true"
     inkscape:snap-object-midpoints="true"
     inkscape:snap-center="true"
     showguides="false"
     inkscape:guide-bbox="true"
     inkscape:snap-grids="true"
     fit-margin-top="18"
     fit-margin-left="0"
     fit-margin-right="0"
     fit-margin-bottom="18"
     inkscape:snap-global="true">
    <inkscape:grid
       type="xygrid"
       id="grid811"
       originx="0"
       originy="15.999999"
       visible="true"
       enabled="true" />
    <sodipodi:guide
       orientation="1,0"
       position="104,176"
       id="guide819"
       inkscape:locked="false" />
    <sodipodi:guide
       orientation="1,0"
       position="120,160"
       id="guide821"
       inkscape:locked="false" />
    <sodipodi:guide
       orientation="1,0"
       position="392,144"
       id="guide823"
       inkscape:locked="false" />
    <sodipodi:guide
       orientation="1,0"
       position="408,144"
       id="guide825"
       inkscape:locked="false" />
    <sodipodi:guide
       orientation="0,1"
       position="328,408"
       id="guide827"
       inkscape:locked="false" />
    <sodipodi:guide
       orientation="0,1"
       position="336,392"
       id="guide829"
       inkscape:locked="false" />
    <sodipodi:guide
       orientation="0,1"
       position="176,120"
       id="guide831"
       inkscape:locked="false" />
    <sodipodi:guide
       orientation="0,1"
       position="216,104"
       id="guide833"
       inkscape:locked="false" />
    <inkscape:grid
       type="axonomgrid"
       id="grid835"
       units="px"
       empspacing="60"
       gridanglex="42.9"
       gridanglez="42.9"
       spacingy="3.522px"
       enabled="false"
       originx="0"
       originy="16.999996" />
    <sodipodi:guide
       orientation="0,1"
       position="344,376"
       id="guide4126"
       inkscape:locked="false" />
    <sodipodi:guide
       orientation="0,1"
       position="160,136"
       id="guide4128"
       inkscape:locked="false" />
    <sodipodi:guide
       orientation="1,0"
       position="136,96"
       id="guide4130"
       inkscape:locked="false" />
    <sodipodi:guide
       orientation="1,0"
       position="376,136"
       id="guide4134"
       inkscape:locked="false" />
    <sodipodi:guide
       orientation="-0.70710678,0.70710678"
       position="256,256"
       id="guide4136"
       inkscape:locked="false" />
    <sodipodi:guide
       orientation="1,0"
       position="256,232"
       id="guide4138"
       inkscape:locked="false" />
    <sodipodi:guide
       orientation="0,1"
       position="288,256"
       id="guide4140"
       inkscape:locked="false" />
    <sodipodi:guide
       orientation="0.70710678,0.70710678"
       position="256,256"
       id="guide4142"
       inkscape:locked="false" />
    <sodipodi:guide
       orientation="0,1"
       position="248,15.999999"
       id="guide4152"
       inkscape:locked="false" />
    <sodipodi:guide
       orientation="0,1"
       position="336,496"
       id="guide4154"
       inkscape:locked="false" />
  </sodipodi:namedview>
  <metadata
     id="metadata3341">
    <rdf:RDF>
      <cc:Work
         rdf:about="">
        <dc:format>image/svg+xml</dc:format>
        <dc:type
           rdf:resource="http://purl.org/dc/dcmitype/StillImage" />
        <dc:title></dc:title>
      </cc:Work>
    </rdf:RDF>
  </metadata>
  <g
     inkscape:groupmode="layer"
     id="layer3"
     inkscape:label="Background">
    <path
       style="color:#000000;display:inline;overflow:visible;visibility:visible;fill:url(#linearGradient4296);fill-opacity:1;fill-rule:nonzero;stroke:none;stroke-width:1;marker:none;enable-background:accumulate"
       d="M 0 0 L 0 183.89844 L 0 328.10156 L 0 512 L 512 512 L 512 328.10156 L 512 183.89844 L 512 0 L 0 0 z "
       id="rect4158" />
    <path
       style="color:#000000;display:inline;overflow:visible;visibility:visible;opacity:0.1;fill:#ffffff;fill-opacity:1;fill-rule:nonzero;stroke:none;stroke-width:1;marker:none;enable-background:accumulate"
       d="M 0 256 L 0 328.10156 L 0 512 L 512 512 L 512 328.10156 L 512 256 L 0 256 z "
       id="path4269" />
    <g
       id="g4370"
       style="opacity:0.5">
      <path
         id="rect4273"
         transform="translate(-32,-32)"
         d="m 272,72 v 16 h 32 V 72 Z m 0,24 v 16 h 32 V 96 Z m 0,24 v 16 h 32 v -16 z m 0,24 v 16 h 32 v -16 z m 0,24 v 16 h 32 v -16 z m 0,24 v 16 h 32 v -16 z m 0,24 v 16 h 32 v -16 z m 0,24 v 16 h 32 v -16 z m 0,24 v 16 h 32 v -16 z"
         style="color:#000000;display:inline;overflow:visible;visibility:visible;opacity:1;fill:url(#linearGradient4368);fill-opacity:1;fill-rule:nonzero;stroke:none;stroke-width:64;stroke-linecap:butt;stroke-linejoin:miter;stroke-miterlimit:4;stroke-dasharray:none;stroke-dashoffset:0;stroke-opacity:1;marker:none;enable-background:accumulate"
         inkscape:connector-curvature="0" />
      <path
         inkscape:connector-curvature="0"
         style="color:#000000;display:inline;overflow:visible;visibility:visible;opacity:1;fill:url(#linearGradient4366);fill-opacity:1;fill-rule:nonzero;stroke:none;stroke-width:64;stroke-linecap:butt;stroke-linejoin:miter;stroke-miterlimit:4;stroke-dasharray:none;stroke-dashoffset:0;stroke-opacity:1;marker:none;enable-background:accumulate"
         d="m 200,40 v 16 h 32 V 40 Z m 0,24 v 16 h 32 V 64 Z m 0,24 v 16 h 32 V 88 Z m 0,24 v 16 h 32 v -16 z m 0,24 v 16 h 32 v -16 z m 0,24 v 16 h 32 v -16 z m 0,24 v 16 h 32 v -16 z m 0,24 v 16 h 32 v -16 z m 0,24 v 16 h 32 v -16 z"
         id="path4292" />
      <path
         id="path4294"
         d="m 160,40 v 16 h 32 V 40 Z m 0,24 v 16 h 32 V 64 Z m 0,24 v 16 h 32 V 88 Z m 0,24 v 16 h 32 v -16 z m 0,24 v 16 h 32 v -16 z m 0,24 v 16 h 32 v -16 z m 0,24 v 16 h 32 v -16 z m 0,24 v 16 h 32 v -16 z m 0,24 v 16 h 32 v -16 z"
         style="color:#000000;display:inline;overflow:visible;visibility:visible;opacity:1;fill:url(#linearGradient4364);fill-opacity:1;fill-rule:nonzero;stroke:none;stroke-width:64;stroke-linecap:butt;stroke-linejoin:miter;stroke-miterlimit:4;stroke-dasharray:none;stroke-dashoffset:0;stroke-opacity:1;marker:none;enable-background:accumulate"
         inkscape:connector-curvature="0" />
      <path
         inkscape:connector-curvature="0"
         style="color:#000000;display:inline;overflow:visible;visibility:visible;opacity:1;fill:url(#linearGradient4362);fill-opacity:1;fill-rule:nonzero;stroke:none;stroke-width:64;stroke-linecap:butt;stroke-linejoin:miter;stroke-miterlimit:4;stroke-dasharray:none;stroke-dashoffset:0;stroke-opacity:1;marker:none;enable-background:accumulate"
         d="m 120,40 v 16 h 32 V 40 Z m 0,24 v 16 h 32 V 64 Z m 0,24 v 16 h 32 V 88 Z m 0,24 v 16 h 32 v -16 z m 0,24 v 16 h 32 v -16 z m 0,24 v 16 h 32 v -16 z m 0,24 v 16 h 32 v -16 z m 0,24 v 16 h 32 v -16 z m 0,24 v 16 h 32 v -16 z"
         id="path4296" />
      <path
         id="path4298"
         d="m 80,40 v 16 h 32 V 40 Z m 0,24 v 16 h 32 V 64 Z m 0,24 v 16 h 32 V 88 Z m 0,24 v 16 h 32 v -16 z m 0,24 v 16 h 32 v -16 z m 0,24 v 16 h 32 v -16 z m 0,24 v 16 h 32 v -16 z m 0,24 v 16 h 32 v -16 z m 0,24 v 16 h 32 v -16 z"
         style="color:#000000;display:inline;overflow:visible;visibility:visible;opacity:1;fill:url(#linearGradient4360);fill-opacity:1;fill-rule:nonzero;stroke:none;stroke-width:64;stroke-linecap:butt;stroke-linejoin:miter;stroke-miterlimit:4;stroke-dasharray:none;stroke-dashoffset:0;stroke-opacity:1;marker:none;enable-background:accumulate"
         inkscape:connector-curvature="0" />
      <path
         inkscape:connector-curvature="0"
         style="color:#000000;display:inline;overflow:visible;visibility:visible;opacity:1;fill:url(#linearGradient4358);fill-opacity:1;fill-rule:nonzero;stroke:none;stroke-width:64;stroke-linecap:butt;stroke-linejoin:miter;stroke-miterlimit:4;stroke-dasharray:none;stroke-dashoffset:0;stroke-opacity:1;marker:none;enable-background:accumulate"
         d="M 40,40 V 56 H 72 V 40 Z m 0,24 V 80 H 72 V 64 Z m 0,24 v 16 H 72 V 88 Z m 0,24 v 16 h 32 v -16 z m 0,24 v 16 h 32 v -16 z m 0,24 v 16 h 32 v -16 z m 0,24 v 16 h 32 v -16 z m 0,24 v 16 h 32 v -16 z m 0,24 v 16 h 32 v -16 z"
         id="path4301" />
      <path
         inkscape:connector-curvature="0"
         style="color:#000000;display:inline;overflow:visible;visibility:visible;opacity:1;fill:url(#linearGradient4356);fill-opacity:1;fill-rule:nonzero;stroke:none;stroke-width:64;stroke-linecap:butt;stroke-linejoin:miter;stroke-miterlimit:4;stroke-dasharray:none;stroke-dashoffset:0;stroke-opacity:1;marker:none;enable-background:accumulate"
         d="m 280,40 v 16 h 32 V 40 Z m 0,24 v 16 h 32 V 64 Z m 0,24 v 16 h 32 V 88 Z m 0,24 v 16 h 32 v -16 z m 0,24 v 16 h 32 v -16 z m 0,24 v 16 h 32 v -16 z m 0,24 v 16 h 32 v -16 z m 0,24 v 16 h 32 v -16 z m 0,24 v 16 h 32 v -16 z"
         id="path4303" />
      <path
         id="path4305"
         d="m 320,40 v 16 h 32 V 40 Z m 0,24 v 16 h 32 V 64 Z m 0,24 v 16 h 32 V 88 Z m 0,24 v 16 h 32 v -16 z m 0,24 v 16 h 32 v -16 z m 0,24 v 16 h 32 v -16 z m 0,24 v 16 h 32 v -16 z m 0,24 v 16 h 32 v -16 z m 0,24 v 16 h 32 v -16 z"
         style="color:#000000;display:inline;overflow:visible;visibility:visible;opacity:1;fill:url(#linearGradient4354);fill-opacity:1;fill-rule:nonzero;stroke:none;stroke-width:64;stroke-linecap:butt;stroke-linejoin:miter;stroke-miterlimit:4;stroke-dasharray:none;stroke-dashoffset:0;stroke-opacity:1;marker:none;enable-background:accumulate"
         inkscape:connector-curvature="0" />
      <path
         inkscape:connector-curvature="0"
         style="color:#000000;display:inline;overflow:visible;visibility:visible;opacity:1;fill:url(#linearGradient4352);fill-opacity:1;fill-rule:nonzero;stroke:none;stroke-width:64;stroke-linecap:butt;stroke-linejoin:miter;stroke-miterlimit:4;stroke-dasharray:none;stroke-dashoffset:0;stroke-opacity:1;marker:none;enable-background:accumulate"
         d="m 360,40 v 16 h 32 V 40 Z m 0,24 v 16 h 32 V 64 Z m 0,24 v 16 h 32 V 88 Z m 0,24 v 16 h 32 v -16 z m 0,24 v 16 h 32 v -16 z m 0,24 v 16 h 32 v -16 z m 0,24 v 16 h 32 v -16 z m 0,24 v 16 h 32 v -16 z m 0,24 v 16 h 32 v -16 z"
         id="path4307" />
      <path
         id="path4309"
         d="m 400,40 v 16 h 32 V 40 Z m 0,24 v 16 h 32 V 64 Z m 0,24 v 16 h 32 V 88 Z m 0,24 v 16 h 32 v -16 z m 0,24 v 16 h 32 v -16 z m 0,24 v 16 h 32 v -16 z m 0,24 v 16 h 32 v -16 z m 0,24 v 16 h 32 v -16 z m 0,24 v 16 h 32 v -16 z"
         style="color:#000000;display:inline;overflow:visible;visibility:visible;opacity:1;fill:url(#linearGradient4350);fill-opacity:1;fill-rule:nonzero;stroke:none;stroke-width:64;stroke-linecap:butt;stroke-linejoin:miter;stroke-miterlimit:4;stroke-dasharray:none;stroke-dashoffset:0;stroke-opacity:1;marker:none;enable-background:accumulate"
         inkscape:connector-curvature="0" />
      <path
         inkscape:connector-curvature="0"
         style="color:#000000;display:inline;overflow:visible;visibility:visible;opacity:1;fill:url(#linearGradient4348);fill-opacity:1;fill-rule:nonzero;stroke:none;stroke-width:64;stroke-linecap:butt;stroke-linejoin:miter;stroke-miterlimit:4;stroke-dasharray:none;stroke-dashoffset:0;stroke-opacity:1;marker:none;enable-background:accumulate"
         d="m 440,40 v 16 h 32 V 40 Z m 0,24 v 16 h 32 V 64 Z m 0,24 v 16 h 32 V 88 Z m 0,24 v 16 h 32 v -16 z m 0,24 v 16 h 32 v -16 z m 0,24 v 16 h 32 v -16 z m 0,24 v 16 h 32 v -16 z m 0,24 v 16 h 32 v -16 z m 0,24 v 16 h 32 v -16 z"
         id="path4311" />
    </g>
    <g
       id="g4433"
       style="opacity:0.5">
      <path
         inkscape:connector-curvature="0"
         style="color:#000000;display:inline;overflow:visible;visibility:visible;opacity:0.46700003;fill:url(#linearGradient4390);fill-opacity:1;fill-rule:nonzero;stroke:none;stroke-width:64;stroke-linecap:butt;stroke-linejoin:miter;stroke-miterlimit:4;stroke-dasharray:none;stroke-dashoffset:0;stroke-opacity:1;marker:none;enable-background:accumulate"
         d="m 240,264 v 16 h 32 v -16 z m 0,24 v 16 h 32 v -16 z m 0,24 v 16 h 32 v -16 z m 0,24 v 16 h 32 v -16 z m 0,24 v 16 h 32 v -16 z m 0,24 v 16 h 32 v -16 z m 0,24 v 16 h 32 v -16 z m 0,24 v 16 h 32 v -16 z m 0,24 v 16 h 32 v -16 z"
         id="path4313" />
      <path
         id="path4392"
         d="m 200,264 v 16 h 32 v -16 z m 0,24 v 16 h 32 v -16 z m 0,24 v 16 h 32 v -16 z m 0,24 v 16 h 32 v -16 z m 0,24 v 16 h 32 v -16 z m 0,24 v 16 h 32 v -16 z m 0,24 v 16 h 32 v -16 z m 0,24 v 16 h 32 v -16 z m 0,24 v 16 h 32 v -16 z"
         style="color:#000000;display:inline;overflow:visible;visibility:visible;opacity:0.46700003;fill:url(#linearGradient4394);fill-opacity:1;fill-rule:nonzero;stroke:none;stroke-width:64;stroke-linecap:butt;stroke-linejoin:miter;stroke-miterlimit:4;stroke-dasharray:none;stroke-dashoffset:0;stroke-opacity:1;marker:none;enable-background:accumulate"
         inkscape:connector-curvature="0" />
      <path
         inkscape:connector-curvature="0"
         style="color:#000000;display:inline;overflow:visible;visibility:visible;opacity:0.46700003;fill:url(#linearGradient4398);fill-opacity:1;fill-rule:nonzero;stroke:none;stroke-width:64;stroke-linecap:butt;stroke-linejoin:miter;stroke-miterlimit:4;stroke-dasharray:none;stroke-dashoffset:0;stroke-opacity:1;marker:none;enable-background:accumulate"
         d="m 160,264 v 16 h 32 v -16 z m 0,24 v 16 h 32 v -16 z m 0,24 v 16 h 32 v -16 z m 0,24 v 16 h 32 v -16 z m 0,24 v 16 h 32 v -16 z m 0,24 v 16 h 32 v -16 z m 0,24 v 16 h 32 v -16 z m 0,24 v 16 h 32 v -16 z m 0,24 v 16 h 32 v -16 z"
         id="path4396" />
      <path
         id="path4400"
         d="m 120,264 v 16 h 32 v -16 z m 0,24 v 16 h 32 v -16 z m 0,24 v 16 h 32 v -16 z m 0,24 v 16 h 32 v -16 z m 0,24 v 16 h 32 v -16 z m 0,24 v 16 h 32 v -16 z m 0,24 v 16 h 32 v -16 z m 0,24 v 16 h 32 v -16 z m 0,24 v 16 h 32 v -16 z"
         style="color:#000000;display:inline;overflow:visible;visibility:visible;opacity:0.46700003;fill:url(#linearGradient4402);fill-opacity:1;fill-rule:nonzero;stroke:none;stroke-width:64;stroke-linecap:butt;stroke-linejoin:miter;stroke-miterlimit:4;stroke-dasharray:none;stroke-dashoffset:0;stroke-opacity:1;marker:none;enable-background:accumulate"
         inkscape:connector-curvature="0" />
      <path
         inkscape:connector-curvature="0"
         style="color:#000000;display:inline;overflow:visible;visibility:visible;opacity:0.46700003;fill:url(#linearGradient4406);fill-opacity:1;fill-rule:nonzero;stroke:none;stroke-width:64;stroke-linecap:butt;stroke-linejoin:miter;stroke-miterlimit:4;stroke-dasharray:none;stroke-dashoffset:0;stroke-opacity:1;marker:none;enable-background:accumulate"
         d="m 80,264 v 16 h 32 v -16 z m 0,24 v 16 h 32 v -16 z m 0,24 v 16 h 32 v -16 z m 0,24 v 16 h 32 v -16 z m 0,24 v 16 h 32 v -16 z m 0,24 v 16 h 32 v -16 z m 0,24 v 16 h 32 v -16 z m 0,24 v 16 h 32 v -16 z m 0,24 v 16 h 32 v -16 z"
         id="path4404" />
      <path
         id="path4408"
         d="m 40,264 v 16 h 32 v -16 z m 0,24 v 16 h 32 v -16 z m 0,24 v 16 h 32 v -16 z m 0,24 v 16 h 32 v -16 z m 0,24 v 16 h 32 v -16 z m 0,24 v 16 h 32 v -16 z m 0,24 v 16 h 32 v -16 z m 0,24 v 16 h 32 v -16 z m 0,24 v 16 h 32 v -16 z"
         style="color:#000000;display:inline;overflow:visible;visibility:visible;opacity:0.46700003;fill:url(#linearGradient4411);fill-opacity:1;fill-rule:nonzero;stroke:none;stroke-width:64;stroke-linecap:butt;stroke-linejoin:miter;stroke-miterlimit:4;stroke-dasharray:none;stroke-dashoffset:0;stroke-opacity:1;marker:none;enable-background:accumulate"
         inkscape:connector-curvature="0" />
      <path
         id="path4413"
         d="m 280,264 v 16 h 32 v -16 z m 0,24 v 16 h 32 v -16 z m 0,24 v 16 h 32 v -16 z m 0,24 v 16 h 32 v -16 z m 0,24 v 16 h 32 v -16 z m 0,24 v 16 h 32 v -16 z m 0,24 v 16 h 32 v -16 z m 0,24 v 16 h 32 v -16 z m 0,24 v 16 h 32 v -16 z"
         style="color:#000000;display:inline;overflow:visible;visibility:visible;opacity:0.46700003;fill:url(#linearGradient4415);fill-opacity:1;fill-rule:nonzero;stroke:none;stroke-width:64;stroke-linecap:butt;stroke-linejoin:miter;stroke-miterlimit:4;stroke-dasharray:none;stroke-dashoffset:0;stroke-opacity:1;marker:none;enable-background:accumulate"
         inkscape:connector-curvature="0" />
      <path
         inkscape:connector-curvature="0"
         style="color:#000000;display:inline;overflow:visible;visibility:visible;opacity:0.46700003;fill:url(#linearGradient4419);fill-opacity:1;fill-rule:nonzero;stroke:none;stroke-width:64;stroke-linecap:butt;stroke-linejoin:miter;stroke-miterlimit:4;stroke-dasharray:none;stroke-dashoffset:0;stroke-opacity:1;marker:none;enable-background:accumulate"
         d="m 320,264 v 16 h 32 v -16 z m 0,24 v 16 h 32 v -16 z m 0,24 v 16 h 32 v -16 z m 0,24 v 16 h 32 v -16 z m 0,24 v 16 h 32 v -16 z m 0,24 v 16 h 32 v -16 z m 0,24 v 16 h 32 v -16 z m 0,24 v 16 h 32 v -16 z m 0,24 v 16 h 32 v -16 z"
         id="path4417" />
      <path
         id="path4421"
         d="m 360,264 v 16 h 32 v -16 z m 0,24 v 16 h 32 v -16 z m 0,24 v 16 h 32 v -16 z m 0,24 v 16 h 32 v -16 z m 0,24 v 16 h 32 v -16 z m 0,24 v 16 h 32 v -16 z m 0,24 v 16 h 32 v -16 z m 0,24 v 16 h 32 v -16 z m 0,24 v 16 h 32 v -16 z"
         style="color:#000000;display:inline;overflow:visible;visibility:visible;opacity:0.46700003;fill:url(#linearGradient4423);fill-opacity:1;fill-rule:nonzero;stroke:none;stroke-width:64;stroke-linecap:butt;stroke-linejoin:miter;stroke-miterlimit:4;stroke-dasharray:none;stroke-dashoffset:0;stroke-opacity:1;marker:none;enable-background:accumulate"
         inkscape:connector-curvature="0" />
      <path
         inkscape:connector-curvature="0"
         style="color:#000000;display:inline;overflow:visible;visibility:visible;opacity:0.46700003;fill:url(#linearGradient4427);fill-opacity:1;fill-rule:nonzero;stroke:none;stroke-width:64;stroke-linecap:butt;stroke-linejoin:miter;stroke-miterlimit:4;stroke-dasharray:none;stroke-dashoffset:0;stroke-opacity:1;marker:none;enable-background:accumulate"
         d="m 400,264 v 16 h 32 v -16 z m 0,24 v 16 h 32 v -16 z m 0,24 v 16 h 32 v -16 z m 0,24 v 16 h 32 v -16 z m 0,24 v 16 h 32 v -16 z m 0,24 v 16 h 32 v -16 z m 0,24 v 16 h 32 v -16 z m 0,24 v 16 h 32 v -16 z m 0,24 v 16 h 32 v -16 z"
         id="path4425" />
      <path
         id="path4429"
         d="m 440,264 v 16 h 32 v -16 z m 0,24 v 16 h 32 v -16 z m 0,24 v 16 h 32 v -16 z m 0,24 v 16 h 32 v -16 z m 0,24 v 16 h 32 v -16 z m 0,24 v 16 h 32 v -16 z m 0,24 v 16 h 32 v -16 z m 0,24 v 16 h 32 v -16 z m 0,24 v 16 h 32 v -16 z"
         style="color:#000000;display:inline;overflow:visible;visibility:visible;opacity:0.46700003;fill:url(#linearGradient4431);fill-opacity:1;fill-rule:nonzero;stroke:none;stroke-width:64;stroke-linecap:butt;stroke-linejoin:miter;stroke-miterlimit:4;stroke-dasharray:none;stroke-dashoffset:0;stroke-opacity:1;marker:none;enable-background:accumulate"
         inkscape:connector-curvature="0" />
    </g>
  </g>
  <g
     inkscape:groupmode="layer"
     id="layer4"
     inkscape:label="Pictogram"
     style="display:inline">
    <path
       inkscape:connector-curvature="0"
       id="path4407"
       d="m 348.38434,108.19353 c -3.75714,-0.0418 -8.75373,0.54579 -15.39985,1.54455 l -113.35166,17.78513 c -26.70059,5.68555 -26.70048,7.45332 -26.70048,30.01117 v 44.17278 140.65172 c -1.96996,-1.37921 -3.91404,-2.76739 -5.95009,-4.13182 v 0.007 c -8.48295,-5.68474 -17.5219,-9.72998 -29.66578,-9.73001 -15.2111,0 -24.28532,5.82529 -29.77657,13.49691 -5.49121,7.67161 -7.31215,17.34207 -7.31215,24.81704 0,9.01379 3.07976,18.63307 9.75609,25.96407 6.67633,7.331 16.94062,12.46695 31.69908,12.46715 16.6656,0 28.38925,-4.65596 35.0163,-13.74453 5.2178,-7.15575 8.10076,-16.71353 9.13044,-28.50569 v -0.0195 -0.0135 c 0.14415,-1.43066 0.24785,-2.89813 0.33888,-4.41208 0.13981,-2.33092 0.11082,-6.69305 0.11082,-6.69305 V 211.71741 c 0,-20.02049 -0.001,-21.21591 26.70702,-25.78157 l 86.67721,-13.21012 c 26.75617,-3.50239 26.75915,-1.04928 26.75915,13.96608 v 128.97311 c -1.96996,-1.37921 -3.91404,-2.7674 -5.95009,-4.13183 v 0.007 c -8.48295,-5.68475 -17.5219,-9.72999 -29.66578,-9.73003 -15.2111,0 -24.28532,5.82529 -29.77657,13.49691 -5.49121,7.67162 -7.31215,17.34207 -7.31215,24.81706 0,9.01376 3.07976,18.63309 9.75609,25.96406 6.67633,7.331 16.94058,12.46692 31.69908,12.46716 16.66559,0 28.38925,-4.65596 35.0163,-13.74453 5.2178,-7.15576 8.10075,-16.7135 9.13044,-28.50569 v -0.0195 -0.0134 c 0.14414,-1.43066 0.24789,-2.89813 0.33888,-4.41208 0.13981,-2.33094 0.11082,-6.69305 0.11082,-6.69305 v -153.49022 -39.9823 c 0,-17.55926 -0.11392,-23.37504 -11.38535,-23.50061 z"
       style="font-style:normal;font-variant:normal;font-weight:normal;font-stretch:normal;font-size:15px;line-height:125%;font-family:Ubuntu;-inkscape-font-specification:Ubuntu;text-align:center;letter-spacing:0px;word-spacing:0px;writing-mode:lr-tb;text-anchor:middle;display:inline;opacity:0.4;fill:url(#linearGradient4420);fill-opacity:1;stroke:none;stroke-width:3.33542728;filter:url(#filter4409);enable-background:new" />
    <path
       style="font-style:normal;font-variant:normal;font-weight:normal;font-stretch:normal;font-size:15px;line-height:125%;font-family:Ubuntu;-inkscape-font-specification:Ubuntu;text-align:center;letter-spacing:0px;word-spacing:0px;writing-mode:lr-tb;text-anchor:middle;display:inline;opacity:0.1;fill:#000000;fill-opacity:1;stroke:none;stroke-width:3.33542728;filter:url(#filter4403);enable-background:new"
       d="m 348.38434,108.19353 c -3.75714,-0.0418 -8.75373,0.54579 -15.39985,1.54455 l -113.35166,17.78513 c -26.70059,5.68555 -26.70048,7.45332 -26.70048,30.01117 v 44.17278 140.65172 c -1.96996,-1.37921 -3.91404,-2.76739 -5.95009,-4.13182 v 0.007 c -8.48295,-5.68474 -17.5219,-9.72998 -29.66578,-9.73001 -15.2111,0 -24.28532,5.82529 -29.77657,13.49691 -5.49121,7.67161 -7.31215,17.34207 -7.31215,24.81704 0,9.01379 3.07976,18.63307 9.75609,25.96407 6.67633,7.331 16.94062,12.46695 31.69908,12.46715 16.6656,0 28.38925,-4.65596 35.0163,-13.74453 5.2178,-7.15575 8.10076,-16.71353 9.13044,-28.50569 v -0.0195 -0.0135 c 0.14415,-1.43066 0.24785,-2.89813 0.33888,-4.41208 0.13981,-2.33092 0.11082,-6.69305 0.11082,-6.69305 V 211.71741 c 0,-20.02049 -0.001,-21.21591 26.70702,-25.78157 l 86.67721,-13.21012 c 26.75617,-3.50239 26.75915,-1.04928 26.75915,13.96608 v 128.97311 c -1.96996,-1.37921 -3.91404,-2.7674 -5.95009,-4.13183 v 0.007 c -8.48295,-5.68475 -17.5219,-9.72999 -29.66578,-9.73003 -15.2111,0 -24.28532,5.82529 -29.77657,13.49691 -5.49121,7.67162 -7.31215,17.34207 -7.31215,24.81706 0,9.01376 3.07976,18.63309 9.75609,25.96406 6.67633,7.331 16.94058,12.46692 31.69908,12.46716 16.66559,0 28.38925,-4.65596 35.0163,-13.74453 5.2178,-7.15576 8.10075,-16.7135 9.13044,-28.50569 v -0.0195 -0.0134 c 0.14414,-1.43066 0.24789,-2.89813 0.33888,-4.41208 0.13981,-2.33094 0.11082,-6.69305 0.11082,-6.69305 v -153.49022 -39.9823 c 0,-17.55926 -0.11392,-23.37504 -11.38535,-23.50061 z"
       id="path4401"
       inkscape:connector-curvature="0" />
    <path
       inkscape:connector-curvature="0"
       id="path4393"
       d="m 348.38434,106.19353 c -3.75714,-0.0418 -8.75373,0.54579 -15.39985,1.54455 l -113.35166,17.78513 c -26.70059,5.68555 -26.70048,7.45332 -26.70048,30.01117 v 44.17278 140.65172 c -1.96996,-1.37921 -3.91404,-2.76739 -5.95009,-4.13182 v 0.007 c -8.48295,-5.68474 -17.5219,-9.72998 -29.66578,-9.73001 -15.2111,0 -24.28532,5.82529 -29.77657,13.49691 -5.49121,7.67161 -7.31215,17.34207 -7.31215,24.81704 0,9.01379 3.07976,18.63307 9.75609,25.96407 6.67633,7.331 16.94062,12.46695 31.69908,12.46715 16.6656,0 28.38925,-4.65596 35.0163,-13.74453 5.2178,-7.15575 8.10076,-16.71353 9.13044,-28.50569 v -0.0195 -0.0135 c 0.14415,-1.43066 0.24785,-2.89813 0.33888,-4.41208 0.13981,-2.33092 0.11082,-6.69305 0.11082,-6.69305 V 209.71741 c 0,-20.02049 -0.001,-21.21591 26.70702,-25.78157 l 86.67721,-13.21012 c 26.75617,-3.50239 26.75915,-1.04928 26.75915,13.96608 v 128.97311 c -1.96996,-1.37921 -3.91404,-2.7674 -5.95009,-4.13183 v 0.007 c -8.48295,-5.68475 -17.5219,-9.72999 -29.66578,-9.73003 -15.2111,0 -24.28532,5.82529 -29.77657,13.49691 -5.49121,7.67162 -7.31215,17.34207 -7.31215,24.81706 0,9.01376 3.07976,18.63309 9.75609,25.96406 6.67633,7.331 16.94058,12.46692 31.69908,12.46716 16.66559,0 28.38925,-4.65596 35.0163,-13.74453 5.2178,-7.15576 8.10075,-16.7135 9.13044,-28.50569 v -0.0195 -0.0134 c 0.14414,-1.43066 0.24789,-2.89813 0.33888,-4.41208 0.13981,-2.33094 0.11082,-6.69305 0.11082,-6.69305 v -153.49022 -39.9823 c 0,-17.55926 -0.11392,-23.37504 -11.38535,-23.50061 z"
       style="font-style:normal;font-variant:normal;font-weight:normal;font-stretch:normal;font-size:15px;line-height:125%;font-family:Ubuntu;-inkscape-font-specification:Ubuntu;text-align:center;letter-spacing:0px;word-spacing:0px;writing-mode:lr-tb;text-anchor:middle;display:inline;fill:#fef8f8;fill-opacity:1;stroke:none;stroke-width:3.33542728;enable-background:new" />
    <path
       id="path4395"
       d="m 196.12109,134.39453 c -3.18273,3.97594 -3.18945,10.03886 -3.18945,21.14063 v 44.17187 140.65235 c -1.96996,-1.37922 -3.91317,-2.76839 -5.94922,-4.13282 v 0.008 c -8.48295,-5.68474 -17.52213,-9.73044 -29.66601,-9.73047 -15.2111,0 -24.2861,5.82447 -29.77735,13.49609 -5.49121,7.67161 -7.31054,17.34339 -7.31054,24.81836 0,9.01379 3.07953,18.63189 9.75586,25.96289 6.67633,7.331 16.94075,12.46855 31.69921,12.46875 16.6656,0 28.38858,-4.65752 35.01563,-13.74609 5.2178,-7.15575 8.10118,-16.7137 9.13086,-28.50586 v -0.0176 -0.0137 c 0.14415,-1.43066 0.24686,-2.89816 0.33789,-4.41211 0.13981,-2.33092 0.11133,-6.69336 0.11133,-6.69336 V 209.7168 c 0,-20.02049 -9.9e-4,-21.21559 26.70703,-25.78125 l 86.67773,-13.20899 c 26.75617,-3.50239 26.75781,-1.05051 26.75782,13.96485 v 128.97265 c -1.96996,-1.37921 -3.91317,-2.76643 -5.94922,-4.13086 v 0.008 c -8.48295,-5.68475 -17.52214,-9.73043 -29.66602,-9.73047 -15.2111,0 -24.28414,5.82447 -29.77539,13.49609 -5.49121,7.67162 -7.3125,17.34142 -7.3125,24.81641 0,9.01376 3.07953,18.63387 9.75586,25.96484 6.67633,7.331 16.94072,12.46656 31.69922,12.4668 16.66559,0 28.38857,-4.65557 35.01562,-13.74414 5.2178,-7.15576 8.10117,-16.71367 9.13086,-28.50586 v -0.0195 -0.0137 c 0.14414,-1.43066 0.2469,-2.89816 0.33789,-4.4121 0.13981,-2.33094 0.11133,-6.69336 0.11133,-6.69336 V 170.36133 Z"
       style="font-style:normal;font-variant:normal;font-weight:normal;font-stretch:normal;font-size:15px;line-height:125%;font-family:Ubuntu;-inkscape-font-specification:Ubuntu;text-align:center;letter-spacing:0px;word-spacing:0px;writing-mode:lr-tb;text-anchor:middle;display:inline;opacity:0.1;fill:url(#linearGradient4399);fill-opacity:1;stroke:none;stroke-width:3.33542728;enable-background:new"
       inkscape:connector-curvature="0" />
    <path
       id="path4397"
       d="m 348.38477,106.19336 c -3.75714,-0.0418 -8.75427,0.54616 -15.40039,1.54492 l -113.35157,17.78516 c -26.70059,5.68555 -26.70117,7.45387 -26.70117,30.01172 v 2 c 0,-22.55785 5.8e-4,-24.32617 26.70117,-30.01172 l 113.35157,-17.78516 c 6.64612,-0.99876 11.64325,-1.58672 15.40039,-1.54492 11.27143,0.12557 11.38476,5.94269 11.38476,23.50195 v -2 c 0,-17.55926 -0.11333,-23.37638 -11.38476,-23.50195 z m -37.57813,193.61719 c -15.2111,0 -24.28414,5.82447 -29.77539,13.49609 -5.49121,7.67162 -7.3125,17.34142 -7.3125,24.81641 0,0.39481 0.0135,0.79256 0.0254,1.18945 0.12512,-7.35678 1.98799,-16.6026 7.28711,-24.00586 5.49125,-7.67162 14.56429,-13.49609 29.77539,-13.49609 12.14388,4e-5 21.18307,4.04572 29.66602,9.73047 v -0.008 c 2.03605,1.36443 3.97926,2.75165 5.94922,4.13086 v -2 c -1.96996,-1.37921 -3.91317,-2.76643 -5.94922,-4.13086 v 0.008 c -8.48295,-5.68475 -17.52214,-9.73043 -29.66602,-9.73047 z m -153.49023,26.69336 c -15.2111,0 -24.2861,5.82447 -29.77735,13.49609 -5.49121,7.67161 -7.31054,17.34339 -7.31054,24.81836 0,0.39462 0.0135,0.7908 0.0254,1.1875 0.12533,-7.35654 1.98636,-16.60307 7.28515,-24.00586 5.49125,-7.67162 14.56625,-13.49609 29.77735,-13.49609 12.14388,3e-5 21.18306,4.04573 29.66601,9.73047 v -0.008 c 2.03605,1.36443 3.97926,2.7536 5.94922,4.13282 v -2 c -1.96996,-1.37922 -3.91317,-2.76839 -5.94922,-4.13282 v 0.008 c -8.48295,-5.68474 -17.52213,-9.73044 -29.66601,-9.73047 z"
       style="font-style:normal;font-variant:normal;font-weight:normal;font-stretch:normal;font-size:15px;line-height:125%;font-family:Ubuntu;-inkscape-font-specification:Ubuntu;text-align:center;letter-spacing:0px;word-spacing:0px;writing-mode:lr-tb;text-anchor:middle;display:inline;fill:#ffffff;fill-opacity:1;stroke:none;stroke-width:3.33542728;enable-background:new"
       inkscape:connector-curvature="0" />
  </g>
</svg>
