<?xml version="1.0" encoding="UTF-8" standalone="no"?>
<!-- Created with Inkscape (http://www.inkscape.org/) -->

<svg
   xmlns:dc="http://purl.org/dc/elements/1.1/"
   xmlns:cc="http://creativecommons.org/ns#"
   xmlns:rdf="http://www.w3.org/1999/02/22-rdf-syntax-ns#"
   xmlns:svg="http://www.w3.org/2000/svg"
   xmlns="http://www.w3.org/2000/svg"
   xmlns:xlink="http://www.w3.org/1999/xlink"
   xmlns:sodipodi="http://sodipodi.sourceforge.net/DTD/sodipodi-0.dtd"
   xmlns:inkscape="http://www.inkscape.org/namespaces/inkscape"
   width="512"
   height="512"
   id="svg3336"
   version="1.1"
   inkscape:version="0.91+devel r"
   sodipodi:docname="music-app00.svg"
   inkscape:export-filename="app_shape02.png"
   inkscape:export-xdpi="180"
   inkscape:export-ydpi="180"
   style="enable-background:new"
   viewBox="0 0 512 512">
  <defs
     id="defs3338">
    <linearGradient
       id="linearGradient4340"
       inkscape:collect="always">
      <stop
         id="stop4366"
         offset="0"
         style="stop-color:#000000;stop-opacity:0" />
      <stop
         style="stop-color:#000000;stop-opacity:1"
         offset="0.5047667"
         id="stop4368" />
      <stop
         id="stop4370"
         offset="1"
         style="stop-color:#000000;stop-opacity:0" />
    </linearGradient>
    <linearGradient
       inkscape:collect="always"
       id="linearGradient4319">
      <stop
         style="stop-color:#fed965;stop-opacity:1"
         offset="0"
         id="stop4322" />
      <stop
         style="stop-color:#fed965;stop-opacity:0"
         offset="1"
         id="stop4324" />
    </linearGradient>
    <linearGradient
       inkscape:collect="always"
       id="linearGradient4290">
      <stop
         style="stop-color:#e72662;stop-opacity:1"
         offset="0"
         id="stop4292" />
      <stop
         id="stop4272"
         offset="0.48271722"
         style="stop-color:#ec3c50;stop-opacity:1" />
      <stop
         style="stop-color:#ff7b66;stop-opacity:1"
         offset="1"
         id="stop4294" />
    </linearGradient>
    <linearGradient
       id="linearGradient4287"
       inkscape:collect="always">
      <stop
         id="stop4424"
         offset="0"
         style="stop-color:#ff9169;stop-opacity:1" />
      <stop
         id="stop4426"
         offset="1"
         style="stop-color:#f09778;stop-opacity:0" />
    </linearGradient>
    <linearGradient
       inkscape:collect="always"
       id="linearGradient4338">
      <stop
         style="stop-color:#ef5145;stop-opacity:0"
         offset="0"
         id="stop4340" />
      <stop
         id="stop4346"
         offset="1"
         style="stop-color:#ef5145;stop-opacity:1" />
    </linearGradient>
    <linearGradient
       inkscape:collect="always"
       id="linearGradient4317">
      <stop
         style="stop-color:#fdedec;stop-opacity:1"
         offset="0"
         id="stop4319" />
      <stop
         style="stop-color:#ffffff;stop-opacity:1"
         offset="1"
         id="stop4321" />
    </linearGradient>
    <linearGradient
       inkscape:collect="always"
       xlink:href="#linearGradient4290"
       id="linearGradient4296"
       x1="34"
       y1="41.649899"
       x2="475.40479"
       y2="478.30945"
       gradientUnits="userSpaceOnUse" />
    <linearGradient
       inkscape:collect="always"
       xlink:href="#linearGradient4340"
       id="linearGradient4331"
       x1="240.20003"
       y1="404.85074"
       x2="240.20003"
       y2="108"
       gradientUnits="userSpaceOnUse" />
    <filter
       inkscape:collect="always"
       style="color-interpolation-filters:sRGB"
       id="filter4333"
       x="-0.1068383"
       width="1.2136766"
       y="-0.087158173"
       height="1.1743163">
      <feGaussianBlur
         inkscape:collect="always"
         stdDeviation="10.666022"
         id="feGaussianBlur4335" />
    </filter>
    <filter
       inkscape:collect="always"
       style="color-interpolation-filters:sRGB"
       id="filter4360"
       x="-0.013354787"
       width="1.0267096"
       y="-0.010894771"
       height="1.0217896">
      <feGaussianBlur
         inkscape:collect="always"
         stdDeviation="1.3332528"
         id="feGaussianBlur4362" />
    </filter>
    <linearGradient
       inkscape:collect="always"
       xlink:href="#linearGradient4317"
       id="linearGradient4370"
       x1="272"
       y1="400"
       x2="272"
       y2="112"
       gradientUnits="userSpaceOnUse" />
    <linearGradient
       inkscape:collect="always"
       xlink:href="#linearGradient4338"
       id="linearGradient4384"
       x1="318"
       y1="300"
       x2="162"
       y2="172"
       gradientUnits="userSpaceOnUse" />
    <linearGradient
       inkscape:collect="always"
       xlink:href="#linearGradient4287"
       id="linearGradient4348"
       x1="456"
       y1="368"
       x2="456"
       y2="192"
       gradientUnits="userSpaceOnUse" />
    <linearGradient
       inkscape:collect="always"
       xlink:href="#linearGradient4287"
       id="linearGradient4350"
       x1="416"
       y1="336"
       x2="416"
       y2="128"
       gradientUnits="userSpaceOnUse" />
    <linearGradient
       inkscape:collect="always"
       xlink:href="#linearGradient4287"
       id="linearGradient4352"
       x1="376"
       y1="304"
       x2="376"
       y2="96"
       gradientUnits="userSpaceOnUse" />
    <linearGradient
       inkscape:collect="always"
       xlink:href="#linearGradient4287"
       id="linearGradient4354"
       x1="336"
       y1="288"
       x2="336"
       y2="152"
       gradientUnits="userSpaceOnUse" />
    <linearGradient
       inkscape:collect="always"
       xlink:href="#linearGradient4287"
       id="linearGradient4356"
       x1="296"
       y1="280"
       x2="296"
       y2="72"
       gradientUnits="userSpaceOnUse" />
    <linearGradient
       inkscape:collect="always"
       xlink:href="#linearGradient4287"
       id="linearGradient4358"
       x1="56"
       y1="360"
       x2="56"
       y2="184"
       gradientUnits="userSpaceOnUse" />
    <linearGradient
       inkscape:collect="always"
       xlink:href="#linearGradient4287"
       id="linearGradient4360"
       x1="96.800003"
       y1="352"
       x2="96.800003"
       y2="162.39999"
       gradientUnits="userSpaceOnUse" />
    <linearGradient
       inkscape:collect="always"
       xlink:href="#linearGradient4287"
       id="linearGradient4362"
       x1="136"
       y1="312"
       x2="136"
       y2="80"
       gradientUnits="userSpaceOnUse" />
    <linearGradient
       inkscape:collect="always"
       xlink:href="#linearGradient4287"
       id="linearGradient4364"
       x1="177.60001"
       y1="264"
       x2="176"
       y2="136"
       gradientUnits="userSpaceOnUse" />
    <linearGradient
       inkscape:collect="always"
       xlink:href="#linearGradient4287"
       id="linearGradient4366"
       x1="216"
       y1="326.10156"
       x2="218"
       y2="-32"
       gradientUnits="userSpaceOnUse" />
    <linearGradient
       inkscape:collect="always"
       xlink:href="#linearGradient4287"
       id="linearGradient4368"
       x1="288"
       y1="296"
       x2="288"
       y2="72"
       gradientUnits="userSpaceOnUse" />
    <linearGradient
       inkscape:collect="always"
       xlink:href="#linearGradient4319"
       id="linearGradient4390"
       x1="256"
       y1="232"
       x2="256"
       y2="400"
       gradientUnits="userSpaceOnUse" />
    <linearGradient
       inkscape:collect="always"
       xlink:href="#linearGradient4319"
       id="linearGradient4394"
       gradientUnits="userSpaceOnUse"
       x1="256"
       y1="232"
       x2="256"
       y2="472"
       gradientTransform="translate(-40)" />
    <linearGradient
       inkscape:collect="always"
       xlink:href="#linearGradient4319"
       id="linearGradient4398"
       gradientUnits="userSpaceOnUse"
       gradientTransform="translate(-80)"
       x1="256"
       y1="200"
       x2="256"
       y2="400" />
    <linearGradient
       inkscape:collect="always"
       xlink:href="#linearGradient4319"
       id="linearGradient4402"
       gradientUnits="userSpaceOnUse"
       gradientTransform="translate(-120)"
       x1="256"
       y1="152"
       x2="256"
       y2="368" />
    <linearGradient
       inkscape:collect="always"
       xlink:href="#linearGradient4319"
       id="linearGradient4406"
       gradientUnits="userSpaceOnUse"
       gradientTransform="translate(-160)"
       x1="256"
       y1="112"
       x2="256"
       y2="408" />
    <linearGradient
       inkscape:collect="always"
       xlink:href="#linearGradient4319"
       id="linearGradient4411"
       gradientUnits="userSpaceOnUse"
       gradientTransform="translate(-200)"
       x1="256"
       y1="160"
       x2="256"
       y2="312" />
    <linearGradient
       inkscape:collect="always"
       xlink:href="#linearGradient4319"
       id="linearGradient4415"
       gradientUnits="userSpaceOnUse"
       x1="256"
       y1="160"
       x2="256"
       y2="544"
       gradientTransform="translate(40)" />
    <linearGradient
       inkscape:collect="always"
       xlink:href="#linearGradient4319"
       id="linearGradient4419"
       gradientUnits="userSpaceOnUse"
       gradientTransform="translate(80)"
       x1="256"
       y1="208"
       x2="256"
       y2="456" />
    <linearGradient
       inkscape:collect="always"
       xlink:href="#linearGradient4319"
       id="linearGradient4423"
       gradientUnits="userSpaceOnUse"
       gradientTransform="translate(120)"
       x1="256"
       y1="176"
       x2="256"
       y2="368" />
    <linearGradient
       inkscape:collect="always"
       xlink:href="#linearGradient4319"
       id="linearGradient4427"
       gradientUnits="userSpaceOnUse"
       gradientTransform="translate(160)"
       x1="256"
       y1="185.89844"
       x2="256"
       y2="376" />
    <linearGradient
       inkscape:collect="always"
       xlink:href="#linearGradient4319"
       id="linearGradient4431"
       gradientUnits="userSpaceOnUse"
       gradientTransform="translate(200)"
       x1="256"
       y1="128"
       x2="256"
       y2="352" />
  </defs>
  <sodipodi:namedview
     id="base"
     pagecolor="#b4b4b4"
     bordercolor="#666666"
     borderopacity="1.0"
     inkscape:pageopacity="0"
     inkscape:pageshadow="2"
     inkscape:zoom="1.25"
     inkscape:cx="183.7106"
     inkscape:cy="256.99376"
     inkscape:document-units="px"
     inkscape:current-layer="layer3"
     showgrid="false"
     inkscape:window-width="1920"
     inkscape:window-height="1029"
     inkscape:window-x="0"
     inkscape:window-y="24"
     inkscape:window-maximized="1"
     inkscape:snap-page="true"
     inkscape:showpageshadow="false"
     showborder="true"
     inkscape:snap-bbox="true"
     inkscape:bbox-paths="true"
     inkscape:bbox-nodes="true"
     inkscape:snap-bbox-edge-midpoints="true"
     inkscape:snap-bbox-midpoints="true"
     inkscape:object-paths="true"
     inkscape:object-nodes="true"
     inkscape:snap-intersection-paths="true"
     inkscape:snap-smooth-nodes="true"
     inkscape:snap-midpoints="true"
     inkscape:snap-object-midpoints="true"
     inkscape:snap-center="true"
     showguides="false"
     inkscape:guide-bbox="true"
     inkscape:snap-grids="true"
     fit-margin-top="18"
     fit-margin-left="0"
     fit-margin-right="0"
     fit-margin-bottom="18"
     inkscape:snap-global="true">
    <inkscape:grid
       type="xygrid"
       id="grid811"
       originx="0"
       originy="15.999999"
       visible="true"
       enabled="true" />
    <sodipodi:guide
       orientation="1,0"
       position="104,176"
       id="guide819" />
    <sodipodi:guide
       orientation="1,0"
       position="120,160"
       id="guide821" />
    <sodipodi:guide
       orientation="1,0"
       position="392,144"
       id="guide823" />
    <sodipodi:guide
       orientation="1,0"
       position="408,144"
       id="guide825" />
    <sodipodi:guide
       orientation="0,1"
       position="328,408"
       id="guide827" />
    <sodipodi:guide
       orientation="0,1"
       position="336,392"
       id="guide829" />
    <sodipodi:guide
       orientation="0,1"
       position="176,120"
       id="guide831" />
    <sodipodi:guide
       orientation="0,1"
       position="216,104"
       id="guide833" />
    <inkscape:grid
       type="axonomgrid"
       id="grid835"
       units="px"
       empspacing="60"
       gridanglex="42.9"
       gridanglez="42.9"
       spacingy="3.522px"
       enabled="false"
       originx="0"
       originy="16.999996" />
    <sodipodi:guide
       orientation="0,1"
       position="344,376"
       id="guide4126" />
    <sodipodi:guide
       orientation="0,1"
       position="160,136"
       id="guide4128" />
    <sodipodi:guide
       orientation="1,0"
       position="136,96"
       id="guide4130" />
    <sodipodi:guide
       orientation="1,0"
       position="376,136"
       id="guide4134" />
    <sodipodi:guide
       orientation="-0.70710678,0.70710678"
       position="256,256"
       id="guide4136" />
    <sodipodi:guide
       orientation="1,0"
       position="256,232"
       id="guide4138" />
    <sodipodi:guide
       orientation="0,1"
       position="288,256"
       id="guide4140" />
    <sodipodi:guide
       orientation="0.70710678,0.70710678"
       position="256,256"
       id="guide4142" />
    <sodipodi:guide
       orientation="0,1"
       position="248,15.999999"
       id="guide4152" />
    <sodipodi:guide
       orientation="0,1"
       position="336,496"
       id="guide4154" />
  </sodipodi:namedview>
  <metadata
     id="metadata3341">
    <rdf:RDF>
      <cc:Work
         rdf:about="">
        <dc:format>image/svg+xml</dc:format>
        <dc:type
           rdf:resource="http://purl.org/dc/dcmitype/StillImage" />
        <dc:title></dc:title>
      </cc:Work>
    </rdf:RDF>
  </metadata>
  <g
     inkscape:groupmode="layer"
     id="layer3"
     inkscape:label="Background">
    <path
       style="color:#000000;display:inline;overflow:visible;visibility:visible;fill:url(#linearGradient4296);fill-opacity:1;fill-rule:nonzero;stroke:none;stroke-width:1;marker:none;enable-background:accumulate"
       d="M 0 0 L 0 183.89844 L 0 328.10156 L 0 512 L 512 512 L 512 328.10156 L 512 183.89844 L 512 0 L 0 0 z "
       id="rect4158" />
    <path
       style="color:#000000;display:inline;overflow:visible;visibility:visible;opacity:0.1;fill:#ffffff;fill-opacity:1;fill-rule:nonzero;stroke:none;stroke-width:1;marker:none;enable-background:accumulate"
       d="M 0 256 L 0 328.10156 L 0 512 L 512 512 L 512 328.10156 L 512 256 L 0 256 z "
       id="path4269" />
    <g
       id="g4370"
       style="opacity:0.5">
      <path
         id="rect4273"
         transform="translate(-32,-32)"
         d="m 272,72 0,16 32,0 0,-16 -32,0 z m 0,24 0,16 32,0 0,-16 -32,0 z m 0,24 0,16 32,0 0,-16 -32,0 z m 0,24 0,16 32,0 0,-16 -32,0 z m 0,24 0,16 32,0 0,-16 -32,0 z m 0,24 0,16 32,0 0,-16 -32,0 z m 0,24 0,16 32,0 0,-16 -32,0 z m 0,24 0,16 32,0 0,-16 -32,0 z m 0,24 0,16 32,0 0,-16 -32,0 z"
         style="color:#000000;display:inline;overflow:visible;visibility:visible;opacity:1;fill:url(#linearGradient4368);fill-opacity:1;fill-rule:nonzero;stroke:none;stroke-width:64;stroke-linecap:butt;stroke-linejoin:miter;stroke-miterlimit:4;stroke-dasharray:none;stroke-dashoffset:0;stroke-opacity:1;marker:none;enable-background:accumulate"
         inkscape:connector-curvature="0" />
      <path
         inkscape:connector-curvature="0"
         style="color:#000000;display:inline;overflow:visible;visibility:visible;opacity:1;fill:url(#linearGradient4366);fill-opacity:1;fill-rule:nonzero;stroke:none;stroke-width:64;stroke-linecap:butt;stroke-linejoin:miter;stroke-miterlimit:4;stroke-dasharray:none;stroke-dashoffset:0;stroke-opacity:1;marker:none;enable-background:accumulate"
         d="m 200,40 0,16 32,0 0,-16 -32,0 z m 0,24 0,16 32,0 0,-16 -32,0 z m 0,24 0,16 32,0 0,-16 -32,0 z m 0,24 0,16 32,0 0,-16 -32,0 z m 0,24 0,16 32,0 0,-16 -32,0 z m 0,24 0,16 32,0 0,-16 -32,0 z m 0,24 0,16 32,0 0,-16 -32,0 z m 0,24 0,16 32,0 0,-16 -32,0 z m 0,24 0,16 32,0 0,-16 -32,0 z"
         id="path4292" />
      <path
         id="path4294"
         d="m 160,40 0,16 32,0 0,-16 -32,0 z m 0,24 0,16 32,0 0,-16 -32,0 z m 0,24 0,16 32,0 0,-16 -32,0 z m 0,24 0,16 32,0 0,-16 -32,0 z m 0,24 0,16 32,0 0,-16 -32,0 z m 0,24 0,16 32,0 0,-16 -32,0 z m 0,24 0,16 32,0 0,-16 -32,0 z m 0,24 0,16 32,0 0,-16 -32,0 z m 0,24 0,16 32,0 0,-16 -32,0 z"
         style="color:#000000;display:inline;overflow:visible;visibility:visible;opacity:1;fill:url(#linearGradient4364);fill-opacity:1;fill-rule:nonzero;stroke:none;stroke-width:64;stroke-linecap:butt;stroke-linejoin:miter;stroke-miterlimit:4;stroke-dasharray:none;stroke-dashoffset:0;stroke-opacity:1;marker:none;enable-background:accumulate"
         inkscape:connector-curvature="0" />
      <path
         inkscape:connector-curvature="0"
         style="color:#000000;display:inline;overflow:visible;visibility:visible;opacity:1;fill:url(#linearGradient4362);fill-opacity:1;fill-rule:nonzero;stroke:none;stroke-width:64;stroke-linecap:butt;stroke-linejoin:miter;stroke-miterlimit:4;stroke-dasharray:none;stroke-dashoffset:0;stroke-opacity:1;marker:none;enable-background:accumulate"
         d="m 120,40 0,16 32,0 0,-16 -32,0 z m 0,24 0,16 32,0 0,-16 -32,0 z m 0,24 0,16 32,0 0,-16 -32,0 z m 0,24 0,16 32,0 0,-16 -32,0 z m 0,24 0,16 32,0 0,-16 -32,0 z m 0,24 0,16 32,0 0,-16 -32,0 z m 0,24 0,16 32,0 0,-16 -32,0 z m 0,24 0,16 32,0 0,-16 -32,0 z m 0,24 0,16 32,0 0,-16 -32,0 z"
         id="path4296" />
      <path
         id="path4298"
         d="m 80,40 0,16 32,0 0,-16 -32,0 z m 0,24 0,16 32,0 0,-16 -32,0 z m 0,24 0,16 32,0 0,-16 -32,0 z m 0,24 0,16 32,0 0,-16 -32,0 z m 0,24 0,16 32,0 0,-16 -32,0 z m 0,24 0,16 32,0 0,-16 -32,0 z m 0,24 0,16 32,0 0,-16 -32,0 z m 0,24 0,16 32,0 0,-16 -32,0 z m 0,24 0,16 32,0 0,-16 -32,0 z"
         style="color:#000000;display:inline;overflow:visible;visibility:visible;opacity:1;fill:url(#linearGradient4360);fill-opacity:1;fill-rule:nonzero;stroke:none;stroke-width:64;stroke-linecap:butt;stroke-linejoin:miter;stroke-miterlimit:4;stroke-dasharray:none;stroke-dashoffset:0;stroke-opacity:1;marker:none;enable-background:accumulate"
         inkscape:connector-curvature="0" />
      <path
         inkscape:connector-curvature="0"
         style="color:#000000;display:inline;overflow:visible;visibility:visible;opacity:1;fill:url(#linearGradient4358);fill-opacity:1;fill-rule:nonzero;stroke:none;stroke-width:64;stroke-linecap:butt;stroke-linejoin:miter;stroke-miterlimit:4;stroke-dasharray:none;stroke-dashoffset:0;stroke-opacity:1;marker:none;enable-background:accumulate"
         d="m 40,40 0,16 32,0 0,-16 -32,0 z m 0,24 0,16 32,0 0,-16 -32,0 z m 0,24 0,16 32,0 0,-16 -32,0 z m 0,24 0,16 32,0 0,-16 -32,0 z m 0,24 0,16 32,0 0,-16 -32,0 z m 0,24 0,16 32,0 0,-16 -32,0 z m 0,24 0,16 32,0 0,-16 -32,0 z m 0,24 0,16 32,0 0,-16 -32,0 z m 0,24 0,16 32,0 0,-16 -32,0 z"
         id="path4301" />
      <path
         inkscape:connector-curvature="0"
         style="color:#000000;display:inline;overflow:visible;visibility:visible;opacity:1;fill:url(#linearGradient4356);fill-opacity:1;fill-rule:nonzero;stroke:none;stroke-width:64;stroke-linecap:butt;stroke-linejoin:miter;stroke-miterlimit:4;stroke-dasharray:none;stroke-dashoffset:0;stroke-opacity:1;marker:none;enable-background:accumulate"
         d="m 280,40 0,16 32,0 0,-16 -32,0 z m 0,24 0,16 32,0 0,-16 -32,0 z m 0,24 0,16 32,0 0,-16 -32,0 z m 0,24 0,16 32,0 0,-16 -32,0 z m 0,24 0,16 32,0 0,-16 -32,0 z m 0,24 0,16 32,0 0,-16 -32,0 z m 0,24 0,16 32,0 0,-16 -32,0 z m 0,24 0,16 32,0 0,-16 -32,0 z m 0,24 0,16 32,0 0,-16 -32,0 z"
         id="path4303" />
      <path
         id="path4305"
         d="m 320,40 0,16 32,0 0,-16 -32,0 z m 0,24 0,16 32,0 0,-16 -32,0 z m 0,24 0,16 32,0 0,-16 -32,0 z m 0,24 0,16 32,0 0,-16 -32,0 z m 0,24 0,16 32,0 0,-16 -32,0 z m 0,24 0,16 32,0 0,-16 -32,0 z m 0,24 0,16 32,0 0,-16 -32,0 z m 0,24 0,16 32,0 0,-16 -32,0 z m 0,24 0,16 32,0 0,-16 -32,0 z"
         style="color:#000000;display:inline;overflow:visible;visibility:visible;opacity:1;fill:url(#linearGradient4354);fill-opacity:1;fill-rule:nonzero;stroke:none;stroke-width:64;stroke-linecap:butt;stroke-linejoin:miter;stroke-miterlimit:4;stroke-dasharray:none;stroke-dashoffset:0;stroke-opacity:1;marker:none;enable-background:accumulate"
         inkscape:connector-curvature="0" />
      <path
         inkscape:connector-curvature="0"
         style="color:#000000;display:inline;overflow:visible;visibility:visible;opacity:1;fill:url(#linearGradient4352);fill-opacity:1;fill-rule:nonzero;stroke:none;stroke-width:64;stroke-linecap:butt;stroke-linejoin:miter;stroke-miterlimit:4;stroke-dasharray:none;stroke-dashoffset:0;stroke-opacity:1;marker:none;enable-background:accumulate"
         d="m 360,40 0,16 32,0 0,-16 -32,0 z m 0,24 0,16 32,0 0,-16 -32,0 z m 0,24 0,16 32,0 0,-16 -32,0 z m 0,24 0,16 32,0 0,-16 -32,0 z m 0,24 0,16 32,0 0,-16 -32,0 z m 0,24 0,16 32,0 0,-16 -32,0 z m 0,24 0,16 32,0 0,-16 -32,0 z m 0,24 0,16 32,0 0,-16 -32,0 z m 0,24 0,16 32,0 0,-16 -32,0 z"
         id="path4307" />
      <path
         id="path4309"
         d="m 400,40 0,16 32,0 0,-16 -32,0 z m 0,24 0,16 32,0 0,-16 -32,0 z m 0,24 0,16 32,0 0,-16 -32,0 z m 0,24 0,16 32,0 0,-16 -32,0 z m 0,24 0,16 32,0 0,-16 -32,0 z m 0,24 0,16 32,0 0,-16 -32,0 z m 0,24 0,16 32,0 0,-16 -32,0 z m 0,24 0,16 32,0 0,-16 -32,0 z m 0,24 0,16 32,0 0,-16 -32,0 z"
         style="color:#000000;display:inline;overflow:visible;visibility:visible;opacity:1;fill:url(#linearGradient4350);fill-opacity:1;fill-rule:nonzero;stroke:none;stroke-width:64;stroke-linecap:butt;stroke-linejoin:miter;stroke-miterlimit:4;stroke-dasharray:none;stroke-dashoffset:0;stroke-opacity:1;marker:none;enable-background:accumulate"
         inkscape:connector-curvature="0" />
      <path
         inkscape:connector-curvature="0"
         style="color:#000000;display:inline;overflow:visible;visibility:visible;opacity:1;fill:url(#linearGradient4348);fill-opacity:1;fill-rule:nonzero;stroke:none;stroke-width:64;stroke-linecap:butt;stroke-linejoin:miter;stroke-miterlimit:4;stroke-dasharray:none;stroke-dashoffset:0;stroke-opacity:1;marker:none;enable-background:accumulate"
         d="m 440,40 0,16 32,0 0,-16 -32,0 z m 0,24 0,16 32,0 0,-16 -32,0 z m 0,24 0,16 32,0 0,-16 -32,0 z m 0,24 0,16 32,0 0,-16 -32,0 z m 0,24 0,16 32,0 0,-16 -32,0 z m 0,24 0,16 32,0 0,-16 -32,0 z m 0,24 0,16 32,0 0,-16 -32,0 z m 0,24 0,16 32,0 0,-16 -32,0 z m 0,24 0,16 32,0 0,-16 -32,0 z"
         id="path4311" />
    </g>
    <g
       id="g4433"
       style="opacity:0.5">
      <path
         inkscape:connector-curvature="0"
         style="color:#000000;display:inline;overflow:visible;visibility:visible;opacity:0.46700003;fill:url(#linearGradient4390);fill-opacity:1;fill-rule:nonzero;stroke:none;stroke-width:64;stroke-linecap:butt;stroke-linejoin:miter;stroke-miterlimit:4;stroke-dasharray:none;stroke-dashoffset:0;stroke-opacity:1;marker:none;enable-background:accumulate"
         d="m 240,264 0,16 32,0 0,-16 -32,0 z m 0,24 0,16 32,0 0,-16 -32,0 z m 0,24 0,16 32,0 0,-16 -32,0 z m 0,24 0,16 32,0 0,-16 -32,0 z m 0,24 0,16 32,0 0,-16 -32,0 z m 0,24 0,16 32,0 0,-16 -32,0 z m 0,24 0,16 32,0 0,-16 -32,0 z m 0,24 0,16 32,0 0,-16 -32,0 z m 0,24 0,16 32,0 0,-16 -32,0 z"
         id="path4313" />
      <path
         id="path4392"
         d="m 200,264 0,16 32,0 0,-16 -32,0 z m 0,24 0,16 32,0 0,-16 -32,0 z m 0,24 0,16 32,0 0,-16 -32,0 z m 0,24 0,16 32,0 0,-16 -32,0 z m 0,24 0,16 32,0 0,-16 -32,0 z m 0,24 0,16 32,0 0,-16 -32,0 z m 0,24 0,16 32,0 0,-16 -32,0 z m 0,24 0,16 32,0 0,-16 -32,0 z m 0,24 0,16 32,0 0,-16 -32,0 z"
         style="color:#000000;display:inline;overflow:visible;visibility:visible;opacity:0.46700003;fill:url(#linearGradient4394);fill-opacity:1;fill-rule:nonzero;stroke:none;stroke-width:64;stroke-linecap:butt;stroke-linejoin:miter;stroke-miterlimit:4;stroke-dasharray:none;stroke-dashoffset:0;stroke-opacity:1;marker:none;enable-background:accumulate"
         inkscape:connector-curvature="0" />
      <path
         inkscape:connector-curvature="0"
         style="color:#000000;display:inline;overflow:visible;visibility:visible;opacity:0.46700003;fill:url(#linearGradient4398);fill-opacity:1;fill-rule:nonzero;stroke:none;stroke-width:64;stroke-linecap:butt;stroke-linejoin:miter;stroke-miterlimit:4;stroke-dasharray:none;stroke-dashoffset:0;stroke-opacity:1;marker:none;enable-background:accumulate"
         d="m 160,264 0,16 32,0 0,-16 -32,0 z m 0,24 0,16 32,0 0,-16 -32,0 z m 0,24 0,16 32,0 0,-16 -32,0 z m 0,24 0,16 32,0 0,-16 -32,0 z m 0,24 0,16 32,0 0,-16 -32,0 z m 0,24 0,16 32,0 0,-16 -32,0 z m 0,24 0,16 32,0 0,-16 -32,0 z m 0,24 0,16 32,0 0,-16 -32,0 z m 0,24 0,16 32,0 0,-16 -32,0 z"
         id="path4396" />
      <path
         id="path4400"
         d="m 120,264 0,16 32,0 0,-16 -32,0 z m 0,24 0,16 32,0 0,-16 -32,0 z m 0,24 0,16 32,0 0,-16 -32,0 z m 0,24 0,16 32,0 0,-16 -32,0 z m 0,24 0,16 32,0 0,-16 -32,0 z m 0,24 0,16 32,0 0,-16 -32,0 z m 0,24 0,16 32,0 0,-16 -32,0 z m 0,24 0,16 32,0 0,-16 -32,0 z m 0,24 0,16 32,0 0,-16 -32,0 z"
         style="color:#000000;display:inline;overflow:visible;visibility:visible;opacity:0.46700003;fill:url(#linearGradient4402);fill-opacity:1;fill-rule:nonzero;stroke:none;stroke-width:64;stroke-linecap:butt;stroke-linejoin:miter;stroke-miterlimit:4;stroke-dasharray:none;stroke-dashoffset:0;stroke-opacity:1;marker:none;enable-background:accumulate"
         inkscape:connector-curvature="0" />
      <path
         inkscape:connector-curvature="0"
         style="color:#000000;display:inline;overflow:visible;visibility:visible;opacity:0.46700003;fill:url(#linearGradient4406);fill-opacity:1;fill-rule:nonzero;stroke:none;stroke-width:64;stroke-linecap:butt;stroke-linejoin:miter;stroke-miterlimit:4;stroke-dasharray:none;stroke-dashoffset:0;stroke-opacity:1;marker:none;enable-background:accumulate"
         d="m 80,264 0,16 32,0 0,-16 -32,0 z m 0,24 0,16 32,0 0,-16 -32,0 z m 0,24 0,16 32,0 0,-16 -32,0 z m 0,24 0,16 32,0 0,-16 -32,0 z m 0,24 0,16 32,0 0,-16 -32,0 z m 0,24 0,16 32,0 0,-16 -32,0 z m 0,24 0,16 32,0 0,-16 -32,0 z m 0,24 0,16 32,0 0,-16 -32,0 z m 0,24 0,16 32,0 0,-16 -32,0 z"
         id="path4404" />
      <path
         id="path4408"
         d="m 40,264 0,16 32,0 0,-16 -32,0 z m 0,24 0,16 32,0 0,-16 -32,0 z m 0,24 0,16 32,0 0,-16 -32,0 z m 0,24 0,16 32,0 0,-16 -32,0 z m 0,24 0,16 32,0 0,-16 -32,0 z m 0,24 0,16 32,0 0,-16 -32,0 z m 0,24 0,16 32,0 0,-16 -32,0 z m 0,24 0,16 32,0 0,-16 -32,0 z m 0,24 0,16 32,0 0,-16 -32,0 z"
         style="color:#000000;display:inline;overflow:visible;visibility:visible;opacity:0.46700003;fill:url(#linearGradient4411);fill-opacity:1;fill-rule:nonzero;stroke:none;stroke-width:64;stroke-linecap:butt;stroke-linejoin:miter;stroke-miterlimit:4;stroke-dasharray:none;stroke-dashoffset:0;stroke-opacity:1;marker:none;enable-background:accumulate"
         inkscape:connector-curvature="0" />
      <path
         id="path4413"
         d="m 280,264 0,16 32,0 0,-16 -32,0 z m 0,24 0,16 32,0 0,-16 -32,0 z m 0,24 0,16 32,0 0,-16 -32,0 z m 0,24 0,16 32,0 0,-16 -32,0 z m 0,24 0,16 32,0 0,-16 -32,0 z m 0,24 0,16 32,0 0,-16 -32,0 z m 0,24 0,16 32,0 0,-16 -32,0 z m 0,24 0,16 32,0 0,-16 -32,0 z m 0,24 0,16 32,0 0,-16 -32,0 z"
         style="color:#000000;display:inline;overflow:visible;visibility:visible;opacity:0.46700003;fill:url(#linearGradient4415);fill-opacity:1;fill-rule:nonzero;stroke:none;stroke-width:64;stroke-linecap:butt;stroke-linejoin:miter;stroke-miterlimit:4;stroke-dasharray:none;stroke-dashoffset:0;stroke-opacity:1;marker:none;enable-background:accumulate"
         inkscape:connector-curvature="0" />
      <path
         inkscape:connector-curvature="0"
         style="color:#000000;display:inline;overflow:visible;visibility:visible;opacity:0.46700003;fill:url(#linearGradient4419);fill-opacity:1;fill-rule:nonzero;stroke:none;stroke-width:64;stroke-linecap:butt;stroke-linejoin:miter;stroke-miterlimit:4;stroke-dasharray:none;stroke-dashoffset:0;stroke-opacity:1;marker:none;enable-background:accumulate"
         d="m 320,264 0,16 32,0 0,-16 -32,0 z m 0,24 0,16 32,0 0,-16 -32,0 z m 0,24 0,16 32,0 0,-16 -32,0 z m 0,24 0,16 32,0 0,-16 -32,0 z m 0,24 0,16 32,0 0,-16 -32,0 z m 0,24 0,16 32,0 0,-16 -32,0 z m 0,24 0,16 32,0 0,-16 -32,0 z m 0,24 0,16 32,0 0,-16 -32,0 z m 0,24 0,16 32,0 0,-16 -32,0 z"
         id="path4417" />
      <path
         id="path4421"
         d="m 360,264 0,16 32,0 0,-16 -32,0 z m 0,24 0,16 32,0 0,-16 -32,0 z m 0,24 0,16 32,0 0,-16 -32,0 z m 0,24 0,16 32,0 0,-16 -32,0 z m 0,24 0,16 32,0 0,-16 -32,0 z m 0,24 0,16 32,0 0,-16 -32,0 z m 0,24 0,16 32,0 0,-16 -32,0 z m 0,24 0,16 32,0 0,-16 -32,0 z m 0,24 0,16 32,0 0,-16 -32,0 z"
         style="color:#000000;display:inline;overflow:visible;visibility:visible;opacity:0.46700003;fill:url(#linearGradient4423);fill-opacity:1;fill-rule:nonzero;stroke:none;stroke-width:64;stroke-linecap:butt;stroke-linejoin:miter;stroke-miterlimit:4;stroke-dasharray:none;stroke-dashoffset:0;stroke-opacity:1;marker:none;enable-background:accumulate"
         inkscape:connector-curvature="0" />
      <path
         inkscape:connector-curvature="0"
         style="color:#000000;display:inline;overflow:visible;visibility:visible;opacity:0.46700003;fill:url(#linearGradient4427);fill-opacity:1;fill-rule:nonzero;stroke:none;stroke-width:64;stroke-linecap:butt;stroke-linejoin:miter;stroke-miterlimit:4;stroke-dasharray:none;stroke-dashoffset:0;stroke-opacity:1;marker:none;enable-background:accumulate"
         d="m 400,264 0,16 32,0 0,-16 -32,0 z m 0,24 0,16 32,0 0,-16 -32,0 z m 0,24 0,16 32,0 0,-16 -32,0 z m 0,24 0,16 32,0 0,-16 -32,0 z m 0,24 0,16 32,0 0,-16 -32,0 z m 0,24 0,16 32,0 0,-16 -32,0 z m 0,24 0,16 32,0 0,-16 -32,0 z m 0,24 0,16 32,0 0,-16 -32,0 z m 0,24 0,16 32,0 0,-16 -32,0 z"
         id="path4425" />
      <path
         id="path4429"
         d="m 440,264 0,16 32,0 0,-16 -32,0 z m 0,24 0,16 32,0 0,-16 -32,0 z m 0,24 0,16 32,0 0,-16 -32,0 z m 0,24 0,16 32,0 0,-16 -32,0 z m 0,24 0,16 32,0 0,-16 -32,0 z m 0,24 0,16 32,0 0,-16 -32,0 z m 0,24 0,16 32,0 0,-16 -32,0 z m 0,24 0,16 32,0 0,-16 -32,0 z m 0,24 0,16 32,0 0,-16 -32,0 z"
         style="color:#000000;display:inline;overflow:visible;visibility:visible;opacity:0.46700003;fill:url(#linearGradient4431);fill-opacity:1;fill-rule:nonzero;stroke:none;stroke-width:64;stroke-linecap:butt;stroke-linejoin:miter;stroke-miterlimit:4;stroke-dasharray:none;stroke-dashoffset:0;stroke-opacity:1;marker:none;enable-background:accumulate"
         inkscape:connector-curvature="0" />
    </g>
  </g>
  <g
     inkscape:groupmode="layer"
     id="layer4"
     inkscape:label="Pictogram"
     sodipodi:insensitive="true"
     style="display:inline">
    <path
       inkscape:connector-curvature="0"
       id="path4338"
       d="m 318.47405,111.16816 c -7.01985,-0.0694 -14.75185,0.0484 -22.89329,0.48237 -32.5658,1.73568 -72.06485,8.24237 -99.85836,29.64656 l -2.60093,2.00121 0,3.28539 0,64.92519 0,130.43708 c -1.9707,-1.37953 -3.91494,-2.768 -5.95146,-4.13278 l 0,0.007 c -8.48488,-5.68616 -17.52596,-9.73241 -29.67266,-9.73241 -15.21463,0 -24.29095,5.82661 -29.78347,13.50001 -5.49249,7.67339 -7.31385,17.34609 -7.31385,24.82281 0,9.01584 3.08044,18.63741 9.75831,25.97008 6.67788,7.33273 16.94453,12.46985 31.70645,12.47008 16.66945,0 28.39583,-4.65054 35.02441,-13.74121 5.21902,-7.15744 8.10267,-16.72391 9.13256,-28.51884 l 0,-0.02 0,-0.0134 c 0.14418,-1.431 0.24798,-2.89226 0.33899,-4.40656 0.13984,-2.33146 0.11081,-6.70111 0.11081,-6.70111 l 0,-150.69687 c 23.98008,-18.1508 59.74666,-25.5837 89.97615,-27.90611 22.42587,-1.7229 41.17149,-0.80304 50.19972,-0.14351 l 0,142.5421 c -1.97071,-1.37953 -3.91495,-2.76801 -5.95147,-4.13278 l 0,0.007 c -8.48488,-5.68533 -17.52596,-9.73154 -29.67266,-9.73154 -15.21462,0 -24.29095,5.82661 -29.78347,13.5 -5.49249,7.6734 -7.31384,17.3461 -7.31384,24.82281 0,9.01585 3.08043,18.63742 9.75831,25.97009 6.67788,7.33269 16.94452,12.46984 31.70644,12.47007 16.66945,0 28.39583,-4.65053 35.02441,-13.7412 5.21902,-7.15742 8.10267,-16.72392 9.13256,-28.51885 l 0,-0.02 0,-0.0133 c 0.14418,-1.43099 0.24798,-2.89226 0.33899,-4.40656 0.13985,-2.33149 0.11081,-6.70111 0.11081,-6.70111 l 0,-150.74252 0,-59.99714 -5.8211,-0.74964 c 0,0 -14.64278,-1.8837 -35.70236,-2.09246 z"
       style="font-style:normal;font-variant:normal;font-weight:normal;font-stretch:normal;font-size:15px;line-height:125%;font-family:Ubuntu;-inkscape-font-specification:Ubuntu;text-align:center;letter-spacing:0px;word-spacing:0px;writing-mode:lr-tb;text-anchor:middle;display:inline;opacity:0.1;fill:#000000;fill-opacity:1;stroke:none;stroke-width:0.99980223;filter:url(#filter4360);enable-background:new" />
    <path
       inkscape:connector-curvature="0"
       id="path4321"
       d="m 318.47405,111.16816 c -7.01985,-0.0694 -14.75185,0.0484 -22.89329,0.48237 -32.5658,1.73568 -72.06485,8.24237 -99.85836,29.64656 l -2.60093,2.00121 0,3.28539 0,64.92519 0,130.43708 c -1.9707,-1.37953 -3.91494,-2.768 -5.95146,-4.13278 l 0,0.007 c -8.48488,-5.68616 -17.52596,-9.73241 -29.67266,-9.73241 -15.21463,0 -24.29095,5.82661 -29.78347,13.50001 -5.49249,7.67339 -7.31385,17.34609 -7.31385,24.82281 0,9.01584 3.08044,18.63741 9.75831,25.97008 6.67788,7.33273 16.94453,12.46985 31.70645,12.47008 16.66945,0 28.39583,-4.65054 35.02441,-13.74121 5.21902,-7.15744 8.10267,-16.72391 9.13256,-28.51884 l 0,-0.02 0,-0.0134 c 0.14418,-1.431 0.24798,-2.89226 0.33899,-4.40656 0.13984,-2.33146 0.11081,-6.70111 0.11081,-6.70111 l 0,-150.69687 c 23.98008,-18.1508 59.74666,-25.5837 89.97615,-27.90611 22.42587,-1.7229 41.17149,-0.80304 50.19972,-0.14351 l 0,142.5421 c -1.97071,-1.37953 -3.91495,-2.76801 -5.95147,-4.13278 l 0,0.007 c -8.48488,-5.68533 -17.52596,-9.73154 -29.67266,-9.73154 -15.21462,0 -24.29095,5.82661 -29.78347,13.5 -5.49249,7.6734 -7.31384,17.3461 -7.31384,24.82281 0,9.01585 3.08043,18.63742 9.75831,25.97009 6.67788,7.33269 16.94452,12.46984 31.70644,12.47007 16.66945,0 28.39583,-4.65053 35.02441,-13.7412 5.21902,-7.15742 8.10267,-16.72392 9.13256,-28.51885 l 0,-0.02 0,-0.0133 c 0.14418,-1.43099 0.24798,-2.89226 0.33899,-4.40656 0.13985,-2.33149 0.11081,-6.70111 0.11081,-6.70111 l 0,-150.74252 0,-59.99714 -5.8211,-0.74964 c 0,0 -14.64278,-1.8837 -35.70236,-2.09246 z"
       style="font-style:normal;font-variant:normal;font-weight:normal;font-stretch:normal;font-size:15px;line-height:125%;font-family:Ubuntu;-inkscape-font-specification:Ubuntu;text-align:center;letter-spacing:0px;word-spacing:0px;writing-mode:lr-tb;text-anchor:middle;display:inline;opacity:0.4;fill:url(#linearGradient4331);fill-opacity:1;stroke:none;stroke-width:0.99980223;filter:url(#filter4333);enable-background:new" />
    <path
       style="font-style:normal;font-variant:normal;font-weight:normal;font-stretch:normal;font-size:15px;line-height:125%;font-family:Ubuntu;-inkscape-font-specification:Ubuntu;text-align:center;letter-spacing:0px;word-spacing:0px;writing-mode:lr-tb;text-anchor:middle;display:inline;fill:url(#linearGradient4370);fill-opacity:1;stroke:none;stroke-width:0.99980223;enable-background:new"
       d="m 318.47405,109.16816 c -7.01985,-0.0694 -14.75185,0.0484 -22.89329,0.48237 -32.5658,1.73568 -72.06485,8.24237 -99.85836,29.64656 l -2.60093,2.00121 0,3.28539 0,64.92519 0,130.43708 c -1.9707,-1.37953 -3.91494,-2.768 -5.95146,-4.13278 l 0,0.007 c -8.48488,-5.68616 -17.52596,-9.73241 -29.67266,-9.73241 -15.21463,0 -24.29095,5.82661 -29.78347,13.50001 -5.49249,7.67339 -7.31385,17.34609 -7.31385,24.82281 0,9.01584 3.08044,18.63741 9.75831,25.97008 6.67788,7.33273 16.94453,12.46985 31.70645,12.47008 16.66945,0 28.39583,-4.65054 35.02441,-13.74121 5.21902,-7.15744 8.10267,-16.72391 9.13256,-28.51884 l 0,-0.02 0,-0.0134 c 0.14418,-1.431 0.24798,-2.89226 0.33899,-4.40656 0.13984,-2.33146 0.11081,-6.70111 0.11081,-6.70111 l 0,-150.69687 c 23.98008,-18.1508 59.74666,-25.5837 89.97615,-27.90611 22.42587,-1.7229 41.17149,-0.80304 50.19972,-0.14351 l 0,142.5421 c -1.97071,-1.37953 -3.91495,-2.76801 -5.95147,-4.13278 l 0,0.007 c -8.48488,-5.68533 -17.52596,-9.73154 -29.67266,-9.73154 -15.21462,0 -24.29095,5.82661 -29.78347,13.5 -5.49249,7.6734 -7.31384,17.3461 -7.31384,24.82281 0,9.01585 3.08043,18.63742 9.75831,25.97009 6.67788,7.33269 16.94452,12.46984 31.70644,12.47007 16.66945,0 28.39583,-4.65053 35.02441,-13.7412 5.21902,-7.15742 8.10267,-16.72392 9.13256,-28.51885 l 0,-0.02 0,-0.0133 c 0.14418,-1.43099 0.24798,-2.89226 0.33899,-4.40656 0.13985,-2.33149 0.11081,-6.70111 0.11081,-6.70111 l 0,-150.74252 0,-59.99714 -5.8211,-0.74964 c 0,0 -14.64278,-1.8837 -35.70236,-2.09246 z"
       id="path4255"
       inkscape:connector-curvature="0" />
    <path
       style="color:#000000;display:inline;overflow:visible;visibility:visible;opacity:0.26100003;fill:url(#linearGradient4384);fill-opacity:1;fill-rule:nonzero;stroke:none;stroke-width:2;stroke-linecap:butt;stroke-linejoin:miter;stroke-miterlimit:4;stroke-dasharray:none;stroke-dashoffset:0;stroke-opacity:1;marker:none;enable-background:accumulate"
       d="m 273.07227,169.54102 c -14.64078,-0.0536 -30.62641,1.05495 -47.95118,3.75781 l 0,3.28515 0,64.92579 0,130.43554 c -1.9707,-1.37953 -3.91465,-2.76803 -5.95117,-4.13281 l 0,0.008 c -8.48488,-5.68616 -17.52517,-9.73242 -29.67187,-9.73242 -15.21463,0 -24.29069,5.8266 -29.78321,13.5 -5.49249,7.67339 -7.31445,17.34555 -7.31445,24.82227 0,9.01584 3.07994,18.63803 9.75781,25.9707 6.67788,7.33273 16.94511,12.47047 31.70703,12.4707 16.66945,0 28.39486,-4.65152 35.02344,-13.74218 5.21902,-7.15745 8.10292,-16.72461 9.13281,-28.51954 l 0,-0.0195 0,-0.0137 c 0.14418,-1.431 0.24884,-2.89195 0.33985,-4.40625 0.13984,-2.33146 0.10937,-6.70117 0.10937,-6.70117 l 0,-150.69727 c 23.98008,-18.1508 59.74708,-25.58384 89.97657,-27.90625 22.42587,-1.7229 41.17098,-0.80211 50.19921,-0.14258 l 13.35157,1.30469 c 0,0 -39.86561,-34.17715 -118.92578,-34.46679 z"
       transform="translate(-32,-32)"
       id="path4372"
       inkscape:connector-curvature="0" />
    <path
       style="font-style:normal;font-variant:normal;font-weight:normal;font-stretch:normal;font-size:15px;line-height:125%;font-family:Ubuntu;-inkscape-font-specification:Ubuntu;text-align:center;letter-spacing:0px;word-spacing:0px;writing-mode:lr-tb;text-anchor:middle;display:inline;fill:#ffffff;fill-opacity:1;stroke:none;stroke-width:0.99980223;enable-background:new"
       d="m 345.08008,141.15234 c -5.51776,0.0242 -11.39392,0.17257 -17.5,0.49805 -32.5658,1.73568 -72.06391,8.2423 -99.85742,29.64649 l -2.60157,2.00195 0,2 2.60157,-2.00195 c 27.79351,-21.40419 67.29162,-27.91081 99.85742,-29.64649 8.14144,-0.43397 15.87468,-0.55182 22.89453,-0.48242 21.05958,0.20876 35.70117,2.0918 35.70117,2.0918 l 5.82227,0.75 0,-2 -5.82227,-0.75 c 0,0 -14.64159,-1.88304 -35.70117,-2.0918 -1.75496,-0.0173 -3.55528,-0.0237 -5.39453,-0.0156 z m -2.05664,190.23633 c -15.21462,0 -24.29069,5.82661 -29.78321,13.5 -5.49249,7.6734 -7.31445,17.34556 -7.31445,24.82227 0,0.38906 0.0139,0.78079 0.0254,1.17187 0.12773,-7.35578 1.99273,-16.59479 7.28906,-23.99414 5.49252,-7.67339 14.56859,-13.5 29.78321,-13.5 12.1467,0 21.18699,4.04514 29.67187,9.73047 l 0,-0.006 c 2.03652,1.36477 3.98046,2.75328 5.95117,4.13281 l 0,-2 c -1.97071,-1.37953 -3.91465,-2.76804 -5.95117,-4.13281 l 0,0.006 c -8.48488,-5.68533 -17.52517,-9.73047 -29.67187,-9.73047 z m -153.52539,26.69922 c -15.21463,0 -24.29069,5.8266 -29.78321,13.5 -5.49249,7.67339 -7.31445,17.34555 -7.31445,24.82227 0,0.39425 0.0136,0.79117 0.0254,1.1875 0.12537,-7.35827 1.98904,-16.60527 7.28906,-24.00977 5.49252,-7.6734 14.56858,-13.5 29.78321,-13.5 12.1467,0 21.18699,4.04626 29.67187,9.73242 l 0,-0.008 c 2.03652,1.36478 3.98047,2.75328 5.95117,4.13281 l 0,-2 c -1.9707,-1.37953 -3.91465,-2.76803 -5.95117,-4.13281 l 0,0.008 c -8.48488,-5.68616 -17.52517,-9.73242 -29.67187,-9.73242 z"
       transform="translate(-32,-32)"
       id="path4386"
       inkscape:connector-curvature="0" />
  </g>
</svg>
