<?xml version="1.0" encoding="UTF-8" standalone="no"?>
<!-- Created with Inkscape (http://www.inkscape.org/) -->

<svg
   xmlns:dc="http://purl.org/dc/elements/1.1/"
   xmlns:cc="http://creativecommons.org/ns#"
   xmlns:rdf="http://www.w3.org/1999/02/22-rdf-syntax-ns#"
   xmlns:svg="http://www.w3.org/2000/svg"
   xmlns="http://www.w3.org/2000/svg"
   xmlns:sodipodi="http://sodipodi.sourceforge.net/DTD/sodipodi-0.dtd"
   xmlns:inkscape="http://www.inkscape.org/namespaces/inkscape"
   width="512.40002"
   height="512"
   id="svg3336"
   version="1.1"
   inkscape:version="0.92pre1 unknown"
   sodipodi:docname="online-accounts-owncloud.svg"
   inkscape:export-filename="app_shape02.png"
   inkscape:export-xdpi="180"
   inkscape:export-ydpi="180"
   viewBox="0 0 512.40002 512">
  <defs
     id="defs3338" />
  <sodipodi:namedview
     id="base"
     pagecolor="#333333"
     bordercolor="#666666"
     borderopacity="1.0"
     inkscape:pageopacity="0"
     inkscape:pageshadow="2"
     inkscape:zoom="0.68359373"
     inkscape:cx="-180.00457"
     inkscape:cy="248.10743"
     inkscape:document-units="px"
     inkscape:current-layer="layer4"
     showgrid="true"
     inkscape:window-width="1920"
     inkscape:window-height="1029"
     inkscape:window-x="0"
     inkscape:window-y="24"
     inkscape:window-maximized="1"
     inkscape:snap-page="true"
     inkscape:showpageshadow="false"
     showborder="true"
     inkscape:snap-bbox="true"
     inkscape:bbox-paths="true"
     inkscape:bbox-nodes="true"
     inkscape:snap-bbox-edge-midpoints="true"
     inkscape:snap-bbox-midpoints="true"
     inkscape:object-paths="true"
     inkscape:object-nodes="true"
     inkscape:snap-intersection-paths="true"
     inkscape:snap-smooth-nodes="true"
     inkscape:snap-midpoints="true"
     inkscape:snap-object-midpoints="true"
     inkscape:snap-center="true"
     showguides="true"
     inkscape:guide-bbox="true"
     inkscape:snap-grids="true"
     fit-margin-top="18"
     fit-margin-left="0"
     fit-margin-right="0.4"
     fit-margin-bottom="18">
    <inkscape:grid
       type="xygrid"
       id="grid811"
       originx="0px"
       originy="16.000003px"
       visible="true"
       enabled="true" />
    <sodipodi:guide
       orientation="1,0"
       position="104,176"
       id="guide819"
       inkscape:locked="false" />
    <sodipodi:guide
       orientation="1,0"
       position="120,160"
       id="guide821"
       inkscape:locked="false" />
    <sodipodi:guide
       orientation="1,0"
       position="392,144"
       id="guide823"
       inkscape:locked="false" />
    <sodipodi:guide
       orientation="1,0"
       position="408,144"
       id="guide825"
       inkscape:locked="false" />
    <sodipodi:guide
       orientation="0,1"
       position="328,408"
       id="guide827"
       inkscape:locked="false" />
    <sodipodi:guide
       orientation="0,1"
       position="336,392"
       id="guide829"
       inkscape:locked="false" />
    <sodipodi:guide
       orientation="0,1"
       position="176,120"
       id="guide831"
       inkscape:locked="false" />
    <sodipodi:guide
       orientation="0,1"
       position="216,104"
       id="guide833"
       inkscape:locked="false" />
    <inkscape:grid
       type="axonomgrid"
       id="grid835"
       units="px"
       empspacing="60"
       gridanglex="42.9"
       gridanglez="42.9"
       spacingy="3.522px"
       enabled="false"
       originx="0px"
       originy="17px" />
    <sodipodi:guide
       orientation="0,1"
       position="344,376"
       id="guide4126"
       inkscape:locked="false" />
    <sodipodi:guide
       orientation="0,1"
       position="160,136"
       id="guide4128"
       inkscape:locked="false" />
    <sodipodi:guide
       orientation="1,0"
       position="136,96.000003"
       id="guide4130"
       inkscape:locked="false" />
    <sodipodi:guide
       orientation="1,0"
       position="376,136"
       id="guide4134"
       inkscape:locked="false" />
    <sodipodi:guide
       orientation="-0.70710678,0.70710678"
       position="256,256"
       id="guide4136"
       inkscape:locked="false" />
    <sodipodi:guide
       orientation="1,0"
       position="256,232"
       id="guide4138"
       inkscape:locked="false" />
    <sodipodi:guide
       orientation="0,1"
       position="288,256"
       id="guide4140"
       inkscape:locked="false" />
    <sodipodi:guide
       orientation="0.70710678,0.70710678"
       position="256,256"
       id="guide4142"
       inkscape:locked="false" />
    <sodipodi:guide
       orientation="0,1"
       position="608,496"
       id="guide4121"
       inkscape:locked="false" />
    <sodipodi:guide
       orientation="0,1"
       position="592,16.000003"
       id="guide4123"
       inkscape:locked="false" />
  </sodipodi:namedview>
  <metadata
     id="metadata3341">
    <rdf:RDF>
      <cc:Work
         rdf:about="">
        <dc:format>image/svg+xml</dc:format>
        <dc:type
           rdf:resource="http://purl.org/dc/dcmitype/StillImage" />
        <dc:title />
      </cc:Work>
    </rdf:RDF>
  </metadata>
  <g
     inkscape:groupmode="layer"
     id="layer3"
     inkscape:label="Background">
    <rect
       style="color:#000000;display:inline;overflow:visible;visibility:visible;fill:#1d2d44;fill-opacity:1;fill-rule:nonzero;stroke:none;stroke-width:1;marker:none;enable-background:accumulate"
       id="rect4158"
       width="512"
       height="512"
       x="0"
       y="-3.0000001e-06" />
  </g>
  <g
     inkscape:groupmode="layer"
     id="layer4"
     inkscape:label="Pictogram"
     style="display:inline">
    <path
       inkscape:connector-curvature="0"
       style="color:#000000;font-style:normal;font-variant:normal;font-weight:normal;font-stretch:normal;font-size:medium;line-height:normal;font-family:Sans;-inkscape-font-specification:Sans;text-indent:0;text-align:start;text-decoration:none;text-decoration-line:none;letter-spacing:normal;word-spacing:normal;text-transform:none;writing-mode:lr-tb;direction:ltr;baseline-shift:baseline;text-anchor:start;display:inline;overflow:visible;visibility:visible;fill:#ffffff;fill-opacity:1;stroke:none;stroke-width:3.99999976;marker:none;enable-background:accumulate"
       d="m 240.05808,163.61215 c -25.43863,0 -45.99058,20.55195 -45.99058,45.99061 0,10.4859 3.49247,20.13584 9.37934,27.86398 12.77068,-14.78118 31.62008,-24.16441 52.66486,-24.16441 10.29606,0 20.05665,2.29212 28.85407,6.31182 0.71228,-3.22118 1.08292,-6.57298 1.08292,-10.01139 0,-25.43866 -20.55195,-45.99061 -45.99061,-45.99061 z m -60.0596,21.28255 c -13.24776,0 -23.89477,10.73982 -23.89477,23.98759 0,4.28924 1.10366,8.33914 3.06307,11.81036 7.99421,-4.50962 17.23818,-7.12071 27.05513,-7.12071 0.94741,0 1.85788,0.0367 2.79348,0.0885 -0.10593,-1.34296 -0.17674,-2.6877 -0.17674,-4.05758 0,-7.3787 1.59953,-14.39715 4.41562,-20.73886 -3.79163,-2.54257 -8.33398,-3.9692 -13.25572,-3.9692 z m 113.44495,16.50002 c -0.97869,0 -1.92269,0.12113 -2.88628,0.18127 0.41681,2.62803 0.72047,5.28267 0.72047,8.02683 0,4.27062 -0.54389,8.39121 -1.53377,12.35401 11.6059,6.42287 21.24409,16.03565 27.59434,27.68719 6.5867,-3.42907 13.93486,-5.61237 21.73338,-6.13504 -2.00983,-23.57028 -21.53496,-42.11422 -45.62814,-42.11422 z m -37.33173,17.13654 c -35.59629,0 -64.38683,28.78815 -64.38683,64.38683 0,35.59485 28.78907,64.38684 64.38683,64.38684 35.59777,0 64.38681,-28.79204 64.38681,-64.38684 0,-35.59862 -28.79051,-64.38683 -64.38681,-64.38683 z m -69.88979,0.26962 c -27.61598,0 -49.9598,22.34383 -49.9598,49.95979 0,16.25694 7.74562,30.64733 19.74877,39.76719 5.06027,-9.75986 15.22718,-16.41165 26.96673,-16.41165 1.41882,0 2.77852,0.16927 4.146,0.35803 -0.42929,-3.12316 -0.63208,-6.31574 -0.63208,-9.55615 0,-15.49302 5.04444,-29.82214 13.61817,-41.39375 -5.13215,-6.42198 -8.80392,-14.13606 -10.36943,-22.54223 -1.16024,-0.0803 -2.3375,-0.18128 -3.51836,-0.18128 z m 156.54923,29.76017 c -8.38544,0 -16.23912,2.13762 -23.1743,5.76817 3.93805,8.723 6.1306,18.40393 6.1306,28.58887 0,19.07047 -7.66897,36.38542 -20.1112,48.9653 9.14051,10.14787 22.40395,16.50446 37.1549,16.50446 27.61597,0 49.95979,-22.34382 49.95979,-49.95981 0,-27.61599 -22.34382,-49.86699 -49.95979,-49.86699 z m -211.3755,6.58145 c -25.43939,0 -46.083438,20.46283 -46.083438,45.90221 0,25.43939 20.644048,46.07898 46.083438,46.07898 9.68259,0 18.6512,-3.01594 26.0606,-8.11518 -3.06171,-4.75753 -4.8709,-10.44734 -4.8709,-16.50446 0,-3.14382 0.46374,-6.16326 1.35255,-9.01691 -13.87114,-10.02445 -22.9047,-26.33563 -22.9047,-44.72647 0,-4.6727 0.61733,-9.19408 1.71497,-13.52974 -0.4556,-0.0136 -0.89364,-0.0885 -1.35252,-0.0885 z m 270.4406,39.49756 c -1.35712,0 -2.67166,0.15637 -3.96921,0.36243 0.0715,1.14711 0.0927,2.26047 0.0927,3.42555 0,14.66817 -5.78959,27.98215 -15.15193,37.87537 4.60594,5.3562 11.37218,8.74729 19.02829,8.74729 13.94568,0 25.25173,-11.21325 25.25173,-25.15892 0,-13.94566 -11.30607,-25.25172 -25.25173,-25.25172 z m -218.85863,2.70506 c -13.94494,0 -25.16334,11.21398 -25.16334,25.15893 0,13.9449 11.2184,25.25171 25.16334,25.25171 10.68897,0 19.75948,-6.67169 23.44391,-16.05361 -8.99013,-9.15636 -15.45297,-20.8342 -18.30783,-33.81335 -1.67062,-0.34548 -3.36223,-0.54368 -5.13608,-0.54368 z"
       id="path4419" />
  </g>
</svg>
