<?xml version="1.0" encoding="UTF-8" standalone="no"?>
<!-- Created with Inkscape (http://www.inkscape.org/) -->

<svg
   xmlns:dc="http://purl.org/dc/elements/1.1/"
   xmlns:cc="http://creativecommons.org/ns#"
   xmlns:rdf="http://www.w3.org/1999/02/22-rdf-syntax-ns#"
   xmlns:svg="http://www.w3.org/2000/svg"
   xmlns="http://www.w3.org/2000/svg"
   xmlns:xlink="http://www.w3.org/1999/xlink"
   xmlns:sodipodi="http://sodipodi.sourceforge.net/DTD/sodipodi-0.dtd"
   xmlns:inkscape="http://www.inkscape.org/namespaces/inkscape"
   viewBox="0 0 512 512"
   style="enable-background:new"
   inkscape:export-ydpi="45"
   inkscape:export-xdpi="45"
   inkscape:export-filename="../256/ubuntu-store.png"
   sodipodi:docname="ubuntu-store.svg"
   inkscape:version="0.91 r13725"
   version="1.1"
   id="svg3336"
   height="512"
   width="512">
  <sodipodi:namedview
     inkscape:snap-global="true"
     fit-margin-bottom="18"
     fit-margin-right="0"
     fit-margin-left="0"
     fit-margin-top="18"
     inkscape:snap-grids="true"
     inkscape:guide-bbox="true"
     showguides="false"
     inkscape:snap-center="true"
     inkscape:snap-object-midpoints="true"
     inkscape:snap-midpoints="true"
     inkscape:snap-smooth-nodes="true"
     inkscape:snap-intersection-paths="true"
     inkscape:object-nodes="true"
     inkscape:object-paths="true"
     inkscape:snap-bbox-midpoints="true"
     inkscape:snap-bbox-edge-midpoints="true"
     inkscape:bbox-nodes="true"
     inkscape:bbox-paths="true"
     inkscape:snap-bbox="true"
     showborder="true"
     inkscape:showpageshadow="false"
     inkscape:snap-page="true"
     inkscape:window-maximized="1"
     inkscape:window-y="24"
     inkscape:window-x="0"
     inkscape:window-height="1029"
     inkscape:window-width="1920"
     showgrid="false"
     inkscape:current-layer="layer3"
     inkscape:document-units="px"
     inkscape:cy="223.35058"
     inkscape:cx="-243.85105"
     inkscape:zoom="1.25"
     inkscape:pageshadow="2"
     inkscape:pageopacity="0"
     borderopacity="1.0"
     bordercolor="#666666"
     pagecolor="#4f4f4f"
     id="base"
     borderlayer="true">
    <inkscape:grid
       type="xygrid"
       id="grid811"
       originx="7.2690476e-08"
       originy="16.00001"
       visible="true"
       enabled="true" />
    <sodipodi:guide
       orientation="1,0"
       position="104,176.00001"
       id="guide819"
       inkscape:locked="false" />
    <sodipodi:guide
       orientation="1,0"
       position="120,160.00001"
       id="guide821"
       inkscape:locked="false" />
    <sodipodi:guide
       orientation="1,0"
       position="392,144.00001"
       id="guide823"
       inkscape:locked="false" />
    <sodipodi:guide
       orientation="1,0"
       position="408,144.00001"
       id="guide825"
       inkscape:locked="false" />
    <sodipodi:guide
       orientation="0,1"
       position="328,408.00001"
       id="guide827"
       inkscape:locked="false" />
    <sodipodi:guide
       orientation="0,1"
       position="336,392.00001"
       id="guide829"
       inkscape:locked="false" />
    <sodipodi:guide
       orientation="0,1"
       position="176,120.00001"
       id="guide831"
       inkscape:locked="false" />
    <sodipodi:guide
       orientation="0,1"
       position="216,104.00001"
       id="guide833"
       inkscape:locked="false" />
    <inkscape:grid
       type="axonomgrid"
       id="grid835"
       units="px"
       empspacing="60"
       gridanglex="42.9"
       gridanglez="42.9"
       spacingy="3.522px"
       enabled="false"
       originx="7.2690476e-08"
       originy="17.000007" />
    <sodipodi:guide
       orientation="0,1"
       position="344,376.00001"
       id="guide4126"
       inkscape:locked="false" />
    <sodipodi:guide
       orientation="0,1"
       position="160,136.00001"
       id="guide4128"
       inkscape:locked="false" />
    <sodipodi:guide
       orientation="1,0"
       position="136,96.000011"
       id="guide4130"
       inkscape:locked="false" />
    <sodipodi:guide
       orientation="1,0"
       position="376,136.00001"
       id="guide4134"
       inkscape:locked="false" />
    <sodipodi:guide
       orientation="-0.70710678,0.70710678"
       position="544,544.00001"
       id="guide4136"
       inkscape:locked="false" />
    <sodipodi:guide
       orientation="1,0"
       position="256,-31.999989"
       id="guide4138"
       inkscape:locked="false" />
    <sodipodi:guide
       orientation="0,1"
       position="544,256.00001"
       id="guide4140"
       inkscape:locked="false" />
    <sodipodi:guide
       orientation="0.70710678,0.70710678"
       position="544,-31.999989"
       id="guide4142"
       inkscape:locked="false" />
    <sodipodi:guide
       orientation="0,1"
       position="248,16.00001"
       id="guide4152"
       inkscape:locked="false" />
    <sodipodi:guide
       orientation="0,1"
       position="336,496.00001"
       id="guide4154"
       inkscape:locked="false" />
    <sodipodi:guide
       position="344,96.000011"
       orientation="1,0"
       id="guide4361"
       inkscape:locked="false" />
    <sodipodi:guide
       position="576,168.00001"
       orientation="0,1"
       id="guide4363"
       inkscape:locked="false" />
    <sodipodi:guide
       position="168,192.00001"
       orientation="1,0"
       id="guide4229"
       inkscape:locked="false" />
    <sodipodi:guide
       position="312,344.00001"
       orientation="0,1"
       id="guide4233"
       inkscape:locked="false" />
    <sodipodi:guide
       position="180.48,-95.999991"
       orientation="0,1"
       id="guide4235"
       inkscape:locked="false" />
  </sodipodi:namedview>
  <defs
     id="defs3338">
    <linearGradient
       inkscape:collect="always"
       id="linearGradient3455">
      <stop
         style="stop-color:#b83a0e;stop-opacity:1;"
         offset="0"
         id="stop3457" />
      <stop
         style="stop-color:#b83a0e;stop-opacity:0;"
         offset="1"
         id="stop3459" />
    </linearGradient>
    <linearGradient
       inkscape:collect="always"
       id="linearGradient4203">
      <stop
         style="stop-color:#f34f17;stop-opacity:1"
         offset="0"
         id="stop4205" />
      <stop
         style="stop-color:#fb7c38;stop-opacity:1"
         offset="1"
         id="stop4207" />
    </linearGradient>
    <linearGradient
       inkscape:collect="always"
       xlink:href="#linearGradient4203"
       id="linearGradient4209"
       x1="167.5"
       y1="17.25"
       x2="343.25"
       y2="491"
       gradientUnits="userSpaceOnUse" />
    <linearGradient
       inkscape:collect="always"
       id="linearGradient4343">
      <stop
         style="stop-color:#f37e40;stop-opacity:1"
         offset="0"
         id="stop4345" />
      <stop
         style="stop-color:#f37e40;stop-opacity:0"
         offset="1"
         id="stop4347" />
    </linearGradient>
    <linearGradient
       inkscape:collect="always"
       xlink:href="#linearGradient4343"
       id="linearGradient3318"
       x1="52.714672"
       y1="490.35291"
       x2="62.126442"
       y2="513.88232"
       gradientUnits="userSpaceOnUse"
       gradientTransform="matrix(3.3999986,0,0,3.3999986,124.77019,-1507.1992)" />
    <linearGradient
       inkscape:collect="always"
       xlink:href="#linearGradient4343"
       id="linearGradient3416"
       x1="202.34668"
       y1="352"
       x2="202.34668"
       y2="385.952"
       gradientUnits="userSpaceOnUse" />
    <filter
       inkscape:collect="always"
       style="color-interpolation-filters:sRGB"
       id="filter3437"
       x="-0.011998708"
       width="1.0239974"
       y="-0.012001292"
       height="1.0240026">
      <feGaussianBlur
         inkscape:collect="always"
         stdDeviation="1.3601466"
         id="feGaussianBlur3439" />
    </filter>
    <filter
       inkscape:collect="always"
       style="color-interpolation-filters:sRGB"
       id="filter3443"
       x="-0.095989667"
       width="1.1919793"
       y="-0.096010335"
       height="1.1920207">
      <feGaussianBlur
         inkscape:collect="always"
         stdDeviation="10.881172"
         id="feGaussianBlur3445" />
    </filter>
    <linearGradient
       inkscape:collect="always"
       xlink:href="#linearGradient3455"
       id="linearGradient3461"
       x1="233.56998"
       y1="332"
       x2="395.40875"
       y2="392.81454"
       gradientUnits="userSpaceOnUse"
       spreadMethod="reflect" />
  </defs>
  <metadata
     id="metadata3341">
    <rdf:RDF>
      <cc:Work
         rdf:about="">
        <dc:format>image/svg+xml</dc:format>
        <dc:type
           rdf:resource="http://purl.org/dc/dcmitype/StillImage" />
        <dc:title />
      </cc:Work>
    </rdf:RDF>
  </metadata>
  <g
     inkscape:groupmode="layer"
     id="layer3"
     inkscape:label="Background">
    <path
       style="color:#000000;display:inline;overflow:visible;visibility:visible;fill:url(#linearGradient4209);fill-opacity:1;fill-rule:nonzero;stroke:none;stroke-width:1;marker:none;enable-background:accumulate"
       d="M 0 0 L 0 183.89844 L 0 328.10156 L 0 512 L 512 512 L 512 328.10156 L 512 183.89844 L 512 0 L 0 0 z "
       id="rect4158" />
    <path
       style="color:#000000;display:inline;overflow:visible;visibility:visible;opacity:0.1;fill:#ffffff;fill-opacity:1;fill-rule:nonzero;stroke:none;stroke-width:24;stroke-linecap:butt;stroke-linejoin:miter;stroke-miterlimit:4;stroke-dasharray:none;stroke-dashoffset:0;stroke-opacity:1;marker:none;enable-background:accumulate"
       d="M 308.23633 0 L 92.742188 512 L 512 512 L 512 328.10156 L 512 183.89844 L 512 0 L 308.23633 0 z "
       id="path3487" />
  </g>
  <g
     inkscape:groupmode="layer"
     id="layer1"
     inkscape:label="Pictogram"
     style="display:inline"
     transform="translate(-32,-32)">
    <path
       inkscape:connector-curvature="0"
       id="path3441"
       d="m 271.08594,154 c -28.53852,60.41477 -52.73654,114.5075 -72.41406,160 l -22.89454,0 c -19.34418,0 -22.97071,-9.7e-4 -23.65039,10.72656 -0.15685,2.47559 -0.15624,5.52344 -0.15625,9.27344 -2e-5,20.00005 -0.002,20 23.80664,20 l 5.80274,0 c -12.4195,29.44015 -22.34917,53.82125 -29.60938,72 l 41.9668,0 c 7.82459,-19.67785 17.68204,-44.11444 29.17578,-72 l 156.95899,0 c 11.23756,28.01096 20.70993,52.53422 28.0625,72 l 15.89453,0 c -7.18267,-19.10946 -16.6219,-43.67347 -27.93946,-72 l 4.07422,0 c 23.80819,0 23.80663,5e-5 23.80664,-20 2e-5,-19.99999 0.002,-20 -23.80664,-20 l -20.31054,0 c -19.69203,-47.74617 -43.49841,-102.77873 -70.48438,-159.95312 0.007,-0.017 0.0147,-0.0309 0.0215,-0.0469 l -38.30469,0 z m 30.27734,17.85742 C 324.93202,222.38024 345.96145,270.99745 363.76758,314 L 239.75,314 c 17.72953,-42.23278 38.4385,-90.36754 61.61328,-142.14258 z"
       style="color:#000000;font-style:normal;font-variant:normal;font-weight:normal;font-stretch:normal;font-size:medium;line-height:normal;font-family:sans-serif;text-indent:0;text-align:start;text-decoration:none;text-decoration-line:none;text-decoration-style:solid;text-decoration-color:#000000;letter-spacing:normal;word-spacing:normal;text-transform:none;direction:ltr;block-progression:tb;writing-mode:lr-tb;baseline-shift:baseline;text-anchor:start;white-space:normal;clip-rule:nonzero;display:inline;overflow:visible;visibility:visible;opacity:0.6;isolation:auto;mix-blend-mode:normal;color-interpolation:sRGB;color-interpolation-filters:linearRGB;solid-color:#000000;solid-opacity:1;fill:url(#linearGradient3461);fill-opacity:1;fill-rule:nonzero;stroke:none;stroke-width:16.00316429;stroke-linecap:butt;stroke-linejoin:miter;stroke-miterlimit:4;stroke-dasharray:none;stroke-dashoffset:0;stroke-opacity:1;marker:none;filter:url(#filter3443);color-rendering:auto;image-rendering:auto;shape-rendering:auto;text-rendering:auto;enable-background:accumulate" />
    <path
       style="color:#000000;font-style:normal;font-variant:normal;font-weight:normal;font-stretch:normal;font-size:medium;line-height:normal;font-family:sans-serif;text-indent:0;text-align:start;text-decoration:none;text-decoration-line:none;text-decoration-style:solid;text-decoration-color:#000000;letter-spacing:normal;word-spacing:normal;text-transform:none;direction:ltr;block-progression:tb;writing-mode:lr-tb;baseline-shift:baseline;text-anchor:start;white-space:normal;clip-rule:nonzero;display:inline;overflow:visible;visibility:visible;opacity:0.1;isolation:auto;mix-blend-mode:normal;color-interpolation:sRGB;color-interpolation-filters:linearRGB;solid-color:#000000;solid-opacity:1;fill:#000000;fill-opacity:1;fill-rule:nonzero;stroke:none;stroke-width:16.00316429;stroke-linecap:butt;stroke-linejoin:miter;stroke-miterlimit:4;stroke-dasharray:none;stroke-dashoffset:0;stroke-opacity:1;marker:none;filter:url(#filter3437);color-rendering:auto;image-rendering:auto;shape-rendering:auto;text-rendering:auto;enable-background:accumulate"
       d="m 271.08594,154 c -28.53852,60.41477 -52.73654,114.5075 -72.41406,160 l -22.89454,0 c -19.34418,0 -22.97071,-9.7e-4 -23.65039,10.72656 -0.15685,2.47559 -0.15624,5.52344 -0.15625,9.27344 -2e-5,20.00005 -0.002,20 23.80664,20 l 5.80274,0 c -12.4195,29.44015 -22.34917,53.82125 -29.60938,72 l 41.9668,0 c 7.82459,-19.67785 17.68204,-44.11444 29.17578,-72 l 156.95899,0 c 11.23756,28.01096 20.70993,52.53422 28.0625,72 l 15.89453,0 c -7.18267,-19.10946 -16.6219,-43.67347 -27.93946,-72 l 4.07422,0 c 23.80819,0 23.80663,5e-5 23.80664,-20 2e-5,-19.99999 0.002,-20 -23.80664,-20 l -20.31054,0 c -19.69203,-47.74617 -43.49841,-102.77873 -70.48438,-159.95312 0.007,-0.017 0.0147,-0.0309 0.0215,-0.0469 l -38.30469,0 z m 30.27734,17.85742 C 324.93202,222.38024 345.96145,270.99745 363.76758,314 L 239.75,314 c 17.72953,-42.23278 38.4385,-90.36754 61.61328,-142.14258 z"
       id="path3421"
       inkscape:connector-curvature="0" />
    <g
       id="g3299"
       transform="matrix(3.3999986,0,0,3.3999986,124.77019,-1507.1992)"
       style="fill:#fff5e9;fill-opacity:1">
      <path
         sodipodi:nodetypes="ccccccccc"
         inkscape:connector-curvature="0"
         id="path4177"
         d="M 43.034116,488.00001 C 25.816536,524.44886 13.927846,553.15733 7.999996,568 l 12.34321,0 c 6.482,-16.3014 17.50749,-43.27321 31.59579,-74.74804 14.17551,30.38714 25.25836,58.47934 31.40333,74.74804 l 4.67525,0 c -6.25966,-16.6538 -18.22435,-47.14839 -33.72366,-79.98633 0.002,-0.005 0.004,-0.009 0.006,-0.0137 z"
         style="color:#000000;font-style:normal;font-variant:normal;font-weight:normal;font-stretch:normal;font-size:medium;line-height:normal;font-family:sans-serif;text-indent:0;text-align:start;text-decoration:none;text-decoration-line:none;text-decoration-style:solid;text-decoration-color:#000000;letter-spacing:normal;word-spacing:normal;text-transform:none;direction:ltr;block-progression:tb;writing-mode:lr-tb;baseline-shift:baseline;text-anchor:start;white-space:normal;clip-rule:nonzero;display:inline;overflow:visible;visibility:visible;opacity:1;isolation:auto;mix-blend-mode:normal;color-interpolation:sRGB;color-interpolation-filters:linearRGB;solid-color:#000000;solid-opacity:1;fill:#fff5e9;fill-opacity:1;fill-rule:nonzero;stroke:none;stroke-width:16.00316429;stroke-linecap:butt;stroke-linejoin:miter;stroke-miterlimit:4;stroke-dasharray:none;stroke-dashoffset:0;stroke-opacity:1;marker:none;color-rendering:auto;image-rendering:auto;shape-rendering:auto;text-rendering:auto;enable-background:accumulate" />
      <path
         id="path3297"
         d="m 15.001949,535.05881 c -7.0024199,0 -7.001949,0 -7.001953,5.88235 -4e-6,5.88237 -4.669e-4,5.88236 7.001953,5.88236 l 65.996094,0 c 7.00241,0 7.001949,10e-6 7.001953,-5.88236 4e-6,-5.88235 4.57e-4,-5.88235 -7.001953,-5.88235 z"
         style="color:#000000;display:inline;overflow:visible;visibility:visible;opacity:1;fill:#fff5e9;fill-opacity:1;fill-rule:nonzero;stroke:none;stroke-width:1.00019777;stroke-linecap:round;stroke-linejoin:miter;stroke-miterlimit:4;stroke-dasharray:none;stroke-dashoffset:0;stroke-opacity:1;marker:none;enable-background:accumulate"
         inkscape:connector-curvature="0" />
      <path
         id="rect4188"
         d="m 14.999949,538.42015 34,0 c 3.000004,0 3.000004,0 3,2.52101 -4e-6,2.52102 4e-6,2.52101 -3,2.52101 l -34,0 c -2.999996,0 -2.999996,0 -3,-2.52101 -4e-6,-2.521 4e-6,-2.52101 3,-2.52101 z"
         style="color:#000000;display:inline;overflow:visible;visibility:visible;opacity:1;fill:#fff5e9;fill-opacity:1;fill-rule:nonzero;stroke:none;stroke-width:1.00019777;stroke-linecap:round;stroke-linejoin:miter;stroke-miterlimit:4;stroke-dasharray:none;stroke-dashoffset:0;stroke-opacity:1;marker:none;enable-background:accumulate"
         inkscape:connector-curvature="0" />
    </g>
    <path
       sodipodi:nodetypes="cccccc"
       inkscape:connector-curvature="0"
       id="path3306"
       d="M 301.3627,169.85677 C 349.55942,273.17301 387.24109,368.68645 408.13398,424 l 15.89585,0 C 402.74699,367.37711 362.06706,263.69554 309.36943,152.04659 l 0.0204,-0.0466 z"
       style="color:#000000;font-style:normal;font-variant:normal;font-weight:normal;font-stretch:normal;font-size:medium;line-height:normal;font-family:sans-serif;text-indent:0;text-align:start;text-decoration:none;text-decoration-line:none;text-decoration-style:solid;text-decoration-color:#000000;letter-spacing:normal;word-spacing:normal;text-transform:none;direction:ltr;block-progression:tb;writing-mode:lr-tb;baseline-shift:baseline;text-anchor:start;white-space:normal;clip-rule:nonzero;display:inline;overflow:visible;visibility:visible;opacity:0.2;isolation:auto;mix-blend-mode:normal;color-interpolation:sRGB;color-interpolation-filters:linearRGB;solid-color:#000000;solid-opacity:1;fill:url(#linearGradient3318);fill-opacity:1;fill-rule:nonzero;stroke:none;stroke-width:16.00316429;stroke-linecap:butt;stroke-linejoin:miter;stroke-miterlimit:4;stroke-dasharray:none;stroke-dashoffset:0;stroke-opacity:1;marker:none;color-rendering:auto;image-rendering:auto;shape-rendering:auto;text-rendering:auto;enable-background:accumulate" />
    <path
       id="path3308"
       d="m 175.7768,312 c -23.80822,0 -23.80662,0 -23.80663,19.99999 -2e-5,20.00005 -0.002,20.00001 23.80663,20.00001 l 224.38662,0 c 23.80819,0 23.80662,4e-5 23.80663,-20.00001 C 423.97007,312 423.97161,312 400.16342,312 Z"
       style="color:#000000;display:inline;overflow:visible;visibility:visible;opacity:1;fill:#fffbf5;fill-opacity:1;fill-rule:nonzero;stroke:none;stroke-width:1.00019777;stroke-linecap:round;stroke-linejoin:miter;stroke-miterlimit:4;stroke-dasharray:none;stroke-dashoffset:0;stroke-opacity:1;marker:none;enable-background:accumulate"
       inkscape:connector-curvature="0" />
    <path
       inkscape:connector-curvature="0"
       style="color:#000000;display:inline;overflow:visible;visibility:visible;opacity:1;fill:#fec589;fill-opacity:0.38059704;fill-rule:nonzero;stroke:none;stroke-width:1.00019777;stroke-linecap:round;stroke-linejoin:miter;stroke-miterlimit:4;stroke-dasharray:none;stroke-dashoffset:0;stroke-opacity:1;marker:none;enable-background:accumulate"
       d="m 284.77,323.42856 115.59995,0 c 10.20001,0 10.20001,0 10.19999,8.57143 -10e-6,8.57146 2e-5,8.57143 -10.19999,8.57143 l -115.59995,0 c -10.19999,0 -10.19999,0 -10.2,-8.57143 -10e-6,-8.5714 1e-5,-8.57143 10.2,-8.57143 z"
       id="path3323" />
    <path
       id="path3310"
       d="m 175.77,323.42856 115.59995,0 c 10.20001,0 10.20001,0 10.19999,8.57143 -10e-6,8.57146 2e-5,8.57143 -10.19999,8.57143 l -115.59995,0 c -10.19999,0 -10.19999,0 -10.2,-8.57143 -1e-5,-8.5714 1e-5,-8.57143 10.2,-8.57143 z"
       style="color:#000000;display:inline;overflow:visible;visibility:visible;opacity:1;fill:#f34f17;fill-opacity:1;fill-rule:nonzero;stroke:none;stroke-width:1.00019777;stroke-linecap:round;stroke-linejoin:miter;stroke-miterlimit:4;stroke-dasharray:none;stroke-dashoffset:0;stroke-opacity:1;marker:none;enable-background:accumulate"
       inkscape:connector-curvature="0" />
    <path
       style="color:#000000;display:inline;overflow:visible;visibility:visible;opacity:1;fill:#ffffff;fill-opacity:1;fill-rule:nonzero;stroke:none;stroke-width:1.00019777;stroke-linecap:round;stroke-linejoin:miter;stroke-miterlimit:4;stroke-dasharray:none;stroke-dashoffset:0;stroke-opacity:1;marker:none;enable-background:accumulate"
       d="m 175.77734,312 c -23.80822,0 -23.80663,10e-6 -23.80664,20 0,0.38684 0.008,0.64947 0.008,1.02148 C 151.98649,314.11272 152.41025,314 175.77734,314 l 224.38672,0 c 23.35738,0 23.79053,0.11473 23.79883,19 1.6e-4,-0.3645 0.008,-0.6213 0.008,-1 2e-5,-19.99999 0.002,-20 -23.80664,-20 l -224.38672,0 z"
       id="path3325"
       inkscape:connector-curvature="0" />
    <path
       style="color:#000000;font-style:normal;font-variant:normal;font-weight:normal;font-stretch:normal;font-size:medium;line-height:normal;font-family:sans-serif;text-indent:0;text-align:start;text-decoration:none;text-decoration-line:none;text-decoration-style:solid;text-decoration-color:#000000;letter-spacing:normal;word-spacing:normal;text-transform:none;direction:ltr;block-progression:tb;writing-mode:lr-tb;baseline-shift:baseline;text-anchor:start;white-space:normal;clip-rule:nonzero;display:inline;overflow:visible;visibility:visible;opacity:0.25;isolation:auto;mix-blend-mode:normal;color-interpolation:sRGB;color-interpolation-filters:linearRGB;solid-color:#000000;solid-opacity:1;fill:url(#linearGradient3416);fill-opacity:1;fill-rule:nonzero;stroke:none;stroke-width:16.00316429;stroke-linecap:butt;stroke-linejoin:miter;stroke-miterlimit:4;stroke-dasharray:none;stroke-dashoffset:0;stroke-opacity:1;marker:none;color-rendering:auto;image-rendering:auto;shape-rendering:auto;text-rendering:auto;enable-background:accumulate"
       d="m 181.58008,352 c -12.4195,29.44015 -22.34917,53.82125 -29.60938,72 l 41.9668,0 c 7.82459,-19.67785 17.68204,-44.11444 29.17578,-72 l -41.5332,0 z m 198.49219,0 c 11.23756,28.01096 20.70993,52.53422 28.0625,72 l 15.89453,0 c -7.18267,-19.10946 -16.6219,-43.67347 -27.93946,-72 l -16.01757,0 z"
       id="path3406"
       inkscape:connector-curvature="0" />
  </g>
</svg>
