<?xml version="1.0" encoding="UTF-8" standalone="no"?>
<!-- Created with Inkscape (http://www.inkscape.org/) -->

<svg
   xmlns:dc="http://purl.org/dc/elements/1.1/"
   xmlns:cc="http://creativecommons.org/ns#"
   xmlns:rdf="http://www.w3.org/1999/02/22-rdf-syntax-ns#"
   xmlns:svg="http://www.w3.org/2000/svg"
   xmlns="http://www.w3.org/2000/svg"
   xmlns:xlink="http://www.w3.org/1999/xlink"
   xmlns:sodipodi="http://sodipodi.sourceforge.net/DTD/sodipodi-0.dtd"
   xmlns:inkscape="http://www.inkscape.org/namespaces/inkscape"
   width="512"
   height="512"
   id="svg3336"
   version="1.1"
   inkscape:version="0.92pre1 unknown"
   sodipodi:docname="ubuntu-sdk.svg"
   inkscape:export-filename="app_shape02.png"
   inkscape:export-xdpi="180"
   inkscape:export-ydpi="180"
   style="enable-background:new"
   viewBox="0 0 512 512">
  <defs
     id="defs3338">
    <linearGradient
       inkscape:collect="always"
       id="linearGradient4602">
      <stop
         style="stop-color:#000000;stop-opacity:1;"
         offset="0"
         id="stop4604" />
      <stop
         style="stop-color:#000000;stop-opacity:0;"
         offset="1"
         id="stop4606" />
    </linearGradient>
    <filter
       style="color-interpolation-filters:sRGB"
       inkscape:label="Colorize"
       id="filter4154">
      <feComposite
         in2="SourceGraphic"
         operator="arithmetic"
         k1="0"
         k2="1"
         result="composite1"
         id="feComposite4156"
         k3="0"
         k4="0" />
      <feColorMatrix
         in="composite1"
         values="0"
         type="saturate"
         result="colormatrix1"
         id="feColorMatrix4158" />
      <feFlood
         flood-opacity="1"
         flood-color="rgb(89,132,51)"
         result="flood1"
         id="feFlood4160" />
      <feBlend
         in="flood1"
         in2="colormatrix1"
         mode="multiply"
         result="blend1"
         id="feBlend4162" />
      <feBlend
         in2="blend1"
         mode="screen"
         result="blend2"
         id="feBlend4164" />
      <feColorMatrix
         in="blend2"
         values="1"
         type="saturate"
         result="colormatrix2"
         id="feColorMatrix4166" />
      <feComposite
         in="colormatrix2"
         in2="SourceGraphic"
         operator="in"
         result="composite2"
         id="feComposite4168" />
    </filter>
    <filter
       inkscape:collect="always"
       style="color-interpolation-filters:sRGB"
       id="filter4264"
       x="-0.024"
       width="1.048"
       y="-0.024"
       height="1.048" />
    <linearGradient
       id="linearGradient7537">
      <stop
         style="stop-color:#44d459;stop-opacity:1"
         offset="0"
         id="stop7539" />
      <stop
         style="stop-color:#38b44a;stop-opacity:1"
         offset="1"
         id="stop7541" />
    </linearGradient>
    <clipPath
       clipPathUnits="userSpaceOnUse"
       id="clipPath4231-6">
      <rect
         style="color:#000000;display:inline;overflow:visible;visibility:visible;opacity:0.46400003;fill:#ff00ff;fill-opacity:1;fill-rule:nonzero;stroke:none;stroke-width:1;marker:none;enable-background:accumulate"
         id="rect4233-8"
         width="256"
         height="238"
         x="0"
         y="18" />
    </clipPath>
    <linearGradient
       id="linearGradient4370-8">
      <stop
         id="stop3709-7-3-5"
         offset="0"
         style="stop-color:#cecece;stop-opacity:1" />
      <stop
         style="stop-color:#dedede;stop-opacity:1"
         offset="1"
         id="stop3654-8-0-9" />
    </linearGradient>
    <linearGradient
       id="linearGradient3650-7-9">
      <stop
         style="stop-color:#ececec;stop-opacity:1"
         offset="0"
         id="stop4366" />
      <stop
         id="stop4368"
         offset="1"
         style="stop-color:#f9f9f9;stop-opacity:1" />
    </linearGradient>
    <linearGradient
       id="linearGradient4370">
      <stop
         style="stop-color:#dedede;stop-opacity:1"
         offset="0"
         id="stop4459" />
      <stop
         id="stop4461"
         offset="0.25745395"
         style="stop-color:#efefef;stop-opacity:1;" />
      <stop
         id="stop4463"
         offset="1"
         style="stop-color:#f9f9f9;stop-opacity:1" />
    </linearGradient>
    <linearGradient
       inkscape:collect="always"
       xlink:href="#linearGradient4184"
       id="linearGradient4492"
       gradientUnits="userSpaceOnUse"
       gradientTransform="translate(106.17141,255.67955)"
       spreadMethod="reflect"
       x1="139.32533"
       y1="-256"
       x2="256"
       y2="-256" />
    <linearGradient
       inkscape:collect="always"
       id="linearGradient4184">
      <stop
         style="stop-color:#ffffff;stop-opacity:1;"
         offset="0"
         id="stop4186" />
      <stop
         style="stop-color:#ffffff;stop-opacity:0;"
         offset="1"
         id="stop4188" />
    </linearGradient>
    <linearGradient
       id="linearGradient7537-1">
      <stop
         style="stop-color:#638cf2;stop-opacity:1"
         offset="0"
         id="stop7539-2" />
      <stop
         style="stop-color:#2259e1;stop-opacity:1"
         offset="1"
         id="stop7541-5" />
    </linearGradient>
    <linearGradient
       inkscape:collect="always"
       xlink:href="#linearGradient7537-1"
       id="linearGradient4287"
       x1="448"
       y1="496"
       x2="170.87187"
       y2="16.000002"
       gradientUnits="userSpaceOnUse" />
    <radialGradient
       inkscape:collect="always"
       xlink:href="#linearGradient4606"
       id="radialGradient4351"
       cx="256"
       cy="256"
       fx="256"
       fy="256"
       r="255.99995"
       gradientTransform="matrix(1.6722685,0,0,1.5803463,-140.10037,-116.56918)"
       gradientUnits="userSpaceOnUse" />
    <linearGradient
       inkscape:collect="always"
       id="linearGradient4606">
      <stop
         style="stop-color:#e4eaff;stop-opacity:1;"
         offset="0"
         id="stop4608" />
      <stop
         id="stop4616"
         offset="0.60000002"
         style="stop-color:#e4eaff;stop-opacity:0.35493827" />
      <stop
         style="stop-color:#e4eaff;stop-opacity:0.16666667"
         offset="1"
         id="stop4610" />
    </linearGradient>
    <linearGradient
       inkscape:collect="always"
       xlink:href="#linearGradient4367"
       id="linearGradient4591"
       gradientUnits="userSpaceOnUse"
       gradientTransform="matrix(-0.27777142,0.20434531,0.46778787,0.65400918,301.92348,59.437305)"
       x1="119.59516"
       y1="188.63074"
       x2="105.80988"
       y2="409.78488" />
    <linearGradient
       id="linearGradient4367">
      <stop
         id="stop4369-0"
         offset="0"
         style="stop-color:#ffffff;stop-opacity:0" />
      <stop
         style="stop-color:#ffffff;stop-opacity:1"
         offset="0.16414887"
         id="stop4371" />
      <stop
         style="stop-color:#ffffff;stop-opacity:1"
         offset="0.75"
         id="stop4373" />
      <stop
         id="stop4375-7"
         offset="0.85920149"
         style="stop-color:#ffffff;stop-opacity:0.24705882;" />
      <stop
         id="stop4377-4"
         offset="1"
         style="stop-color:#ffffff;stop-opacity:0;" />
    </linearGradient>
    <linearGradient
       inkscape:collect="always"
       xlink:href="#linearGradient3876-8-3"
       id="linearGradient4587"
       gradientUnits="userSpaceOnUse"
       gradientTransform="matrix(0.47037635,0.4590235,-1.0627188,1.0890025,530.04151,-100.16106)"
       x1="122.90077"
       y1="125.15097"
       x2="105.80988"
       y2="409.78488" />
    <linearGradient
       id="linearGradient3876-8-3">
      <stop
         id="stop3878-8-4"
         offset="0"
         style="stop-color:#ffffff;stop-opacity:0" />
      <stop
         style="stop-color:#ffffff;stop-opacity:0.74901961;"
         offset="0.26733708"
         id="stop3884-0-6" />
      <stop
         style="stop-color:#ffffff;stop-opacity:0"
         offset="0.41585767"
         id="stop3882-0-3" />
      <stop
         id="stop3888-1-2"
         offset="0.56437826"
         style="stop-color:#ffffff;stop-opacity:0" />
      <stop
         id="stop3886-7-4"
         offset="0.77887541"
         style="stop-color:#ffffff;stop-opacity:1" />
      <stop
         id="stop3880-8-9"
         offset="1"
         style="stop-color:#ffffff;stop-opacity:0;" />
    </linearGradient>
    <linearGradient
       inkscape:collect="always"
       xlink:href="#linearGradient3844-0-4"
       id="linearGradient4583"
       gradientUnits="userSpaceOnUse"
       gradientTransform="matrix(0.96119016,0,0,-1.0403828,272.32322,423.01771)"
       x1="122.90077"
       y1="125.15097"
       x2="123.91927"
       y2="293.75912" />
    <linearGradient
       id="linearGradient3844-0-4">
      <stop
         id="stop3846-1-9"
         offset="0"
         style="stop-color:#ffffff;stop-opacity:0" />
      <stop
         style="stop-color:#ffffff;stop-opacity:1"
         offset="0.25"
         id="stop3852-3-6" />
      <stop
         style="stop-color:#ffffff;stop-opacity:1"
         offset="0.5"
         id="stop3850-8-0" />
      <stop
         id="stop3854-9-1"
         offset="0.75"
         style="stop-color:#ffffff;stop-opacity:0.24705882;" />
      <stop
         id="stop3848-7-4"
         offset="1"
         style="stop-color:#ffffff;stop-opacity:0;" />
    </linearGradient>
    <linearGradient
       inkscape:collect="always"
       xlink:href="#linearGradient4367"
       id="linearGradient4578"
       gradientUnits="userSpaceOnUse"
       gradientTransform="matrix(0.86107442,0,0,1.2363514,209.58021,-81.42181)"
       x1="122.90077"
       y1="125.15097"
       x2="123.91927"
       y2="293.75912" />
    <linearGradient
       inkscape:collect="always"
       xlink:href="#linearGradient4367"
       id="linearGradient4574"
       gradientUnits="userSpaceOnUse"
       gradientTransform="matrix(0.65723396,0,0,1.5216103,204.53609,-154.4162)"
       x1="122.90077"
       y1="125.15097"
       x2="123.91927"
       y2="293.75912" />
    <linearGradient
       inkscape:collect="always"
       xlink:href="#linearGradient4367"
       id="linearGradient4570"
       gradientUnits="userSpaceOnUse"
       gradientTransform="matrix(0.59783356,0,0,1.6728494,129.80838,-68.36663)"
       x1="122.90077"
       y1="125.15097"
       x2="123.91927"
       y2="293.75912" />
    <linearGradient
       inkscape:collect="always"
       xlink:href="#linearGradient4367"
       id="linearGradient4566"
       gradientUnits="userSpaceOnUse"
       gradientTransform="matrix(0.79699565,0,0,1.2547566,88.425279,-86.15109)"
       x1="122.90077"
       y1="125.15097"
       x2="123.91927"
       y2="293.75912" />
    <linearGradient
       inkscape:collect="always"
       xlink:href="#linearGradient4367"
       id="linearGradient4562"
       x1="122.90077"
       y1="125.15097"
       x2="123.91927"
       y2="293.75912"
       gradientUnits="userSpaceOnUse"
       gradientTransform="matrix(0.88202221,0,0,1.1337851,14.015622,-23.708)" />
    <linearGradient
       inkscape:collect="always"
       xlink:href="#linearGradient3844-0-4"
       id="linearGradient4506"
       x1="66.877937"
       y1="164.44753"
       x2="468.79462"
       y2="164.44753"
       gradientUnits="userSpaceOnUse"
       gradientTransform="matrix(1.0752958,0,0,0.9299897,-5.187288,5.06539)" />
    <clipPath
       clipPathUnits="userSpaceOnUse"
       id="clipPath4470">
      <path
         inkscape:connector-curvature="0"
         id="path4472"
         d="m 202.0121,320.75662 c 0,12.8772 -9.81226,23.2434 -22.00026,23.2434 -12.188,0 -22.00026,-10.3662 -22.00026,-23.2434 V 194.91099 c 0,-12.8772 9.81226,-23.24501 22.00026,-23.24501 12.188,0 22.00026,10.36781 22.00026,23.24501 z m -13.40326,0.93477 a 8.5967511,8.5967511 0 0 0 -8.597,-8.597 8.5967511,8.5967511 0 0 0 -8.59701,8.597 8.5967511,8.5967511 0 0 0 8.59701,8.59701 8.5967511,8.5967511 0 0 0 8.597,-8.59701 z"
         style="display:inline;fill:#ff00ff;fill-opacity:1;stroke:none;enable-background:new" />
    </clipPath>
    <linearGradient
       inkscape:collect="always"
       xlink:href="#linearGradient4602"
       id="linearGradient4608"
       x1="178.35863"
       y1="232.00002"
       x2="178.35863"
       y2="120"
       gradientUnits="userSpaceOnUse"
       spreadMethod="reflect" />
    <filter
       inkscape:collect="always"
       style="color-interpolation-filters:sRGB"
       id="filter4646"
       x="-0.066862211"
       width="1.1337245"
       y="-0.170149"
       height="1.3402981">
      <feGaussianBlur
         inkscape:collect="always"
         stdDeviation="6.2404734"
         id="feGaussianBlur4648" />
    </filter>
    <filter
       inkscape:collect="always"
       style="color-interpolation-filters:sRGB"
       id="filter4655"
       x="-0.0083577763"
       width="1.0167156"
       y="-0.021268625"
       height="1.0425373">
      <feGaussianBlur
         inkscape:collect="always"
         stdDeviation="0.78005917"
         id="feGaussianBlur4657" />
    </filter>
  </defs>
  <sodipodi:namedview
     id="base"
     pagecolor="#b4b4b4"
     bordercolor="#666666"
     borderopacity="1.0"
     inkscape:pageopacity="0"
     inkscape:pageshadow="2"
     inkscape:zoom="1.25"
     inkscape:cx="-56.1054"
     inkscape:cy="236.41776"
     inkscape:document-units="px"
     inkscape:current-layer="layer3"
     showgrid="false"
     inkscape:window-width="1920"
     inkscape:window-height="1029"
     inkscape:window-x="0"
     inkscape:window-y="24"
     inkscape:window-maximized="1"
     inkscape:snap-page="true"
     inkscape:showpageshadow="false"
     showborder="true"
     inkscape:snap-bbox="true"
     inkscape:bbox-paths="true"
     inkscape:bbox-nodes="true"
     inkscape:snap-bbox-edge-midpoints="true"
     inkscape:snap-bbox-midpoints="true"
     inkscape:object-paths="true"
     inkscape:object-nodes="true"
     inkscape:snap-intersection-paths="true"
     inkscape:snap-smooth-nodes="true"
     inkscape:snap-midpoints="true"
     inkscape:snap-object-midpoints="true"
     inkscape:snap-center="true"
     showguides="false"
     inkscape:guide-bbox="true"
     inkscape:snap-grids="true"
     fit-margin-top="18"
     fit-margin-left="0"
     fit-margin-right="0"
     fit-margin-bottom="18"
     inkscape:snap-global="true">
    <inkscape:grid
       type="xygrid"
       id="grid811"
       originx="0"
       originy="15.999999"
       visible="true"
       enabled="true" />
    <sodipodi:guide
       orientation="1,0"
       position="104,176"
       id="guide819"
       inkscape:locked="false" />
    <sodipodi:guide
       orientation="1,0"
       position="120,160"
       id="guide821"
       inkscape:locked="false" />
    <sodipodi:guide
       orientation="1,0"
       position="392,144"
       id="guide823"
       inkscape:locked="false" />
    <sodipodi:guide
       orientation="1,0"
       position="408,144"
       id="guide825"
       inkscape:locked="false" />
    <sodipodi:guide
       orientation="0,1"
       position="328,408"
       id="guide827"
       inkscape:locked="false" />
    <sodipodi:guide
       orientation="0,1"
       position="336,392"
       id="guide829"
       inkscape:locked="false" />
    <sodipodi:guide
       orientation="0,1"
       position="176,120"
       id="guide831"
       inkscape:locked="false" />
    <sodipodi:guide
       orientation="0,1"
       position="216,104"
       id="guide833"
       inkscape:locked="false" />
    <inkscape:grid
       type="axonomgrid"
       id="grid835"
       units="px"
       empspacing="60"
       gridanglex="42.9"
       gridanglez="42.9"
       spacingy="3.522px"
       enabled="false"
       originx="0"
       originy="16.999996" />
    <sodipodi:guide
       orientation="0,1"
       position="344,376"
       id="guide4126"
       inkscape:locked="false" />
    <sodipodi:guide
       orientation="0,1"
       position="160,136"
       id="guide4128"
       inkscape:locked="false" />
    <sodipodi:guide
       orientation="1,0"
       position="136,96"
       id="guide4130"
       inkscape:locked="false" />
    <sodipodi:guide
       orientation="1,0"
       position="376,136"
       id="guide4134"
       inkscape:locked="false" />
    <sodipodi:guide
       orientation="-0.70710678,0.70710678"
       position="256,256"
       id="guide4136"
       inkscape:locked="false" />
    <sodipodi:guide
       orientation="1,0"
       position="256,232"
       id="guide4138"
       inkscape:locked="false" />
    <sodipodi:guide
       orientation="0,1"
       position="288,256"
       id="guide4140"
       inkscape:locked="false" />
    <sodipodi:guide
       orientation="0.70710678,0.70710678"
       position="256,256"
       id="guide4142"
       inkscape:locked="false" />
    <sodipodi:guide
       orientation="0,1"
       position="248,15.999999"
       id="guide4152"
       inkscape:locked="false" />
    <sodipodi:guide
       orientation="0,1"
       position="336,496"
       id="guide4154"
       inkscape:locked="false" />
  </sodipodi:namedview>
  <metadata
     id="metadata3341">
    <rdf:RDF>
      <cc:Work
         rdf:about="">
        <dc:format>image/svg+xml</dc:format>
        <dc:type
           rdf:resource="http://purl.org/dc/dcmitype/StillImage" />
        <dc:title></dc:title>
      </cc:Work>
    </rdf:RDF>
  </metadata>
  <g
     inkscape:groupmode="layer"
     id="layer3"
     inkscape:label="Background">
    <path
       style="color:#000000;display:inline;overflow:visible;visibility:visible;fill:url(#linearGradient4287);fill-opacity:1;fill-rule:nonzero;stroke:none;stroke-width:1;marker:none;enable-background:accumulate"
       d="M 0 0 L 0 183.89844 L 0 328.10156 L 0 512 L 512 512 L 512 328.10156 L 512 183.89844 L 512 0 L 0 0 z "
       id="rect4158" />
    <path
       style="color:#000000;font-style:normal;font-variant:normal;font-weight:normal;font-stretch:normal;font-size:medium;line-height:normal;font-family:sans-serif;text-indent:0;text-align:start;text-decoration:none;text-decoration-line:none;text-decoration-style:solid;text-decoration-color:#000000;letter-spacing:normal;word-spacing:normal;text-transform:none;writing-mode:lr-tb;direction:ltr;baseline-shift:baseline;text-anchor:start;white-space:normal;shape-padding:0;clip-rule:nonzero;display:inline;overflow:visible;visibility:visible;opacity:0.094;isolation:auto;mix-blend-mode:normal;color-interpolation:sRGB;color-interpolation-filters:linearRGB;solid-color:#000000;solid-opacity:1;fill:url(#radialGradient4351);fill-opacity:1;fill-rule:nonzero;stroke:none;stroke-width:2;stroke-linecap:butt;stroke-linejoin:round;stroke-miterlimit:4;stroke-dasharray:none;stroke-dashoffset:13.80000019;stroke-opacity:1;marker:none;color-rendering:auto;image-rendering:auto;shape-rendering:auto;text-rendering:auto;enable-background:accumulate"
       d="M 206.05859,50 V 99.033203 H 155.89062 V 50.828125 c -1.12644,0.05227 -2.23721,0.10807 -3.34374,0.166016 V 99.033203 H 102.37891 V 57.310547 c -1.13212,0.272128 -2.24858,0.550878 -3.345707,0.841797 V 99.033203 H 48.865234 v -4.697265 c -1.377467,2.539119 -2.652643,5.215498 -3.826172,8.041012 h 0.482422 v 50.16797 h -11.24414 c -0.103726,1.10472 -0.205235,2.21769 -0.300782,3.3457 h 11.544922 v 50.16797 H 32.048828 c -0.008,1.09983 -0.01237,2.22869 -0.01758,3.34375 h 13.490234 v 50.16797 H 31.999998 v 3.34571 h 13.521484 v 50.16796 H 31.999998 v 3.34375 H 45.521482 V 366.5957 H 32.031248 c 0.0052,1.11572 0.0095,2.24524 0.01758,3.34571 h 13.472656 v 50.16797 H 33.976562 c 0.09549,1.12735 0.197121,2.23966 0.300782,3.34374 h 11.24414 v 50.16797 h -0.484375 c 1.173748,2.82627 2.450345,5.50129 3.828125,8.04102 v -4.69727 h 50.167969 v 40.88282 c 1.097127,0.29092 2.213587,0.56966 3.345707,0.84179 v -41.72461 h 50.16797 v 48.03907 c 1.10654,0.0579 2.21729,0.11374 3.34374,0.16601 v -48.20508 h 50.16797 V 526 h 3.34571 v -49.03516 h 50.16797 V 526 h 3.34375 v -49.03516 h 50.16796 V 526 h 3.34571 v -49.03516 h 50.16797 V 526 h 3.34375 v -49.03516 h 50.16797 v 48.20508 c 1.12711,-0.0523 2.23852,-0.10803 3.3457,-0.16601 v -48.03907 h 50.16797 v 41.72461 c 1.13148,-0.27199 2.24723,-0.55103 3.34375,-0.84179 v -40.88282 h 50.16797 v 4.69727 c 1.37778,-2.53973 2.65437,-5.21475 3.82812,-8.04102 h -0.48437 v -50.16797 h 11.24414 c 0.10366,-1.10408 0.20529,-2.21639 0.30078,-3.34374 h -11.54492 v -50.16797 h 13.47265 c 0.008,-1.10047 0.0124,-2.22999 0.0176,-3.34571 h -13.49023 v -50.16797 h 13.52148 v -3.34375 h -13.52148 v -50.16796 h 13.52148 v -3.34571 h -13.52148 v -50.16797 h 13.49023 c -0.005,-1.11506 -0.01,-2.24392 -0.0176,-3.34375 h -13.47265 v -50.16797 h 11.54492 c -0.0956,-1.12801 -0.19706,-2.24098 -0.30078,-3.3457 h -11.24414 v -50.16797 h 0.48242 c -1.17353,-2.825514 -2.44871,-5.501893 -3.82617,-8.041012 v 4.697265 H 476.9668 V 58.152344 c -1.09652,-0.290759 -2.21227,-0.569808 -3.34375,-0.841797 V 99.033203 H 423.45508 V 50.994141 c -1.10717,-0.05798 -2.2186,-0.113716 -3.3457,-0.166016 V 99.033203 H 369.94141 V 50 h -3.34375 V 99.033203 H 316.42969 V 50 h -3.34571 V 99.033203 H 262.91602 V 50 h -3.34375 V 99.033203 H 209.4043 V 50 Z M 48.865234,102.37695 h 50.167969 v 50.16797 H 48.865234 Z m 53.513676,0 h 50.16797 v 50.16797 h -50.16797 z m 53.51171,0 h 50.16797 v 50.16797 h -50.16797 z m 53.51368,0 h 50.16797 v 50.16797 H 209.4043 Z m 53.51172,0 h 50.16796 v 50.16797 h -50.16796 z m 53.51367,0 h 50.16797 v 50.16797 h -50.16797 z m 53.51172,0 h 50.16797 v 50.16797 h -50.16797 z m 53.51367,0 h 50.16797 v 50.16797 h -50.16797 z m 53.51172,0 h 50.16797 v 50.16797 H 476.9668 Z M 48.865234,155.89062 h 50.167969 v 50.16797 H 48.865234 Z m 53.513676,0 h 50.16797 v 50.16797 h -50.16797 z m 53.51171,0 h 50.16797 v 50.16797 h -50.16797 z m 53.51368,0 h 50.16797 v 50.16797 H 209.4043 Z m 53.51172,0 h 50.16796 v 50.16797 h -50.16796 z m 53.51367,0 h 50.16797 v 50.16797 h -50.16797 z m 53.51172,0 h 50.16797 v 50.16797 h -50.16797 z m 53.51367,0 h 50.16797 v 50.16797 h -50.16797 z m 53.51172,0 h 50.16797 v 50.16797 H 476.9668 Z M 48.865234,209.40234 h 50.167969 v 50.16797 H 48.865234 Z m 53.513676,0 h 50.16797 v 50.16797 h -50.16797 z m 53.51171,0 h 50.16797 v 50.16797 h -50.16797 z m 53.51368,0 h 50.16797 v 50.16797 H 209.4043 Z m 53.51172,0 h 50.16796 v 50.16797 h -50.16796 z m 53.51367,0 h 50.16797 v 50.16797 h -50.16797 z m 53.51172,0 h 50.16797 v 50.16797 h -50.16797 z m 53.51367,0 h 50.16797 v 50.16797 h -50.16797 z m 53.51172,0 h 50.16797 v 50.16797 H 476.9668 Z M 48.865234,262.91602 h 50.167969 v 50.16796 H 48.865234 Z m 53.513676,0 h 50.16797 v 50.16796 h -50.16797 z m 53.51171,0 h 50.16797 v 50.16796 h -50.16797 z m 53.51368,0 h 50.16797 v 50.16796 H 209.4043 Z m 53.51172,0 h 50.16796 v 50.16796 h -50.16796 z m 53.51367,0 h 50.16797 v 50.16796 h -50.16797 z m 53.51172,0 h 50.16797 v 50.16796 h -50.16797 z m 53.51367,0 h 50.16797 v 50.16796 h -50.16797 z m 53.51172,0 h 50.16797 v 50.16796 H 476.9668 Z M 48.865234,316.42773 H 99.033203 V 366.5957 H 48.865234 Z m 53.513676,0 h 50.16797 v 50.16797 h -50.16797 z m 53.51171,0 h 50.16797 v 50.16797 h -50.16797 z m 53.51368,0 h 50.16797 V 366.5957 H 209.4043 Z m 53.51172,0 h 50.16796 v 50.16797 h -50.16796 z m 53.51367,0 h 50.16797 v 50.16797 h -50.16797 z m 53.51172,0 h 50.16797 v 50.16797 h -50.16797 z m 53.51367,0 h 50.16797 v 50.16797 h -50.16797 z m 53.51172,0 h 50.16797 V 366.5957 H 476.9668 Z M 48.865234,369.94141 h 50.167969 v 50.16797 H 48.865234 Z m 53.513676,0 h 50.16797 v 50.16797 h -50.16797 z m 53.51171,0 h 50.16797 v 50.16797 h -50.16797 z m 53.51368,0 h 50.16797 v 50.16797 H 209.4043 Z m 53.51172,0 h 50.16796 v 50.16797 h -50.16796 z m 53.51367,0 h 50.16797 v 50.16797 h -50.16797 z m 53.51172,0 h 50.16797 v 50.16797 h -50.16797 z m 53.51367,0 h 50.16797 v 50.16797 h -50.16797 z m 53.51172,0 h 50.16797 v 50.16797 H 476.9668 Z M 48.865234,423.45312 h 50.167969 v 50.16797 H 48.865234 Z m 53.513676,0 h 50.16797 v 50.16797 h -50.16797 z m 53.51171,0 h 50.16797 v 50.16797 h -50.16797 z m 53.51368,0 h 50.16797 v 50.16797 H 209.4043 Z m 53.51172,0 h 50.16796 v 50.16797 h -50.16796 z m 53.51367,0 h 50.16797 v 50.16797 h -50.16797 z m 53.51172,0 h 50.16797 v 50.16797 h -50.16797 z m 53.51367,0 h 50.16797 v 50.16797 h -50.16797 z m 53.51172,0 h 50.16797 v 50.16797 H 476.9668 Z"
       transform="translate(-32,-32)"
       id="path4580"
       inkscape:connector-curvature="0" />
    <path
       style="color:#000000;display:inline;overflow:visible;visibility:visible;opacity:0.06000001;fill:#ffffff;fill-opacity:1;fill-rule:nonzero;stroke:none;stroke-width:8;stroke-linecap:butt;stroke-linejoin:miter;stroke-miterlimit:4;stroke-dasharray:none;stroke-dashoffset:0;stroke-opacity:1;marker:none;enable-background:accumulate"
       d="M 256 0 L 256 512 L 512 512 L 512 328.10156 L 512 183.89844 L 512 0 L 256 0 z "
       id="rect4238" />
  </g>
  <g
     inkscape:groupmode="layer"
     id="layer4"
     inkscape:label="Pictogram"
     style="display:inline">
    <path
       inkscape:connector-curvature="0"
       id="path4505-6"
       d="m 219.3125,124 -35.1875,71.65625 v 59.25 c -4.93993,5.78797 -10.33923,11.62048 -15.96875,17.25 -18.50312,18.50309 -39.2477,34.68678 -53.125,39.3125 L 91.65625,288.125 20,323.3125 V 494 H 276 V 176.4375 C 260.58338,142.99385 243.63185,130.51631 219.3125,124 Z M 121.75,353 c 0.007,-0.005 0.0239,0.005 0.0312,0 -2.61074,1.63039 -5.25098,3.22668 -7.90625,4.8125 2.65593,-1.58559 5.2637,-3.18237 7.87505,-4.8125 z m -24.09375,14.0625 c 0.008,-0.004 0.0234,0.004 0.0312,0 -2.74184,1.4991 -5.52861,2.98055 -8.3125,4.4375 2.78427,-1.45683 5.53906,-2.93856 8.2813,-4.4375 z"
       style="color:#000000;display:inline;overflow:visible;visibility:visible;opacity:0.05;fill:#ff0000;fill-opacity:0;fill-rule:nonzero;stroke:none;stroke-width:40;marker:none;enable-background:accumulate"
       sodipodi:nodetypes="cccsccccccccccccccc" />
    <g
       style="enable-background:new"
       id="g4494">
      <path
         inkscape:connector-curvature="0"
         id="path4498"
         d="M 68.907505,157.9999 H 496.72438"
         style="color:#000000;display:inline;overflow:visible;visibility:visible;opacity:0.8;fill:none;stroke:url(#linearGradient4506);stroke-width:2;stroke-linecap:round;stroke-linejoin:round;stroke-miterlimit:4;stroke-dasharray:none;stroke-dashoffset:0;stroke-opacity:1;marker:none;enable-background:accumulate" />
      <path
         inkscape:connector-curvature="0"
         id="path4554"
         d="M 122.00011,117.90315 V 308.80008"
         style="color:#000000;display:inline;overflow:visible;visibility:visible;opacity:0.6;fill:none;stroke:url(#linearGradient4562);stroke-width:2.0000236;stroke-linecap:round;stroke-linejoin:round;stroke-miterlimit:4;stroke-dasharray:none;stroke-dashoffset:0;stroke-opacity:1;marker:none;enable-background:accumulate" />
      <path
         style="color:#000000;display:inline;overflow:visible;visibility:visible;opacity:0.6;fill:none;stroke:url(#linearGradient4566);stroke-width:2.00003552;stroke-linecap:round;stroke-linejoin:round;stroke-miterlimit:4;stroke-dasharray:none;stroke-dashoffset:0;stroke-opacity:1;marker:none;enable-background:accumulate"
         d="M 186.00012,70.56953 V 281.83459"
         id="path4564"
         inkscape:connector-curvature="0" />
      <path
         inkscape:connector-curvature="0"
         id="path4568"
         d="m 203.00014,140.57431 v 281.6599"
         style="color:#000000;display:inline;overflow:visible;visibility:visible;opacity:0.6;fill:none;stroke:url(#linearGradient4570);stroke-width:2.00008559;stroke-linecap:round;stroke-linejoin:round;stroke-miterlimit:4;stroke-dasharray:none;stroke-dashoffset:0;stroke-opacity:1;marker:none;enable-background:accumulate" />
      <path
         style="color:#000000;display:inline;overflow:visible;visibility:visible;opacity:0.6;fill:none;stroke:url(#linearGradient4574);stroke-width:2.00005412;stroke-linecap:round;stroke-linejoin:round;stroke-miterlimit:4;stroke-dasharray:none;stroke-dashoffset:0;stroke-opacity:1;marker:none;enable-background:accumulate"
         d="M 285.00013,35.63479 V 291.83036"
         id="path4572"
         inkscape:connector-curvature="0" />
      <path
         inkscape:connector-curvature="0"
         id="path4576"
         d="M 315.0001,73 V 281.16615"
         style="color:#000000;display:inline;overflow:visible;visibility:visible;opacity:0.6;fill:none;stroke:url(#linearGradient4578);stroke-width:1.99999225;stroke-linecap:round;stroke-linejoin:round;stroke-miterlimit:4;stroke-dasharray:none;stroke-dashoffset:0;stroke-opacity:1;marker:none;enable-background:accumulate" />
      <path
         style="color:#000000;display:inline;overflow:visible;visibility:visible;opacity:0.6;fill:none;stroke:url(#linearGradient4583);stroke-width:2.0000236;stroke-linecap:round;stroke-linejoin:round;stroke-miterlimit:4;stroke-dasharray:none;stroke-dashoffset:0;stroke-opacity:1;marker:none;enable-background:accumulate"
         d="M 390.00011,293.07262 V 117.90197"
         id="path4581"
         inkscape:connector-curvature="0" />
      <path
         sodipodi:nodetypes="cc"
         inkscape:connector-curvature="0"
         id="path4585"
         d="M 455.89401,94.05416 130.95952,409.02954"
         style="color:#000000;display:inline;overflow:visible;visibility:visible;opacity:0.6;fill:none;stroke:url(#linearGradient4587);stroke-width:2.00005412;stroke-linecap:round;stroke-linejoin:round;stroke-miterlimit:4;stroke-dasharray:none;stroke-dashoffset:0;stroke-opacity:1;marker:none;enable-background:accumulate" />
      <path
         style="color:#000000;display:inline;overflow:visible;visibility:visible;opacity:0.3;fill:none;stroke:url(#linearGradient4591);stroke-width:1.99999988;stroke-linecap:round;stroke-linejoin:round;stroke-miterlimit:4;stroke-dasharray:none;stroke-dashoffset:0;stroke-opacity:1;marker:none;enable-background:accumulate"
         d="M 356.47104,206.32693 470.05835,357.6383"
         id="path4589"
         inkscape:connector-curvature="0"
         sodipodi:nodetypes="cc" />
      <g
         transform="translate(-1e-6,-7)"
         id="text4256"
         style="font-style:normal;font-variant:normal;font-weight:normal;font-stretch:normal;font-size:180.95259094px;line-height:125%;font-family:Ubuntu;-inkscape-font-specification:Ubuntu;text-align:center;letter-spacing:0px;word-spacing:0px;writing-mode:lr-tb;text-anchor:middle;fill:#e4eaff;fill-opacity:1;stroke:none;enable-background:new">
        <path
           inkscape:connector-curvature="0"
           id="path4600"
           style="fill:#e4eaff;fill-opacity:1"
           d="m 149.13336,248.4688 q 10.3143,0 15.20002,-2.71429 5.06667,-2.71429 5.06667,-8.68573 0,-6.15238 -4.88572,-9.77144 -4.88572,-3.61905 -16.10478,-8.14286 -5.42858,-2.17143 -10.49525,-4.34286 -4.88572,-2.35239 -8.50477,-5.42858 -3.61905,-3.0762 -5.79048,-7.41906 -2.17144,-4.34286 -2.17144,-10.6762 0,-12.48573 9.22859,-19.72383 9.22858,-7.41906 25.15241,-7.41906 3.98095,0 7.96191,0.54286 3.98096,0.3619 7.41906,1.08571 3.4381,0.54286 5.97143,1.26667 2.71429,0.72381 4.16191,1.26667 l -3.07619,14.47621 q -2.71429,-1.44762 -8.50477,-2.89524 -5.79049,-1.62858 -13.93335,-1.62858 -7.05715,0 -12.30478,2.89524 -5.24762,2.71429 -5.24762,8.68573 0,3.07619 1.08571,5.42858 1.26667,2.35238 3.61905,4.34286 2.53334,1.80952 6.15239,3.4381 3.61905,1.62857 8.68573,3.4381 6.69524,2.53333 11.94287,5.06667 5.24762,2.35238 8.86667,5.60953 3.80001,3.25715 5.79049,7.96191 1.99047,4.52382 1.99047,11.21906 0,13.02859 -9.77144,19.72384 -9.59048,6.69524 -27.50479,6.69524 -12.48573,0 -19.54288,-2.17143 -7.05715,-1.99048 -9.59049,-3.07619 l 3.0762,-14.47621 q 2.89524,1.08572 9.22858,3.25715 6.33334,2.17143 16.82859,2.17143 z" />
        <path
           inkscape:connector-curvature="0"
           id="path4602"
           style="fill:#e4eaff;fill-opacity:1"
           d="m 268.61862,186.40206 q -3.07619,-2.53334 -8.86668,-4.88572 -5.79048,-2.35239 -12.66668,-2.35239 -7.2381,0 -12.48573,2.71429 -5.06667,2.53334 -8.32382,7.23811 -3.25714,4.52381 -4.70476,10.85715 -1.44762,6.33334 -1.44762,13.57145 0,16.46668 8.14286,25.51431 8.14287,8.86668 21.71431,8.86668 6.8762,0 11.40002,-0.54286 4.70476,-0.72381 7.2381,-1.44762 z m 0,-63.33341 16.82859,-2.89524 v 137.70492 q -5.79048,1.62858 -14.83811,3.25715 -9.04763,1.62857 -20.80955,1.62857 -10.85715,0 -19.54288,-3.4381 -8.68572,-3.4381 -14.83811,-9.77144 -6.15239,-6.33334 -9.59049,-15.38097 -3.25715,-9.22858 -3.25715,-20.62859 0,-10.85716 2.71429,-19.90479 2.89524,-9.04763 8.32382,-15.56192 5.42858,-6.51429 13.20954,-10.13335 7.96192,-3.61905 18.09526,-3.61905 8.14287,0 14.29526,2.17143 6.33334,2.17143 9.40953,4.16191 z" />
        <path
           inkscape:connector-curvature="0"
           id="path4604"
           style="fill:#e4eaff;fill-opacity:1"
           d="m 348.57139,208.84018 q 5.42858,4.16191 11.40002,10.3143 6.15238,6.15239 11.94287,13.39049 5.97143,7.05715 11.21906,14.47621 5.24762,7.2381 8.86668,13.57144 h -19.72384 q -3.8,-6.33334 -8.86667,-12.84763 -4.88572,-6.69525 -10.3143,-12.66668 -5.42858,-6.15239 -11.03811,-11.21907 -5.60953,-5.06667 -10.6762,-8.50477 v 45.23815 H 314.55231 V 123.06865 l 16.82859,-2.89524 v 85.77153 q 4.34286,-4.34286 9.59048,-9.59049 5.24763,-5.24762 10.3143,-10.6762 5.06668,-5.42858 9.59049,-10.3143 4.52381,-5.06667 7.78096,-8.86668 h 19.72383 q -4.16191,4.52382 -9.04763,9.9524 -4.88572,5.42857 -10.13334,11.0381 -5.24763,5.42858 -10.6762,11.03811 -5.24763,5.42858 -9.9524,10.3143 z" />
      </g>
    </g>
    <g
       style="enable-background:new"
       id="g4324"
       transform="matrix(0,-1.209769,-1.209769,0,537.17228,556.54032)">
      <path
         style="display:inline;opacity:0.1;fill:#000000;fill-opacity:1;stroke:none;stroke-width:0.82660407;filter:url(#filter4655);enable-background:new"
         d="m 222.37045,159.99988 c 0,16.28971 -8.8575,30.50254 -22.01156,38.11259 v 122.64415 c 0,12.8772 -9.81226,23.2434 -22.00026,23.2434 -12.188,0 -22.00026,-10.3662 -22.00026,-23.2434 V 198.11247 c -13.15443,-7.60995 -22.01157,-21.8226 -22.01157,-38.11259 0,-17.74168 10.55027,-33.03479 25.67317,-39.99988 v 32.66539 h 36.67571 V 120 c 15.12289,6.96509 25.67477,22.2582 25.67477,39.99988 z m -35.41482,161.69151 a 8.5967511,8.5967511 0 0 0 -8.597,-8.597 8.5967511,8.5967511 0 0 0 -8.59701,8.597 8.5967511,8.5967511 0 0 0 8.59701,8.59701 8.5967511,8.5967511 0 0 0 8.597,-8.59701 z"
         id="path4650"
         inkscape:connector-curvature="0" />
      <path
         style="display:inline;opacity:0.4;fill:url(#linearGradient4608);fill-opacity:1;stroke:none;stroke-width:0.82660407;filter:url(#filter4646);enable-background:new"
         d="m 222.37045,159.99988 c 0,16.28971 -8.8575,30.50254 -22.01156,38.11259 v 122.64415 c 0,12.8772 -9.81226,23.2434 -22.00026,23.2434 -12.188,0 -22.00026,-10.3662 -22.00026,-23.2434 V 198.11247 c -13.15443,-7.60995 -22.01157,-21.8226 -22.01157,-38.11259 0,-17.74168 10.55027,-33.03479 25.67317,-39.99988 v 32.66539 h 36.67571 V 120 c 15.12289,6.96509 25.67477,22.2582 25.67477,39.99988 z m -35.41482,161.69151 a 8.5967511,8.5967511 0 0 0 -8.597,-8.597 8.5967511,8.5967511 0 0 0 -8.59701,8.597 8.5967511,8.5967511 0 0 0 8.59701,8.59701 8.5967511,8.5967511 0 0 0 8.597,-8.59701 z"
         id="path4597"
         inkscape:connector-curvature="0" />
      <path
         style="display:inline;fill:#dfdfdf;fill-opacity:1;stroke:none;enable-background:new"
         d="m 149.13086,294.15234 c -15.57844,0 -28.11914,11.87057 -28.11914,26.61524 0,14.74466 12.5407,26.61523 28.11914,26.61523 H 301.375 c 15.57844,0 28.12109,-11.87057 28.12109,-26.61523 0,-14.74467 -12.54265,-26.61524 -28.12109,-26.61524 z M 148,310.36719 A 10.400083,10.400083 0 0 1 158.40039,320.76758 10.400083,10.400083 0 0 1 148,331.16797 10.400083,10.400083 0 0 1 137.59961,320.76758 10.400083,10.400083 0 0 1 148,310.36719 Z"
         transform="matrix(0,-0.82660409,-0.82660409,0,445.15963,444.0288)"
         id="rect2921"
         inkscape:connector-curvature="0" />
      <path
         sodipodi:nodetypes="ccsssssccc"
         inkscape:connector-curvature="0"
         id="path4755"
         d="m 143.28516,160 c 0,13.64928 7.39701,25.45602 18.375,31.80664 2.19921,1.27283 3.6367,3.76566 3.63672,6.30664 v 122.64258 c 0,9.17602 6.65848,15.95898 14.71484,15.95898 8.05636,0 14.71484,-6.78296 14.71484,-15.95898 V 198.11328 c 2e-5,-2.54098 1.43751,-5.03381 3.63672,-6.30664 10.97799,-6.35062 18.375,-18.15736 18.375,-31.80664 z"
         style="display:inline;opacity:0.13999999;fill:#000000;fill-opacity:0.32716052;stroke:none;stroke-width:1.65320814;stroke-miterlimit:4;stroke-dasharray:none;enable-background:new" />
      <path
         style="display:inline;opacity:0.6;fill:#ffffff;fill-opacity:1;stroke:none;enable-background:new"
         d="m 149.13086,294.15234 c -15.57844,0 -28.11914,11.87057 -28.11914,26.61524 0,0.33558 0.0145,0.6675 0.0273,1 0.55305,-14.27668 12.86792,-25.61524 28.0918,-25.61524 h 152.24414 c 15.22388,0 27.54062,11.33856 28.09375,25.61524 0.0129,-0.3325 0.0273,-0.66442 0.0273,-1 0,-14.74467 -12.54265,-26.61524 -28.12109,-26.61524 H 149.13078 Z m -11.47852,27.57618 a 10.400083,10.400083 0 0 0 -0.0527,1.03906 A 10.400083,10.400083 0 0 0 148,333.16797 10.400083,10.400083 0 0 0 158.40039,322.76758 10.400083,10.400083 0 0 0 158.34766,321.80859 10.400083,10.400083 0 0 1 148,331.16797 10.400083,10.400083 0 0 1 137.65234,321.72852 Z"
         transform="matrix(0,-0.82660409,-0.82660409,0,445.15963,444.0288)"
         id="path4388"
         inkscape:connector-curvature="0" />
      <path
         inkscape:connector-curvature="0"
         id="path2917"
         d="M 161.67335,120 C 146.55046,126.9651 136,142.25831 136,160 c 0,24.30687 19.70459,44.01146 44.01146,44.01146 24.30687,0 44.01147,-19.70459 44.01147,-44.01146 0,-17.74169 -10.55047,-33.0349 -25.67336,-40 v 32.66474 h -36.67622 z"
         style="display:inline;fill:#ececec;fill-opacity:1;stroke:none;enable-background:new" />
      <path
         style="display:inline;opacity:0.6;fill:#ffffff;fill-opacity:1;stroke:none;enable-background:new"
         d="m 343.60938,267.52344 c -29.4057,0 -53.24415,23.83844 -53.24415,53.24414 0,0.33534 0.0192,0.66613 0.0254,1 0.53516,-28.94247 24.1484,-52.24414 53.21876,-52.24414 20.67154,0 38.59213,11.84282 47.41406,29.06054 h 0.97656 c -8.42616,-18.2952 -26.92728,-31.06054 -48.39062,-31.06054 z m 8.87304,75.42968 v 2 h 38.54102 c 0.33796,-0.65959 0.66567,-1.32497 0.97656,-2 z"
         transform="matrix(0,-0.82660409,-0.82660409,0,445.15963,444.0288)"
         id="path4369"
         inkscape:connector-curvature="0" />
    </g>
  </g>
</svg>
