<?xml version="1.0" encoding="UTF-8" standalone="no"?>
<!-- Created with Inkscape (http://www.inkscape.org/) -->

<svg
   xmlns:dc="http://purl.org/dc/elements/1.1/"
   xmlns:cc="http://creativecommons.org/ns#"
   xmlns:rdf="http://www.w3.org/1999/02/22-rdf-syntax-ns#"
   xmlns:svg="http://www.w3.org/2000/svg"
   xmlns="http://www.w3.org/2000/svg"
   xmlns:xlink="http://www.w3.org/1999/xlink"
   xmlns:sodipodi="http://sodipodi.sourceforge.net/DTD/sodipodi-0.dtd"
   xmlns:inkscape="http://www.inkscape.org/namespaces/inkscape"
   width="512"
   height="512"
   id="svg3336"
   version="1.1"
   inkscape:version="0.91+devel r"
   sodipodi:docname="ubuntu-store.svg"
   inkscape:export-filename="app_shape02.png"
   inkscape:export-xdpi="180"
   inkscape:export-ydpi="180"
   style="enable-background:new"
   viewBox="0 0 512 512">
  <defs
     id="defs3338">
    <linearGradient
       inkscape:collect="always"
       id="linearGradient4310">
      <stop
         style="stop-color:#000000;stop-opacity:0"
         offset="0"
         id="stop4312" />
      <stop
         id="stop4318"
         offset="0.67239302"
         style="stop-color:#000000;stop-opacity:1" />
      <stop
         style="stop-color:#000000;stop-opacity:0.228"
         offset="1"
         id="stop4314" />
    </linearGradient>
    <linearGradient
       inkscape:collect="always"
       id="linearGradient4343">
      <stop
         style="stop-color:#f37e40;stop-opacity:1"
         offset="0"
         id="stop4345" />
      <stop
         style="stop-color:#f37e40;stop-opacity:0"
         offset="1"
         id="stop4347" />
    </linearGradient>
    <filter
       style="color-interpolation-filters:sRGB"
       inkscape:label="Inner Shadow"
       id="filter4245">
      <feFlood
         flood-opacity="0.40000000000000002"
         flood-color="rgb(0,0,0)"
         result="flood"
         id="feFlood4247" />
      <feComposite
         in="flood"
         in2="SourceGraphic"
         operator="out"
         result="composite1"
         id="feComposite4249" />
      <feGaussianBlur
         in="composite1"
         stdDeviation="6"
         result="blur"
         id="feGaussianBlur4251" />
      <feOffset
         dx="0"
         dy="2"
         result="offset"
         id="feOffset4253" />
      <feComposite
         in="offset"
         in2="SourceGraphic"
         operator="atop"
         result="composite2"
         id="feComposite4255" />
    </filter>
    <filter
       style="color-interpolation-filters:sRGB"
       inkscape:label="Drop Shadow"
       id="filter4711">
      <feFlood
         flood-opacity="0.501961"
         flood-color="rgb(0,0,0)"
         result="flood"
         id="feFlood4713" />
      <feComposite
         in="flood"
         in2="SourceGraphic"
         operator="in"
         result="composite1"
         id="feComposite4715" />
      <feGaussianBlur
         in="composite1"
         stdDeviation="6"
         result="blur"
         id="feGaussianBlur4717" />
      <feOffset
         dx="0"
         dy="4"
         result="offset"
         id="feOffset4719" />
      <feComposite
         in="SourceGraphic"
         in2="offset"
         operator="over"
         result="composite2"
         id="feComposite4721" />
    </filter>
    <filter
       style="color-interpolation-filters:sRGB"
       inkscape:label="Colorize"
       id="filter4202">
      <feComposite
         k4="0"
         k3="0"
         in2="SourceGraphic"
         operator="arithmetic"
         k1="0"
         k2="1"
         result="composite1"
         id="feComposite4204" />
      <feColorMatrix
         in="composite1"
         values="0"
         type="saturate"
         result="colormatrix1"
         id="feColorMatrix4206" />
      <feFlood
         flood-opacity="1"
         flood-color="rgb(164,85,35)"
         result="flood1"
         id="feFlood4208" />
      <feBlend
         in="flood1"
         in2="colormatrix1"
         mode="multiply"
         result="blend1"
         id="feBlend4210" />
      <feBlend
         in2="blend1"
         mode="screen"
         result="blend2"
         id="feBlend4212" />
      <feColorMatrix
         in="blend2"
         values="1"
         type="saturate"
         result="colormatrix2"
         id="feColorMatrix4214" />
      <feComposite
         in="colormatrix2"
         in2="SourceGraphic"
         operator="in"
         result="composite2"
         id="feComposite4216" />
    </filter>
    <clipPath
       clipPathUnits="userSpaceOnUse"
       id="clipPath4241">
      <path
         sodipodi:nodetypes="sssssssss"
         inkscape:connector-curvature="0"
         id="path4243"
         d="m 166.05406,17.99997 179.89189,0 c 145.29729,0 166.05406,20.73726 166.05406,165.89904 l 0,144.20253 c 0,145.16118 -20.75677,165.89848 -166.05406,165.89848 l -179.89189,0 C 20.756757,494.00002 0,473.26272 0,328.10154 L 0,183.89901 C 0,38.73723 20.756757,17.99997 166.05406,17.99997 Z"
         style="display:inline;fill:#0000ff;fill-opacity:0.08118083;stroke:#0000ff" />
    </clipPath>
    <clipPath
       clipPathUnits="userSpaceOnUse"
       id="clipPath4510">
      <path
         style="display:inline;fill:#0000ff;fill-opacity:0.08118083;stroke:#0000ff"
         d="m 463.30663,-109.56117 179.89189,0 c 145.29729,0 166.05406,20.73726 166.05406,165.89904 l 0,144.20253 c 0,145.16118 -20.75677,165.89848 -166.05406,165.89848 l -179.89189,0 c -145.2973,0 -166.05406,-20.7373 -166.05406,-165.89848 l 0,-144.20253 c 0,-145.16178 20.75676,-165.89904 166.05406,-165.89904 z"
         id="path4512"
         inkscape:connector-curvature="0"
         sodipodi:nodetypes="sssssssss" />
    </clipPath>
    <clipPath
       clipPathUnits="userSpaceOnUse"
       id="clipPath4707">
      <path
         sodipodi:nodetypes="sssssssss"
         inkscape:connector-curvature="0"
         id="path4709"
         d="m 166.05406,17.99997 179.89189,0 c 145.29729,0 166.05406,20.73726 166.05406,165.89904 l 0,144.20253 c 0,145.16118 -20.75677,165.89848 -166.05406,165.89848 l -179.89189,0 C 20.75676,494.00002 0,473.26272 0,328.10154 L 0,183.89901 C 0,38.73723 20.75676,17.99997 166.05406,17.99997 Z"
         style="display:inline;fill:#ff00ff;fill-opacity:0.50479234;stroke:none" />
    </clipPath>
    <clipPath
       clipPathUnits="userSpaceOnUse"
       id="clipPath4170">
      <path
         style="display:inline;fill:#ffffff;fill-opacity:1;stroke:none"
         d="m 166.05406,17.99997 179.89189,0 c 145.29729,0 166.05406,20.73726 166.05406,165.89904 l 0,144.20253 c 0,145.16118 -20.75677,165.89848 -166.05406,165.89848 l -179.89189,0 C 20.75676,494.00002 0,473.26272 0,328.10154 L 0,183.89901 C 0,38.73723 20.75676,17.99997 166.05406,17.99997 Z"
         id="path4172"
         inkscape:connector-curvature="0"
         sodipodi:nodetypes="sssssssss" />
    </clipPath>
    <linearGradient
       inkscape:collect="always"
       xlink:href="#linearGradient7537"
       id="linearGradient3223"
       gradientUnits="userSpaceOnUse"
       gradientTransform="matrix(5.3329426,0,0,-5.4179322,0.01904181,5682.273)"
       x1="44.236801"
       y1="1046.2661"
       x2="44.236801"
       y2="960.21375" />
    <linearGradient
       id="linearGradient7537">
      <stop
         style="stop-color:#f37e40;stop-opacity:1"
         offset="0"
         id="stop7539" />
      <stop
         style="stop-color:#ea5420;stop-opacity:1"
         offset="1"
         id="stop7541" />
    </linearGradient>
    <linearGradient
       inkscape:collect="always"
       xlink:href="#linearGradient7537"
       id="linearGradient4912"
       x1="307.60947"
       y1="18.000004"
       x2="129.91219"
       y2="493.99997"
       gradientUnits="userSpaceOnUse"
       gradientTransform="matrix(1,0,0,1.0756303,0,-531.36135)" />
    <clipPath
       clipPathUnits="userSpaceOnUse"
       id="clipPath4967">
      <path
         style="color:#000000;display:inline;overflow:visible;visibility:visible;opacity:0.4;fill:#ff00ff;fill-opacity:1;fill-rule:nonzero;stroke:none;stroke-width:1;marker:none;enable-background:accumulate"
         d="M 119.86447,193.96008 236.17789,151.15047 339.16724,166.36466 392.09848,328.03894 392.283,494 119.86447,494 Z"
         id="path4969"
         inkscape:connector-curvature="0"
         sodipodi:nodetypes="ccccccc" />
    </clipPath>
    <linearGradient
       y2="492.4577"
       x2="165.61214"
       y1="453.00262"
       x1="155.04018"
       gradientTransform="matrix(12.811113,0,0,12.828907,-1896.267,-5830.0727)"
       gradientUnits="userSpaceOnUse"
       id="linearGradient3585"
       xlink:href="#linearGradient4644-104-3-3-6-1"
       inkscape:collect="always" />
    <linearGradient
       id="linearGradient4644-104-3-3-6-1">
      <stop
         offset="0"
         style="stop-color:#ff7a35;stop-opacity:1;"
         id="stop5237-6-5-1-7" />
      <stop
         offset="1"
         style="stop-color:#f0431a;stop-opacity:1;"
         id="stop5239-4-6-4-7" />
    </linearGradient>
    <linearGradient
       id="linearGradient5105">
      <stop
         style="stop-color:#f5f5f5;stop-opacity:1;"
         offset="0"
         id="stop5107" />
      <stop
         style="stop-color:#ebebeb;stop-opacity:1;"
         offset="1"
         id="stop5109" />
    </linearGradient>
    <linearGradient
       inkscape:collect="always"
       xlink:href="#linearGradient4142"
       id="linearGradient4148"
       x1="221.78072"
       y1="353.00031"
       x2="221.78072"
       y2="494"
       gradientUnits="userSpaceOnUse" />
    <linearGradient
       inkscape:collect="always"
       id="linearGradient4142">
      <stop
         style="stop-color:#000000;stop-opacity:1;"
         offset="0"
         id="stop4144" />
      <stop
         id="stop4158"
         offset="0.75"
         style="stop-color:#000000;stop-opacity:0" />
      <stop
         style="stop-color:#000000;stop-opacity:0"
         offset="1"
         id="stop4146" />
    </linearGradient>
    <linearGradient
       id="linearGradient7537-7">
      <stop
         style="stop-color:#e78757;stop-opacity:0.99607843"
         offset="0"
         id="stop7539-1" />
      <stop
         style="stop-color:#e25828;stop-opacity:0.99607843"
         offset="1"
         id="stop7541-8" />
    </linearGradient>
    <linearGradient
       id="linearGradient7537-5">
      <stop
         style="stop-color:#e78757;stop-opacity:0.99607843"
         offset="0"
         id="stop7539-2" />
      <stop
         style="stop-color:#e25828;stop-opacity:0.99607843"
         offset="1"
         id="stop7541-9" />
    </linearGradient>
    <linearGradient
       id="linearGradient7537-3">
      <stop
         style="stop-color:#e78757;stop-opacity:0.99607843"
         offset="0"
         id="stop7539-8" />
      <stop
         style="stop-color:#e25828;stop-opacity:0.99607843"
         offset="1"
         id="stop7541-5" />
    </linearGradient>
    <linearGradient
       id="linearGradient7537-56">
      <stop
         style="stop-color:#e78757;stop-opacity:0.99607843"
         offset="0"
         id="stop7539-7" />
      <stop
         style="stop-color:#e25828;stop-opacity:0.99607843"
         offset="1"
         id="stop7541-88" />
    </linearGradient>
    <linearGradient
       id="linearGradient7537-8">
      <stop
         style="stop-color:#e78757;stop-opacity:0.99607843"
         offset="0"
         id="stop7539-16" />
      <stop
         style="stop-color:#e25828;stop-opacity:0.99607843"
         offset="1"
         id="stop7541-99" />
    </linearGradient>
    <filter
       style="color-interpolation-filters:sRGB"
       inkscape:label="Colorize"
       id="filter4154">
      <feComposite
         in2="SourceGraphic"
         operator="arithmetic"
         k1="0"
         k2="1"
         result="composite1"
         id="feComposite4156"
         k3="0"
         k4="0" />
      <feColorMatrix
         in="composite1"
         values="0"
         type="saturate"
         result="colormatrix1"
         id="feColorMatrix4158" />
      <feFlood
         flood-opacity="1"
         flood-color="rgb(131,79,50)"
         result="flood1"
         id="feFlood4160" />
      <feBlend
         in="flood1"
         in2="colormatrix1"
         mode="multiply"
         result="blend1"
         id="feBlend4162" />
      <feBlend
         in2="blend1"
         mode="screen"
         result="blend2"
         id="feBlend4164" />
      <feColorMatrix
         in="blend2"
         values="1"
         type="saturate"
         result="colormatrix2"
         id="feColorMatrix4166" />
      <feComposite
         in="colormatrix2"
         in2="SourceGraphic"
         operator="in"
         result="composite2"
         id="feComposite4168" />
    </filter>
    <clipPath
       clipPathUnits="userSpaceOnUse"
       id="clipPath4231">
      <path
         style="color:#000000;font-style:normal;font-variant:normal;font-weight:normal;font-stretch:normal;font-size:xx-small;line-height:normal;font-family:sans-serif;-inkscape-font-specification:sans-serif;text-indent:0;text-align:start;text-decoration:none;text-decoration-line:none;text-decoration-color:currentColor;letter-spacing:normal;word-spacing:normal;text-transform:none;direction:ltr;block-progression:tb;writing-mode:lr-tb;baseline-shift:baseline;text-anchor:start;clip-rule:nonzero;display:inline;overflow:visible;visibility:visible;color-interpolation:sRGB;color-interpolation-filters:linearRGB;fill:#ff00ff;fill-opacity:1;stroke:none;stroke-width:24;marker:none;color-rendering:auto;image-rendering:auto;shape-rendering:auto;text-rendering:auto;enable-background:accumulate"
         d="m 168.00781,123.83008 a 12.0012,12.0012 0 0 0 -11.96679,13.16601 c 0,0 2.03399,25.98596 15.22656,52.3711 C 184.46015,215.75233 211.2,244 256,244 c 44.8,0 71.53985,-28.24767 84.73242,-54.63281 13.19257,-26.38514 15.22656,-52.3711 15.22656,-52.3711 a 12.0012,12.0012 0 1 0 -23.91796,-1.99218 c 0,0 -1.96601,22.01404 -12.77344,43.6289 C 308.46015,200.24767 291.2,220 256,220 c -35.2,0 -52.46015,-19.75233 -63.26758,-41.36719 -10.80743,-21.61486 -12.77344,-43.6289 -12.77344,-43.6289 a 12.0012,12.0012 0 0 0 -11.95117,-11.17383 z"
         id="path4233"
         inkscape:connector-curvature="0" />
    </clipPath>
    <clipPath
       clipPathUnits="userSpaceOnUse"
       id="clipPath4149">
      <rect
         y="18"
         x="0"
         height="476"
         width="512"
         id="rect4151"
         style="color:#000000;display:inline;overflow:visible;visibility:visible;fill:#ff00ff;fill-opacity:1;fill-rule:nonzero;stroke:none;stroke-width:1;marker:none;enable-background:accumulate" />
    </clipPath>
    <clipPath
       clipPathUnits="userSpaceOnUse"
       id="clipPath4490">
      <path
         style="color:#000000;font-style:normal;font-variant:normal;font-weight:normal;font-stretch:normal;font-size:medium;line-height:normal;font-family:sans-serif;text-indent:0;text-align:start;text-decoration:none;text-decoration-line:none;text-decoration-color:currentColor;letter-spacing:normal;word-spacing:normal;text-transform:none;direction:ltr;block-progression:tb;writing-mode:lr-tb;baseline-shift:baseline;text-anchor:start;clip-rule:nonzero;display:inline;overflow:visible;visibility:visible;opacity:1;isolation:auto;color-interpolation:sRGB;color-interpolation-filters:linearRGB;fill:#ff00ff;fill-opacity:1;fill-rule:nonzero;stroke:none;stroke-width:30;stroke-linecap:round;stroke-linejoin:miter;stroke-miterlimit:4;stroke-dasharray:none;stroke-dashoffset:0;stroke-opacity:1;marker:none;color-rendering:auto;image-rendering:auto;shape-rendering:auto;text-rendering:auto;enable-background:accumulate"
         d="m 367.67578,160.6543 a 15.0015,15.0015 0 0 0 -15.17187,16.26172 c 0,0 1.65164,27.35793 -9.58399,53.90429 C 331.68429,257.36667 310.93333,282.4668 256,282.4668 c -54.93333,0 -75.68429,-25.10013 -86.91992,-51.64649 -11.23563,-26.54636 -9.58399,-53.90429 -9.58399,-53.90429 a 15.0015,15.0015 0 1 0 -29.92578,-2.09961 c 0,0 -2.61489,33.44362 11.88281,67.69726 14.49771,34.25364 49.48022,69.95313 114.54688,69.95313 65.06666,0 100.04917,-35.69949 114.54688,-69.95313 14.4977,-34.25364 11.88281,-67.69726 11.88281,-67.69726 A 15.0015,15.0015 0 0 0 367.67578,160.6543 Z"
         id="path4492"
         inkscape:connector-curvature="0" />
    </clipPath>
    <linearGradient
       id="linearGradient7537-1">
      <stop
         style="stop-color:#f37e40;stop-opacity:1"
         offset="0"
         id="stop7539-79" />
      <stop
         style="stop-color:#ea5420;stop-opacity:1"
         offset="1"
         id="stop7541-2" />
    </linearGradient>
    <linearGradient
       id="linearGradient7537-6">
      <stop
         style="stop-color:#f37e40;stop-opacity:1"
         offset="0"
         id="stop7539-29" />
      <stop
         style="stop-color:#ea5420;stop-opacity:1"
         offset="1"
         id="stop7541-25" />
    </linearGradient>
    <linearGradient
       inkscape:collect="always"
       xlink:href="#linearGradient4343"
       id="linearGradient4323"
       gradientUnits="userSpaceOnUse"
       gradientTransform="matrix(0.97841725,0,0,0.97841725,5.5251848,5.5251844)"
       x1="267.93137"
       y1="148.76265"
       x2="303.43927"
       y2="239.45589" />
    <linearGradient
       inkscape:collect="always"
       xlink:href="#linearGradient4343"
       id="linearGradient4332"
       gradientUnits="userSpaceOnUse"
       gradientTransform="matrix(0.97841725,0,0,0.97841725,5.5251848,5.5251844)"
       x1="252.33632"
       y1="337.76471"
       x2="252.33632"
       y2="390.17722" />
    <filter
       inkscape:collect="always"
       style="color-interpolation-filters:sRGB"
       id="filter4304"
       x="-0.012"
       width="1.024"
       y="-0.012"
       height="1.024">
      <feGaussianBlur
         inkscape:collect="always"
         stdDeviation="1.36"
         id="feGaussianBlur4306" />
    </filter>
    <linearGradient
       inkscape:collect="always"
       xlink:href="#linearGradient4310"
       id="linearGradient4316"
       x1="184.07777"
       y1="120"
       x2="184.07777"
       y2="397.26401"
       gradientUnits="userSpaceOnUse" />
    <filter
       inkscape:collect="always"
       style="color-interpolation-filters:sRGB"
       id="filter4320"
       x="-0.096"
       width="1.192"
       y="-0.096"
       height="1.192">
      <feGaussianBlur
         inkscape:collect="always"
         stdDeviation="10.88"
         id="feGaussianBlur4322" />
    </filter>
  </defs>
  <sodipodi:namedview
     id="base"
     pagecolor="#333333"
     bordercolor="#666666"
     borderopacity="1.0"
     inkscape:pageopacity="0"
     inkscape:pageshadow="2"
     inkscape:zoom="0.647168"
     inkscape:cx="-106.85014"
     inkscape:cy="102.63258"
     inkscape:document-units="px"
     inkscape:current-layer="layer4"
     showgrid="false"
     inkscape:window-width="1920"
     inkscape:window-height="1029"
     inkscape:window-x="0"
     inkscape:window-y="24"
     inkscape:window-maximized="1"
     inkscape:snap-page="true"
     inkscape:showpageshadow="false"
     showborder="true"
     inkscape:snap-bbox="true"
     inkscape:bbox-paths="true"
     inkscape:bbox-nodes="true"
     inkscape:snap-bbox-edge-midpoints="true"
     inkscape:snap-bbox-midpoints="true"
     inkscape:object-paths="true"
     inkscape:object-nodes="true"
     inkscape:snap-intersection-paths="true"
     inkscape:snap-smooth-nodes="true"
     inkscape:snap-midpoints="true"
     inkscape:snap-object-midpoints="true"
     inkscape:snap-center="true"
     showguides="false"
     inkscape:guide-bbox="true"
     inkscape:snap-grids="true"
     fit-margin-top="18"
     fit-margin-left="0"
     fit-margin-right="0.4"
     fit-margin-bottom="18"
     inkscape:snap-global="true">
    <inkscape:grid
       type="xygrid"
       id="grid811"
       originx="0px"
       originy="0px"
       visible="true"
       enabled="true" />
    <sodipodi:guide
       orientation="1,0"
       position="104,176"
       id="guide819" />
    <sodipodi:guide
       orientation="1,0"
       position="120,160"
       id="guide821" />
    <sodipodi:guide
       orientation="1,0"
       position="392,144"
       id="guide823" />
    <sodipodi:guide
       orientation="1,0"
       position="408,144"
       id="guide825" />
    <sodipodi:guide
       orientation="0,1"
       position="328,408"
       id="guide827" />
    <sodipodi:guide
       orientation="0,1"
       position="336,392"
       id="guide829" />
    <sodipodi:guide
       orientation="0,1"
       position="176,120"
       id="guide831" />
    <sodipodi:guide
       orientation="0,1"
       position="216,104"
       id="guide833" />
    <inkscape:grid
       type="axonomgrid"
       id="grid835"
       units="px"
       empspacing="60"
       gridanglex="42.9"
       gridanglez="42.9"
       spacingy="3.522px"
       enabled="false"
       originx="0px"
       originy="17px" />
    <sodipodi:guide
       orientation="0,1"
       position="344,376"
       id="guide4126" />
    <sodipodi:guide
       orientation="0,1"
       position="160,136"
       id="guide4128" />
    <sodipodi:guide
       orientation="1,0"
       position="136,96.000003"
       id="guide4130" />
    <sodipodi:guide
       orientation="1,0"
       position="376,136"
       id="guide4134" />
    <sodipodi:guide
       orientation="-0.70710678,0.70710678"
       position="256,256"
       id="guide4136" />
    <sodipodi:guide
       orientation="1,0"
       position="256,232"
       id="guide4138" />
    <sodipodi:guide
       orientation="0,1"
       position="288,256"
       id="guide4140" />
    <sodipodi:guide
       orientation="0.70710678,0.70710678"
       position="256,256"
       id="guide4142" />
    <sodipodi:guide
       orientation="0,1"
       position="544,496"
       id="guide4187" />
    <sodipodi:guide
       orientation="0,1"
       position="568,16"
       id="guide4189" />
  </sodipodi:namedview>
  <metadata
     id="metadata3341">
    <rdf:RDF>
      <cc:Work
         rdf:about="">
        <dc:format>image/svg+xml</dc:format>
        <dc:type
           rdf:resource="http://purl.org/dc/dcmitype/StillImage" />
        <dc:title></dc:title>
      </cc:Work>
    </rdf:RDF>
  </metadata>
  <g
     inkscape:groupmode="layer"
     id="layer3"
     inkscape:label="Background"
     sodipodi:insensitive="true">
    <rect
       style="color:#000000;display:inline;overflow:visible;visibility:visible;fill:url(#linearGradient4912);fill-opacity:1;fill-rule:nonzero;stroke:none;stroke-width:1.00000012;marker:none;enable-background:accumulate"
       id="rect4158"
       width="512"
       height="512"
       x="0"
       y="-512"
       transform="scale(1,-1)" />
  </g>
  <g
     inkscape:groupmode="layer"
     id="layer2"
     inkscape:label="Folds"
     transform="translate(0,18)"
     sodipodi:insensitive="true">
    <rect
       y="-512"
       x="290.18582"
       height="512"
       width="203.81418"
       id="rect4235-2"
       style="color:#000000;display:inline;overflow:visible;visibility:visible;opacity:0.07999998;fill:#ffffff;fill-opacity:1;fill-rule:nonzero;stroke:none;stroke-width:1.03712595;marker:none;enable-background:accumulate"
       transform="rotate(90)" />
  </g>
  <g
     inkscape:groupmode="layer"
     id="layer4"
     inkscape:label="Pictogram">
    <path
       style="color:#000000;display:inline;overflow:visible;visibility:visible;opacity:0.1;fill:#000000;fill-opacity:1;fill-rule:nonzero;stroke:none;stroke-width:2;stroke-linecap:butt;stroke-linejoin:miter;stroke-miterlimit:4;stroke-dasharray:2, 2;stroke-dashoffset:0;stroke-opacity:1;marker:none;enable-background:accumulate;filter:url(#filter4304)"
       d="m 231.09961,122 -0.79492,1.67969 c -8.9742,18.97403 -17.69142,38.20367 -26.15235,57.68945 -8.45922,19.48185 -17.04679,39.98749 -25.75976,61.51367 l -0.006,0.0137 -0.004,0.0117 c -4.94045,12.57566 -9.9791,25.64295 -15.09375,39.0918 L 148,282 c -15.512,0 -28,12.488 -28,28 0,13.67379 9.70599,24.99254 22.63086,27.48438 -6.06378,16.64942 -12.32076,34.1198 -18.81641,52.60742 l -1.375,3.9082 56.53321,0 11.42773,-32.64844 c 2.81804,-7.70262 5.53307,-15.50623 8.20703,-23.35156 l 112.47461,0 c 2.67327,7.797 5.40552,15.47787 8.22266,22.99023 3.82991,10.21306 7.53049,20.55195 11.10547,31.02149 l 0.67968,1.98828 2.09961,0 56.36914,0 -1.37304,-3.9082 C 381.69382,371.61535 375.38017,354.15407 369.21094,337.51172 382.21441,335.08187 392,323.72929 392,310 c 0,-15.512 -12.488,-28 -28,-28 l -15.74609,0 c -5.17625,-13.44834 -10.31387,-26.51499 -15.4043,-39.0918 l -0.0117,-0.0254 c -8.45652,-21.52484 -16.91508,-42.02827 -25.375,-61.51172 -8.46092,-19.48578 -17.17814,-38.71737 -26.15234,-57.6914 L 280.51562,122 l -49.41601,0 z m 23.73242,62.1543 c 5.09775,12.03907 10.60961,25.41724 17.25,42.46093 6.69567,17.18553 13.63292,35.82077 20.72656,55.38477 l -75.94336,0 c 7.06199,-19.52121 13.89134,-38.037 20.35938,-54.98828 l 0.002,-0.004 c 0.003,-0.008 0.007,-0.0192 0.01,-0.0273 6.64377,-16.83018 12.30313,-30.42772 17.5957,-42.82617 z"
       id="rect4299"
       inkscape:connector-curvature="0" />
    <path
       inkscape:connector-curvature="0"
       id="path4308"
       d="m 231.09961,122 -0.79492,1.67969 c -8.9742,18.97403 -17.69142,38.20367 -26.15235,57.68945 -8.45922,19.48185 -17.04679,39.98749 -25.75976,61.51367 l -0.006,0.0137 -0.004,0.0117 c -4.94045,12.57566 -9.9791,25.64295 -15.09375,39.0918 L 148,282 c -15.512,0 -28,12.488 -28,28 0,13.67379 9.70599,24.99254 22.63086,27.48438 -6.06378,16.64942 -12.32076,34.1198 -18.81641,52.60742 l -1.375,3.9082 56.53321,0 11.42773,-32.64844 c 2.81804,-7.70262 5.53307,-15.50623 8.20703,-23.35156 l 112.47461,0 c 2.67327,7.797 5.40552,15.47787 8.22266,22.99023 3.82991,10.21306 7.53049,20.55195 11.10547,31.02149 l 0.67968,1.98828 2.09961,0 56.36914,0 -1.37304,-3.9082 C 381.69382,371.61535 375.38017,354.15407 369.21094,337.51172 382.21441,335.08187 392,323.72929 392,310 c 0,-15.512 -12.488,-28 -28,-28 l -15.74609,0 c -5.17625,-13.44834 -10.31387,-26.51499 -15.4043,-39.0918 l -0.0117,-0.0254 c -8.45652,-21.52484 -16.91508,-42.02827 -25.375,-61.51172 -8.46092,-19.48578 -17.17814,-38.71737 -26.15234,-57.6914 L 280.51562,122 l -49.41601,0 z m 23.73242,62.1543 c 5.09775,12.03907 10.60961,25.41724 17.25,42.46093 6.69567,17.18553 13.63292,35.82077 20.72656,55.38477 l -75.94336,0 c 7.06199,-19.52121 13.89134,-38.037 20.35938,-54.98828 l 0.002,-0.004 c 0.003,-0.008 0.007,-0.0192 0.01,-0.0273 6.64377,-16.83018 12.30313,-30.42772 17.5957,-42.82617 z"
       style="color:#000000;display:inline;overflow:visible;visibility:visible;opacity:0.2;fill:url(#linearGradient4316);fill-opacity:1;fill-rule:nonzero;stroke:none;stroke-width:2;stroke-linecap:butt;stroke-linejoin:miter;stroke-miterlimit:4;stroke-dasharray:2, 2;stroke-dashoffset:0;stroke-opacity:1;marker:none;enable-background:accumulate;filter:url(#filter4320)" />
    <path
       style="font-style:normal;font-variant:normal;font-weight:500;font-stretch:normal;font-size:medium;line-height:125%;font-family:Ubuntu;-inkscape-font-specification:'Ubuntu Medium';text-align:center;letter-spacing:0px;word-spacing:0px;writing-mode:lr-tb;text-anchor:middle;fill:#f5f5f5;fill-opacity:1;stroke:none;stroke-width:1px;stroke-linecap:butt;stroke-linejoin:miter;stroke-opacity:1"
       d="m 231.10005,120 -0.79497,1.67974 c -8.9742,18.97403 -17.69262,38.20454 -26.15355,57.69032 -8.45922,19.48185 -17.04501,39.98607 -25.75798,61.51225 l -0.006,0.0134 -0.004,0.0134 c -8.45569,21.52352 -17.16645,44.3267 -26.13254,68.40704 -8.96802,24.08554 -18.44737,50.34349 -28.43716,78.77596 l -1.37399,3.90794 56.53226,0 11.42761,-32.64894 c 3.60836,-9.86282 7.08,-19.85955 10.46256,-29.94684 l 107.97753,0 c 3.3823,10.07056 6.85576,19.96243 10.46447,29.58566 3.82991,10.21306 7.53159,20.55316 11.10657,31.0227 l 0.67839,1.98742 2.10016,0 56.36983,0 -1.37399,-3.90794 C 378.19638,359.66227 368.589,333.40454 359.36397,309.31617 l -0.01,-0.0267 c -8.96217,-24.06907 -17.7959,-46.86246 -26.50519,-68.3803 l -0.0115,-0.0267 c -8.45652,-21.52484 -16.91395,-42.0288 -25.37387,-61.51225 -8.46092,-19.48578 -17.17934,-38.71629 -26.15354,-57.69032 l -0.79497,-1.67974 -49.41581,0 z m 23.73235,62.15434 c 5.09775,12.03907 10.60994,25.41809 17.25033,42.46178 7.19654,18.4711 14.66432,38.56505 22.31441,59.74652 l -79.1142,0 c 7.63021,-21.15221 14.98864,-41.12832 21.94178,-59.35095 l 0.002,-0.004 c 0.003,-0.008 0.007,-0.0186 0.01,-0.0267 6.64377,-16.83018 12.30365,-30.42833 17.59622,-42.82678 z"
       id="path4304"
       inkscape:connector-curvature="0" />
    <path
       style="font-style:normal;font-variant:normal;font-weight:500;font-stretch:normal;font-size:medium;line-height:125%;font-family:Ubuntu;-inkscape-font-specification:'Ubuntu Medium';text-align:center;letter-spacing:0px;word-spacing:0px;writing-mode:lr-tb;text-anchor:middle;opacity:0.1;fill:url(#linearGradient4323);fill-opacity:1;stroke:none;stroke-width:1px;stroke-linecap:butt;stroke-linejoin:miter;stroke-opacity:1"
       d="m 254.83208,182.15426 c 5.09775,12.03907 10.60961,25.41724 17.25,42.46093 6.69567,17.18553 13.63292,35.82077 20.72656,55.38477 l 55.44532,0 c -5.17625,-13.44834 -10.31387,-26.51499 -15.4043,-39.0918 l -0.0117,-0.0254 c -8.45652,-21.52484 -16.91508,-42.02827 -25.375,-61.51172 -8.46092,-19.48578 -17.17814,-38.71737 -26.15234,-57.6914 L 280.51562,120 Z"
       id="path4330"
       inkscape:connector-curvature="0"
       sodipodi:nodetypes="csccccsccc" />
    <path
       style="font-style:normal;font-variant:normal;font-weight:500;font-stretch:normal;font-size:medium;line-height:125%;font-family:Ubuntu;-inkscape-font-specification:'Ubuntu Medium';text-align:center;letter-spacing:0px;word-spacing:0px;writing-mode:lr-tb;text-anchor:middle;opacity:0.1;fill:url(#linearGradient4332);fill-opacity:1;stroke:none;stroke-width:1px;stroke-linecap:butt;stroke-linejoin:miter;stroke-opacity:1"
       d="m 142.63086,335.48438 c -6.06378,16.64942 -12.32076,34.1198 -18.81641,52.60742 l -1.375,3.9082 56.53321,0 11.42773,-32.64844 c 2.81804,-7.70262 5.53307,-15.50623 8.20703,-23.35156 L 148,336 c -1.83821,0 -3.63161,-0.18065 -5.36914,-0.51562 z m 226.58008,0.0273 C 367.52247,335.82723 365.78271,336 364,336 l -52.91797,0 c 2.67327,7.797 5.40552,15.47787 8.22266,22.99023 3.82991,10.21306 7.53049,20.55195 11.10547,31.02149 l 0.67968,1.98828 2.09961,0 56.36914,0 -1.37304,-3.9082 c -6.49173,-18.47645 -12.80538,-35.93773 -18.97461,-52.58008 z"
       id="path4328"
       inkscape:connector-curvature="0" />
    <path
       style="font-style:normal;font-variant:normal;font-weight:500;font-stretch:normal;font-size:medium;line-height:125%;font-family:Ubuntu;-inkscape-font-specification:'Ubuntu Medium';text-align:center;letter-spacing:0px;word-spacing:0px;writing-mode:lr-tb;text-anchor:middle;opacity:0.6;fill:#ffffff;fill-opacity:1;stroke:none;stroke-width:1px;stroke-linecap:butt;stroke-linejoin:miter;stroke-opacity:1"
       d="m 231.09961,120 -0.79492,1.67969 c -8.9742,18.97403 -17.69142,38.20367 -26.15235,57.68945 -8.45922,19.48185 -17.04679,39.98749 -25.75976,61.51367 l -0.006,0.0137 -0.004,0.0117 c -8.45569,21.52352 -17.16477,44.32787 -26.13086,68.40821 -8.96802,24.08554 -18.44771,50.34292 -28.4375,78.77539 l -1.375,3.9082 0.70313,0 0.67187,-1.9082 c 9.98979,-28.43247 19.46948,-54.68985 28.4375,-78.77539 8.96609,-24.08034 17.67517,-46.88469 26.13086,-68.40821 l 0.004,-0.0117 0.006,-0.0137 c 8.71297,-21.52618 17.30054,-42.03182 25.75976,-61.51367 8.46093,-19.48578 17.17815,-38.71542 26.15235,-57.68945 L 231.09961,122 l 49.41601,0 0.79493,1.67969 c 8.9742,18.97403 17.69142,38.20562 26.15234,57.6914 8.45992,19.48345 16.91848,39.98688 25.375,61.51172 l 0.0117,0.0254 c 8.70929,21.51784 17.54174,44.31179 26.50391,68.38086 l 0.01,0.0274 c 9.22503,24.08837 18.8334,50.34555 28.82227,78.77539 l 0.66992,1.9082 0.70312,0 -1.37304,-3.9082 C 378.1969,359.66202 368.58853,333.40484 359.3635,309.31647 l -0.01,-0.0274 c -8.96215,-24.06908 -17.7946,-46.86303 -26.50389,-68.38087 l -0.0117,-0.0254 c -8.45652,-21.52484 -16.91508,-42.02827 -25.375,-61.51172 -8.46092,-19.48578 -17.17814,-38.71737 -26.15234,-57.6914 L 280.51562,120 l -49.41601,0 z m -15.0918,164.36328 c -0.24342,0.67395 -0.48062,1.32363 -0.72461,2 l 79.11328,0 c -0.244,-0.6756 -0.48293,-1.32663 -0.72656,-2 l -77.66211,0 z"
       id="path4293"
       inkscape:connector-curvature="0" />
    <rect
       style="color:#000000;display:inline;overflow:visible;visibility:visible;opacity:1;fill:#f8f8f8;fill-opacity:1;fill-rule:nonzero;stroke:none;stroke-width:2;stroke-linecap:butt;stroke-linejoin:miter;stroke-miterlimit:4;stroke-dasharray:2, 2;stroke-dashoffset:0;stroke-opacity:1;marker:none;enable-background:accumulate"
       id="rect4270"
       width="272"
       height="56"
       x="120"
       y="280"
       ry="28"
       rx="28" />
    <rect
       ry="16.028751"
       y="292"
       x="132"
       height="32.057503"
       width="248"
       id="rect4272"
       style="color:#000000;display:inline;overflow:visible;visibility:visible;opacity:0.2;fill:#fbc58c;fill-opacity:1;fill-rule:nonzero;stroke:none;stroke-width:2;stroke-linecap:butt;stroke-linejoin:miter;stroke-miterlimit:4;stroke-dasharray:2, 2;stroke-dashoffset:0;stroke-opacity:1;marker:none;enable-background:accumulate" />
    <rect
       style="color:#000000;display:inline;overflow:visible;visibility:visible;opacity:1;fill:#ea5420;fill-opacity:1;fill-rule:nonzero;stroke:none;stroke-width:2;stroke-linecap:butt;stroke-linejoin:miter;stroke-miterlimit:4;stroke-dasharray:2, 2;stroke-dashoffset:0;stroke-opacity:1;marker:none;enable-background:accumulate"
       id="rect4301"
       width="169.51898"
       height="32.057495"
       x="132"
       y="-324.0575"
       ry="16.028748"
       transform="scale(1,-1)" />
    <path
       style="color:#000000;display:inline;overflow:visible;visibility:visible;opacity:1;fill:#ffffff;fill-opacity:1;fill-rule:nonzero;stroke:none;stroke-width:2;stroke-linecap:butt;stroke-linejoin:miter;stroke-miterlimit:4;stroke-dasharray:2, 2;stroke-dashoffset:0;stroke-opacity:1;marker:none;enable-background:accumulate"
       d="m 148,280 c -15.512,0 -28,12.488 -28,28 0,0.33539 0.0138,0.66753 0.0254,1 0.52401,-15.04434 12.798,-27 27.97461,-27 l 216,0 c 15.17661,0 27.4506,11.95566 27.97461,27 0.0116,-0.33247 0.0254,-0.66461 0.0254,-1 0,-15.512 -12.488,-28 -28,-28 l -216,0 z"
       id="rect4386"
       inkscape:connector-curvature="0" />
  </g>
  <g
     inkscape:label="Guides"
     inkscape:groupmode="layer"
     id="layer1"
     transform="translate(0,-558.36218)"
     style="display:none"
     sodipodi:insensitive="true">
    <path
       sodipodi:nodetypes="sssssssss"
       inkscape:connector-curvature="0"
       id="path3774"
       d="m 166.05406,576.36215 179.89189,0 c 145.29729,0 166.05406,20.73726 166.05406,165.89904 l 0,144.20253 c 0,145.16118 -20.75677,165.89848 -166.05406,165.89848 l -179.89189,0 C 20.756757,1052.3622 0,1031.6249 0,886.46372 L 0,742.26119 C 0,597.09941 20.756757,576.36215 166.05406,576.36215 Z"
       style="display:inline;fill:#0000ff;fill-opacity:0.08118083;stroke:#0000ff" />
    <circle
       style="color:#000000;display:inline;overflow:visible;visibility:visible;fill:#0000ff;fill-opacity:0.08118083;stroke:#0000ff;stroke-width:0.83333349;stroke-miterlimit:4;stroke-dasharray:none;marker:none;enable-background:accumulate"
       id="path4118"
       transform="matrix(1.1999998,0,0,1.1999998,-51.199979,528.7622)"
       cx="256"
       cy="238"
       r="120" />
    <rect
       style="color:#000000;display:inline;overflow:visible;visibility:visible;fill:#0000ff;fill-opacity:0.08118083;stroke:#0000ff;stroke-width:1;stroke-linecap:round;stroke-linejoin:round;stroke-miterlimit:4;stroke-dasharray:none;stroke-dashoffset:0;stroke-opacity:1;marker:none;enable-background:accumulate"
       id="rect4152"
       width="272"
       height="272"
       x="120"
       y="678.36218" />
    <rect
       style="color:#000000;display:inline;overflow:visible;visibility:visible;fill:#0000ff;fill-opacity:0.08118083;stroke:#0000ff;stroke-width:1;stroke-linecap:round;stroke-linejoin:round;stroke-miterlimit:4;stroke-dasharray:none;stroke-dashoffset:0;stroke-opacity:1;marker:none;enable-background:accumulate"
       id="rect4154"
       width="304"
       height="240"
       x="104"
       y="694.36218" />
    <rect
       style="color:#000000;display:inline;overflow:visible;visibility:visible;fill:#0000ff;fill-opacity:0.08118083;stroke:#0000ff;stroke-width:1;stroke-linecap:round;stroke-linejoin:round;stroke-miterlimit:4;stroke-dasharray:none;stroke-dashoffset:0;stroke-opacity:1;marker:none;enable-background:accumulate"
       id="rect4156"
       width="240"
       height="304"
       x="136"
       y="662.36218" />
  </g>
</svg>
