<?xml version="1.0" encoding="UTF-8" standalone="no"?>
<!-- Created with Inkscape (http://www.inkscape.org/) -->

<svg
   xmlns:dc="http://purl.org/dc/elements/1.1/"
   xmlns:cc="http://creativecommons.org/ns#"
   xmlns:rdf="http://www.w3.org/1999/02/22-rdf-syntax-ns#"
   xmlns:svg="http://www.w3.org/2000/svg"
   xmlns="http://www.w3.org/2000/svg"
   xmlns:xlink="http://www.w3.org/1999/xlink"
   xmlns:sodipodi="http://sodipodi.sourceforge.net/DTD/sodipodi-0.dtd"
   xmlns:inkscape="http://www.inkscape.org/namespaces/inkscape"
   width="512"
   height="512"
   id="svg3336"
   version="1.1"
   inkscape:version="0.91+devel r"
   sodipodi:docname="webbrowser-app00.svg"
   inkscape:export-filename="app_shape02.png"
   inkscape:export-xdpi="180"
   inkscape:export-ydpi="180"
   style="enable-background:new"
   viewBox="0 0 512 512">
  <defs
     id="defs3338">
    <linearGradient
       inkscape:collect="always"
       id="linearGradient4195">
      <stop
         style="stop-color:#325fd1;stop-opacity:1"
         offset="0"
         id="stop4197" />
      <stop
         style="stop-color:#6e98ff;stop-opacity:1"
         offset="1"
         id="stop4199" />
    </linearGradient>
    <filter
       style="color-interpolation-filters:sRGB"
       inkscape:label="Colorize"
       id="filter4154">
      <feComposite
         in2="SourceGraphic"
         operator="arithmetic"
         k1="0"
         k2="1"
         result="composite1"
         id="feComposite4156"
         k3="0"
         k4="0" />
      <feColorMatrix
         in="composite1"
         values="0"
         type="saturate"
         result="colormatrix1"
         id="feColorMatrix4158" />
      <feFlood
         flood-opacity="1"
         flood-color="rgb(89,132,51)"
         result="flood1"
         id="feFlood4160" />
      <feBlend
         in="flood1"
         in2="colormatrix1"
         mode="multiply"
         result="blend1"
         id="feBlend4162" />
      <feBlend
         in2="blend1"
         mode="screen"
         result="blend2"
         id="feBlend4164" />
      <feColorMatrix
         in="blend2"
         values="1"
         type="saturate"
         result="colormatrix2"
         id="feColorMatrix4166" />
      <feComposite
         in="colormatrix2"
         in2="SourceGraphic"
         operator="in"
         result="composite2"
         id="feComposite4168" />
    </filter>
    <filter
       inkscape:collect="always"
       style="color-interpolation-filters:sRGB"
       id="filter4264"
       x="-0.024"
       width="1.048"
       y="-0.024"
       height="1.048" />
    <linearGradient
       id="linearGradient7537">
      <stop
         style="stop-color:#44d459;stop-opacity:1"
         offset="0"
         id="stop7539" />
      <stop
         style="stop-color:#38b44a;stop-opacity:1"
         offset="1"
         id="stop7541" />
    </linearGradient>
    <clipPath
       clipPathUnits="userSpaceOnUse"
       id="clipPath4231-6">
      <rect
         style="color:#000000;display:inline;overflow:visible;visibility:visible;opacity:0.46400003;fill:#ff00ff;fill-opacity:1;fill-rule:nonzero;stroke:none;stroke-width:1;marker:none;enable-background:accumulate"
         id="rect4233-8"
         width="256"
         height="238"
         x="0"
         y="18" />
    </clipPath>
    <linearGradient
       inkscape:collect="always"
       xlink:href="#linearGradient4195"
       id="linearGradient4201"
       x1="0"
       y1="18"
       x2="512"
       y2="494"
       gradientUnits="userSpaceOnUse" />
    <clipPath
       clipPathUnits="userSpaceOnUse"
       id="clipPath4244">
      <path
         id="path4246"
         d="M 0,0 0,183.89844 0,328.10156 0,512 512,512 512,328.10156 512,183.89844 512,0 0,0 Z"
         style="color:#000000;display:inline;overflow:visible;visibility:visible;fill:url(#linearGradient4248);fill-opacity:1;fill-rule:nonzero;stroke:none;stroke-width:1;marker:none;enable-background:accumulate"
         inkscape:connector-curvature="0" />
    </clipPath>
    <linearGradient
       inkscape:collect="always"
       xlink:href="#linearGradient4195"
       id="linearGradient4248"
       gradientUnits="userSpaceOnUse"
       x1="0"
       y1="18"
       x2="512"
       y2="494" />
    <clipPath
       clipPathUnits="userSpaceOnUse"
       id="clipPath4230">
      <path
         style="color:#000000;display:inline;overflow:visible;visibility:visible;opacity:1;fill:#e93549;fill-opacity:1;fill-rule:nonzero;stroke:none;stroke-width:8;stroke-linecap:butt;stroke-linejoin:miter;stroke-miterlimit:4;stroke-dasharray:none;stroke-dashoffset:0;stroke-opacity:1;marker:none;enable-background:accumulate"
         d="M 390.83398,121 220.04492,219.87891 121.16602,390.66797 291.95508,291.78906 390.83398,121 Z"
         id="path4232"
         inkscape:connector-curvature="0" />
    </clipPath>
    <filter
       inkscape:collect="always"
       style="color-interpolation-filters:sRGB"
       id="filter4259"
       x="-0.035999998"
       width="1.072"
       y="-0.035999998"
       height="1.072">
      <feGaussianBlur
         inkscape:collect="always"
         stdDeviation="2.2063719"
         id="feGaussianBlur4261" />
    </filter>
    <filter
       inkscape:collect="always"
       style="color-interpolation-filters:sRGB"
       id="filter4234"
       x="-0.012"
       width="1.024"
       y="-0.012"
       height="1.024">
      <feGaussianBlur
         inkscape:collect="always"
         stdDeviation="0.88"
         id="feGaussianBlur4236" />
    </filter>
    <linearGradient
       inkscape:collect="always"
       xlink:href="#linearGradient4245"
       id="linearGradient4251"
       x1="264"
       y1="344"
       x2="264"
       y2="170"
       gradientUnits="userSpaceOnUse" />
    <linearGradient
       inkscape:collect="always"
       id="linearGradient4245">
      <stop
         style="stop-color:#000000;stop-opacity:0"
         offset="0"
         id="stop4247" />
      <stop
         id="stop4253"
         offset="0.51494253"
         style="stop-color:#000000;stop-opacity:1" />
      <stop
         style="stop-color:#000000;stop-opacity:0;"
         offset="1"
         id="stop4249" />
    </linearGradient>
    <filter
       inkscape:collect="always"
       style="color-interpolation-filters:sRGB"
       id="filter4283"
       x="-0.096000001"
       width="1.192"
       y="-0.096000001"
       height="1.192">
      <feGaussianBlur
         inkscape:collect="always"
         stdDeviation="7.04"
         id="feGaussianBlur4285" />
    </filter>
  </defs>
  <sodipodi:namedview
     id="base"
     pagecolor="#b4b4b4"
     bordercolor="#666666"
     borderopacity="1.0"
     inkscape:pageopacity="0"
     inkscape:pageshadow="2"
     inkscape:zoom="1"
     inkscape:cx="164.36825"
     inkscape:cy="227.3222"
     inkscape:document-units="px"
     inkscape:current-layer="layer3"
     showgrid="false"
     inkscape:window-width="1920"
     inkscape:window-height="1029"
     inkscape:window-x="0"
     inkscape:window-y="24"
     inkscape:window-maximized="1"
     inkscape:snap-page="true"
     inkscape:showpageshadow="false"
     showborder="true"
     inkscape:snap-bbox="true"
     inkscape:bbox-paths="true"
     inkscape:bbox-nodes="true"
     inkscape:snap-bbox-edge-midpoints="true"
     inkscape:snap-bbox-midpoints="true"
     inkscape:object-paths="true"
     inkscape:object-nodes="true"
     inkscape:snap-intersection-paths="true"
     inkscape:snap-smooth-nodes="true"
     inkscape:snap-midpoints="true"
     inkscape:snap-object-midpoints="true"
     inkscape:snap-center="true"
     showguides="true"
     inkscape:guide-bbox="true"
     inkscape:snap-grids="true"
     fit-margin-top="18"
     fit-margin-left="0"
     fit-margin-right="0"
     fit-margin-bottom="18"
     inkscape:snap-global="true">
    <inkscape:grid
       type="xygrid"
       id="grid811"
       originx="0"
       originy="15.999999"
       visible="true"
       enabled="true" />
    <sodipodi:guide
       orientation="1,0"
       position="104,176"
       id="guide819" />
    <sodipodi:guide
       orientation="1,0"
       position="120,160"
       id="guide821" />
    <sodipodi:guide
       orientation="1,0"
       position="392,144"
       id="guide823" />
    <sodipodi:guide
       orientation="1,0"
       position="408,144"
       id="guide825" />
    <sodipodi:guide
       orientation="0,1"
       position="328,408"
       id="guide827" />
    <sodipodi:guide
       orientation="0,1"
       position="336,392"
       id="guide829" />
    <sodipodi:guide
       orientation="0,1"
       position="176,120"
       id="guide831" />
    <sodipodi:guide
       orientation="0,1"
       position="216,104"
       id="guide833" />
    <inkscape:grid
       type="axonomgrid"
       id="grid835"
       units="px"
       empspacing="60"
       gridanglex="42.9"
       gridanglez="42.9"
       spacingy="3.522px"
       enabled="false"
       originx="0"
       originy="16.999996" />
    <sodipodi:guide
       orientation="0,1"
       position="344,376"
       id="guide4126" />
    <sodipodi:guide
       orientation="0,1"
       position="160,136"
       id="guide4128" />
    <sodipodi:guide
       orientation="1,0"
       position="136,96"
       id="guide4130" />
    <sodipodi:guide
       orientation="1,0"
       position="376,136"
       id="guide4134" />
    <sodipodi:guide
       orientation="-0.70710678,0.70710678"
       position="256,256"
       id="guide4136" />
    <sodipodi:guide
       orientation="1,0"
       position="256,232"
       id="guide4138" />
    <sodipodi:guide
       orientation="0,1"
       position="288,256"
       id="guide4140" />
    <sodipodi:guide
       orientation="0.70710678,0.70710678"
       position="256,256"
       id="guide4142" />
    <sodipodi:guide
       orientation="0,1"
       position="248,15.999999"
       id="guide4152" />
    <sodipodi:guide
       orientation="0,1"
       position="336,496"
       id="guide4154" />
  </sodipodi:namedview>
  <metadata
     id="metadata3341">
    <rdf:RDF>
      <cc:Work
         rdf:about="">
        <dc:format>image/svg+xml</dc:format>
        <dc:type
           rdf:resource="http://purl.org/dc/dcmitype/StillImage" />
        <dc:title></dc:title>
      </cc:Work>
    </rdf:RDF>
  </metadata>
  <g
     inkscape:groupmode="layer"
     id="layer3"
     inkscape:label="Background">
    <path
       style="color:#000000;display:inline;overflow:visible;visibility:visible;fill:url(#linearGradient4201);fill-opacity:1;fill-rule:nonzero;stroke:none;stroke-width:1;marker:none;enable-background:accumulate"
       d="M 0 0 L 0 183.89844 L 0 328.10156 L 0 512 L 512 512 L 512 328.10156 L 512 183.89844 L 512 0 L 0 0 z "
       id="rect4158" />
    <g
       inkscape:groupmode="maskhelper"
       id="g4233"
       clip-path="url(#clipPath4244)">
      <g
         transform="matrix(1.5675676,0,0,1.5675676,-1030.1622,795.05406)"
         id="g4241"
         style="opacity:0.6;fill:#a5befb;stroke-width:0.63793105">
        <path
           inkscape:connector-curvature="0"
           id="path4243"
           d="m 728,-336 32,0 8,8 8,0 24,24 0,16 -24,24 0,16 -32,32 0,8 -8,-8 0,-32 8,-8 0,-24 -16,-16 z"
           style="color:#000000;display:inline;overflow:visible;visibility:visible;opacity:1;fill:#a5befb;fill-opacity:1;fill-rule:nonzero;stroke:none;stroke-width:40.82758713;stroke-linecap:butt;stroke-linejoin:miter;stroke-miterlimit:4;stroke-dasharray:none;stroke-dashoffset:0;stroke-opacity:1;marker:none;enable-background:accumulate" />
        <path
           sodipodi:nodetypes="ccccccccccccccccccccccccccc"
           inkscape:connector-curvature="0"
           id="path4245"
           d="m 720,-328 -24,-24 -16,0 -32,-32 0,-24 -24,-24 0,-24 0,-16 16,-16 16,16 32,0 16,16 8,0 0,-16 24,0 16,16 0,8 -16,0 -16,16 24,24 0,-24 24,0 16,16 -40,40 -8,0 -16,16 z"
           style="color:#000000;display:inline;overflow:visible;visibility:visible;opacity:1;fill:#a5befb;fill-opacity:1;fill-rule:nonzero;stroke:none;stroke-width:40.82758713;stroke-linecap:butt;stroke-linejoin:miter;stroke-miterlimit:4;stroke-dasharray:none;stroke-dashoffset:0;stroke-opacity:1;marker:none;enable-background:accumulate" />
        <path
           sodipodi:nodetypes="ccccccccccccccccccc"
           inkscape:connector-curvature="0"
           id="path4247"
           d="m 872,-376 -24,0 -16,16 0,24 16,16 16.01469,0 7.98531,8 0,8 8,8 0,32 16,16 32,-32 0,-32 24,-24 -8,0 -24,-24 0,-8 -40,0 z"
           style="color:#000000;display:inline;overflow:visible;visibility:visible;opacity:1;fill:#a5befb;fill-opacity:1;fill-rule:nonzero;stroke:none;stroke-width:40.82758713;stroke-linecap:butt;stroke-linejoin:miter;stroke-miterlimit:4;stroke-dasharray:none;stroke-dashoffset:0;stroke-opacity:1;marker:none;enable-background:accumulate" />
        <path
           style="color:#000000;display:inline;overflow:visible;visibility:visible;opacity:1;fill:#a5befb;fill-opacity:1;fill-rule:nonzero;stroke:none;stroke-width:40.82758713;stroke-linecap:butt;stroke-linejoin:miter;stroke-miterlimit:4;stroke-dasharray:none;stroke-dashoffset:0;stroke-opacity:1;marker:none;enable-background:accumulate"
           d="m 1000,-440 -8,8 -16,0 -16,16 -8,-8 -32,0 -16,16 0,8 8,0 8.0625,0 7.9375,-8 0,7.96868 0,8.03132 -24,0 -8,8 -8,0 0,8 -8,8 0,16 16,0 8,-8 24,0 8,8 16,0 -8,-8 8,-8 8,0 8,8 -8,0 -8,8 8,8 0,16 16,16 16,0 8.0605,-8.06055 L 993,-328 l 23,0 0,-112 z"
           transform="translate(-32,-32)"
           id="path4249"
           inkscape:connector-curvature="0"
           sodipodi:nodetypes="ccccccccccccccccccccccccccccccccccccccc" />
        <path
           inkscape:connector-curvature="0"
           id="path4251"
           d="m 848,-424 7.88764,-7.88764 L 864,-440 l 0,16 z"
           style="color:#000000;display:inline;overflow:visible;visibility:visible;opacity:1;fill:#a5befb;fill-opacity:1;fill-rule:nonzero;stroke:none;stroke-width:40.82758713;stroke-linecap:butt;stroke-linejoin:miter;stroke-miterlimit:4;stroke-dasharray:none;stroke-dashoffset:0;stroke-opacity:1;marker:none;enable-background:accumulate"
           sodipodi:nodetypes="ccccc" />
        <path
           style="color:#000000;display:inline;overflow:visible;visibility:visible;opacity:1;fill:#a5befb;fill-opacity:1;fill-rule:nonzero;stroke:none;stroke-width:40.82758713;stroke-linecap:butt;stroke-linejoin:miter;stroke-miterlimit:4;stroke-dasharray:none;stroke-dashoffset:0;stroke-opacity:1;marker:none;enable-background:accumulate"
           d="m 936,-272 0,-16 8,-8 0,24 z"
           id="path4253"
           inkscape:connector-curvature="0" />
        <path
           inkscape:connector-curvature="0"
           id="path4255"
           d="m 800,-440 0,-8 40,-40 -16,-16 -48,0 -16,16 16,16 0,16 16,16 z"
           style="color:#000000;display:inline;overflow:visible;visibility:visible;opacity:1;fill:#a5befb;fill-opacity:1;fill-rule:nonzero;stroke:none;stroke-width:40.82758713;stroke-linecap:butt;stroke-linejoin:miter;stroke-miterlimit:4;stroke-dasharray:none;stroke-dashoffset:0;stroke-opacity:1;marker:none;enable-background:accumulate" />
        <path
           inkscape:connector-curvature="0"
           id="path4257"
           d="m 736,-480 16,-16 -48,0 16,16 z"
           style="color:#000000;display:inline;overflow:visible;visibility:visible;opacity:1;fill:#a5befb;fill-opacity:1;fill-rule:nonzero;stroke:none;stroke-width:40.82758713;stroke-linecap:butt;stroke-linejoin:miter;stroke-miterlimit:4;stroke-dasharray:none;stroke-dashoffset:0;stroke-opacity:1;marker:none;enable-background:accumulate" />
      </g>
    </g>
    <path
       style="color:#000000;display:inline;overflow:visible;visibility:visible;opacity:0.1;fill:#ffffff;fill-opacity:1;fill-rule:nonzero;stroke:none;stroke-width:1;marker:none;enable-background:accumulate"
       d="M 0 256 L 0 328.10156 L 0 512 L 512 512 L 512 328.10156 L 512 256 L 0 256 z "
       id="path4269" />
    <rect
       style="color:#000000;display:inline;overflow:visible;visibility:visible;opacity:0.1;fill:#ffffff;fill-opacity:1;fill-rule:nonzero;stroke:none;stroke-width:2;stroke-linecap:butt;stroke-linejoin:miter;stroke-miterlimit:4;stroke-dasharray:none;stroke-dashoffset:0;stroke-opacity:1;marker:none;enable-background:accumulate"
       id="rect4277"
       width="179.89062"
       height="509.99997"
       x="166.05469"
       y="1.2e-06" />
    <path
       style="color:#000000;display:inline;overflow:visible;visibility:visible;opacity:0.4;fill:url(#linearGradient4251);fill-opacity:1;fill-rule:nonzero;stroke:none;stroke-width:5.22124147;stroke-linecap:butt;stroke-linejoin:miter;stroke-miterlimit:4;stroke-dasharray:none;stroke-dashoffset:0;stroke-opacity:1;marker:none;filter:url(#filter4283);enable-background:accumulate"
       d="m 344,170 -73.15625,42.35352 a 48,48 0 0 0 -48.78516,11.70507 48,48 0 0 0 -11.67187,48.72852 L 168,346 241.15625,303.64648 a 48,48 0 0 0 48.78516,-11.70507 48,48 0 0 0 11.67187,-48.72852 L 344,170 Z"
       id="path4238"
       inkscape:connector-curvature="0"
       inkscape:transform-center-y="3.0644137"
       transform="matrix(1.5322027,0,0,1.5322027,-136.24389,-136.24387)"
       inkscape:transform-center-x="-1.1418065e-05" />
    <path
       style="color:#000000;display:inline;overflow:visible;visibility:visible;opacity:0.1;fill:#000000;fill-opacity:1;fill-rule:nonzero;stroke:none;stroke-width:5.22124147;stroke-linecap:butt;stroke-linejoin:miter;stroke-miterlimit:4;stroke-dasharray:none;stroke-dashoffset:0;stroke-opacity:1;marker:none;filter:url(#filter4234);enable-background:accumulate"
       d="m 344,170 -73.15625,42.35352 a 48,48 0 0 0 -48.78516,11.70507 48,48 0 0 0 -11.67187,48.72852 L 168,346 241.15625,303.64648 a 48,48 0 0 0 48.78516,-11.70507 48,48 0 0 0 11.67187,-48.72852 L 344,170 Z"
       id="path4227-4"
       inkscape:connector-curvature="0"
       inkscape:transform-center-y="3.0644137"
       transform="matrix(1.5322027,0,0,1.5322027,-136.24389,-136.24387)"
       inkscape:transform-center-x="-1.1418065e-05" />
    <path
       style="color:#000000;display:inline;overflow:visible;visibility:visible;opacity:1;fill:#e93549;fill-opacity:1;fill-rule:nonzero;stroke:none;stroke-width:8;stroke-linecap:butt;stroke-linejoin:miter;stroke-miterlimit:4;stroke-dasharray:none;stroke-dashoffset:0;stroke-opacity:1;marker:none;enable-background:accumulate"
       d="M 220.04431,220.04433 390.83384,121.16618 291.9557,291.95572 Z"
       id="path4223"
       inkscape:connector-curvature="0"
       sodipodi:nodetypes="cccc"
       inkscape:transform-center-x="-49.439085"
       inkscape:transform-center-y="-49.439063" />
    <path
       sodipodi:nodetypes="cccc"
       inkscape:connector-curvature="0"
       id="path4225"
       d="M 220.04431,220.04433 121.16618,390.83386 291.9557,291.95572 Z"
       style="color:#000000;display:inline;overflow:visible;visibility:visible;opacity:1;fill:#dfdfdf;fill-opacity:1;fill-rule:nonzero;stroke:none;stroke-width:8;stroke-linecap:butt;stroke-linejoin:miter;stroke-miterlimit:4;stroke-dasharray:none;stroke-dashoffset:0;stroke-opacity:1;marker:none;enable-background:accumulate"
       inkscape:transform-center-x="49.43906"
       inkscape:transform-center-y="49.439082" />
    <path
       style="color:#000000;display:inline;overflow:visible;visibility:visible;opacity:1;fill:#ef6b6b;fill-opacity:1;fill-rule:nonzero;stroke:none;stroke-width:8;stroke-linecap:butt;stroke-linejoin:miter;stroke-miterlimit:4;stroke-dasharray:none;stroke-dashoffset:0;stroke-opacity:1;marker:none;enable-background:accumulate"
       d="m 390.83397,121.16631 -170.78906,98.87891 1.26758,1.26757 167.7793,-97.13867 1.74218,-3.00781 z"
       id="path4241"
       inkscape:connector-curvature="0" />
    <path
       style="color:#000000;display:inline;overflow:visible;visibility:visible;opacity:1;fill:#ececec;fill-opacity:1;fill-rule:nonzero;stroke:none;stroke-width:8;stroke-linecap:butt;stroke-linejoin:miter;stroke-miterlimit:4;stroke-dasharray:none;stroke-dashoffset:0;stroke-opacity:1;marker:none;enable-background:accumulate"
       d="m 220.04491,220.04522 -98.87888,170.78906 1.74218,-1.00781 97.1367,-167.78125 70.64258,70.64257 1.26758,-0.73242 -71.91016,-71.91015 z"
       id="path4246-6"
       inkscape:connector-curvature="0" />
    <g
       transform="translate(-5.2554798e-6,0.16630523)"
       inkscape:groupmode="maskhelper"
       id="g4227"
       clip-path="url(#clipPath4230)"
       style="display:inline;opacity:0.2;fill:#000000;filter:url(#filter4259);enable-background:new">
      <circle
         style="color:#000000;display:inline;overflow:visible;visibility:visible;opacity:1;fill:#000000;fill-opacity:1;fill-rule:nonzero;stroke:none;stroke-width:8;stroke-linecap:butt;stroke-linejoin:miter;stroke-miterlimit:4;stroke-dasharray:none;stroke-dashoffset:0;stroke-opacity:1;marker:none;enable-background:accumulate"
         id="circle4219"
         cx="361.92108"
         cy="-0.11759187"
         r="73.545731"
         transform="rotate(45)" />
    </g>
    <circle
       style="color:#000000;display:inline;overflow:visible;visibility:visible;opacity:1;fill:#f2f2f2;fill-opacity:1;fill-rule:nonzero;stroke:none;stroke-width:8;stroke-linecap:butt;stroke-linejoin:miter;stroke-miterlimit:4;stroke-dasharray:none;stroke-dashoffset:0;stroke-opacity:1;marker:none;enable-background:accumulate"
       id="path4221"
       cx="362.03867"
       cy="2.8421709e-14"
       r="73.545731"
       transform="rotate(45)" />
    <path
       style="color:#000000;display:inline;overflow:visible;visibility:visible;opacity:1;fill:#ffffff;fill-opacity:1;fill-rule:nonzero;stroke:none;stroke-width:8;stroke-linecap:butt;stroke-linejoin:miter;stroke-miterlimit:4;stroke-dasharray:none;stroke-dashoffset:0;stroke-opacity:1;marker:none;enable-background:accumulate"
       d="m 257.07421,182.46123 a 73.545731,73.545731 0 0 0 -53.07813,21.5332 73.545731,73.545731 0 0 0 -21.48826,52.22461 73.545731,73.545731 0 0 1 21.48826,-50.22461 73.545731,73.545731 0 0 1 104.00782,0 73.545731,73.545731 0 0 1 21.48828,51.78711 73.545731,73.545731 0 0 0 -21.48828,-53.78711 73.545731,73.545731 0 0 0 -50.92969,-21.5332 z"
       id="circle4236"
       inkscape:connector-curvature="0" />
  </g>
  <g
     inkscape:groupmode="layer"
     id="layer4"
     inkscape:label="Pictogram"
     style="display:inline">
    <path
       inkscape:connector-curvature="0"
       id="path4505-6"
       d="m 219.3125,124 -35.1875,71.65625 0,59.25 c -4.93993,5.78797 -10.33923,11.62048 -15.96875,17.25 -18.50312,18.50309 -39.2477,34.68678 -53.125,39.3125 L 91.65625,288.125 20,323.3125 20,494 l 256,0 0,-317.5625 C 260.58338,142.99385 243.63185,130.51631 219.3125,124 Z M 121.75,353 c 0.007,-0.005 0.0239,0.005 0.0312,0 -2.61074,1.63039 -5.25098,3.22668 -7.90625,4.8125 2.65593,-1.58559 5.2637,-3.18237 7.87505,-4.8125 z m -24.09375,14.0625 c 0.008,-0.004 0.0234,0.004 0.0312,0 -2.74184,1.4991 -5.52861,2.98055 -8.3125,4.4375 2.78427,-1.45683 5.53906,-2.93856 8.2813,-4.4375 z"
       style="color:#000000;display:inline;overflow:visible;visibility:visible;opacity:0.05;fill:#ff0000;fill-opacity:0;fill-rule:nonzero;stroke:none;stroke-width:40;marker:none;enable-background:accumulate"
       sodipodi:nodetypes="cccsccccccccccccccc" />
  </g>
</svg>
