<?xml version="1.0" encoding="UTF-8" standalone="no"?>
<svg
   xmlns:dc="http://purl.org/dc/elements/1.1/"
   xmlns:cc="http://creativecommons.org/ns#"
   xmlns:rdf="http://www.w3.org/1999/02/22-rdf-syntax-ns#"
   xmlns:svg="http://www.w3.org/2000/svg"
   xmlns="http://www.w3.org/2000/svg"
   viewBox="0 0 96 96.000001"
   version="1.1"
   id="svg4874"
   height="96"
   width="96">
  <defs
     id="defs4876" />
  <metadata
     id="metadata4879">
    <rdf:RDF>
      <cc:Work
         rdf:about="">
        <dc:format>image/svg+xml</dc:format>
        <dc:type
           rdf:resource="http://purl.org/dc/dcmitype/StillImage" />
        <dc:title />
      </cc:Work>
    </rdf:RDF>
  </metadata>
  <g
     transform="translate(67.857146,-78.50504)"
     id="layer1">
    <g
       style="display:inline"
       id="g4845"
       transform="matrix(0,-1,-1,0,373.50506,516.50504)">
      <g
         id="g4778"
         transform="matrix(-0.9996045,0,0,1,575.94296,-611.00001)">
        <g
           style="display:inline"
           id="g4780"
           transform="matrix(-1,0,0,1,575.99999,611)">
          <path
             id="rect4782"
             d="m -438.00244,345.36221 h 96.03799 v 96 h -96.03799 z"
             style="color:#000000;display:inline;overflow:visible;visibility:visible;fill:none;stroke:none;stroke-width:4;marker:none;enable-background:accumulate"
             transform="scale(-1,1)" />
          <path
             id="path4297"
             d="m 365.97267,345.36126 c -2.6314,0 -4.71356,0.23788 -6.46875,0.89648 -1.75519,0.6586 -3.16115,1.84985 -3.99219,3.35547 -1.66208,3.01124 -1.48476,6.6938 -1.54297,11.72656 v 0.0117 64.02149 0.0117 c 0.0582,5.03276 -0.11911,8.71532 1.54297,11.72656 0.83104,1.50562 2.237,2.69686 3.99219,3.35547 1.75519,0.6586 3.83735,0.89648 6.46875,0.89648 h 48.01952 c 2.6314,0 4.71551,-0.23788 6.4707,-0.89648 1.75519,-0.65861 3.15919,-1.84985 3.99023,-3.35547 1.66209,-3.01124 1.48672,-6.6938 1.54493,-11.72656 v -0.0117 -64.02149 -0.0117 c -0.0582,-5.03276 0.11716,-8.71532 -1.54493,-11.72656 -0.83104,-1.50562 -2.23504,-2.69687 -3.99023,-3.35547 -1.75519,-0.6586 -3.8393,-0.89648 -6.4707,-0.89648 z m 0,4.00195 h 48.01952 c 2.37058,0 4.02426,0.25031 5.06445,0.64063 1.0402,0.39031 1.48966,0.80945 1.89453,1.54297 0.80823,1.46429 0.98613,4.77814 1.04492,9.8164 v 63.97656 c -0.0584,5.05418 -0.23518,8.37086 -1.04492,9.83789 -0.40487,0.73352 -0.85433,1.15266 -1.89453,1.54297 -1.04019,0.39032 -2.69387,0.64063 -5.06445,0.64063 h -48.01952 c -2.37058,0 -4.02426,-0.25031 -5.06446,-0.64063 -1.04019,-0.39031 -1.4877,-0.80945 -1.89258,-1.54297 -0.80835,-1.46451 -0.98616,-4.77682 -1.04492,-9.8164 v -0.0215 -63.95312 -0.0234 c 0.0588,-5.03826 0.23669,-8.35211 1.04492,-9.8164 0.40488,-0.73352 0.85239,-1.15266 1.89258,-1.54297 1.0402,-0.39032 2.69388,-0.64063 5.06446,-0.64063 z"
             style="color:#000000;font-style:normal;font-variant:normal;font-weight:normal;font-stretch:normal;font-size:medium;line-height:normal;font-family:sans-serif;font-variant-ligatures:normal;font-variant-position:normal;font-variant-caps:normal;font-variant-numeric:normal;font-variant-alternates:normal;font-feature-settings:normal;text-indent:0;text-align:start;text-decoration:none;text-decoration-line:none;text-decoration-style:solid;text-decoration-color:#000000;letter-spacing:normal;word-spacing:normal;text-transform:none;writing-mode:lr-tb;direction:ltr;text-orientation:mixed;dominant-baseline:auto;baseline-shift:baseline;text-anchor:start;white-space:normal;shape-padding:0;clip-rule:nonzero;display:inline;overflow:visible;visibility:visible;opacity:1;isolation:auto;mix-blend-mode:normal;color-interpolation:sRGB;color-interpolation-filters:linearRGB;solid-color:#000000;solid-opacity:1;fill:#808080;fill-opacity:1;fill-rule:nonzero;stroke:none;stroke-width:4.00079155;stroke-linecap:butt;stroke-linejoin:miter;stroke-miterlimit:4;stroke-dasharray:none;stroke-dashoffset:0;stroke-opacity:1;marker:none;color-rendering:auto;image-rendering:auto;shape-rendering:auto;text-rendering:auto;enable-background:accumulate" />
          <g
             id="maintext"
             style="font-style:normal;font-variant:normal;font-weight:normal;font-stretch:normal;font-size:48.00949478px;line-height:100%;font-family:Ubuntu;-inkscape-font-specification:Ubuntu;text-align:center;letter-spacing:-2.00039554px;word-spacing:0px;writing-mode:lr-tb;text-anchor:middle;fill:#808080;fill-opacity:1;stroke:none;stroke-width:1.00019789px;stroke-linecap:butt;stroke-linejoin:miter;stroke-opacity:1"
             transform="matrix(0,-0.99980223,-1.0001978,0,0,0)"
             aria-label="De4">
            <path
               id="path31"
               style="font-style:normal;font-variant:normal;font-weight:normal;font-stretch:normal;font-size:48.00949478px;line-height:100%;font-family:Ubuntu;-inkscape-font-specification:Ubuntu;text-align:center;letter-spacing:-0.50009888px;text-anchor:middle;fill:#808080;fill-opacity:1;stroke-width:1.00019789px"
               d="m -402.1697,-392.93078 q 0,4.32086 -1.34426,7.53749 -1.34427,3.16863 -3.79275,5.28105 -2.44849,2.0644 -5.85716,3.12061 -3.40867,1.0082 -7.48948,1.0082 -2.0164,0 -4.46488,-0.19204 -2.40048,-0.14402 -4.36887,-0.62412 v -32.26238 q 1.96839,-0.48009 4.36887,-0.62412 2.44848,-0.19204 4.46488,-0.19204 4.08081,0 7.48948,1.05621 3.40867,1.0082 5.85716,3.12062 2.44848,2.0644 3.79275,5.28104 1.34426,3.16863 1.34426,7.48948 z m -18.09958,12.86655 q 6.62531,0 9.88996,-3.36067 3.26465,-3.40867 3.26465,-9.50588 0,-6.0972 -3.26465,-9.45787 -3.26465,-3.40867 -9.88996,-3.40867 -1.96839,0 -3.0726,0.048 -1.05621,0.048 -1.4883,0.096 v 25.44504 q 0.43209,0.048 1.4883,0.096 1.10421,0.048 3.0726,0.048 z" />
            <path
               id="path33"
               style="font-style:normal;font-variant:normal;font-weight:normal;font-stretch:normal;font-size:48.00949478px;line-height:100%;font-family:Ubuntu;-inkscape-font-specification:Ubuntu;text-align:center;letter-spacing:-0.50009888px;text-anchor:middle;fill:#808080;fill-opacity:1;stroke-width:1.00019789px"
               d="m -397.44201,-388.70594 q 0,-3.31266 0.96019,-5.76114 0.96019,-2.4965 2.5445,-4.12882 1.58431,-1.63232 3.64872,-2.44848 2.06441,-0.81617 4.22484,-0.81617 5.04099,0 7.72953,3.16863 2.68853,3.12062 2.68853,9.55389 0,0.28806 0,0.76815 0,0.43209 -0.048,0.81616 h -17.09138 q 0.28805,3.88877 2.25644,5.90517 1.96839,2.0164 6.14522,2.0164 2.35246,0 3.93678,-0.38407 1.63232,-0.43209 2.44848,-0.81617 l 0.62413,3.74474 q -0.81617,0.43209 -2.88057,0.91218 -2.0164,0.4801 -4.60892,0.4801 -3.26464,0 -5.66512,-0.96019 -2.35246,-1.0082 -3.88876,-2.73654 -1.53631,-1.72834 -2.30446,-4.08081 -0.72014,-2.40047 -0.72014,-5.23303 z m 17.13939,-2.44849 q 0.048,-3.0246 -1.53631,-4.94498 -1.5363,-1.96839 -4.27284,-1.96839 -1.53631,0 -2.73654,0.62413 -1.15223,0.57611 -1.96839,1.5363 -0.81616,0.96019 -1.29626,2.20844 -0.43208,1.24825 -0.57611,2.5445 z" />
            <path
               id="path35"
               style="font-style:normal;font-variant:normal;font-weight:500;font-stretch:normal;font-size:37.34071732px;font-family:Ubuntu;-inkscape-font-specification:'Ubuntu Medium';letter-spacing:-0.50009888px;baseline-shift:baseline"
               d="m -360.98897,-386.58483 q -0.89618,1.08288 -1.86703,2.31512 -0.93352,1.23224 -1.8297,2.57651 -0.89618,1.34427 -1.71767,2.76321 -0.8215,1.38161 -1.49363,2.76322 h 6.90803 z m 4.40621,-5.56377 v 15.98183 h 2.91257 v 3.69673 h -2.91257 v 6.19856 h -4.40621 v -6.19856 h -11.35158 v -3.21131 q 0.74682,-1.64299 1.97906,-3.77141 1.26959,-2.12842 2.80056,-4.36886 1.53096,-2.24044 3.24864,-4.40621 1.71767,-2.16576 3.43534,-3.92077 z" />
          </g>
        </g>
      </g>
    </g>
  </g>
</svg>
