<?xml version="1.0" encoding="UTF-8" standalone="no"?>
<svg
   xmlns:dc="http://purl.org/dc/elements/1.1/"
   xmlns:cc="http://creativecommons.org/ns#"
   xmlns:rdf="http://www.w3.org/1999/02/22-rdf-syntax-ns#"
   xmlns:svg="http://www.w3.org/2000/svg"
   xmlns="http://www.w3.org/2000/svg"
   viewBox="0 0 96 96.000001"
   version="1.1"
   id="svg4874"
   height="96"
   width="96">
  <defs
     id="defs4876" />
  <metadata
     id="metadata4879">
    <rdf:RDF>
      <cc:Work
         rdf:about="">
        <dc:format>image/svg+xml</dc:format>
        <dc:type
           rdf:resource="http://purl.org/dc/dcmitype/StillImage" />
        <dc:title />
      </cc:Work>
    </rdf:RDF>
  </metadata>
  <g
     transform="translate(67.857146,-78.50504)"
     id="layer1">
    <g
       style="display:inline"
       id="g4845"
       transform="matrix(0,-1,-1,0,373.50506,516.50504)">
      <g
         id="g4778"
         transform="matrix(-0.9996045,0,0,1,575.94296,-611.00001)">
        <g
           style="display:inline"
           id="g4780"
           transform="matrix(-1,0,0,1,575.99999,611)">
          <path
             id="rect4782"
             d="m -438.00244,345.36221 h 96.03799 v 96 h -96.03799 z"
             style="color:#000000;display:inline;overflow:visible;visibility:visible;fill:none;stroke:none;stroke-width:4;marker:none;enable-background:accumulate"
             transform="scale(-1,1)" />
          <path
             id="path4297"
             d="m 365.97267,345.36126 c -2.6314,0 -4.71356,0.23788 -6.46875,0.89648 -1.75519,0.6586 -3.16115,1.84985 -3.99219,3.35547 -1.66208,3.01124 -1.48476,6.6938 -1.54297,11.72656 v 0.0117 64.02149 0.0117 c 0.0582,5.03276 -0.11911,8.71532 1.54297,11.72656 0.83104,1.50562 2.237,2.69686 3.99219,3.35547 1.75519,0.6586 3.83735,0.89648 6.46875,0.89648 h 48.01952 c 2.6314,0 4.71551,-0.23788 6.4707,-0.89648 1.75519,-0.65861 3.15919,-1.84985 3.99023,-3.35547 1.66209,-3.01124 1.48672,-6.6938 1.54493,-11.72656 v -0.0117 -64.02149 -0.0117 c -0.0582,-5.03276 0.11716,-8.71532 -1.54493,-11.72656 -0.83104,-1.50562 -2.23504,-2.69687 -3.99023,-3.35547 -1.75519,-0.6586 -3.8393,-0.89648 -6.4707,-0.89648 z m 0,4.00195 h 48.01952 c 2.37058,0 4.02426,0.25031 5.06445,0.64063 1.0402,0.39031 1.48966,0.80945 1.89453,1.54297 0.80823,1.46429 0.98613,4.77814 1.04492,9.8164 v 63.97656 c -0.0584,5.05418 -0.23518,8.37086 -1.04492,9.83789 -0.40487,0.73352 -0.85433,1.15266 -1.89453,1.54297 -1.04019,0.39032 -2.69387,0.64063 -5.06445,0.64063 h -48.01952 c -2.37058,0 -4.02426,-0.25031 -5.06446,-0.64063 -1.04019,-0.39031 -1.4877,-0.80945 -1.89258,-1.54297 -0.80835,-1.46451 -0.98616,-4.77682 -1.04492,-9.8164 v -0.0215 -63.95312 -0.0234 c 0.0588,-5.03826 0.23669,-8.35211 1.04492,-9.8164 0.40488,-0.73352 0.85239,-1.15266 1.89258,-1.54297 1.0402,-0.39032 2.69388,-0.64063 5.06446,-0.64063 z"
             style="color:#000000;font-style:normal;font-variant:normal;font-weight:normal;font-stretch:normal;font-size:medium;line-height:normal;font-family:sans-serif;font-variant-ligatures:normal;font-variant-position:normal;font-variant-caps:normal;font-variant-numeric:normal;font-variant-alternates:normal;font-feature-settings:normal;text-indent:0;text-align:start;text-decoration:none;text-decoration-line:none;text-decoration-style:solid;text-decoration-color:#000000;letter-spacing:normal;word-spacing:normal;text-transform:none;writing-mode:lr-tb;direction:ltr;text-orientation:mixed;dominant-baseline:auto;baseline-shift:baseline;text-anchor:start;white-space:normal;shape-padding:0;clip-rule:nonzero;display:inline;overflow:visible;visibility:visible;opacity:1;isolation:auto;mix-blend-mode:normal;color-interpolation:sRGB;color-interpolation-filters:linearRGB;solid-color:#000000;solid-opacity:1;fill:#808080;fill-opacity:1;fill-rule:nonzero;stroke:none;stroke-width:4.00079155;stroke-linecap:butt;stroke-linejoin:miter;stroke-miterlimit:4;stroke-dasharray:none;stroke-dashoffset:0;stroke-opacity:1;marker:none;color-rendering:auto;image-rendering:auto;shape-rendering:auto;text-rendering:auto;enable-background:accumulate" />
          <g
             id="maintext"
             style="font-style:normal;font-variant:normal;font-weight:normal;font-stretch:normal;font-size:48.00949478px;line-height:125%;font-family:Ubuntu;-inkscape-font-specification:Ubuntu;text-align:center;letter-spacing:0px;word-spacing:0px;writing-mode:lr-tb;text-anchor:middle;fill:#808080;fill-opacity:1;stroke:none;stroke-width:1.00019789px;stroke-linecap:butt;stroke-linejoin:miter;stroke-opacity:1"
             transform="matrix(0,-0.99980223,-1.0001978,0,0,0)"
             aria-label="Ro">
            <path
               id="path30"
               style="font-style:normal;font-variant:normal;font-weight:normal;font-stretch:normal;font-size:53.34388351px;font-family:Ubuntu;-inkscape-font-specification:Ubuntu;text-align:center;text-anchor:middle;fill:#808080;fill-opacity:1;stroke-width:1.00019789px"
               d="m -403.2278,-389.74084 q 0.85351,1.06687 2.13376,2.82722 1.3336,1.70701 2.72054,3.84076 1.38694,2.08041 2.72054,4.3742 1.38694,2.29379 2.34713,4.42754 h -5.65445 q -1.06688,-2.02707 -2.34714,-4.10748 -1.22691,-2.08041 -2.50716,-3.94744 -1.28025,-1.92038 -2.5605,-3.57404 -1.22691,-1.65367 -2.24045,-2.88057 -0.69347,0.0533 -1.44028,0.0533 -0.69347,0 -1.44029,0 h -4.64092 v 14.45619 h -5.17435 v -36.43387 q 2.1871,-0.53344 4.85429,-0.69347 2.72054,-0.21338 4.96098,-0.21338 7.78821,0 11.84234,2.93392 4.10748,2.93391 4.10748,8.74839 0,3.68073 -1.97372,6.29458 -1.92038,2.61385 -5.7078,3.89411 z m -7.84155,-17.33677 q -3.30732,0 -5.06767,0.16004 v 13.92275 h 3.68073 q 2.6672,0 4.80095,-0.26672 2.13376,-0.26672 3.57404,-1.01353 1.49363,-0.74682 2.29379,-2.08042 0.80016,-1.38694 0.80016,-3.62738 0,-2.08041 -0.80016,-3.46735 -0.80016,-1.38694 -2.1871,-2.1871 -1.3336,-0.80016 -3.20063,-1.12022 -1.8137,-0.32007 -3.89411,-0.32007 z" />
            <path
               id="path32"
               style="font-style:normal;font-variant:normal;font-weight:normal;font-stretch:normal;font-size:53.34388351px;font-family:Ubuntu;-inkscape-font-specification:Ubuntu;text-align:center;text-anchor:middle;fill:#808080;fill-opacity:1;stroke-width:1.00019789px"
               d="m -363.59829,-388.14053 q 0,3.30732 -0.96019,5.97452 -0.96019,2.66719 -2.72054,4.58757 -1.707,1.92038 -4.10748,2.98726 -2.40047,1.01353 -5.2277,1.01353 -2.82722,0 -5.2277,-1.01353 -2.40047,-1.06688 -4.16082,-2.98726 -1.70701,-1.92038 -2.6672,-4.58757 -0.96019,-2.6672 -0.96019,-5.97452 0,-3.25397 0.96019,-5.92117 0.96019,-2.72054 2.6672,-4.64092 1.76035,-1.92038 4.16082,-2.93391 2.40048,-1.06688 5.2277,-1.06688 2.82723,0 5.2277,1.06688 2.40048,1.01353 4.10748,2.93391 1.76035,1.92038 2.72054,4.64092 0.96019,2.6672 0.96019,5.92117 z m -5.17436,0 q 0,-4.69426 -2.13375,-7.4148 -2.08041,-2.77388 -5.7078,-2.77388 -3.62738,0 -5.76114,2.77388 -2.08041,2.72054 -2.08041,7.4148 0,4.69426 2.08041,7.46815 2.13376,2.72053 5.76114,2.72053 3.62739,0 5.7078,-2.72053 2.13375,-2.77389 2.13375,-7.46815 z" />
          </g>
        </g>
      </g>
    </g>
  </g>
</svg>
