<?xml version="1.0" encoding="UTF-8" standalone="no"?>
<svg
   xmlns:dc="http://purl.org/dc/elements/1.1/"
   xmlns:cc="http://creativecommons.org/ns#"
   xmlns:rdf="http://www.w3.org/1999/02/22-rdf-syntax-ns#"
   xmlns:svg="http://www.w3.org/2000/svg"
   xmlns="http://www.w3.org/2000/svg"
   viewBox="0 0 96 96.000001"
   version="1.1"
   id="svg4874"
   height="96"
   width="96">
  <defs
     id="defs4876" />
  <metadata
     id="metadata4879">
    <rdf:RDF>
      <cc:Work
         rdf:about="">
        <dc:format>image/svg+xml</dc:format>
        <dc:type
           rdf:resource="http://purl.org/dc/dcmitype/StillImage" />
        <dc:title />
      </cc:Work>
    </rdf:RDF>
  </metadata>
  <g
     transform="translate(67.857146,-78.50504)"
     id="layer1">
    <g
       style="display:inline"
       id="g4845"
       transform="matrix(0,-1,-1,0,373.50506,516.50504)">
      <g
         id="g4778"
         transform="matrix(-0.9996045,0,0,1,575.94296,-611.00001)">
        <g
           style="display:inline"
           id="g4780"
           transform="matrix(-1,0,0,1,575.99999,611)">
          <path
             id="rect4782"
             d="m -438.00244,345.36221 h 96.03799 v 96 h -96.03799 z"
             style="color:#000000;display:inline;overflow:visible;visibility:visible;fill:none;stroke:none;stroke-width:4;marker:none;enable-background:accumulate"
             transform="scale(-1,1)" />
          <path
             id="path4297"
             d="m 365.97267,345.36126 c -2.6314,0 -4.71356,0.23788 -6.46875,0.89648 -1.75519,0.6586 -3.16115,1.84985 -3.99219,3.35547 -1.66208,3.01124 -1.48476,6.6938 -1.54297,11.72656 v 0.0117 64.02149 0.0117 c 0.0582,5.03276 -0.11911,8.71532 1.54297,11.72656 0.83104,1.50562 2.237,2.69686 3.99219,3.35547 1.75519,0.6586 3.83735,0.89648 6.46875,0.89648 h 48.01952 c 2.6314,0 4.71551,-0.23788 6.4707,-0.89648 1.75519,-0.65861 3.15919,-1.84985 3.99023,-3.35547 1.66209,-3.01124 1.48672,-6.6938 1.54493,-11.72656 v -0.0117 -64.02149 -0.0117 c -0.0582,-5.03276 0.11716,-8.71532 -1.54493,-11.72656 -0.83104,-1.50562 -2.23504,-2.69687 -3.99023,-3.35547 -1.75519,-0.6586 -3.8393,-0.89648 -6.4707,-0.89648 z m 0,4.00195 h 48.01952 c 2.37058,0 4.02426,0.25031 5.06445,0.64063 1.0402,0.39031 1.48966,0.80945 1.89453,1.54297 0.80823,1.46429 0.98613,4.77814 1.04492,9.8164 v 63.97656 c -0.0584,5.05418 -0.23518,8.37086 -1.04492,9.83789 -0.40487,0.73352 -0.85433,1.15266 -1.89453,1.54297 -1.04019,0.39032 -2.69387,0.64063 -5.06445,0.64063 h -48.01952 c -2.37058,0 -4.02426,-0.25031 -5.06446,-0.64063 -1.04019,-0.39031 -1.4877,-0.80945 -1.89258,-1.54297 -0.80835,-1.46451 -0.98616,-4.77682 -1.04492,-9.8164 v -0.0215 -63.95312 -0.0234 c 0.0588,-5.03826 0.23669,-8.35211 1.04492,-9.8164 0.40488,-0.73352 0.85239,-1.15266 1.89258,-1.54297 1.0402,-0.39032 2.69388,-0.64063 5.06446,-0.64063 z"
             style="color:#000000;font-style:normal;font-variant:normal;font-weight:normal;font-stretch:normal;font-size:medium;line-height:normal;font-family:sans-serif;font-variant-ligatures:normal;font-variant-position:normal;font-variant-caps:normal;font-variant-numeric:normal;font-variant-alternates:normal;font-feature-settings:normal;text-indent:0;text-align:start;text-decoration:none;text-decoration-line:none;text-decoration-style:solid;text-decoration-color:#000000;letter-spacing:normal;word-spacing:normal;text-transform:none;writing-mode:lr-tb;direction:ltr;text-orientation:mixed;dominant-baseline:auto;baseline-shift:baseline;text-anchor:start;white-space:normal;shape-padding:0;clip-rule:nonzero;display:inline;overflow:visible;visibility:visible;opacity:1;isolation:auto;mix-blend-mode:normal;color-interpolation:sRGB;color-interpolation-filters:linearRGB;solid-color:#000000;solid-opacity:1;fill:#808080;fill-opacity:1;fill-rule:nonzero;stroke:none;stroke-width:4.00079155;stroke-linecap:butt;stroke-linejoin:miter;stroke-miterlimit:4;stroke-dasharray:none;stroke-dashoffset:0;stroke-opacity:1;marker:none;color-rendering:auto;image-rendering:auto;shape-rendering:auto;text-rendering:auto;enable-background:accumulate" />
          <g
             id="maintext"
             style="font-style:normal;font-variant:normal;font-weight:normal;font-stretch:normal;font-size:48.00949478px;line-height:125%;font-family:Ubuntu;-inkscape-font-specification:Ubuntu;text-align:center;letter-spacing:0px;word-spacing:0px;writing-mode:lr-tb;text-anchor:middle;fill:#808080;fill-opacity:1;stroke:none;stroke-width:1.00019789px;stroke-linecap:butt;stroke-linejoin:miter;stroke-opacity:1"
             transform="matrix(0,-0.99980223,-1.0001978,0,0,0)"
             aria-label="Pa">
            <path
               id="path30"
               style="font-style:normal;font-variant:normal;font-weight:normal;font-stretch:normal;font-size:53.34388351px;font-family:Ubuntu;-inkscape-font-specification:Ubuntu;text-align:center;text-anchor:middle;fill:#808080;fill-opacity:1;stroke-width:1.00019789px"
               d="m -408.57885,-411.61184 q 7.7882,0 11.94903,2.98726 4.21416,2.93391 4.21416,8.80174 0,3.20063 -1.17356,5.49442 -1.12022,2.24044 -3.30732,3.68073 -2.13376,1.38694 -5.2277,2.02707 -3.09395,0.64012 -6.98805,0.64012 h -4.10748 v 13.70938 h -5.17436 v -36.43387 q 2.1871,-0.53344 4.85429,-0.69347 2.72054,-0.21338 4.96099,-0.21338 z m 0.42675,4.53423 q -3.30732,0 -5.06767,0.16004 v 14.50953 h 3.8941 q 2.6672,0 4.80095,-0.32006 2.13376,-0.37341 3.57404,-1.17357 1.49363,-0.8535 2.29379,-2.29378 0.80016,-1.44029 0.80016,-3.68073 0,-2.13376 -0.85351,-3.5207 -0.80015,-1.38694 -2.24044,-2.1871 -1.38694,-0.8535 -3.25398,-1.17356 -1.86703,-0.32007 -3.94744,-0.32007 z" />
            <path
               id="path32"
               style="font-style:normal;font-variant:normal;font-weight:normal;font-stretch:normal;font-size:53.34388351px;font-family:Ubuntu;-inkscape-font-specification:Ubuntu;text-align:center;text-anchor:middle;fill:#808080;fill-opacity:1;stroke-width:1.00019789px"
               d="m -377.9653,-377.84516 q 1.76035,0 3.09395,-0.0533 1.38694,-0.10669 2.29378,-0.32007 v -8.2683 q -0.53344,-0.26672 -1.76035,-0.42675 -1.17356,-0.21337 -2.88057,-0.21337 -1.12022,0 -2.40047,0.16003 -1.22691,0.16003 -2.29379,0.69347 -1.01353,0.48009 -1.707,1.38694 -0.69347,0.8535 -0.69347,2.29379 0,2.66719 1.707,3.73407 1.70701,1.01353 4.64092,1.01353 z m -0.42675,-24.85825 q 2.98726,0 5.01432,0.80016 2.08042,0.74681 3.30733,2.1871 1.28025,1.38694 1.81369,3.36066 0.53344,1.92038 0.53344,4.26751 v 17.33677 q -0.64013,0.10668 -1.8137,0.32006 -1.12022,0.16003 -2.5605,0.32006 -1.44029,0.16004 -3.14729,0.26672 -1.65366,0.16003 -3.30732,0.16003 -2.34713,0 -4.32086,-0.48009 -1.97372,-0.4801 -3.41401,-1.49363 -1.44028,-1.06688 -2.24044,-2.77388 -0.80016,-1.70701 -0.80016,-4.10748 0,-2.29379 0.90685,-3.94745 0.96019,-1.65366 2.56051,-2.66719 1.60031,-1.01354 3.73407,-1.49363 2.13375,-0.4801 4.48088,-0.4801 0.74682,0 1.54698,0.10669 0.80015,0.0533 1.49363,0.21338 0.74681,0.10669 1.28025,0.21337 0.53344,0.10669 0.74681,0.16004 v -1.38695 q 0,-1.22691 -0.26672,-2.40047 -0.26672,-1.22691 -0.96019,-2.13376 -0.69347,-0.96019 -1.92038,-1.49362 -1.17356,-0.58679 -3.09394,-0.58679 -2.45382,0 -4.32086,0.37341 -1.81369,0.32006 -2.72053,0.69347 l -0.58679,-4.10748 q 0.96019,-0.42675 3.20064,-0.80016 2.24044,-0.42675 4.85429,-0.42675 z" />
          </g>
        </g>
      </g>
    </g>
  </g>
</svg>
