<?xml version="1.0" encoding="UTF-8" standalone="no"?>
<svg
   xmlns:dc="http://purl.org/dc/elements/1.1/"
   xmlns:cc="http://creativecommons.org/ns#"
   xmlns:rdf="http://www.w3.org/1999/02/22-rdf-syntax-ns#"
   xmlns:svg="http://www.w3.org/2000/svg"
   xmlns="http://www.w3.org/2000/svg"
   viewBox="0 0 96 96.000001"
   version="1.1"
   id="svg4874"
   height="96"
   width="96">
  <defs
     id="defs4876" />
  <metadata
     id="metadata4879">
    <rdf:RDF>
      <cc:Work
         rdf:about="">
        <dc:format>image/svg+xml</dc:format>
        <dc:type
           rdf:resource="http://purl.org/dc/dcmitype/StillImage" />
        <dc:title />
      </cc:Work>
    </rdf:RDF>
  </metadata>
  <g
     transform="translate(67.857146,-78.50504)"
     id="layer1">
    <g
       style="display:inline"
       id="g4845"
       transform="matrix(0,-1,-1,0,373.50506,516.50504)">
      <g
         id="g4778"
         transform="matrix(-0.9996045,0,0,1,575.94296,-611.00001)">
        <g
           style="display:inline"
           id="g4780"
           transform="matrix(-1,0,0,1,575.99999,611)">
          <path
             id="rect4782"
             d="m -438.00244,345.36221 h 96.03799 v 96 h -96.03799 z"
             style="color:#000000;display:inline;overflow:visible;visibility:visible;fill:none;stroke:none;stroke-width:4;marker:none;enable-background:accumulate"
             transform="scale(-1,1)" />
          <path
             id="path4297"
             d="m 365.97267,345.36126 c -2.6314,0 -4.71356,0.23788 -6.46875,0.89648 -1.75519,0.6586 -3.16115,1.84985 -3.99219,3.35547 -1.66208,3.01124 -1.48476,6.6938 -1.54297,11.72656 v 0.0117 64.02149 0.0117 c 0.0582,5.03276 -0.11911,8.71532 1.54297,11.72656 0.83104,1.50562 2.237,2.69686 3.99219,3.35547 1.75519,0.6586 3.83735,0.89648 6.46875,0.89648 h 48.01952 c 2.6314,0 4.71551,-0.23788 6.4707,-0.89648 1.75519,-0.65861 3.15919,-1.84985 3.99023,-3.35547 1.66209,-3.01124 1.48672,-6.6938 1.54493,-11.72656 v -0.0117 -64.02149 -0.0117 c -0.0582,-5.03276 0.11716,-8.71532 -1.54493,-11.72656 -0.83104,-1.50562 -2.23504,-2.69687 -3.99023,-3.35547 -1.75519,-0.6586 -3.8393,-0.89648 -6.4707,-0.89648 z m 0,4.00195 h 48.01952 c 2.37058,0 4.02426,0.25031 5.06445,0.64063 1.0402,0.39031 1.48966,0.80945 1.89453,1.54297 0.80823,1.46429 0.98613,4.77814 1.04492,9.8164 v 63.97656 c -0.0584,5.05418 -0.23518,8.37086 -1.04492,9.83789 -0.40487,0.73352 -0.85433,1.15266 -1.89453,1.54297 -1.04019,0.39032 -2.69387,0.64063 -5.06445,0.64063 h -48.01952 c -2.37058,0 -4.02426,-0.25031 -5.06446,-0.64063 -1.04019,-0.39031 -1.4877,-0.80945 -1.89258,-1.54297 -0.80835,-1.46451 -0.98616,-4.77682 -1.04492,-9.8164 v -0.0215 -63.95312 -0.0234 c 0.0588,-5.03826 0.23669,-8.35211 1.04492,-9.8164 0.40488,-0.73352 0.85239,-1.15266 1.89258,-1.54297 1.0402,-0.39032 2.69388,-0.64063 5.06446,-0.64063 z"
             style="color:#000000;font-style:normal;font-variant:normal;font-weight:normal;font-stretch:normal;font-size:medium;line-height:normal;font-family:sans-serif;font-variant-ligatures:normal;font-variant-position:normal;font-variant-caps:normal;font-variant-numeric:normal;font-variant-alternates:normal;font-feature-settings:normal;text-indent:0;text-align:start;text-decoration:none;text-decoration-line:none;text-decoration-style:solid;text-decoration-color:#000000;letter-spacing:normal;word-spacing:normal;text-transform:none;writing-mode:lr-tb;direction:ltr;text-orientation:mixed;dominant-baseline:auto;baseline-shift:baseline;text-anchor:start;white-space:normal;shape-padding:0;clip-rule:nonzero;display:inline;overflow:visible;visibility:visible;opacity:1;isolation:auto;mix-blend-mode:normal;color-interpolation:sRGB;color-interpolation-filters:linearRGB;solid-color:#000000;solid-opacity:1;fill:#808080;fill-opacity:1;fill-rule:nonzero;stroke:none;stroke-width:4.00079155;stroke-linecap:butt;stroke-linejoin:miter;stroke-miterlimit:4;stroke-dasharray:none;stroke-dashoffset:0;stroke-opacity:1;marker:none;color-rendering:auto;image-rendering:auto;shape-rendering:auto;text-rendering:auto;enable-background:accumulate" />
          <g
             id="maintext"
             style="font-style:normal;font-variant:normal;font-weight:normal;font-stretch:normal;font-size:48.00949478px;line-height:100%;font-family:Ubuntu;-inkscape-font-specification:Ubuntu;text-align:center;letter-spacing:-2.00039554px;word-spacing:0px;writing-mode:lr-tb;text-anchor:middle;fill:#808080;fill-opacity:1;stroke:none;stroke-width:1.00019789px;stroke-linecap:butt;stroke-linejoin:miter;stroke-opacity:1"
             transform="matrix(0,-0.99980223,-1.0001978,0,0,0)"
             aria-label="Hr3">
            <path
               id="path31"
               style="font-style:normal;font-variant:normal;font-weight:normal;font-stretch:normal;font-size:48.00949478px;line-height:100%;font-family:Ubuntu;-inkscape-font-specification:Ubuntu;text-align:center;letter-spacing:-0.50009888px;text-anchor:middle;fill:#808080;fill-opacity:1;stroke-width:1.00019789px"
               d="m -404.24161,-409.54206 h 4.65692 v 33.27058 h -4.65692 v -15.36304 h -16.27521 v 15.36304 h -4.65693 v -33.27058 h 4.65693 v 13.87474 h 16.27521 z" />
            <path
               id="path33"
               style="font-style:normal;font-variant:normal;font-weight:normal;font-stretch:normal;font-size:48.00949478px;line-height:100%;font-family:Ubuntu;-inkscape-font-specification:Ubuntu;text-align:center;letter-spacing:-0.50009888px;text-anchor:middle;fill:#808080;fill-opacity:1;stroke-width:1.00019789px"
               d="m -382.89363,-401.76453 q 0.57611,0 1.29625,0.096 0.76815,0.048 1.4883,0.19204 0.72014,0.096 1.29625,0.24005 0.62413,0.096 0.91218,0.19204 l -0.76815,3.88877 q -0.5281,-0.19204 -1.77635,-0.43209 -1.20024,-0.28806 -3.12062,-0.28806 -1.24824,0 -2.49649,0.28806 -1.20024,0.24005 -1.58431,0.33607 v 20.98015 h -4.46489 v -23.90873 q 1.58432,-0.57612 3.93678,-1.05621 2.35247,-0.52811 5.28105,-0.52811 z" />
            <path
               id="path35"
               style="font-style:normal;font-variant:normal;font-weight:500;font-stretch:normal;font-size:37.34071732px;font-family:Ubuntu;-inkscape-font-specification:'Ubuntu Medium';letter-spacing:-0.50009888px;baseline-shift:baseline"
               d="m -369.07373,-365.71137 q -1.0082,0 -2.09108,-0.14937 -1.04554,-0.11202 -2.0164,-0.33606 -0.93352,-0.18671 -1.71767,-0.41075 -0.78416,-0.26139 -1.19491,-0.48543 l 0.89618,-3.84609 q 0.78415,0.3734 2.27778,0.85883 1.49363,0.44809 3.69673,0.44809 2.94992,0 4.25685,-1.12022 1.30692,-1.15756 1.30692,-3.06194 0,-1.23224 -0.52277,-2.05374 -0.48543,-0.82149 -1.38161,-1.30692 -0.85883,-0.52277 -2.01639,-0.70948 -1.12023,-0.22404 -2.38981,-0.22404 h -1.53097 v -3.65939 h 1.86704 q 0.85883,0 1.71767,-0.14936 0.89618,-0.18671 1.60565,-0.59746 0.70947,-0.44809 1.15756,-1.15756 0.44809,-0.70947 0.44809,-1.82969 0,-0.89618 -0.33607,-1.53097 -0.33606,-0.6348 -0.89617,-1.04554 -0.52277,-0.41075 -1.23225,-0.59745 -0.70947,-0.18671 -1.49363,-0.18671 -1.68033,0 -2.98725,0.52277 -1.30693,0.48543 -2.31513,1.12022 l -1.64299,-3.36066 q 0.52277,-0.33607 1.26959,-0.70947 0.74681,-0.37341 1.64299,-0.70948 0.93352,-0.33607 1.97906,-0.52277 1.04554,-0.22404 2.2031,-0.22404 2.16576,0 3.73407,0.52277 1.56831,0.52277 2.57651,1.49363 1.04554,0.93351 1.53097,2.24044 0.52277,1.26958 0.52277,2.80055 0,1.79236 -1.0082,3.2113 -0.97086,1.41895 -2.53917,2.16577 2.0164,0.70947 3.32332,2.35246 1.34427,1.64299 1.34427,4.2195 0,1.71768 -0.59745,3.2113 -0.59745,1.45629 -1.8297,2.53917 -1.23224,1.04554 -3.13662,1.68033 -1.86703,0.59746 -4.48088,0.59746 z" />
          </g>
        </g>
      </g>
    </g>
  </g>
</svg>
