<?xml version="1.0" encoding="UTF-8" standalone="no"?>
<svg
   xmlns:dc="http://purl.org/dc/elements/1.1/"
   xmlns:cc="http://creativecommons.org/ns#"
   xmlns:rdf="http://www.w3.org/1999/02/22-rdf-syntax-ns#"
   xmlns:svg="http://www.w3.org/2000/svg"
   xmlns="http://www.w3.org/2000/svg"
   viewBox="0 0 96 96.000001"
   version="1.1"
   id="svg4874"
   height="96"
   width="96">
  <defs
     id="defs4876" />
  <metadata
     id="metadata4879">
    <rdf:RDF>
      <cc:Work
         rdf:about="">
        <dc:format>image/svg+xml</dc:format>
        <dc:type
           rdf:resource="http://purl.org/dc/dcmitype/StillImage" />
        <dc:title />
      </cc:Work>
    </rdf:RDF>
  </metadata>
  <g
     transform="translate(67.857146,-78.50504)"
     id="layer1">
    <g
       style="display:inline"
       id="g4845"
       transform="matrix(0,-1,-1,0,373.50506,516.50504)">
      <g
         id="g4778"
         transform="matrix(-0.9996045,0,0,1,575.94296,-611.00001)">
        <g
           style="display:inline"
           id="g4780"
           transform="matrix(-1,0,0,1,575.99999,611)">
          <path
             id="rect4782"
             d="m -438.00244,345.36221 h 96.03799 v 96 h -96.03799 z"
             style="color:#000000;display:inline;overflow:visible;visibility:visible;fill:none;stroke:none;stroke-width:4;marker:none;enable-background:accumulate"
             transform="scale(-1,1)" />
          <path
             id="path4297"
             d="m 365.97267,345.36126 c -2.6314,0 -4.71356,0.23788 -6.46875,0.89648 -1.75519,0.6586 -3.16115,1.84985 -3.99219,3.35547 -1.66208,3.01124 -1.48476,6.6938 -1.54297,11.72656 v 0.0117 64.02149 0.0117 c 0.0582,5.03276 -0.11911,8.71532 1.54297,11.72656 0.83104,1.50562 2.237,2.69686 3.99219,3.35547 1.75519,0.6586 3.83735,0.89648 6.46875,0.89648 h 48.01952 c 2.6314,0 4.71551,-0.23788 6.4707,-0.89648 1.75519,-0.65861 3.15919,-1.84985 3.99023,-3.35547 1.66209,-3.01124 1.48672,-6.6938 1.54493,-11.72656 v -0.0117 -64.02149 -0.0117 c -0.0582,-5.03276 0.11716,-8.71532 -1.54493,-11.72656 -0.83104,-1.50562 -2.23504,-2.69687 -3.99023,-3.35547 -1.75519,-0.6586 -3.8393,-0.89648 -6.4707,-0.89648 z m 0,4.00195 h 48.01952 c 2.37058,0 4.02426,0.25031 5.06445,0.64063 1.0402,0.39031 1.48966,0.80945 1.89453,1.54297 0.80823,1.46429 0.98613,4.77814 1.04492,9.8164 v 63.97656 c -0.0584,5.05418 -0.23518,8.37086 -1.04492,9.83789 -0.40487,0.73352 -0.85433,1.15266 -1.89453,1.54297 -1.04019,0.39032 -2.69387,0.64063 -5.06445,0.64063 h -48.01952 c -2.37058,0 -4.02426,-0.25031 -5.06446,-0.64063 -1.04019,-0.39031 -1.4877,-0.80945 -1.89258,-1.54297 -0.80835,-1.46451 -0.98616,-4.77682 -1.04492,-9.8164 v -0.0215 -63.95312 -0.0234 c 0.0588,-5.03826 0.23669,-8.35211 1.04492,-9.8164 0.40488,-0.73352 0.85239,-1.15266 1.89258,-1.54297 1.0402,-0.39032 2.69388,-0.64063 5.06446,-0.64063 z"
             style="color:#000000;font-style:normal;font-variant:normal;font-weight:normal;font-stretch:normal;font-size:medium;line-height:normal;font-family:sans-serif;font-variant-ligatures:normal;font-variant-position:normal;font-variant-caps:normal;font-variant-numeric:normal;font-variant-alternates:normal;font-feature-settings:normal;text-indent:0;text-align:start;text-decoration:none;text-decoration-line:none;text-decoration-style:solid;text-decoration-color:#000000;letter-spacing:normal;word-spacing:normal;text-transform:none;writing-mode:lr-tb;direction:ltr;text-orientation:mixed;dominant-baseline:auto;baseline-shift:baseline;text-anchor:start;white-space:normal;shape-padding:0;clip-rule:nonzero;display:inline;overflow:visible;visibility:visible;opacity:1;isolation:auto;mix-blend-mode:normal;color-interpolation:sRGB;color-interpolation-filters:linearRGB;solid-color:#000000;solid-opacity:1;fill:#808080;fill-opacity:1;fill-rule:nonzero;stroke:none;stroke-width:4.00079155;stroke-linecap:butt;stroke-linejoin:miter;stroke-miterlimit:4;stroke-dasharray:none;stroke-dashoffset:0;stroke-opacity:1;marker:none;color-rendering:auto;image-rendering:auto;shape-rendering:auto;text-rendering:auto;enable-background:accumulate" />
          <g
             id="maintext"
             style="font-style:normal;font-variant:normal;font-weight:normal;font-stretch:normal;font-size:48.00949478px;line-height:100%;font-family:Ubuntu;-inkscape-font-specification:Ubuntu;text-align:center;letter-spacing:-2.00039554px;word-spacing:0px;writing-mode:lr-tb;text-anchor:middle;fill:#808080;fill-opacity:1;stroke:none;stroke-width:1.00019789px;stroke-linecap:butt;stroke-linejoin:miter;stroke-opacity:1"
             transform="matrix(0,-0.99980223,-1.0001978,0,0,0)"
             aria-label="Ru18">
            <path
               id="path32"
               style="font-size:42.67510605px"
               d="m -416.13921,-390.64766 q 0.68281,0.8535 1.70701,2.26178 1.06688,1.3656 2.17643,3.07261 1.10955,1.66433 2.17643,3.49936 1.10955,1.83502 1.8777,3.54203 h -4.52356 q -0.8535,-1.62166 -1.8777,-3.28598 -0.98153,-1.66433 -2.00573,-3.15796 -1.02421,-1.53631 -2.04841,-2.85923 -0.98153,-1.32293 -1.79235,-2.30446 -0.55478,0.0427 -1.15223,0.0427 -0.55478,0 -1.15223,0 h -3.71273 v 11.56495 h -4.13949 v -29.1471 q 1.74968,-0.42675 3.88344,-0.55477 2.17643,-0.17071 3.96878,-0.17071 6.23057,0 9.47388,2.34714 3.28598,2.34713 3.28598,6.99871 0,2.94459 -1.57898,5.03567 -1.5363,2.09108 -4.56624,3.11528 z m -6.27324,-13.86941 q -2.64585,0 -4.05413,0.12802 v 11.13821 h 2.94458 q 2.13376,0 3.84076,-0.21338 1.707,-0.21337 2.85923,-0.81083 1.1949,-0.59745 1.83503,-1.66433 0.64013,-1.10955 0.64013,-2.9019 0,-1.66433 -0.64013,-2.77388 -0.64013,-1.10956 -1.74968,-1.74968 -1.06688,-0.64013 -2.5605,-0.89618 -1.45096,-0.25605 -3.11529,-0.25605 z" />
            <path
               id="path34"
               style="font-size:42.67510605px"
               d="m -388.35638,-378.91201 q -1.3656,0.3414 -3.62738,0.72548 -2.21911,0.38408 -5.16369,0.38408 -2.56051,0 -4.31019,-0.72548 -1.74968,-0.76815 -2.81655,-2.13376 -1.06688,-1.3656 -1.53631,-3.20063 -0.46942,-1.8777 -0.46942,-4.13949 v -12.46113 h 3.96878 v 11.60763 q 0,4.05414 1.28025,5.80382 1.28026,1.74968 4.31019,1.74968 0.64013,0 1.32293,-0.0427 0.6828,-0.0427 1.28025,-0.0854 0.59745,-0.0854 1.06688,-0.12802 0.5121,-0.0854 0.72548,-0.1707 v -18.73438 h 3.96878 z" />
            <path
               id="path36"
               style="font-style:normal;font-variant:normal;font-weight:500;font-stretch:normal;font-size:32.00632858px;font-family:Ubuntu;-inkscape-font-specification:'Ubuntu Medium';letter-spacing:-2.00039554px;baseline-shift:baseline"
               d="m -384.05286,-384.84336 q 1.85637,-0.73614 3.71273,-1.88837 1.88838,-1.15223 3.32866,-2.72054 h 2.72054 v 22.18039 h -3.87277 v -16.99536 q -0.86417,0.67213 -2.17643,1.31226 -1.31226,0.64012 -2.5285,1.05621 z" />
            <path
               id="path38"
               style="font-style:normal;font-variant:normal;font-weight:500;font-stretch:normal;font-size:32.00632858px;font-family:Ubuntu;-inkscape-font-specification:'Ubuntu Medium';letter-spacing:-2.00039554px;baseline-shift:baseline"
               d="m -354.09944,-373.22506 q 0,1.37627 -0.48009,2.56051 -0.4801,1.18423 -1.44029,2.0484 -0.96019,0.86417 -2.40047,1.34427 -1.40828,0.48009 -3.26465,0.48009 -2.17643,0 -3.61671,-0.60812 -1.44029,-0.60812 -2.30446,-1.5363 -0.86417,-0.92818 -1.24825,-1.98439 -0.35207,-1.08822 -0.35207,-2.04841 0,-0.96019 0.25606,-1.76035 0.28805,-0.83216 0.76815,-1.50429 0.48009,-0.70414 1.08821,-1.28026 0.60812,-0.57611 1.28026,-1.0242 -1.4723,-1.0242 -2.20844,-2.20844 -0.70414,-1.21624 -0.70414,-2.94458 0,-1.24824 0.48009,-2.36847 0.51211,-1.15222 1.44029,-2.01639 0.92818,-0.86418 2.24044,-1.37628 1.31226,-0.5121 2.91258,-0.5121 1.88837,0 3.20063,0.54411 1.34427,0.54411 2.17643,1.40828 0.86417,0.86417 1.24825,1.92038 0.38407,1.05621 0.38407,2.0484 0,1.76035 -0.96019,3.13662 -0.96019,1.34427 -2.20843,2.14443 1.88837,1.0242 2.78455,2.36847 0.92818,1.34426 0.92818,3.16862 z m -11.29823,0.19204 q 0,0.48009 0.19204,1.0242 0.19203,0.54411 0.64012,0.9922 0.44809,0.44809 1.15223,0.76815 0.70414,0.28806 1.76035,0.28806 0.96019,0 1.66433,-0.25605 0.70414,-0.25605 1.15223,-0.67214 0.44808,-0.44808 0.67213,-0.99219 0.22404,-0.57612 0.22404,-1.15223 0,-0.89618 -0.35207,-1.56831 -0.35207,-0.67213 -1.0242,-1.15223 -0.64013,-0.5121 -1.5363,-0.86417 -0.89618,-0.38407 -1.9844,-0.67213 -1.15222,0.73614 -1.85636,1.79235 -0.70414,1.0242 -0.70414,2.46449 z m 6.97738,-10.94616 q 0,-0.41609 -0.19204,-0.89618 -0.16003,-0.5121 -0.57611,-0.92819 -0.38408,-0.41608 -0.9922,-0.70413 -0.60812,-0.28806 -1.47229,-0.28806 -0.86417,0 -1.5043,0.28806 -0.60812,0.25605 -0.9922,0.70413 -0.38407,0.41609 -0.57611,0.92819 -0.19204,0.48009 -0.19204,0.96019 0,1.21624 0.89618,2.30445 0.92818,1.08822 3.07261,1.72835 1.18423,-0.73615 1.85636,-1.66433 0.67214,-0.96019 0.67214,-2.43248 z" />
          </g>
        </g>
      </g>
    </g>
  </g>
</svg>
