<?xml version="1.0" encoding="UTF-8" standalone="no"?>
<svg
   xmlns:dc="http://purl.org/dc/elements/1.1/"
   xmlns:cc="http://creativecommons.org/ns#"
   xmlns:rdf="http://www.w3.org/1999/02/22-rdf-syntax-ns#"
   xmlns:svg="http://www.w3.org/2000/svg"
   xmlns="http://www.w3.org/2000/svg"
   viewBox="0 0 96 96.000001"
   version="1.1"
   id="svg4874"
   height="96"
   width="96">
  <defs
     id="defs4876" />
  <metadata
     id="metadata4879">
    <rdf:RDF>
      <cc:Work
         rdf:about="">
        <dc:format>image/svg+xml</dc:format>
        <dc:type
           rdf:resource="http://purl.org/dc/dcmitype/StillImage" />
        <dc:title />
      </cc:Work>
    </rdf:RDF>
  </metadata>
  <g
     transform="translate(67.857146,-78.50504)"
     id="layer1">
    <g
       style="display:inline"
       id="g4845"
       transform="matrix(0,-1,-1,0,373.50506,516.50504)">
      <g
         id="g4778"
         transform="matrix(-0.9996045,0,0,1,575.94296,-611.00001)">
        <g
           style="display:inline"
           id="g4780"
           transform="matrix(-1,0,0,1,575.99999,611)">
          <path
             id="rect4782"
             d="m -438.00244,345.36221 h 96.03799 v 96 h -96.03799 z"
             style="color:#000000;display:inline;overflow:visible;visibility:visible;fill:none;stroke:none;stroke-width:4;marker:none;enable-background:accumulate"
             transform="scale(-1,1)" />
          <path
             id="path4297"
             d="m 365.97267,345.36126 c -2.6314,0 -4.71356,0.23788 -6.46875,0.89648 -1.75519,0.6586 -3.16115,1.84985 -3.99219,3.35547 -1.66208,3.01124 -1.48476,6.6938 -1.54297,11.72656 v 0.0117 64.02149 0.0117 c 0.0582,5.03276 -0.11911,8.71532 1.54297,11.72656 0.83104,1.50562 2.237,2.69686 3.99219,3.35547 1.75519,0.6586 3.83735,0.89648 6.46875,0.89648 h 48.01952 c 2.6314,0 4.71551,-0.23788 6.4707,-0.89648 1.75519,-0.65861 3.15919,-1.84985 3.99023,-3.35547 1.66209,-3.01124 1.48672,-6.6938 1.54493,-11.72656 v -0.0117 -64.02149 -0.0117 c -0.0582,-5.03276 0.11716,-8.71532 -1.54493,-11.72656 -0.83104,-1.50562 -2.23504,-2.69687 -3.99023,-3.35547 -1.75519,-0.6586 -3.8393,-0.89648 -6.4707,-0.89648 z m 0,4.00195 h 48.01952 c 2.37058,0 4.02426,0.25031 5.06445,0.64063 1.0402,0.39031 1.48966,0.80945 1.89453,1.54297 0.80823,1.46429 0.98613,4.77814 1.04492,9.8164 v 63.97656 c -0.0584,5.05418 -0.23518,8.37086 -1.04492,9.83789 -0.40487,0.73352 -0.85433,1.15266 -1.89453,1.54297 -1.04019,0.39032 -2.69387,0.64063 -5.06445,0.64063 h -48.01952 c -2.37058,0 -4.02426,-0.25031 -5.06446,-0.64063 -1.04019,-0.39031 -1.4877,-0.80945 -1.89258,-1.54297 -0.80835,-1.46451 -0.98616,-4.77682 -1.04492,-9.8164 v -0.0215 -63.95312 -0.0234 c 0.0588,-5.03826 0.23669,-8.35211 1.04492,-9.8164 0.40488,-0.73352 0.85239,-1.15266 1.89258,-1.54297 1.0402,-0.39032 2.69388,-0.64063 5.06446,-0.64063 z"
             style="color:#000000;font-style:normal;font-variant:normal;font-weight:normal;font-stretch:normal;font-size:medium;line-height:normal;font-family:sans-serif;font-variant-ligatures:normal;font-variant-position:normal;font-variant-caps:normal;font-variant-numeric:normal;font-variant-alternates:normal;font-feature-settings:normal;text-indent:0;text-align:start;text-decoration:none;text-decoration-line:none;text-decoration-style:solid;text-decoration-color:#000000;letter-spacing:normal;word-spacing:normal;text-transform:none;writing-mode:lr-tb;direction:ltr;text-orientation:mixed;dominant-baseline:auto;baseline-shift:baseline;text-anchor:start;white-space:normal;shape-padding:0;clip-rule:nonzero;display:inline;overflow:visible;visibility:visible;opacity:1;isolation:auto;mix-blend-mode:normal;color-interpolation:sRGB;color-interpolation-filters:linearRGB;solid-color:#000000;solid-opacity:1;fill:#808080;fill-opacity:1;fill-rule:nonzero;stroke:none;stroke-width:4.00079155;stroke-linecap:butt;stroke-linejoin:miter;stroke-miterlimit:4;stroke-dasharray:none;stroke-dashoffset:0;stroke-opacity:1;marker:none;color-rendering:auto;image-rendering:auto;shape-rendering:auto;text-rendering:auto;enable-background:accumulate" />
          <g
             id="maintext"
             style="font-style:normal;font-variant:normal;font-weight:normal;font-stretch:normal;font-size:48.00949478px;line-height:100%;font-family:Ubuntu;-inkscape-font-specification:Ubuntu;text-align:center;letter-spacing:-2.00039554px;word-spacing:0px;writing-mode:lr-tb;text-anchor:middle;fill:#808080;fill-opacity:1;stroke:none;stroke-width:1.00019789px;stroke-linecap:butt;stroke-linejoin:miter;stroke-opacity:1"
             transform="matrix(0,-0.99980223,-1.0001978,0,0,0)"
             aria-label="Be11">
            <path
               id="path32"
               style="font-size:42.67510605px"
               d="m -422.58415,-378.01583 q -0.89617,0 -1.96305,-0.0427 -1.02421,-0.0427 -2.09108,-0.12802 -1.02421,-0.0854 -2.04841,-0.21338 -1.0242,-0.12802 -1.8777,-0.3414 v -28.67767 q 0.8535,-0.21337 1.8777,-0.3414 1.0242,-0.12802 2.04841,-0.21337 1.06687,-0.0854 2.09108,-0.12803 1.0242,-0.0427 1.92038,-0.0427 2.5605,0 4.77961,0.38408 2.26178,0.38408 3.88343,1.32293 1.66433,0.89618 2.60319,2.3898 0.93885,1.49363 0.93885,3.67006 0,2.43249 -1.15223,4.01146 -1.15223,1.53631 -3.07261,2.30446 2.60318,0.76815 4.13949,2.43248 1.5363,1.66433 1.5363,4.69426 0,4.43821 -3.28598,6.69999 -3.24331,2.21911 -10.32738,2.21911 z m -3.88343,-14.04011 v 10.41273 q 0.46942,0.0427 1.10955,0.0854 0.55478,0.0427 1.28025,0.0854 0.76816,0 1.74968,0 1.83503,0 3.45669,-0.21338 1.66433,-0.25605 2.9019,-0.8535 1.23758,-0.59745 1.96306,-1.66433 0.76815,-1.06688 0.76815,-2.68853 0,-1.45096 -0.55478,-2.43248 -0.55477,-1.02421 -1.62165,-1.62166 -1.0242,-0.59745 -2.47516,-0.8535 -1.45095,-0.25605 -3.2433,-0.25605 z m 0,-3.32866 h 4.35286 q 1.5363,0 2.90191,-0.21337 1.3656,-0.21338 2.34713,-0.76816 1.0242,-0.55477 1.57898,-1.45095 0.59745,-0.89618 0.59745,-2.26178 0,-1.28025 -0.59745,-2.13376 -0.59746,-0.89617 -1.66433,-1.40827 -1.02421,-0.55478 -2.43248,-0.81083 -1.40828,-0.25605 -2.98726,-0.25605 -1.57898,0 -2.47516,0.0427 -0.89618,0.0427 -1.62165,0.12803 z" />
            <path
               id="path34"
               style="font-size:42.67510605px"
               d="m -406.63633,-389.32473 q 0,-2.94459 0.85351,-5.12102 0.8535,-2.2191 2.26178,-3.67006 1.40828,-1.45095 3.24331,-2.17643 1.83502,-0.72547 3.7554,-0.72547 4.48089,0 6.8707,2.81655 2.3898,2.77389 2.3898,8.49235 0,0.25605 0,0.6828 0,0.38408 -0.0427,0.72548 h -15.19234 q 0.25605,3.45668 2.00573,5.24904 1.74968,1.79235 5.46241,1.79235 2.09108,0 3.49936,-0.3414 1.45096,-0.38408 2.17643,-0.72548 l 0.55478,3.32866 q -0.72548,0.38408 -2.56051,0.81083 -1.79235,0.42675 -4.09681,0.42675 -2.9019,0 -5.03566,-0.8535 -2.09108,-0.89618 -3.45668,-2.43248 -1.36561,-1.53631 -2.04841,-3.62739 -0.64013,-2.13375 -0.64013,-4.65158 z m 15.23502,-2.17643 q 0.0427,-2.68854 -1.36561,-4.39554 -1.3656,-1.74968 -3.79808,-1.74968 -1.3656,0 -2.43248,0.55478 -1.0242,0.5121 -1.74968,1.3656 -0.72548,0.8535 -1.15223,1.96306 -0.38407,1.10955 -0.5121,2.26178 z" />
            <path
               id="path36"
               style="font-style:normal;font-variant:normal;font-weight:500;font-stretch:normal;font-size:32.00632858px;font-family:Ubuntu;-inkscape-font-specification:'Ubuntu Medium';letter-spacing:-2.00039554px;baseline-shift:baseline"
               d="m -384.09454,-384.84336 q 1.85637,-0.73614 3.71274,-1.88837 1.88837,-1.15223 3.32866,-2.72054 h 2.72053 v 22.18039 h -3.87276 v -16.99536 q -0.86417,0.67213 -2.17643,1.31226 -1.31226,0.64012 -2.5285,1.05621 z" />
            <path
               id="path38"
               style="font-style:normal;font-variant:normal;font-weight:500;font-stretch:normal;font-size:32.00632858px;font-family:Ubuntu;-inkscape-font-specification:'Ubuntu Medium';letter-spacing:-2.00039554px;baseline-shift:baseline"
               d="m -367.90384,-384.84336 q 1.85637,-0.73614 3.71274,-1.88837 1.88837,-1.15223 3.32866,-2.72054 h 2.72053 v 22.18039 h -3.87276 v -16.99536 q -0.86417,0.67213 -2.17643,1.31226 -1.31226,0.64012 -2.5285,1.05621 z" />
          </g>
        </g>
      </g>
    </g>
  </g>
</svg>
