<?xml version="1.0" encoding="UTF-8" standalone="no"?>
<svg
   xmlns:dc="http://purl.org/dc/elements/1.1/"
   xmlns:cc="http://creativecommons.org/ns#"
   xmlns:rdf="http://www.w3.org/1999/02/22-rdf-syntax-ns#"
   xmlns:svg="http://www.w3.org/2000/svg"
   xmlns="http://www.w3.org/2000/svg"
   viewBox="0 0 96 96.000001"
   version="1.1"
   id="svg4874"
   height="96"
   width="96">
  <defs
     id="defs4876" />
  <metadata
     id="metadata4879">
    <rdf:RDF>
      <cc:Work
         rdf:about="">
        <dc:format>image/svg+xml</dc:format>
        <dc:type
           rdf:resource="http://purl.org/dc/dcmitype/StillImage" />
        <dc:title />
      </cc:Work>
    </rdf:RDF>
  </metadata>
  <g
     transform="translate(67.857146,-78.50504)"
     id="layer1">
    <g
       style="display:inline"
       id="g4845"
       transform="matrix(0,-1,-1,0,373.50506,516.50504)">
      <g
         id="g4778"
         transform="matrix(-0.9996045,0,0,1,575.94296,-611.00001)">
        <g
           style="display:inline"
           id="g4780"
           transform="matrix(-1,0,0,1,575.99999,611)">
          <path
             id="rect4782"
             d="m -438.00244,345.36221 h 96.03799 v 96 h -96.03799 z"
             style="color:#000000;display:inline;overflow:visible;visibility:visible;fill:none;stroke:none;stroke-width:4;marker:none;enable-background:accumulate"
             transform="scale(-1,1)" />
          <path
             id="path4297"
             d="m 365.97267,345.36126 c -2.6314,0 -4.71356,0.23788 -6.46875,0.89648 -1.75519,0.6586 -3.16115,1.84985 -3.99219,3.35547 -1.66208,3.01124 -1.48476,6.6938 -1.54297,11.72656 v 0.0117 64.02149 0.0117 c 0.0582,5.03276 -0.11911,8.71532 1.54297,11.72656 0.83104,1.50562 2.237,2.69686 3.99219,3.35547 1.75519,0.6586 3.83735,0.89648 6.46875,0.89648 h 48.01952 c 2.6314,0 4.71551,-0.23788 6.4707,-0.89648 1.75519,-0.65861 3.15919,-1.84985 3.99023,-3.35547 1.66209,-3.01124 1.48672,-6.6938 1.54493,-11.72656 v -0.0117 -64.02149 -0.0117 c -0.0582,-5.03276 0.11716,-8.71532 -1.54493,-11.72656 -0.83104,-1.50562 -2.23504,-2.69687 -3.99023,-3.35547 -1.75519,-0.6586 -3.8393,-0.89648 -6.4707,-0.89648 z m 0,4.00195 h 48.01952 c 2.37058,0 4.02426,0.25031 5.06445,0.64063 1.0402,0.39031 1.48966,0.80945 1.89453,1.54297 0.80823,1.46429 0.98613,4.77814 1.04492,9.8164 v 63.97656 c -0.0584,5.05418 -0.23518,8.37086 -1.04492,9.83789 -0.40487,0.73352 -0.85433,1.15266 -1.89453,1.54297 -1.04019,0.39032 -2.69387,0.64063 -5.06445,0.64063 h -48.01952 c -2.37058,0 -4.02426,-0.25031 -5.06446,-0.64063 -1.04019,-0.39031 -1.4877,-0.80945 -1.89258,-1.54297 -0.80835,-1.46451 -0.98616,-4.77682 -1.04492,-9.8164 v -0.0215 -63.95312 -0.0234 c 0.0588,-5.03826 0.23669,-8.35211 1.04492,-9.8164 0.40488,-0.73352 0.85239,-1.15266 1.89258,-1.54297 1.0402,-0.39032 2.69388,-0.64063 5.06446,-0.64063 z"
             style="color:#000000;font-style:normal;font-variant:normal;font-weight:normal;font-stretch:normal;font-size:medium;line-height:normal;font-family:sans-serif;font-variant-ligatures:normal;font-variant-position:normal;font-variant-caps:normal;font-variant-numeric:normal;font-variant-alternates:normal;font-feature-settings:normal;text-indent:0;text-align:start;text-decoration:none;text-decoration-line:none;text-decoration-style:solid;text-decoration-color:#000000;letter-spacing:normal;word-spacing:normal;text-transform:none;writing-mode:lr-tb;direction:ltr;text-orientation:mixed;dominant-baseline:auto;baseline-shift:baseline;text-anchor:start;white-space:normal;shape-padding:0;clip-rule:nonzero;display:inline;overflow:visible;visibility:visible;opacity:1;isolation:auto;mix-blend-mode:normal;color-interpolation:sRGB;color-interpolation-filters:linearRGB;solid-color:#000000;solid-opacity:1;fill:#808080;fill-opacity:1;fill-rule:nonzero;stroke:none;stroke-width:4.00079155;stroke-linecap:butt;stroke-linejoin:miter;stroke-miterlimit:4;stroke-dasharray:none;stroke-dashoffset:0;stroke-opacity:1;marker:none;color-rendering:auto;image-rendering:auto;shape-rendering:auto;text-rendering:auto;enable-background:accumulate" />
          <g
             id="maintext"
             style="font-style:normal;font-variant:normal;font-weight:normal;font-stretch:normal;font-size:48.00949478px;line-height:125%;font-family:Ubuntu;-inkscape-font-specification:Ubuntu;text-align:center;letter-spacing:0px;word-spacing:0px;writing-mode:lr-tb;text-anchor:middle;fill:#808080;fill-opacity:1;stroke:none;stroke-width:1.00019789px;stroke-linecap:butt;stroke-linejoin:miter;stroke-opacity:1"
             transform="matrix(0,-0.99980223,-1.0001978,0,0,0)"
             aria-label="Mk">
            <path
               id="path30"
               style="font-style:normal;font-variant:normal;font-weight:normal;font-stretch:normal;font-size:53.34388351px;font-family:Ubuntu;-inkscape-font-specification:Ubuntu;text-align:center;text-anchor:middle;fill:#808080;fill-opacity:1;stroke-width:1.00019789px"
               d="m -409.35776,-379.39213 q -0.53344,-1.28025 -1.44028,-3.25398 -0.8535,-1.97372 -1.86704,-4.26751 -1.01353,-2.29379 -2.1871,-4.69426 -1.12022,-2.45382 -2.13375,-4.58757 -1.01354,-2.1871 -1.92038,-3.89411 -0.85351,-1.707 -1.38694,-2.61385 -0.58679,6.29458 -0.96019,13.65604 -0.37341,7.30811 -0.64013,14.77625 h -5.06767 q 0.21338,-4.80095 0.4801,-9.65524 0.26671,-4.90764 0.58678,-9.6019 0.37341,-4.74761 0.74681,-9.22849 0.42675,-4.48089 0.90685,-8.48168 h 4.53423 q 1.44028,2.34713 3.09394,5.54776 1.65366,3.20064 3.30732,6.72133 1.65367,3.46736 3.20064,6.98805 1.54697,3.46735 2.82722,6.34792 1.28026,-2.88057 2.82723,-6.34792 1.54697,-3.52069 3.20063,-6.98805 1.65366,-3.52069 3.30732,-6.72133 1.65366,-3.20063 3.09395,-5.54776 h 4.53423 q 1.81369,17.8702 2.72054,36.96731 h -5.06767 q -0.26672,-7.46814 -0.64013,-14.77625 -0.37341,-7.36146 -0.96019,-13.65604 -0.53344,0.90685 -1.44028,2.61385 -0.85351,1.70701 -1.86704,3.89411 -1.01353,2.13375 -2.1871,4.58757 -1.12022,2.40047 -2.13375,4.69426 -1.01354,2.29379 -1.92038,4.26751 -0.85351,1.97373 -1.38695,3.25398 z" />
            <path
               id="path32"
               style="font-style:normal;font-variant:normal;font-weight:normal;font-stretch:normal;font-size:53.34388351px;font-family:Ubuntu;-inkscape-font-specification:Ubuntu;text-align:center;text-anchor:middle;fill:#808080;fill-opacity:1;stroke-width:1.00019789px"
               d="m -369.7716,-389.52747 q 1.60032,1.22691 3.36067,3.0406 1.81369,1.81369 3.52069,3.94745 1.76035,2.08041 3.30732,4.26751 1.54698,2.13376 2.61385,4.00079 h -5.81448 q -1.12022,-1.86703 -2.61385,-3.78741 -1.44028,-1.97373 -3.0406,-3.73408 -1.60032,-1.81369 -3.25398,-3.30732 -1.65366,-1.49363 -3.14729,-2.50716 v 13.33597 h -4.96098 v -40.54135 l 4.96098,-0.8535 v 25.285 q 1.28026,-1.28025 2.82723,-2.82723 1.54697,-1.54697 3.0406,-3.14729 1.49363,-1.60031 2.82723,-3.0406 1.33359,-1.49363 2.29378,-2.61385 h 5.81449 q -1.22691,1.3336 -2.6672,2.93392 -1.44028,1.60031 -2.98725,3.25397 -1.54698,1.60032 -3.14729,3.25398 -1.54698,1.60032 -2.93392,3.0406 z" />
          </g>
        </g>
      </g>
    </g>
  </g>
</svg>
