<?xml version="1.0" encoding="UTF-8" standalone="no"?>
<svg
   xmlns:dc="http://purl.org/dc/elements/1.1/"
   xmlns:cc="http://creativecommons.org/ns#"
   xmlns:rdf="http://www.w3.org/1999/02/22-rdf-syntax-ns#"
   xmlns:svg="http://www.w3.org/2000/svg"
   xmlns="http://www.w3.org/2000/svg"
   viewBox="0 0 96 96.000001"
   version="1.1"
   id="svg4874"
   height="96"
   width="96">
  <defs
     id="defs4876" />
  <metadata
     id="metadata4879">
    <rdf:RDF>
      <cc:Work
         rdf:about="">
        <dc:format>image/svg+xml</dc:format>
        <dc:type
           rdf:resource="http://purl.org/dc/dcmitype/StillImage" />
        <dc:title />
      </cc:Work>
    </rdf:RDF>
  </metadata>
  <g
     transform="translate(67.857146,-78.50504)"
     id="layer1">
    <g
       style="display:inline"
       id="g4845"
       transform="matrix(0,-1,-1,0,373.50506,516.50504)">
      <g
         id="g4778"
         transform="matrix(-0.9996045,0,0,1,575.94296,-611.00001)">
        <g
           style="display:inline"
           id="g4780"
           transform="matrix(-1,0,0,1,575.99999,611)">
          <path
             id="rect4782"
             d="m -438.00244,345.36221 h 96.03799 v 96 h -96.03799 z"
             style="color:#000000;display:inline;overflow:visible;visibility:visible;fill:none;stroke:none;stroke-width:4;marker:none;enable-background:accumulate"
             transform="scale(-1,1)" />
          <path
             id="path4297"
             d="m 365.97267,345.36126 c -2.6314,0 -4.71356,0.23788 -6.46875,0.89648 -1.75519,0.6586 -3.16115,1.84985 -3.99219,3.35547 -1.66208,3.01124 -1.48476,6.6938 -1.54297,11.72656 v 0.0117 64.02149 0.0117 c 0.0582,5.03276 -0.11911,8.71532 1.54297,11.72656 0.83104,1.50562 2.237,2.69686 3.99219,3.35547 1.75519,0.6586 3.83735,0.89648 6.46875,0.89648 h 48.01952 c 2.6314,0 4.71551,-0.23788 6.4707,-0.89648 1.75519,-0.65861 3.15919,-1.84985 3.99023,-3.35547 1.66209,-3.01124 1.48672,-6.6938 1.54493,-11.72656 v -0.0117 -64.02149 -0.0117 c -0.0582,-5.03276 0.11716,-8.71532 -1.54493,-11.72656 -0.83104,-1.50562 -2.23504,-2.69687 -3.99023,-3.35547 -1.75519,-0.6586 -3.8393,-0.89648 -6.4707,-0.89648 z m 0,4.00195 h 48.01952 c 2.37058,0 4.02426,0.25031 5.06445,0.64063 1.0402,0.39031 1.48966,0.80945 1.89453,1.54297 0.80823,1.46429 0.98613,4.77814 1.04492,9.8164 v 63.97656 c -0.0584,5.05418 -0.23518,8.37086 -1.04492,9.83789 -0.40487,0.73352 -0.85433,1.15266 -1.89453,1.54297 -1.04019,0.39032 -2.69387,0.64063 -5.06445,0.64063 h -48.01952 c -2.37058,0 -4.02426,-0.25031 -5.06446,-0.64063 -1.04019,-0.39031 -1.4877,-0.80945 -1.89258,-1.54297 -0.80835,-1.46451 -0.98616,-4.77682 -1.04492,-9.8164 v -0.0215 -63.95312 -0.0234 c 0.0588,-5.03826 0.23669,-8.35211 1.04492,-9.8164 0.40488,-0.73352 0.85239,-1.15266 1.89258,-1.54297 1.0402,-0.39032 2.69388,-0.64063 5.06446,-0.64063 z"
             style="color:#000000;font-style:normal;font-variant:normal;font-weight:normal;font-stretch:normal;font-size:medium;line-height:normal;font-family:sans-serif;font-variant-ligatures:normal;font-variant-position:normal;font-variant-caps:normal;font-variant-numeric:normal;font-variant-alternates:normal;font-feature-settings:normal;text-indent:0;text-align:start;text-decoration:none;text-decoration-line:none;text-decoration-style:solid;text-decoration-color:#000000;letter-spacing:normal;word-spacing:normal;text-transform:none;writing-mode:lr-tb;direction:ltr;text-orientation:mixed;dominant-baseline:auto;baseline-shift:baseline;text-anchor:start;white-space:normal;shape-padding:0;clip-rule:nonzero;display:inline;overflow:visible;visibility:visible;opacity:1;isolation:auto;mix-blend-mode:normal;color-interpolation:sRGB;color-interpolation-filters:linearRGB;solid-color:#000000;solid-opacity:1;fill:#808080;fill-opacity:1;fill-rule:nonzero;stroke:none;stroke-width:4.00079155;stroke-linecap:butt;stroke-linejoin:miter;stroke-miterlimit:4;stroke-dasharray:none;stroke-dashoffset:0;stroke-opacity:1;marker:none;color-rendering:auto;image-rendering:auto;shape-rendering:auto;text-rendering:auto;enable-background:accumulate" />
          <g
             id="maintext"
             style="font-style:normal;font-variant:normal;font-weight:normal;font-stretch:normal;font-size:48.00949478px;line-height:100%;font-family:Ubuntu;-inkscape-font-specification:Ubuntu;text-align:center;letter-spacing:-2.00039554px;word-spacing:0px;writing-mode:lr-tb;text-anchor:middle;fill:#808080;fill-opacity:1;stroke:none;stroke-width:1.00019789px;stroke-linecap:butt;stroke-linejoin:miter;stroke-opacity:1"
             transform="matrix(0,-0.99980223,-1.0001978,0,0,0)"
             aria-label="Ku13">
            <path
               id="path32"
               style="font-size:42.67510605px"
               d="m -408.42201,-407.84573 q -1.32293,1.45095 -2.98726,3.24331 -1.66433,1.74968 -3.49936,3.62738 -1.79235,1.83503 -3.58471,3.62739 -1.79235,1.79235 -3.37133,3.32865 1.83503,1.28026 3.88343,3.15796 2.04841,1.87771 4.01146,4.01146 1.96306,2.13376 3.67006,4.35286 1.74968,2.21911 2.90191,4.22484 h -4.86496 q -1.28026,-2.00573 -2.94459,-4.01146 -1.66432,-2.04841 -3.54203,-3.88344 -1.83503,-1.8777 -3.75541,-3.45668 -1.8777,-1.57898 -3.67006,-2.68853 v 14.04011 h -4.13948 v -29.57385 h 4.13948 v 13.05858 q 1.49363,-1.40828 3.28599,-3.15795 1.79235,-1.79236 3.54203,-3.58471 1.74968,-1.79236 3.28598,-3.41401 1.57898,-1.66433 2.64586,-2.90191 z" />
            <path
               id="path34"
               style="font-size:42.67510605px"
               d="m -388.6481,-378.91201 q -1.36561,0.3414 -3.62739,0.72548 -2.2191,0.38408 -5.16368,0.38408 -2.56051,0 -4.31019,-0.72548 -1.74968,-0.76815 -2.81656,-2.13376 -1.06687,-1.3656 -1.5363,-3.20063 -0.46943,-1.8777 -0.46943,-4.13949 v -12.46113 h 3.96879 v 11.60763 q 0,4.05414 1.28025,5.80382 1.28025,1.74968 4.31019,1.74968 0.64012,0 1.32292,-0.0427 0.68281,-0.0427 1.28026,-0.0854 0.59745,-0.0854 1.06688,-0.12802 0.5121,-0.0854 0.72547,-0.1707 v -18.73438 h 3.96879 z" />
            <path
               id="path36"
               style="font-style:normal;font-variant:normal;font-weight:500;font-stretch:normal;font-size:32.00632858px;font-family:Ubuntu;-inkscape-font-specification:'Ubuntu Medium';letter-spacing:-2.00039554px;baseline-shift:baseline"
               d="m -384.34459,-384.84336 q 1.85637,-0.73614 3.71274,-1.88837 1.88837,-1.15223 3.32866,-2.72054 h 2.72053 v 22.18039 h -3.87276 v -16.99536 q -0.86417,0.67213 -2.17643,1.31226 -1.31226,0.64012 -2.5285,1.05621 z" />
            <path
               id="path38"
               style="font-style:normal;font-variant:normal;font-weight:500;font-stretch:normal;font-size:32.00632858px;font-family:Ubuntu;-inkscape-font-specification:'Ubuntu Medium';letter-spacing:-2.00039554px;baseline-shift:baseline"
               d="m -363.48096,-366.79179 q -0.86417,0 -1.79236,-0.12802 -0.89617,-0.096 -1.72834,-0.28806 -0.80016,-0.16003 -1.47229,-0.35207 -0.67213,-0.22404 -1.0242,-0.41608 l 0.76815,-3.29665 q 0.67213,0.32006 1.95239,0.73614 1.28025,0.38408 3.16862,0.38408 2.5285,0 3.64872,-0.96019 1.12023,-0.9922 1.12023,-2.62452 0,-1.05621 -0.44809,-1.76035 -0.41608,-0.70414 -1.18424,-1.12022 -0.73614,-0.44809 -1.72834,-0.60812 -0.96019,-0.19204 -2.0484,-0.19204 h -1.31226 v -3.13662 h 1.60031 q 0.73615,0 1.47229,-0.12802 0.76816,-0.16003 1.37628,-0.5121 0.60812,-0.38408 0.99219,-0.9922 0.38408,-0.60812 0.38408,-1.56831 0,-0.76815 -0.28806,-1.31226 -0.28805,-0.54411 -0.76815,-0.89618 -0.44809,-0.35207 -1.05621,-0.5121 -0.60812,-0.16003 -1.28025,-0.16003 -1.44029,0 -2.56051,0.44809 -1.12022,0.41608 -1.98439,0.96019 l -1.40828,-2.88057 q 0.44809,-0.28806 1.08822,-0.60812 0.64012,-0.32006 1.40827,-0.60812 0.80016,-0.28806 1.69634,-0.44809 0.89618,-0.19204 1.88837,-0.19204 1.85637,0 3.20064,0.44809 1.34426,0.44809 2.20843,1.28025 0.89618,0.80016 1.31226,1.92038 0.44809,1.08822 0.44809,2.40048 0,1.5363 -0.86417,2.75254 -0.83216,1.21624 -2.17643,1.85637 1.72834,0.60812 2.84856,2.0164 1.15223,1.40828 1.15223,3.61671 0,1.47229 -0.5121,2.75255 -0.5121,1.24824 -1.56831,2.17643 -1.05621,0.89617 -2.68853,1.44028 -1.60032,0.5121 -3.84076,0.5121 z" />
          </g>
        </g>
      </g>
    </g>
  </g>
</svg>
