<?xml version="1.0" encoding="UTF-8" standalone="no"?>
<svg
   xmlns:dc="http://purl.org/dc/elements/1.1/"
   xmlns:cc="http://creativecommons.org/ns#"
   xmlns:rdf="http://www.w3.org/1999/02/22-rdf-syntax-ns#"
   xmlns:svg="http://www.w3.org/2000/svg"
   xmlns="http://www.w3.org/2000/svg"
   viewBox="0 0 96 96.000001"
   version="1.1"
   id="svg4874"
   height="96"
   width="96">
  <defs
     id="defs4876" />
  <metadata
     id="metadata4879">
    <rdf:RDF>
      <cc:Work
         rdf:about="">
        <dc:format>image/svg+xml</dc:format>
        <dc:type
           rdf:resource="http://purl.org/dc/dcmitype/StillImage" />
        <dc:title />
      </cc:Work>
    </rdf:RDF>
  </metadata>
  <g
     transform="translate(67.857146,-78.50504)"
     id="layer1">
    <g
       style="display:inline"
       id="g4845"
       transform="matrix(0,-1,-1,0,373.50506,516.50504)">
      <g
         id="g4778"
         transform="matrix(-0.9996045,0,0,1,575.94296,-611.00001)">
        <g
           style="display:inline"
           id="g4780"
           transform="matrix(-1,0,0,1,575.99999,611)">
          <path
             id="rect4782"
             d="m -438.00244,345.36221 h 96.03799 v 96 h -96.03799 z"
             style="color:#000000;display:inline;overflow:visible;visibility:visible;fill:none;stroke:none;stroke-width:4;marker:none;enable-background:accumulate"
             transform="scale(-1,1)" />
          <path
             id="path4297"
             d="m 365.97267,345.36126 c -2.6314,0 -4.71356,0.23788 -6.46875,0.89648 -1.75519,0.6586 -3.16115,1.84985 -3.99219,3.35547 -1.66208,3.01124 -1.48476,6.6938 -1.54297,11.72656 v 0.0117 64.02149 0.0117 c 0.0582,5.03276 -0.11911,8.71532 1.54297,11.72656 0.83104,1.50562 2.237,2.69686 3.99219,3.35547 1.75519,0.6586 3.83735,0.89648 6.46875,0.89648 h 48.01952 c 2.6314,0 4.71551,-0.23788 6.4707,-0.89648 1.75519,-0.65861 3.15919,-1.84985 3.99023,-3.35547 1.66209,-3.01124 1.48672,-6.6938 1.54493,-11.72656 v -0.0117 -64.02149 -0.0117 c -0.0582,-5.03276 0.11716,-8.71532 -1.54493,-11.72656 -0.83104,-1.50562 -2.23504,-2.69687 -3.99023,-3.35547 -1.75519,-0.6586 -3.8393,-0.89648 -6.4707,-0.89648 z m 0,4.00195 h 48.01952 c 2.37058,0 4.02426,0.25031 5.06445,0.64063 1.0402,0.39031 1.48966,0.80945 1.89453,1.54297 0.80823,1.46429 0.98613,4.77814 1.04492,9.8164 v 63.97656 c -0.0584,5.05418 -0.23518,8.37086 -1.04492,9.83789 -0.40487,0.73352 -0.85433,1.15266 -1.89453,1.54297 -1.04019,0.39032 -2.69387,0.64063 -5.06445,0.64063 h -48.01952 c -2.37058,0 -4.02426,-0.25031 -5.06446,-0.64063 -1.04019,-0.39031 -1.4877,-0.80945 -1.89258,-1.54297 -0.80835,-1.46451 -0.98616,-4.77682 -1.04492,-9.8164 v -0.0215 -63.95312 -0.0234 c 0.0588,-5.03826 0.23669,-8.35211 1.04492,-9.8164 0.40488,-0.73352 0.85239,-1.15266 1.89258,-1.54297 1.0402,-0.39032 2.69388,-0.64063 5.06446,-0.64063 z"
             style="color:#000000;font-style:normal;font-variant:normal;font-weight:normal;font-stretch:normal;font-size:medium;line-height:normal;font-family:sans-serif;font-variant-ligatures:normal;font-variant-position:normal;font-variant-caps:normal;font-variant-numeric:normal;font-variant-alternates:normal;font-feature-settings:normal;text-indent:0;text-align:start;text-decoration:none;text-decoration-line:none;text-decoration-style:solid;text-decoration-color:#000000;letter-spacing:normal;word-spacing:normal;text-transform:none;writing-mode:lr-tb;direction:ltr;text-orientation:mixed;dominant-baseline:auto;baseline-shift:baseline;text-anchor:start;white-space:normal;shape-padding:0;clip-rule:nonzero;display:inline;overflow:visible;visibility:visible;opacity:1;isolation:auto;mix-blend-mode:normal;color-interpolation:sRGB;color-interpolation-filters:linearRGB;solid-color:#000000;solid-opacity:1;fill:#808080;fill-opacity:1;fill-rule:nonzero;stroke:none;stroke-width:4.00079155;stroke-linecap:butt;stroke-linejoin:miter;stroke-miterlimit:4;stroke-dasharray:none;stroke-dashoffset:0;stroke-opacity:1;marker:none;color-rendering:auto;image-rendering:auto;shape-rendering:auto;text-rendering:auto;enable-background:accumulate" />
          <g
             id="maintext"
             style="font-style:normal;font-variant:normal;font-weight:normal;font-stretch:normal;font-size:48.00949478px;line-height:100%;font-family:Ubuntu;-inkscape-font-specification:Ubuntu;text-align:center;letter-spacing:-2.00039554px;word-spacing:0px;writing-mode:lr-tb;text-anchor:middle;fill:#808080;fill-opacity:1;stroke:none;stroke-width:1.00019789px;stroke-linecap:butt;stroke-linejoin:miter;stroke-opacity:1"
             transform="matrix(0,-0.99980223,-1.0001978,0,0,0)"
             aria-label="Ru7">
            <path
               id="path31"
               style="font-style:normal;font-variant:normal;font-weight:normal;font-stretch:normal;font-size:48.00949478px;line-height:100%;font-family:Ubuntu;-inkscape-font-specification:Ubuntu;text-align:center;letter-spacing:-0.50009888px;text-anchor:middle;fill:#808080;fill-opacity:1;stroke-width:1.00019789px"
               d="m -411.57093,-390.19424 q 0.76815,0.96019 1.92038,2.54451 1.20024,1.5363 2.44848,3.45668 1.24825,1.87237 2.44849,3.93678 1.24824,2.06441 2.11242,3.98479 h -5.08901 q -0.96019,-1.82437 -2.11242,-3.69674 -1.10422,-1.87237 -2.25644,-3.5527 -1.15223,-1.72834 -2.30446,-3.21663 -1.10422,-1.4883 -2.0164,-2.59252 -0.62412,0.048 -1.29626,0.048 -0.62412,0 -1.29625,0 h -4.17683 v 13.01058 h -4.65692 v -32.79049 q 1.96839,-0.48009 4.36886,-0.62412 2.44849,-0.19204 4.46489,-0.19204 7.00938,0 10.65811,2.64052 3.69673,2.64052 3.69673,7.87356 0,3.31265 -1.77635,5.66512 -1.72835,2.35246 -5.13702,3.50469 z m -7.0574,-15.60308 q -2.97658,0 -4.5609,0.14402 v 12.53048 h 3.31266 q 2.40047,0 4.32085,-0.24004 1.92038,-0.24005 3.21664,-0.91218 1.34426,-0.67214 2.06441,-1.87238 0.72014,-1.24824 0.72014,-3.26464 0,-1.87237 -0.72014,-3.12062 -0.72015,-1.24824 -1.96839,-1.96839 -1.20024,-0.72014 -2.88057,-1.0082 -1.63233,-0.28805 -3.5047,-0.28805 z" />
            <path
               id="path33"
               style="font-style:normal;font-variant:normal;font-weight:normal;font-stretch:normal;font-size:48.00949478px;line-height:100%;font-family:Ubuntu;-inkscape-font-specification:Ubuntu;text-align:center;letter-spacing:-0.50009888px;text-anchor:middle;fill:#808080;fill-opacity:1;stroke-width:1.00019789px"
               d="m -378.5649,-376.99163 q -1.53631,0.38408 -4.08081,0.81616 -2.49649,0.43209 -5.80915,0.43209 -2.88057,0 -4.84896,-0.81616 -1.96839,-0.86417 -3.16862,-2.40048 -1.20024,-1.5363 -1.72835,-3.60071 -0.5281,-2.11242 -0.5281,-4.65692 v -14.01877 h 4.46488 v 13.05858 q 0,4.5609 1.44029,6.52929 1.44028,1.96839 4.84896,1.96839 0.72014,0 1.48829,-0.048 0.76815,-0.048 1.44029,-0.096 0.67213,-0.096 1.20023,-0.14403 0.57612,-0.096 0.81616,-0.19203 v -21.07617 h 4.46489 z" />
            <path
               id="path35"
               style="font-style:normal;font-variant:normal;font-weight:500;font-stretch:normal;font-size:37.34071732px;font-family:Ubuntu;-inkscape-font-specification:'Ubuntu Medium';letter-spacing:-0.50009888px;baseline-shift:baseline"
               d="m -369.46327,-366.27148 q 0.22405,-2.8379 1.0082,-5.97452 0.78416,-3.13662 1.90438,-6.08654 1.15756,-2.98725 2.50183,-5.56376 1.3816,-2.61385 2.72587,-4.36887 h -11.91169 v -3.88343 h 17.28875 v 3.43534 q -1.23224,1.38161 -2.68853,3.77142 -1.45629,2.3898 -2.76321,5.4144 -1.30693,2.98726 -2.27779,6.4226 -0.93352,3.43535 -1.15756,6.83336 z" />
          </g>
        </g>
      </g>
    </g>
  </g>
</svg>
