<?xml version="1.0" encoding="UTF-8" standalone="no"?>
<svg
   xmlns:dc="http://purl.org/dc/elements/1.1/"
   xmlns:cc="http://creativecommons.org/ns#"
   xmlns:rdf="http://www.w3.org/1999/02/22-rdf-syntax-ns#"
   xmlns:svg="http://www.w3.org/2000/svg"
   xmlns="http://www.w3.org/2000/svg"
   viewBox="0 0 96 96.000001"
   version="1.1"
   id="svg4874"
   height="96"
   width="96">
  <defs
     id="defs4876" />
  <metadata
     id="metadata4879">
    <rdf:RDF>
      <cc:Work
         rdf:about="">
        <dc:format>image/svg+xml</dc:format>
        <dc:type
           rdf:resource="http://purl.org/dc/dcmitype/StillImage" />
        <dc:title />
      </cc:Work>
    </rdf:RDF>
  </metadata>
  <g
     transform="translate(67.857146,-78.50504)"
     id="layer1">
    <g
       style="display:inline"
       id="g4845"
       transform="matrix(0,-1,-1,0,373.50506,516.50504)">
      <g
         id="g4778"
         transform="matrix(-0.9996045,0,0,1,575.94296,-611.00001)">
        <g
           style="display:inline"
           id="g4780"
           transform="matrix(-1,0,0,1,575.99999,611)">
          <path
             id="rect4782"
             d="m -438.00244,345.36221 h 96.03799 v 96 h -96.03799 z"
             style="color:#000000;display:inline;overflow:visible;visibility:visible;fill:none;stroke:none;stroke-width:4;marker:none;enable-background:accumulate"
             transform="scale(-1,1)" />
          <path
             id="path4297"
             d="m 365.97267,345.36126 c -2.6314,0 -4.71356,0.23788 -6.46875,0.89648 -1.75519,0.6586 -3.16115,1.84985 -3.99219,3.35547 -1.66208,3.01124 -1.48476,6.6938 -1.54297,11.72656 v 0.0117 64.02149 0.0117 c 0.0582,5.03276 -0.11911,8.71532 1.54297,11.72656 0.83104,1.50562 2.237,2.69686 3.99219,3.35547 1.75519,0.6586 3.83735,0.89648 6.46875,0.89648 h 48.01952 c 2.6314,0 4.71551,-0.23788 6.4707,-0.89648 1.75519,-0.65861 3.15919,-1.84985 3.99023,-3.35547 1.66209,-3.01124 1.48672,-6.6938 1.54493,-11.72656 v -0.0117 -64.02149 -0.0117 c -0.0582,-5.03276 0.11716,-8.71532 -1.54493,-11.72656 -0.83104,-1.50562 -2.23504,-2.69687 -3.99023,-3.35547 -1.75519,-0.6586 -3.8393,-0.89648 -6.4707,-0.89648 z m 0,4.00195 h 48.01952 c 2.37058,0 4.02426,0.25031 5.06445,0.64063 1.0402,0.39031 1.48966,0.80945 1.89453,1.54297 0.80823,1.46429 0.98613,4.77814 1.04492,9.8164 v 63.97656 c -0.0584,5.05418 -0.23518,8.37086 -1.04492,9.83789 -0.40487,0.73352 -0.85433,1.15266 -1.89453,1.54297 -1.04019,0.39032 -2.69387,0.64063 -5.06445,0.64063 h -48.01952 c -2.37058,0 -4.02426,-0.25031 -5.06446,-0.64063 -1.04019,-0.39031 -1.4877,-0.80945 -1.89258,-1.54297 -0.80835,-1.46451 -0.98616,-4.77682 -1.04492,-9.8164 v -0.0215 -63.95312 -0.0234 c 0.0588,-5.03826 0.23669,-8.35211 1.04492,-9.8164 0.40488,-0.73352 0.85239,-1.15266 1.89258,-1.54297 1.0402,-0.39032 2.69388,-0.64063 5.06446,-0.64063 z"
             style="color:#000000;font-style:normal;font-variant:normal;font-weight:normal;font-stretch:normal;font-size:medium;line-height:normal;font-family:sans-serif;font-variant-ligatures:normal;font-variant-position:normal;font-variant-caps:normal;font-variant-numeric:normal;font-variant-alternates:normal;font-feature-settings:normal;text-indent:0;text-align:start;text-decoration:none;text-decoration-line:none;text-decoration-style:solid;text-decoration-color:#000000;letter-spacing:normal;word-spacing:normal;text-transform:none;writing-mode:lr-tb;direction:ltr;text-orientation:mixed;dominant-baseline:auto;baseline-shift:baseline;text-anchor:start;white-space:normal;shape-padding:0;clip-rule:nonzero;display:inline;overflow:visible;visibility:visible;opacity:1;isolation:auto;mix-blend-mode:normal;color-interpolation:sRGB;color-interpolation-filters:linearRGB;solid-color:#000000;solid-opacity:1;fill:#808080;fill-opacity:1;fill-rule:nonzero;stroke:none;stroke-width:4.00079155;stroke-linecap:butt;stroke-linejoin:miter;stroke-miterlimit:4;stroke-dasharray:none;stroke-dashoffset:0;stroke-opacity:1;marker:none;color-rendering:auto;image-rendering:auto;shape-rendering:auto;text-rendering:auto;enable-background:accumulate" />
          <g
             id="maintext"
             style="font-style:normal;font-variant:normal;font-weight:normal;font-stretch:normal;font-size:48.00949478px;line-height:100%;font-family:Ubuntu;-inkscape-font-specification:Ubuntu;text-align:center;letter-spacing:-2.00039554px;word-spacing:0px;writing-mode:lr-tb;text-anchor:middle;fill:#808080;fill-opacity:1;stroke:none;stroke-width:1.00019789px;stroke-linecap:butt;stroke-linejoin:miter;stroke-opacity:1"
             transform="matrix(0,-0.99980223,-1.0001978,0,0,0)"
             aria-label="Hu20">
            <path
               id="path32"
               style="font-size:42.67510605px"
               d="m -413.62504,-407.84573 h 4.13948 v 29.57385 h -4.13948 v -13.65604 h -14.46686 v 13.65604 h -4.13949 v -29.57385 h 4.13949 v 12.33311 h 14.46686 z" />
            <path
               id="path34"
               style="font-size:42.67510605px"
               d="m -386.73106,-378.91201 q -1.3656,0.3414 -3.62738,0.72548 -2.21911,0.38408 -5.16369,0.38408 -2.56051,0 -4.31018,-0.72548 -1.74968,-0.76815 -2.81656,-2.13376 -1.06688,-1.3656 -1.53631,-3.20063 -0.46942,-1.8777 -0.46942,-4.13949 v -12.46113 h 3.96878 v 11.60763 q 0,4.05414 1.28026,5.80382 1.28025,1.74968 4.31018,1.74968 0.64013,0 1.32293,-0.0427 0.6828,-0.0427 1.28025,-0.0854 0.59745,-0.0854 1.06688,-0.12802 0.5121,-0.0854 0.72548,-0.1707 v -18.73438 h 3.96878 z" />
            <path
               id="path36"
               style="font-style:normal;font-variant:normal;font-weight:500;font-stretch:normal;font-size:32.00632858px;font-family:Ubuntu;-inkscape-font-specification:'Ubuntu Medium';letter-spacing:-2.00039554px;baseline-shift:baseline"
               d="m -369.91307,-383.69113 q 0,1.15223 -0.48009,2.27245 -0.4801,1.08822 -1.24825,2.14443 -0.73614,1.0242 -1.69633,2.01639 -0.96019,0.96019 -1.92038,1.88838 -0.5121,0.48009 -1.15223,1.15223 -0.64013,0.67213 -1.21624,1.34426 -0.57611,0.67213 -0.9922,1.31226 -0.41608,0.60812 -0.44809,1.0242 h 9.85795 v 3.26465 h -14.11479 q -0.032,-0.25605 -0.032,-0.60812 0,-0.38408 0,-0.57612 0,-1.5363 0.48009,-2.81655 0.5121,-1.31226 1.31226,-2.43248 0.80016,-1.12022 1.79235,-2.11242 0.9922,-0.9922 1.9844,-1.95239 0.76815,-0.73614 1.47229,-1.44028 0.70414,-0.70414 1.21624,-1.37627 0.54411,-0.70414 0.86417,-1.40828 0.32006,-0.73615 0.32006,-1.5043 0,-1.66433 -0.96019,-2.36847 -0.96019,-0.70414 -2.33646,-0.70414 -0.89618,0 -1.66433,0.25605 -0.76815,0.25605 -1.37627,0.60812 -0.57611,0.35207 -1.0242,0.73615 -0.44809,0.35207 -0.67214,0.57611 l -1.92038,-2.72053 q 1.34427,-1.28026 3.13663,-2.04841 1.82436,-0.80016 3.90477,-0.80016 3.5527,0 5.21703,1.69634 1.69633,1.66433 1.69633,4.5769 z" />
            <path
               id="path38"
               style="font-style:normal;font-variant:normal;font-weight:500;font-stretch:normal;font-size:32.00632858px;font-family:Ubuntu;-inkscape-font-specification:'Ubuntu Medium';letter-spacing:-2.00039554px;baseline-shift:baseline"
               d="m -352.31408,-378.37808 q 0,5.60111 -2.04841,8.60971 -2.0484,2.97658 -5.66512,2.97658 -3.61671,0 -5.66512,-2.97658 -2.0484,-3.0086 -2.0484,-8.60971 0,-2.78455 0.5121,-4.92897 0.54411,-2.17643 1.5363,-3.64872 1.0242,-1.47229 2.43248,-2.24045 1.44029,-0.76815 3.23264,-0.76815 3.61672,0 5.66512,3.0086 2.04841,2.97659 2.04841,8.57769 z m -4.00079,0 q 0,-1.72834 -0.19204,-3.23264 -0.19204,-1.50429 -0.64013,-2.59251 -0.41608,-1.12022 -1.12022,-1.76035 -0.70414,-0.64012 -1.76035,-0.64012 -1.05621,0 -1.79235,0.64012 -0.70414,0.64013 -1.15223,1.76035 -0.41608,1.08822 -0.60812,2.59251 -0.16003,1.5043 -0.16003,3.23264 0,1.72834 0.16003,3.23264 0.19204,1.5043 0.60812,2.62452 0.44809,1.08822 1.15223,1.72834 0.73614,0.64013 1.79235,0.64013 1.05621,0 1.76035,-0.64013 0.70414,-0.64012 1.12022,-1.72834 0.44809,-1.12022 0.64013,-2.62452 0.19204,-1.5043 0.19204,-3.23264 z" />
          </g>
        </g>
      </g>
    </g>
  </g>
</svg>
