<?xml version="1.0" encoding="UTF-8" standalone="no"?>
<svg
   xmlns:dc="http://purl.org/dc/elements/1.1/"
   xmlns:cc="http://creativecommons.org/ns#"
   xmlns:rdf="http://www.w3.org/1999/02/22-rdf-syntax-ns#"
   xmlns:svg="http://www.w3.org/2000/svg"
   xmlns="http://www.w3.org/2000/svg"
   viewBox="0 0 96 96.000001"
   version="1.1"
   id="svg4874"
   height="96"
   width="96">
  <defs
     id="defs4876" />
  <metadata
     id="metadata4879">
    <rdf:RDF>
      <cc:Work
         rdf:about="">
        <dc:format>image/svg+xml</dc:format>
        <dc:type
           rdf:resource="http://purl.org/dc/dcmitype/StillImage" />
        <dc:title />
      </cc:Work>
    </rdf:RDF>
  </metadata>
  <g
     transform="translate(67.857146,-78.50504)"
     id="layer1">
    <g
       style="display:inline"
       id="g4845"
       transform="matrix(0,-1,-1,0,373.50506,516.50504)">
      <g
         id="g4778"
         transform="matrix(-0.9996045,0,0,1,575.94296,-611.00001)">
        <g
           style="display:inline"
           id="g4780"
           transform="matrix(-1,0,0,1,575.99999,611)">
          <path
             id="rect4782"
             d="m -438.00244,345.36221 h 96.03799 v 96 h -96.03799 z"
             style="color:#000000;display:inline;overflow:visible;visibility:visible;fill:none;stroke:none;stroke-width:4;marker:none;enable-background:accumulate"
             transform="scale(-1,1)" />
          <path
             id="path4297"
             d="m 365.97267,345.36126 c -2.6314,0 -4.71356,0.23788 -6.46875,0.89648 -1.75519,0.6586 -3.16115,1.84985 -3.99219,3.35547 -1.66208,3.01124 -1.48476,6.6938 -1.54297,11.72656 v 0.0117 64.02149 0.0117 c 0.0582,5.03276 -0.11911,8.71532 1.54297,11.72656 0.83104,1.50562 2.237,2.69686 3.99219,3.35547 1.75519,0.6586 3.83735,0.89648 6.46875,0.89648 h 48.01952 c 2.6314,0 4.71551,-0.23788 6.4707,-0.89648 1.75519,-0.65861 3.15919,-1.84985 3.99023,-3.35547 1.66209,-3.01124 1.48672,-6.6938 1.54493,-11.72656 v -0.0117 -64.02149 -0.0117 c -0.0582,-5.03276 0.11716,-8.71532 -1.54493,-11.72656 -0.83104,-1.50562 -2.23504,-2.69687 -3.99023,-3.35547 -1.75519,-0.6586 -3.8393,-0.89648 -6.4707,-0.89648 z m 0,4.00195 h 48.01952 c 2.37058,0 4.02426,0.25031 5.06445,0.64063 1.0402,0.39031 1.48966,0.80945 1.89453,1.54297 0.80823,1.46429 0.98613,4.77814 1.04492,9.8164 v 63.97656 c -0.0584,5.05418 -0.23518,8.37086 -1.04492,9.83789 -0.40487,0.73352 -0.85433,1.15266 -1.89453,1.54297 -1.04019,0.39032 -2.69387,0.64063 -5.06445,0.64063 h -48.01952 c -2.37058,0 -4.02426,-0.25031 -5.06446,-0.64063 -1.04019,-0.39031 -1.4877,-0.80945 -1.89258,-1.54297 -0.80835,-1.46451 -0.98616,-4.77682 -1.04492,-9.8164 v -0.0215 -63.95312 -0.0234 c 0.0588,-5.03826 0.23669,-8.35211 1.04492,-9.8164 0.40488,-0.73352 0.85239,-1.15266 1.89258,-1.54297 1.0402,-0.39032 2.69388,-0.64063 5.06446,-0.64063 z"
             style="color:#000000;font-style:normal;font-variant:normal;font-weight:normal;font-stretch:normal;font-size:medium;line-height:normal;font-family:sans-serif;font-variant-ligatures:normal;font-variant-position:normal;font-variant-caps:normal;font-variant-numeric:normal;font-variant-alternates:normal;font-feature-settings:normal;text-indent:0;text-align:start;text-decoration:none;text-decoration-line:none;text-decoration-style:solid;text-decoration-color:#000000;letter-spacing:normal;word-spacing:normal;text-transform:none;writing-mode:lr-tb;direction:ltr;text-orientation:mixed;dominant-baseline:auto;baseline-shift:baseline;text-anchor:start;white-space:normal;shape-padding:0;clip-rule:nonzero;display:inline;overflow:visible;visibility:visible;opacity:1;isolation:auto;mix-blend-mode:normal;color-interpolation:sRGB;color-interpolation-filters:linearRGB;solid-color:#000000;solid-opacity:1;fill:#808080;fill-opacity:1;fill-rule:nonzero;stroke:none;stroke-width:4.00079155;stroke-linecap:butt;stroke-linejoin:miter;stroke-miterlimit:4;stroke-dasharray:none;stroke-dashoffset:0;stroke-opacity:1;marker:none;color-rendering:auto;image-rendering:auto;shape-rendering:auto;text-rendering:auto;enable-background:accumulate" />
          <g
             id="maintext"
             style="font-style:normal;font-variant:normal;font-weight:normal;font-stretch:normal;font-size:48.00949478px;line-height:125%;font-family:Ubuntu;-inkscape-font-specification:Ubuntu;text-align:center;letter-spacing:0px;word-spacing:0px;writing-mode:lr-tb;text-anchor:middle;fill:#808080;fill-opacity:1;stroke:none;stroke-width:1.00019789px;stroke-linecap:butt;stroke-linejoin:miter;stroke-opacity:1"
             transform="matrix(0,-0.99980223,-1.0001978,0,0,0)"
             aria-label="Cm">
            <path
               id="path30"
               style="font-style:normal;font-variant:normal;font-weight:normal;font-stretch:normal;font-size:53.34388351px;font-family:Ubuntu;-inkscape-font-specification:Ubuntu;text-align:center;text-anchor:middle;fill:#808080;fill-opacity:1;stroke-width:1.00019789px"
               d="m -412.39544,-373.47096 q -3.89411,0 -7.09474,-1.28025 -3.20063,-1.28026 -5.49442,-3.73407 -2.29379,-2.45382 -3.57404,-6.02786 -1.22691,-3.62739 -1.22691,-8.26831 0,-4.64091 1.38694,-8.21495 1.44029,-3.62739 3.84076,-6.08121 2.40048,-2.45382 5.60111,-3.73407 3.20063,-1.28025 6.82802,-1.28025 2.29378,0 4.10748,0.32006 1.86703,0.32007 3.20063,0.74682 1.38694,0.42675 2.24044,0.8535 0.8535,0.42675 1.17357,0.64012 l -1.49363,4.26752 q -0.4801,-0.32007 -1.38694,-0.69347 -0.90685,-0.37341 -2.08041,-0.74682 -1.12022,-0.37341 -2.50717,-0.58678 -1.33359,-0.26672 -2.72053,-0.26672 -2.93392,0 -5.28105,1.01353 -2.34713,1.01354 -4.00079,2.93392 -1.65366,1.92038 -2.56051,4.69426 -0.8535,2.72054 -0.8535,6.13454 0,3.30733 0.74682,6.02786 0.80015,2.72054 2.34713,4.69426 1.54697,1.92038 3.84076,2.98726 2.34713,1.06688 5.44107,1.06688 3.57404,0 5.92117,-0.74681 2.34713,-0.74682 3.5207,-1.3336 l 1.3336,4.26751 q -0.37341,0.26672 -1.3336,0.69347 -0.96019,0.37341 -2.40047,0.74681 -1.44029,0.37341 -3.36067,0.64013 -1.92038,0.26672 -4.16082,0.26672 z" />
            <path
               id="path32"
               style="font-style:normal;font-variant:normal;font-weight:normal;font-stretch:normal;font-size:53.34388351px;font-family:Ubuntu;-inkscape-font-specification:Ubuntu;text-align:center;text-anchor:middle;fill:#808080;fill-opacity:1;stroke-width:1.00019789px"
               d="m -395.58462,-401.20978 q 1.70701,-0.42675 4.48089,-0.90685 2.82723,-0.48009 6.50795,-0.48009 2.6672,0 4.48089,0.74681 1.81369,0.69347 3.0406,2.08042 0.37341,-0.26672 1.17357,-0.74682 0.80016,-0.48009 1.97372,-0.90684 1.17357,-0.4801 2.61385,-0.80016 1.44029,-0.37341 3.09395,-0.37341 3.20063,0 5.2277,0.96019 2.02706,0.90685 3.14729,2.61385 1.17356,1.707 1.54697,4.05414 0.42675,2.34713 0.42675,5.12101 v 15.57641 h -4.96098 v -14.50953 q 0,-2.45382 -0.26672,-4.21417 -0.21338,-1.76035 -0.90685,-2.93391 -0.64012,-1.17357 -1.81369,-1.70701 -1.12022,-0.58678 -2.93391,-0.58678 -2.50717,0 -4.16083,0.69347 -1.60031,0.64013 -2.18709,1.17356 0.42675,1.38695 0.64012,3.04061 0.21338,1.65366 0.21338,3.46735 v 15.57641 h -4.96098 v -14.50953 q 0,-2.45382 -0.26672,-4.21417 -0.26672,-1.76035 -0.96019,-2.93391 -0.64013,-1.17357 -1.8137,-1.70701 -1.12022,-0.58678 -2.88056,-0.58678 -0.74682,0 -1.60032,0.0533 -0.8535,0.0533 -1.65366,0.16003 -0.74682,0.0533 -1.38694,0.16004 -0.64013,0.10668 -0.8535,0.16003 v 23.41796 h -4.96099 z" />
          </g>
        </g>
      </g>
    </g>
  </g>
</svg>
