<?xml version="1.0" encoding="UTF-8" standalone="no"?>
<svg
   xmlns:dc="http://purl.org/dc/elements/1.1/"
   xmlns:cc="http://creativecommons.org/ns#"
   xmlns:rdf="http://www.w3.org/1999/02/22-rdf-syntax-ns#"
   xmlns:svg="http://www.w3.org/2000/svg"
   xmlns="http://www.w3.org/2000/svg"
   viewBox="0 0 96 96.000001"
   version="1.1"
   id="svg4874"
   height="96"
   width="96">
  <defs
     id="defs4876" />
  <metadata
     id="metadata4879">
    <rdf:RDF>
      <cc:Work
         rdf:about="">
        <dc:format>image/svg+xml</dc:format>
        <dc:type
           rdf:resource="http://purl.org/dc/dcmitype/StillImage" />
        <dc:title />
      </cc:Work>
    </rdf:RDF>
  </metadata>
  <g
     transform="translate(67.857146,-78.50504)"
     id="layer1">
    <g
       style="display:inline"
       id="g4845"
       transform="matrix(0,-1,-1,0,373.50506,516.50504)">
      <g
         id="g4778"
         transform="matrix(-0.9996045,0,0,1,575.94296,-611.00001)">
        <g
           style="display:inline"
           id="g4780"
           transform="matrix(-1,0,0,1,575.99999,611)">
          <path
             id="rect4782"
             d="m -438.00244,345.36221 h 96.03799 v 96 h -96.03799 z"
             style="color:#000000;display:inline;overflow:visible;visibility:visible;fill:none;stroke:none;stroke-width:4;marker:none;enable-background:accumulate"
             transform="scale(-1,1)" />
          <path
             id="path4297"
             d="m 365.97267,345.36126 c -2.6314,0 -4.71356,0.23788 -6.46875,0.89648 -1.75519,0.6586 -3.16115,1.84985 -3.99219,3.35547 -1.66208,3.01124 -1.48476,6.6938 -1.54297,11.72656 v 0.0117 64.02149 0.0117 c 0.0582,5.03276 -0.11911,8.71532 1.54297,11.72656 0.83104,1.50562 2.237,2.69686 3.99219,3.35547 1.75519,0.6586 3.83735,0.89648 6.46875,0.89648 h 48.01952 c 2.6314,0 4.71551,-0.23788 6.4707,-0.89648 1.75519,-0.65861 3.15919,-1.84985 3.99023,-3.35547 1.66209,-3.01124 1.48672,-6.6938 1.54493,-11.72656 v -0.0117 -64.02149 -0.0117 c -0.0582,-5.03276 0.11716,-8.71532 -1.54493,-11.72656 -0.83104,-1.50562 -2.23504,-2.69687 -3.99023,-3.35547 -1.75519,-0.6586 -3.8393,-0.89648 -6.4707,-0.89648 z m 0,4.00195 h 48.01952 c 2.37058,0 4.02426,0.25031 5.06445,0.64063 1.0402,0.39031 1.48966,0.80945 1.89453,1.54297 0.80823,1.46429 0.98613,4.77814 1.04492,9.8164 v 63.97656 c -0.0584,5.05418 -0.23518,8.37086 -1.04492,9.83789 -0.40487,0.73352 -0.85433,1.15266 -1.89453,1.54297 -1.04019,0.39032 -2.69387,0.64063 -5.06445,0.64063 h -48.01952 c -2.37058,0 -4.02426,-0.25031 -5.06446,-0.64063 -1.04019,-0.39031 -1.4877,-0.80945 -1.89258,-1.54297 -0.80835,-1.46451 -0.98616,-4.77682 -1.04492,-9.8164 v -0.0215 -63.95312 -0.0234 c 0.0588,-5.03826 0.23669,-8.35211 1.04492,-9.8164 0.40488,-0.73352 0.85239,-1.15266 1.89258,-1.54297 1.0402,-0.39032 2.69388,-0.64063 5.06446,-0.64063 z"
             style="color:#000000;font-style:normal;font-variant:normal;font-weight:normal;font-stretch:normal;font-size:medium;line-height:normal;font-family:sans-serif;font-variant-ligatures:normal;font-variant-position:normal;font-variant-caps:normal;font-variant-numeric:normal;font-variant-alternates:normal;font-feature-settings:normal;text-indent:0;text-align:start;text-decoration:none;text-decoration-line:none;text-decoration-style:solid;text-decoration-color:#000000;letter-spacing:normal;word-spacing:normal;text-transform:none;writing-mode:lr-tb;direction:ltr;text-orientation:mixed;dominant-baseline:auto;baseline-shift:baseline;text-anchor:start;white-space:normal;shape-padding:0;clip-rule:nonzero;display:inline;overflow:visible;visibility:visible;opacity:1;isolation:auto;mix-blend-mode:normal;color-interpolation:sRGB;color-interpolation-filters:linearRGB;solid-color:#000000;solid-opacity:1;fill:#808080;fill-opacity:1;fill-rule:nonzero;stroke:none;stroke-width:4.00079155;stroke-linecap:butt;stroke-linejoin:miter;stroke-miterlimit:4;stroke-dasharray:none;stroke-dashoffset:0;stroke-opacity:1;marker:none;color-rendering:auto;image-rendering:auto;shape-rendering:auto;text-rendering:auto;enable-background:accumulate" />
          <g
             id="maintext"
             style="font-style:normal;font-variant:normal;font-weight:normal;font-stretch:normal;font-size:48.00949478px;line-height:100%;font-family:Ubuntu;-inkscape-font-specification:Ubuntu;text-align:center;letter-spacing:-2.00039554px;word-spacing:0px;writing-mode:lr-tb;text-anchor:middle;fill:#808080;fill-opacity:1;stroke:none;stroke-width:1.00019789px;stroke-linecap:butt;stroke-linejoin:miter;stroke-opacity:1"
             transform="matrix(0,-0.99980223,-1.0001978,0,0,0)"
             aria-label="Be7">
            <path
               id="path31"
               style="font-style:normal;font-variant:normal;font-weight:normal;font-stretch:normal;font-size:48.00949478px;line-height:100%;font-family:Ubuntu;-inkscape-font-specification:Ubuntu;text-align:center;letter-spacing:-0.50009888px;text-anchor:middle;fill:#808080;fill-opacity:1;stroke-width:1.00019789px"
               d="m -418.82149,-375.98343 q -1.0082,0 -2.20844,-0.048 -1.15222,-0.048 -2.35246,-0.14403 -1.15223,-0.096 -2.30446,-0.24004 -1.15223,-0.14403 -2.11242,-0.38408 v -32.26238 q 0.96019,-0.24005 2.11242,-0.38408 1.15223,-0.14402 2.30446,-0.24004 1.20024,-0.096 2.35246,-0.14403 1.15223,-0.048 2.16043,-0.048 2.88057,0 5.37706,0.43208 2.54451,0.43209 4.36887,1.4883 1.87237,1.0082 2.92858,2.68853 1.05621,1.68033 1.05621,4.12882 0,2.73654 -1.29626,4.51289 -1.29626,1.72834 -3.45668,2.59251 2.92858,0.86417 4.65692,2.73654 1.72834,1.87237 1.72834,5.28105 0,4.99299 -3.69673,7.53749 -3.64872,2.49649 -11.6183,2.49649 z m -4.36886,-15.79512 v 11.71432 q 0.5281,0.048 1.24824,0.096 0.62413,0.048 1.44029,0.096 0.86417,0 1.96839,0 2.06441,0 3.88877,-0.24004 1.87237,-0.28806 3.26464,-0.96019 1.39228,-0.67214 2.20844,-1.87237 0.86417,-1.20024 0.86417,-3.0246 0,-1.63233 -0.62412,-2.73654 -0.62413,-1.15223 -1.82436,-1.82436 -1.15223,-0.67214 -2.78456,-0.96019 -1.63232,-0.28806 -3.64872,-0.28806 z m 0,-3.74474 h 4.89696 q 1.72835,0 3.26465,-0.24005 1.5363,-0.24005 2.64052,-0.86417 1.15223,-0.62412 1.77635,-1.63232 0.67214,-1.0082 0.67214,-2.54451 0,-1.44028 -0.67214,-2.40047 -0.67213,-1.0082 -1.87237,-1.58431 -1.15222,-0.62413 -2.73654,-0.91218 -1.58431,-0.28806 -3.36066,-0.28806 -1.77635,0 -2.78455,0.048 -1.0082,0.048 -1.82436,0.14403 z" />
            <path
               id="path33"
               style="font-style:normal;font-variant:normal;font-weight:normal;font-stretch:normal;font-size:48.00949478px;line-height:100%;font-family:Ubuntu;-inkscape-font-specification:Ubuntu;text-align:center;letter-spacing:-0.50009888px;text-anchor:middle;fill:#808080;fill-opacity:1;stroke-width:1.00019789px"
               d="m -399.12984,-388.70594 q 0,-3.31266 0.96018,-5.76114 0.96019,-2.4965 2.54451,-4.12882 1.58431,-1.63232 3.64872,-2.44848 2.06441,-0.81617 4.22484,-0.81617 5.04099,0 7.72952,3.16863 2.68854,3.12062 2.68854,9.55389 0,0.28806 0,0.76815 0,0.43209 -0.048,0.81616 h -17.09138 q 0.28805,3.88877 2.25644,5.90517 1.96839,2.0164 6.14522,2.0164 2.35246,0 3.93678,-0.38407 1.63232,-0.43209 2.44848,-0.81617 l 0.62412,3.74474 q -0.81616,0.43209 -2.88057,0.91218 -2.01639,0.4801 -4.60891,0.4801 -3.26464,0 -5.66512,-0.96019 -2.35246,-1.0082 -3.88877,-2.73654 -1.5363,-1.72834 -2.30445,-4.08081 -0.72014,-2.40047 -0.72014,-5.23303 z m 17.13938,-2.44849 q 0.048,-3.0246 -1.5363,-4.94498 -1.5363,-1.96839 -4.27284,-1.96839 -1.53631,0 -2.73655,0.62413 -1.15222,0.57611 -1.96838,1.5363 -0.81617,0.96019 -1.29626,2.20844 -0.43209,1.24825 -0.57611,2.5445 z" />
            <path
               id="path35"
               style="font-style:normal;font-variant:normal;font-weight:500;font-stretch:normal;font-size:37.34071732px;font-family:Ubuntu;-inkscape-font-specification:'Ubuntu Medium';letter-spacing:-0.50009888px;baseline-shift:baseline"
               d="m -369.51015,-366.27148 q 0.22404,-2.8379 1.0082,-5.97452 0.78415,-3.13662 1.90437,-6.08654 1.15756,-2.98725 2.50183,-5.56376 1.38161,-2.61385 2.72587,-4.36887 h -11.91169 v -3.88343 h 17.28876 v 3.43534 q -1.23225,1.38161 -2.68854,3.77142 -1.45628,2.3898 -2.76321,5.4144 -1.30692,2.98726 -2.27778,6.4226 -0.93352,3.43535 -1.15756,6.83336 z" />
          </g>
        </g>
      </g>
    </g>
  </g>
</svg>
