<?xml version="1.0" encoding="UTF-8" standalone="no"?>
<svg
   xmlns:dc="http://purl.org/dc/elements/1.1/"
   xmlns:cc="http://creativecommons.org/ns#"
   xmlns:rdf="http://www.w3.org/1999/02/22-rdf-syntax-ns#"
   xmlns:svg="http://www.w3.org/2000/svg"
   xmlns="http://www.w3.org/2000/svg"
   viewBox="0 0 96 96.000001"
   version="1.1"
   id="svg4874"
   height="96"
   width="96">
  <defs
     id="defs4876" />
  <metadata
     id="metadata4879">
    <rdf:RDF>
      <cc:Work
         rdf:about="">
        <dc:format>image/svg+xml</dc:format>
        <dc:type
           rdf:resource="http://purl.org/dc/dcmitype/StillImage" />
        <dc:title />
      </cc:Work>
    </rdf:RDF>
  </metadata>
  <g
     transform="translate(67.857146,-78.50504)"
     id="layer1">
    <g
       style="display:inline"
       id="g4845"
       transform="matrix(0,-1,-1,0,373.50506,516.50504)">
      <g
         id="g4778"
         transform="matrix(-0.9996045,0,0,1,575.94296,-611.00001)">
        <g
           style="display:inline"
           id="g4780"
           transform="matrix(-1,0,0,1,575.99999,611)">
          <path
             id="rect4782"
             d="m -438.00244,345.36221 h 96.03799 v 96 h -96.03799 z"
             style="color:#000000;display:inline;overflow:visible;visibility:visible;fill:none;stroke:none;stroke-width:4;marker:none;enable-background:accumulate"
             transform="scale(-1,1)" />
          <path
             id="path4297"
             d="m 365.97267,345.36126 c -2.6314,0 -4.71356,0.23788 -6.46875,0.89648 -1.75519,0.6586 -3.16115,1.84985 -3.99219,3.35547 -1.66208,3.01124 -1.48476,6.6938 -1.54297,11.72656 v 0.0117 64.02149 0.0117 c 0.0582,5.03276 -0.11911,8.71532 1.54297,11.72656 0.83104,1.50562 2.237,2.69686 3.99219,3.35547 1.75519,0.6586 3.83735,0.89648 6.46875,0.89648 h 48.01952 c 2.6314,0 4.71551,-0.23788 6.4707,-0.89648 1.75519,-0.65861 3.15919,-1.84985 3.99023,-3.35547 1.66209,-3.01124 1.48672,-6.6938 1.54493,-11.72656 v -0.0117 -64.02149 -0.0117 c -0.0582,-5.03276 0.11716,-8.71532 -1.54493,-11.72656 -0.83104,-1.50562 -2.23504,-2.69687 -3.99023,-3.35547 -1.75519,-0.6586 -3.8393,-0.89648 -6.4707,-0.89648 z m 0,4.00195 h 48.01952 c 2.37058,0 4.02426,0.25031 5.06445,0.64063 1.0402,0.39031 1.48966,0.80945 1.89453,1.54297 0.80823,1.46429 0.98613,4.77814 1.04492,9.8164 v 63.97656 c -0.0584,5.05418 -0.23518,8.37086 -1.04492,9.83789 -0.40487,0.73352 -0.85433,1.15266 -1.89453,1.54297 -1.04019,0.39032 -2.69387,0.64063 -5.06445,0.64063 h -48.01952 c -2.37058,0 -4.02426,-0.25031 -5.06446,-0.64063 -1.04019,-0.39031 -1.4877,-0.80945 -1.89258,-1.54297 -0.80835,-1.46451 -0.98616,-4.77682 -1.04492,-9.8164 v -0.0215 -63.95312 -0.0234 c 0.0588,-5.03826 0.23669,-8.35211 1.04492,-9.8164 0.40488,-0.73352 0.85239,-1.15266 1.89258,-1.54297 1.0402,-0.39032 2.69388,-0.64063 5.06446,-0.64063 z"
             style="color:#000000;font-style:normal;font-variant:normal;font-weight:normal;font-stretch:normal;font-size:medium;line-height:normal;font-family:sans-serif;font-variant-ligatures:normal;font-variant-position:normal;font-variant-caps:normal;font-variant-numeric:normal;font-variant-alternates:normal;font-feature-settings:normal;text-indent:0;text-align:start;text-decoration:none;text-decoration-line:none;text-decoration-style:solid;text-decoration-color:#000000;letter-spacing:normal;word-spacing:normal;text-transform:none;writing-mode:lr-tb;direction:ltr;text-orientation:mixed;dominant-baseline:auto;baseline-shift:baseline;text-anchor:start;white-space:normal;shape-padding:0;clip-rule:nonzero;display:inline;overflow:visible;visibility:visible;opacity:1;isolation:auto;mix-blend-mode:normal;color-interpolation:sRGB;color-interpolation-filters:linearRGB;solid-color:#000000;solid-opacity:1;fill:#808080;fill-opacity:1;fill-rule:nonzero;stroke:none;stroke-width:4.00079155;stroke-linecap:butt;stroke-linejoin:miter;stroke-miterlimit:4;stroke-dasharray:none;stroke-dashoffset:0;stroke-opacity:1;marker:none;color-rendering:auto;image-rendering:auto;shape-rendering:auto;text-rendering:auto;enable-background:accumulate" />
          <g
             id="maintext"
             style="font-style:normal;font-variant:normal;font-weight:normal;font-stretch:normal;font-size:48.00949478px;line-height:100%;font-family:Ubuntu;-inkscape-font-specification:Ubuntu;text-align:center;letter-spacing:-2.00039554px;word-spacing:0px;writing-mode:lr-tb;text-anchor:middle;fill:#808080;fill-opacity:1;stroke:none;stroke-width:1.00019789px;stroke-linecap:butt;stroke-linejoin:miter;stroke-opacity:1"
             transform="matrix(0,-0.99980223,-1.0001978,0,0,0)"
             aria-label="En8">
            <path
               id="path31"
               style="font-style:normal;font-variant:normal;font-weight:normal;font-stretch:normal;font-size:48.00949478px;line-height:100%;font-family:Ubuntu;-inkscape-font-specification:Ubuntu;text-align:center;letter-spacing:-0.50009888px;text-anchor:middle;fill:#808080;fill-opacity:1;stroke-width:1.00019789px"
               d="m -426.43962,-376.27148 v -33.27058 h 20.30802 v 3.98478 h -15.6511 v 9.88996 h 13.92275 v 3.88877 h -13.92275 v 11.52228 h 16.85133 v 3.98479 z" />
            <path
               id="path33"
               style="font-style:normal;font-variant:normal;font-weight:normal;font-stretch:normal;font-size:48.00949478px;line-height:100%;font-family:Ubuntu;-inkscape-font-specification:Ubuntu;text-align:center;letter-spacing:-0.50009888px;text-anchor:middle;fill:#808080;fill-opacity:1;stroke-width:1.00019789px"
               d="m -399.84736,-400.51628 q 1.5363,-0.38408 4.0808,-0.81616 2.54451,-0.43209 5.85716,-0.43209 2.97659,0 4.94498,0.86417 1.96839,0.81617 3.12062,2.35247 1.20024,1.48829 1.68033,3.60071 0.4801,2.11242 0.4801,4.65692 v 14.01878 h -4.46489 v -13.05859 q 0,-2.30445 -0.33606,-3.93678 -0.28806,-1.63232 -1.0082,-2.64052 -0.72015,-1.0082 -1.92038,-1.44028 -1.20024,-0.4801 -2.97659,-0.4801 -0.72014,0 -1.4883,0.048 -0.76815,0.048 -1.48829,0.14403 -0.67213,0.048 -1.24825,0.14403 -0.5281,0.096 -0.76815,0.14403 v 21.07617 h -4.46488 z" />
            <path
               id="path35"
               style="font-style:normal;font-variant:normal;font-weight:500;font-stretch:normal;font-size:37.34071732px;font-family:Ubuntu;-inkscape-font-specification:'Ubuntu Medium';letter-spacing:-0.50009888px;baseline-shift:baseline"
               d="m -357.20309,-373.21686 q 0,1.60565 -0.56012,2.98726 -0.56011,1.38161 -1.68033,2.38981 -1.12022,1.00819 -2.80055,1.56831 -1.64299,0.56011 -3.80875,0.56011 -2.53917,0 -4.21951,-0.70948 -1.68033,-0.70947 -2.68853,-1.79235 -1.0082,-1.08288 -1.45629,-2.31513 -0.41074,-1.26958 -0.41074,-2.3898 0,-1.12022 0.29872,-2.05374 0.33607,-0.97086 0.89618,-1.75502 0.56011,-0.82149 1.26958,-1.49362 0.70948,-0.67214 1.49363,-1.19491 -1.71767,-1.1949 -2.57651,-2.57651 -0.82149,-1.41894 -0.82149,-3.43534 0,-1.45629 0.56011,-2.76322 0.59745,-1.34426 1.68033,-2.35246 1.08288,-1.0082 2.61385,-1.60565 1.53097,-0.59745 3.39801,-0.59745 2.2031,0 3.73407,0.63479 1.56831,0.63479 2.53917,1.64299 1.0082,1.0082 1.45628,2.24044 0.44809,1.23225 0.44809,2.38981 0,2.05374 -1.12022,3.65939 -1.12022,1.56831 -2.57651,2.50183 2.2031,1.1949 3.24864,2.76321 1.08289,1.56831 1.08289,3.69673 z m -13.18128,0.22405 q 0,0.56011 0.22405,1.1949 0.22404,0.63479 0.74681,1.15756 0.52277,0.52277 1.34427,0.89618 0.82149,0.33607 2.05374,0.33607 1.12022,0 1.94171,-0.29873 0.8215,-0.29873 1.34427,-0.78416 0.52277,-0.52277 0.78415,-1.15756 0.26139,-0.67213 0.26139,-1.34426 0,-1.04554 -0.41075,-1.8297 -0.41075,-0.78415 -1.1949,-1.34426 -0.74682,-0.59746 -1.79236,-1.0082 -1.04554,-0.44809 -2.31512,-0.78416 -1.34427,0.85884 -2.16576,2.09108 -0.8215,1.1949 -0.8215,2.87524 z m 8.14028,-12.77053 q 0,-0.48543 -0.22405,-1.04554 -0.1867,-0.59745 -0.67213,-1.08288 -0.44809,-0.48543 -1.15756,-0.8215 -0.70947,-0.33606 -1.71767,-0.33606 -1.0082,0 -1.75502,0.33606 -0.70947,0.29873 -1.15756,0.8215 -0.44809,0.48543 -0.67213,1.08288 -0.22405,0.56011 -0.22405,1.12022 0,1.41895 1.04554,2.68853 1.08288,1.26959 3.58471,2.0164 1.38161,-0.85883 2.16576,-1.94171 0.78416,-1.12023 0.78416,-2.8379 z" />
          </g>
        </g>
      </g>
    </g>
  </g>
</svg>
