<?xml version="1.0" encoding="UTF-8" standalone="no"?>
<!-- Created with Inkscape (http://www.inkscape.org/) -->

<svg
   xmlns:dc="http://purl.org/dc/elements/1.1/"
   xmlns:cc="http://creativecommons.org/ns#"
   xmlns:rdf="http://www.w3.org/1999/02/22-rdf-syntax-ns#"
   xmlns:svg="http://www.w3.org/2000/svg"
   xmlns="http://www.w3.org/2000/svg"
   xmlns:xlink="http://www.w3.org/1999/xlink"
   xmlns:sodipodi="http://sodipodi.sourceforge.net/DTD/sodipodi-0.dtd"
   xmlns:inkscape="http://www.inkscape.org/namespaces/inkscape"
   width="512"
   height="512"
   id="svg3336"
   version="1.1"
   inkscape:version="0.92pre1 unknown"
   sodipodi:docname="application-vnd.ms-access.svg"
   inkscape:export-filename="PNG/application-vnd.ms-access.png"
   inkscape:export-xdpi="96"
   inkscape:export-ydpi="96"
   style="enable-background:new"
   viewBox="0 0 512 512">
  <sodipodi:namedview
     id="base"
     pagecolor="#b4b4b4"
     bordercolor="#666666"
     borderopacity="1.0"
     inkscape:pageopacity="0"
     inkscape:pageshadow="2"
     inkscape:zoom="1.953125"
     inkscape:cx="71.305344"
     inkscape:cy="238.86994"
     inkscape:document-units="px"
     inkscape:current-layer="layer1"
     showgrid="true"
     inkscape:window-width="1920"
     inkscape:window-height="1029"
     inkscape:window-x="0"
     inkscape:window-y="24"
     inkscape:window-maximized="1"
     inkscape:snap-page="true"
     inkscape:showpageshadow="false"
     showborder="true"
     inkscape:snap-bbox="true"
     inkscape:bbox-paths="true"
     inkscape:bbox-nodes="true"
     inkscape:snap-bbox-edge-midpoints="true"
     inkscape:snap-bbox-midpoints="true"
     inkscape:object-paths="true"
     inkscape:object-nodes="true"
     inkscape:snap-intersection-paths="true"
     inkscape:snap-smooth-nodes="true"
     inkscape:snap-midpoints="true"
     inkscape:snap-object-midpoints="true"
     inkscape:snap-center="true"
     showguides="true"
     inkscape:guide-bbox="true"
     inkscape:snap-grids="true"
     fit-margin-top="0"
     fit-margin-left="48"
     fit-margin-right="48"
     fit-margin-bottom="0"
     inkscape:snap-global="true">
    <inkscape:grid
       enabled="true"
       visible="true"
       originy="15.999999"
       originx="-5.4802925e-08"
       id="grid811"
       type="xygrid" />
    <sodipodi:guide
       id="guide819"
       position="128,512"
       orientation="1,0"
       inkscape:locked="false" />
    <sodipodi:guide
       id="guide821"
       position="144,512"
       orientation="1,0"
       inkscape:locked="false" />
    <sodipodi:guide
       id="guide823"
       position="368,512"
       orientation="1,0"
       inkscape:locked="false" />
    <sodipodi:guide
       id="guide825"
       position="384,504"
       orientation="1,0"
       inkscape:locked="false" />
    <sodipodi:guide
       id="guide827"
       position="512,384"
       orientation="0,1"
       inkscape:locked="false" />
    <sodipodi:guide
       id="guide829"
       position="512,368"
       orientation="0,1"
       inkscape:locked="false" />
    <sodipodi:guide
       id="guide831"
       position="512,144"
       orientation="0,1"
       inkscape:locked="false" />
    <inkscape:grid
       originy="16.999996"
       originx="-5.4802925e-08"
       enabled="false"
       spacingy="3.522px"
       gridanglez="42.9"
       gridanglex="42.9"
       empspacing="60"
       units="px"
       id="grid835"
       type="axonomgrid" />
    <sodipodi:guide
       id="guide4126"
       position="512,352"
       orientation="0,1"
       inkscape:locked="false" />
    <sodipodi:guide
       id="guide4128"
       position="512,160"
       orientation="0,1"
       inkscape:locked="false" />
    <sodipodi:guide
       id="guide4130"
       position="160,512"
       orientation="1,0"
       inkscape:locked="false" />
    <sodipodi:guide
       id="guide4134"
       position="352,512"
       orientation="1,0"
       inkscape:locked="false" />
    <sodipodi:guide
       id="guide4136"
       position="256,256"
       orientation="-0.70710678,0.70710678"
       inkscape:locked="false" />
    <sodipodi:guide
       id="guide4138"
       position="256,512"
       orientation="1,0"
       inkscape:locked="false" />
    <sodipodi:guide
       id="guide4140"
       position="288,256"
       orientation="0,1"
       inkscape:locked="false" />
    <sodipodi:guide
       id="guide4142"
       position="256,256"
       orientation="0.70710678,0.70710678"
       inkscape:locked="false" />
  </sodipodi:namedview>
  <defs
     id="defs3338">
    <linearGradient
       id="linearGradient4360"
       inkscape:collect="always">
      <stop
         id="stop4362"
         offset="0"
         style="stop-color:#000000;stop-opacity:0.58823532" />
      <stop
         style="stop-color:#000000;stop-opacity:0"
         offset="0.88"
         id="stop4364" />
      <stop
         id="stop4366"
         offset="1"
         style="stop-color:#000000;stop-opacity:1" />
    </linearGradient>
    <linearGradient
       inkscape:collect="always"
       id="linearGradient4249">
      <stop
         style="stop-color:#d04616;stop-opacity:1;"
         offset="0"
         id="stop4251" />
      <stop
         style="stop-color:#d04616;stop-opacity:1"
         offset="1"
         id="stop4253" />
    </linearGradient>
    <linearGradient
       id="linearGradient4220"
       inkscape:collect="always">
      <stop
         id="stop4222"
         offset="0"
         style="stop-color:#e93549;stop-opacity:1" />
      <stop
         id="stop4224"
         offset="1"
         style="stop-color:#ef6b6b;stop-opacity:1" />
    </linearGradient>
    <filter
       id="filter4154"
       inkscape:label="Colorize"
       style="color-interpolation-filters:sRGB">
      <feComposite
         k4="0"
         k3="0"
         id="feComposite4156"
         result="composite1"
         k2="1"
         k1="0"
         operator="arithmetic"
         in2="SourceGraphic" />
      <feColorMatrix
         id="feColorMatrix4158"
         result="colormatrix1"
         type="saturate"
         values="0"
         in="composite1" />
      <feFlood
         id="feFlood4160"
         result="flood1"
         flood-color="rgb(89,132,51)"
         flood-opacity="1" />
      <feBlend
         id="feBlend4162"
         result="blend1"
         mode="multiply"
         in2="colormatrix1"
         in="flood1" />
      <feBlend
         id="feBlend4164"
         result="blend2"
         mode="screen"
         in2="blend1" />
      <feColorMatrix
         id="feColorMatrix4166"
         result="colormatrix2"
         type="saturate"
         values="1"
         in="blend2" />
      <feComposite
         id="feComposite4168"
         result="composite2"
         operator="in"
         in2="SourceGraphic"
         in="colormatrix2" />
    </filter>
    <filter
       height="1.048"
       y="-0.024"
       width="1.048"
       x="-0.024"
       id="filter4264"
       style="color-interpolation-filters:sRGB"
       inkscape:collect="always" />
    <linearGradient
       id="linearGradient7537">
      <stop
         id="stop7539"
         offset="0"
         style="stop-color:#44d459;stop-opacity:1" />
      <stop
         id="stop7541"
         offset="1"
         style="stop-color:#38b44a;stop-opacity:1" />
    </linearGradient>
    <clipPath
       id="clipPath4231-6"
       clipPathUnits="userSpaceOnUse">
      <rect
         y="18"
         x="0"
         height="238"
         width="256"
         id="rect4233-8"
         style="color:#000000;display:inline;overflow:visible;visibility:visible;opacity:0.46400003;fill:#ff00ff;fill-opacity:1;fill-rule:nonzero;stroke:none;stroke-width:1;marker:none;enable-background:accumulate" />
    </clipPath>
    <clipPath
       clipPathUnits="userSpaceOnUse"
       id="clipPath4258">
      <path
         style="color:#000000;display:inline;overflow:visible;visibility:visible;fill:url(#linearGradient4263);fill-opacity:1;fill-rule:nonzero;stroke:none;stroke-width:1;marker:none;enable-background:accumulate"
         d="M 126.05469,18 C -19.242615,18 -40,38.736657 -40,183.89844 l 0,144.20312 C -40,473.26274 -19.242615,494 126.05469,494 l 179.89062,0 C 451.2426,494 472,473.26274 472,328.10156 l 0,-144.20312 C 472,38.736657 451.2426,18 305.94531,18 l -179.89062,0 z"
         id="path4260"
         inkscape:connector-curvature="0" />
    </clipPath>
    <linearGradient
       inkscape:collect="always"
       xlink:href="#linearGradient4220"
       id="linearGradient4263"
       gradientUnits="userSpaceOnUse"
       gradientTransform="translate(-40)"
       x1="0"
       y1="18"
       x2="512"
       y2="494" />
    <clipPath
       clipPathUnits="userSpaceOnUse"
       id="clipPath4266">
      <path
         inkscape:connector-curvature="0"
         id="path4268"
         d="M 86.05469,16 C 8,15.999999 0,16.000001 0,93.89844 L 0,346.10156 C 0,424 8,432 86.05469,432 l 339.89062,0 C 504,432 512,424 512,346.10156 l 0,-212.20312 C 512,56.000001 503.99952,47.72673 425.94531,48 L 208,48.000001 l -32,-32 z"
         style="color:#000000;display:inline;overflow:visible;visibility:visible;fill:url(#linearGradient4270);fill-opacity:1;fill-rule:nonzero;stroke:none;stroke-width:1;marker:none;enable-background:accumulate"
         sodipodi:nodetypes="ssssssssccs" />
    </clipPath>
    <linearGradient
       inkscape:collect="always"
       xlink:href="#linearGradient4249"
       id="linearGradient4270"
       gradientUnits="userSpaceOnUse"
       x1="110.4"
       y1="112"
       x2="110.4"
       y2="16" />
    <clipPath
       clipPathUnits="userSpaceOnUse"
       id="clipPath4391">
      <path
         inkscape:connector-curvature="0"
         id="path4393"
         d="M 88.55469,36 C 10.5,35.999999 2.5,36.000001 2.5,113.89844 l 0,212.20312 C 2.5,404 10.5,412 88.55469,412 l 339.89062,0 C 506.5,412 514.5,404 514.5,326.10156 l 0,-172.20312 C 514.5,76.000001 506.5,68 428.44531,68 l -209.95709,10e-7 c -7.98822,0 -7.98822,0 -16.17203,-8.183809 L 190.5,48.000001 c -11.16101,-12 -16,-12 -24.1152,-12 z"
         style="color:#000000;display:inline;overflow:visible;visibility:visible;fill:#d04616;fill-opacity:1;fill-rule:nonzero;stroke:none;stroke-width:1;marker:none;enable-background:accumulate"
         sodipodi:nodetypes="ssssssssccccs" />
    </clipPath>
    <clipPath
       clipPathUnits="userSpaceOnUse"
       id="clipPath4255">
      <path
         inkscape:connector-curvature="0"
         id="path4257"
         d="M 88.55469,36 C 10.5,35.999999 2.5,36.000001 2.5,113.89844 l 0,212.20312 C 2.5,404 10.5,412 88.55469,412 l 339.89062,0 C 506.5,412 514.5,404 514.5,326.10156 l 0,-180.20312 C 514.5,68.000001 506.49923,59.652236 428.44531,60 L 200,60.000001 l -24,-24 z"
         style="color:#000000;display:inline;overflow:visible;visibility:visible;fill:#d04616;fill-opacity:1;fill-rule:nonzero;stroke:none;stroke-width:1;marker:none;enable-background:accumulate"
         sodipodi:nodetypes="ssssssssccs" />
    </clipPath>
    <linearGradient
       gradientUnits="userSpaceOnUse"
       y2="125.99394"
       x2="-1.0000001e-06"
       y1="397.99393"
       x1="512"
       id="linearGradient4226"
       xlink:href="#linearGradient4338-3"
       inkscape:collect="always"
       gradientTransform="matrix(0,-0.90625,-0.90622407,0,507.91401,488)" />
    <clipPath
       clipPathUnits="userSpaceOnUse"
       id="clipPath4255-2">
      <path
         inkscape:connector-curvature="0"
         id="path4257-0"
         d="M 88.55469,36 C 10.5,35.999999 2.5,36.000001 2.5,113.89844 l 0,212.20312 C 2.5,404 10.5,412 88.55469,412 l 339.89062,0 C 506.5,412 514.5,404 514.5,326.10156 l 0,-180.20312 C 514.5,68.000001 506.49923,59.652236 428.44531,60 L 200,60.000001 l -24,-24 z"
         style="color:#000000;display:inline;overflow:visible;visibility:visible;fill:#d04616;fill-opacity:1;fill-rule:nonzero;stroke:none;stroke-width:1;marker:none;enable-background:accumulate"
         sodipodi:nodetypes="ssssssssccs" />
    </clipPath>
    <filter
       inkscape:collect="always"
       style="color-interpolation-filters:sRGB"
       id="filter4346"
       x="-0.013249796"
       width="1.0264996"
       y="-0.010965657"
       height="1.0219313">
      <feGaussianBlur
         inkscape:collect="always"
         stdDeviation="2.120027"
         id="feGaussianBlur4348" />
    </filter>
    <linearGradient
       inkscape:collect="always"
       xlink:href="#linearGradient4360"
       id="linearGradient4358"
       x1="88"
       y1="88"
       x2="488"
       y2="488"
       gradientUnits="userSpaceOnUse" />
    <filter
       inkscape:collect="always"
       style="color-interpolation-filters:sRGB"
       id="filter4380"
       x="-0.052999185"
       width="1.1059984"
       y="-0.043862627"
       height="1.0877253">
      <feGaussianBlur
         inkscape:collect="always"
         stdDeviation="8.4801079"
         id="feGaussianBlur4382" />
    </filter>
    <linearGradient
       inkscape:collect="always"
       id="linearGradient4338-3">
      <stop
         style="stop-color:#b52428;stop-opacity:1"
         offset="0"
         id="stop4340-0" />
      <stop
         style="stop-color:#d32429;stop-opacity:1"
         offset="1"
         id="stop4342-7" />
    </linearGradient>
  </defs>
  <metadata
     id="metadata3341">
    <rdf:RDF>
      <cc:Work
         rdf:about="">
        <dc:format>image/svg+xml</dc:format>
        <dc:type
           rdf:resource="http://purl.org/dc/dcmitype/StillImage" />
        <dc:title />
      </cc:Work>
    </rdf:RDF>
  </metadata>
  <g
     inkscape:groupmode="layer"
     id="layer2"
     inkscape:label="Shadow"
     style="display:inline"
     transform="translate(-32,-32)"
     sodipodi:insensitive="true">
    <path
       style="color:#000000;display:inline;overflow:visible;visibility:visible;opacity:0.1;fill:#000000;fill-opacity:1;fill-rule:nonzero;stroke:none;stroke-width:1;marker:none;filter:url(#filter4346);enable-background:accumulate"
       d="M 173.84323,58 C 103.24979,58 95.654019,65.250835 96,135.98706 L 96,290 96,444.01294 C 95.654019,514.74917 103.24979,522 173.84323,522 l 228.31354,0 C 472.75021,522 480,514.75001 480,444.01294 L 480,290 480,135.98706 C 480,65.249993 472.75021,58 402.15677,58 Z"
       id="rect4158-9"
       inkscape:connector-curvature="0"
       sodipodi:nodetypes="scccssscsss" />
    <path
       sodipodi:nodetypes="scccssscsss"
       inkscape:connector-curvature="0"
       id="path4350"
       d="M 173.84323,58 C 103.24979,58 95.654019,65.250835 96,135.98706 L 96,290 96,444.01294 C 95.654019,514.74917 103.24979,522 173.84323,522 l 228.31354,0 C 472.75021,522 480,514.75001 480,444.01294 L 480,290 480,135.98706 C 480,65.249993 472.75021,58 402.15677,58 Z"
       style="color:#000000;display:inline;overflow:visible;visibility:visible;opacity:0.3;fill:url(#linearGradient4358);fill-opacity:1;fill-rule:nonzero;stroke:none;stroke-width:1;marker:none;filter:url(#filter4380);enable-background:accumulate" />
  </g>
  <g
     inkscape:label="Background"
     id="layer3"
     inkscape:groupmode="layer"
     style="display:inline">
    <path
       style="color:#000000;display:inline;overflow:visible;visibility:visible;fill:url(#linearGradient4226);fill-opacity:1;fill-rule:nonzero;stroke:none;stroke-width:1;marker:none;enable-background:accumulate"
       d="m 370.14598,24.000001 c 70.59343,0 78.18921,7.250835 77.84323,77.987059 V 256 410.01294 C 448.33519,480.74917 440.73941,488 370.14598,488 H 141.83244 C 71.238998,488 63.989208,480.75001 63.989208,410.01294 V 256 101.98706 c 0,-70.737066 7.24979,-77.987059 77.843232,-77.987059 z"
       id="rect4158"
       inkscape:connector-curvature="0"
       sodipodi:nodetypes="scccssscsss" />
  </g>
  <g
     inkscape:label="Pictogram"
     id="layer4"
     inkscape:groupmode="layer">
    <path
       sodipodi:nodetypes="cccsccccccccccccccc"
       style="color:#000000;display:inline;overflow:visible;visibility:visible;opacity:0.05;fill:#ff0000;fill-opacity:0;fill-rule:nonzero;stroke:none;stroke-width:40;marker:none;enable-background:accumulate"
       d="m 221.8125,124 -35.1875,71.65625 0,59.25 c -4.93993,5.78797 -10.33923,11.62048 -15.96875,17.25 -18.50312,18.50309 -39.2477,34.68678 -53.125,39.3125 L 94.15625,288.125 22.5,323.3125 22.5,494 l 256,0 0,-317.5625 C 263.08338,142.99385 246.13185,130.51631 221.8125,124 Z M 124.25,353 c 0.007,-0.005 0.0239,0.005 0.0312,0 -2.61074,1.63039 -5.25098,3.22668 -7.90625,4.8125 2.65593,-1.58559 5.2637,-3.18237 7.87505,-4.8125 z m -24.09375,14.0625 c 0.008,-0.004 0.0234,0.004 0.0312,0 -2.74184,1.4991 -5.52861,2.98055 -8.3125,4.4375 2.78427,-1.45683 5.53906,-2.93856 8.2813,-4.4375 z"
       id="path4505-6"
       inkscape:connector-curvature="0" />
    <path
       style="fill:#ffffff;stroke-width:1.33333325"
       d="m 261.10423,146.53476 c -39.00038,6.94981 -78.07841,13.59419 -117.10424,20.4167 l 0,178.14926 c 38.82216,6.82252 77.69529,13.28743 116.46655,20.36451 l 15.85979,0 0,-27.4162 c 24.51526,3.48768 49.94671,2.54554 73.57098,-5.29527 8.98637,-3.00394 18.91734,-9.87822 18.02635,-20.5957 0.10177,-39.15313 0.10177,-78.30474 0,-117.43241 0.86554,-10.59019 -8.80991,-17.51781 -17.69446,-20.54722 -23.5988,-8.34995 -49.31124,-8.57569 -73.90287,-5.44445 l 0,-22.19922 -15.2221,0 z m 41.06088,27.9569 c 14.4283,-0.14167 28.85759,1.48169 42.6681,5.69804 6.08427,2.26568 14.23151,4.98728 15.6062,12.24257 -1.0183,5.93153 -7.20562,8.60507 -12.09339,10.74347 -23.08966,7.78989 -48.0645,8.52984 -72.01969,4.91493 l 0,-31.61886 c 8.52495,-1.17422 17.1818,-1.89513 25.83878,-1.98015 z m 58.2482,30.23538 c -0.56005,10.94657 0.86481,22.02333 -0.76446,32.86808 -4.55682,5.42238 -11.78529,7.35619 -18.30232,9.21457 -21.25674,5.01505 -43.43253,5.14278 -65.0202,2.36796 l 0,-32.99489 c 17.28542,2.18933 34.85081,2.16495 52.13624,-0.10062 11.20117,-1.65472 22.888,-4.0743 31.95074,-11.35505 z m -146.66092,7.43578 c 8.52816,28.51202 16.62563,57.17538 25.05194,85.71286 -5.8806,-0.38185 -11.76037,-0.81532 -17.59006,-1.34992 -1.55288,-6.36431 -3.20865,-12.72794 -4.88882,-19.06678 -7.81535,-0.0254 -15.63243,-0.27818 -23.42233,-0.66004 -1.50196,6.03335 -3.02641,12.04083 -4.57931,18.04873 -4.9896,-0.38186 -9.95589,-0.7393 -14.92004,-1.07025 7.43349,-26.80641 15.17462,-53.51048 22.55719,-80.31688 5.93153,-0.43276 11.83445,-0.8395 17.79143,-1.29772 z m -9.56881,15.2482 c -1.70563,12.09215 -5.52464,23.72487 -8.09584,35.63881 5.60059,0.0508 11.19959,0.079 16.8256,0.10444 -2.90212,-11.91396 -6.43862,-23.67651 -8.72976,-35.74321 z m 156.22973,18.04873 c -0.50913,10.92113 0.78972,21.94503 -0.71226,32.78979 -4.455,5.44785 -11.68767,7.3823 -18.17925,9.24067 -21.30766,5.06599 -43.55688,5.1919 -65.19547,2.44253 l 0,-33.01726 c 17.33634,2.21477 34.95279,2.16442 52.28912,-0.12678 11.17569,-1.6547 22.78602,-4.07366 31.79786,-11.32895 z m 0,40.73273 c -0.5346,10.92113 0.83934,21.99353 -0.76446,32.83827 -7.20438,7.84082 -18.6358,9.29172 -28.53865,11.30283 -18.15095,2.77485 -36.70814,2.82718 -54.88456,0.2051 0.17813,-10.97205 0.10062,-21.91844 0.10062,-32.89047 17.31086,2.21476 34.87755,2.16441 52.18844,-0.12678 11.20114,-1.62927 22.83579,-4.07363 31.89853,-11.32893 z"
       id="path22"
       inkscape:connector-curvature="0" />
  </g>
  <g
     inkscape:groupmode="layer"
     id="layer5"
     inkscape:label="Folds"
     transform="translate(-32,-32)"
     sodipodi:insensitive="true">
    <path
       style="color:#000000;display:inline;overflow:visible;visibility:visible;opacity:0.03999999;fill:#ffffff;fill-opacity:1;fill-rule:nonzero;stroke:none;stroke-width:1;marker:none;enable-background:accumulate"
       d="M 288,56 V 520 H 402.15625 C 472.74969,520 480,512.75074 480,442.01367 V 288 133.98633 C 480,63.249262 472.74969,56 402.15625,56 Z"
       id="path4231"
       inkscape:connector-curvature="0" />
    <path
       inkscape:connector-curvature="0"
       style="color:#000000;display:inline;overflow:visible;visibility:visible;opacity:0.03999999;fill:#ffffff;fill-opacity:1;fill-rule:nonzero;stroke:none;stroke-width:1;marker:none;enable-background:accumulate"
       d="M 96,288 V 442.01367 C 95.654019,512.7499 103.25031,520 173.84375,520 h 228.3125 C 472.74969,520 480,512.75074 480,442.01367 V 288 Z"
       id="path4255" />
  </g>
  <g
     inkscape:groupmode="layer"
     id="layer1"
     inkscape:label="Corner &amp; borders"
     transform="translate(-32,-32)">
    <path
       style="color:#000000;display:inline;overflow:visible;visibility:visible;opacity:0.1;fill:#ffffff;fill-opacity:1;fill-rule:nonzero;stroke:none;stroke-width:7.99999952;stroke-linecap:butt;stroke-linejoin:miter;stroke-miterlimit:4;stroke-dasharray:none;stroke-dashoffset:0;stroke-opacity:1;marker:none;enable-background:accumulate"
       d="M 360,520 480,400 v 44.96776 C 479.8953,512.95937 472.39464,520 403.6518,520 Z"
       id="path4254"
       inkscape:connector-curvature="0"
       sodipodi:nodetypes="cccsc" />
    <path
       style="color:#000000;display:inline;overflow:visible;visibility:visible;opacity:0.3;fill:#ffffff;fill-opacity:1;fill-rule:nonzero;stroke:none;stroke-width:1;marker:none;enable-background:accumulate"
       d="M 173.84375,56 C 104.86158,56 96.038343,62.958914 95.994141,129.27734 96.216858,64.792552 105.55126,58 173.84375,58 h 228.3125 C 472.74969,58 480,65.249262 480,135.98633 v -2 C 480,63.249262 472.74969,56 402.15625,56 Z"
       id="path4286"
       inkscape:connector-curvature="0"
       sodipodi:nodetypes="scsscsss" />
    <path
       style="color:#000000;display:inline;overflow:visible;visibility:visible;opacity:0.1;fill:#000000;fill-opacity:1;fill-rule:nonzero;stroke:none;stroke-width:1;marker:none;enable-background:accumulate"
       d="M 480,440.01367 C 480,510.75074 472.74969,518 402.15625,518 H 173.84375 C 105.55126,518 96.216858,511.20745 95.994141,446.72266 96.038343,513.04109 104.86158,520 173.84375,520 h 228.3125 C 472.74969,520 480,512.75074 480,442.01367 Z"
       id="path4295"
       inkscape:connector-curvature="0"
       sodipodi:nodetypes="csscsssc" />
  </g>
</svg>
