<?xml version="1.0" encoding="UTF-8" standalone="no"?>
<!-- Created with Inkscape (http://www.inkscape.org/) -->

<svg
   xmlns:dc="http://purl.org/dc/elements/1.1/"
   xmlns:cc="http://creativecommons.org/ns#"
   xmlns:rdf="http://www.w3.org/1999/02/22-rdf-syntax-ns#"
   xmlns:svg="http://www.w3.org/2000/svg"
   xmlns="http://www.w3.org/2000/svg"
   xmlns:xlink="http://www.w3.org/1999/xlink"
   xmlns:sodipodi="http://sodipodi.sourceforge.net/DTD/sodipodi-0.dtd"
   xmlns:inkscape="http://www.inkscape.org/namespaces/inkscape"
   width="512"
   height="512"
   id="svg3336"
   version="1.1"
   inkscape:version="0.91+devel unknown"
   sodipodi:docname="libreoffice-oasis-database.svg"
   inkscape:export-filename="app_shape02.png"
   inkscape:export-xdpi="180"
   inkscape:export-ydpi="180"
   style="enable-background:new"
   viewBox="0 0 512 512">
  <sodipodi:namedview
     id="base"
     pagecolor="#b4b4b4"
     bordercolor="#666666"
     borderopacity="1.0"
     inkscape:pageopacity="0"
     inkscape:pageshadow="2"
     inkscape:zoom="1.5625"
     inkscape:cx="43.275671"
     inkscape:cy="275.89942"
     inkscape:document-units="px"
     inkscape:current-layer="layer5"
     showgrid="false"
     inkscape:window-width="1920"
     inkscape:window-height="1029"
     inkscape:window-x="0"
     inkscape:window-y="24"
     inkscape:window-maximized="1"
     inkscape:snap-page="true"
     inkscape:showpageshadow="false"
     showborder="true"
     inkscape:snap-bbox="true"
     inkscape:bbox-paths="true"
     inkscape:bbox-nodes="true"
     inkscape:snap-bbox-edge-midpoints="true"
     inkscape:snap-bbox-midpoints="true"
     inkscape:object-paths="true"
     inkscape:object-nodes="true"
     inkscape:snap-intersection-paths="true"
     inkscape:snap-smooth-nodes="true"
     inkscape:snap-midpoints="true"
     inkscape:snap-object-midpoints="true"
     inkscape:snap-center="true"
     showguides="false"
     inkscape:guide-bbox="true"
     inkscape:snap-grids="true"
     fit-margin-top="0"
     fit-margin-left="48"
     fit-margin-right="48"
     fit-margin-bottom="0"
     inkscape:snap-global="true">
    <inkscape:grid
       enabled="true"
       visible="true"
       originy="15.999999"
       originx="-5.4802925e-08"
       id="grid811"
       type="xygrid" />
    <sodipodi:guide
       id="guide819"
       position="128,512"
       orientation="1,0" />
    <sodipodi:guide
       id="guide821"
       position="144,512"
       orientation="1,0" />
    <sodipodi:guide
       id="guide823"
       position="368,512"
       orientation="1,0" />
    <sodipodi:guide
       id="guide825"
       position="384,504"
       orientation="1,0" />
    <sodipodi:guide
       id="guide827"
       position="512,384"
       orientation="0,1" />
    <sodipodi:guide
       id="guide829"
       position="512,368"
       orientation="0,1" />
    <sodipodi:guide
       id="guide831"
       position="512,144"
       orientation="0,1" />
    <sodipodi:guide
       id="guide833"
       position="512,128"
       orientation="0,1" />
    <inkscape:grid
       originy="16.999996"
       originx="-5.4802925e-08"
       enabled="false"
       spacingy="3.522px"
       gridanglez="42.9"
       gridanglex="42.9"
       empspacing="60"
       units="px"
       id="grid835"
       type="axonomgrid" />
    <sodipodi:guide
       id="guide4126"
       position="512,352"
       orientation="0,1" />
    <sodipodi:guide
       id="guide4128"
       position="512,160"
       orientation="0,1" />
    <sodipodi:guide
       id="guide4130"
       position="160,512"
       orientation="1,0" />
    <sodipodi:guide
       id="guide4134"
       position="352,512"
       orientation="1,0" />
    <sodipodi:guide
       id="guide4136"
       position="256,256"
       orientation="-0.70710678,0.70710678" />
    <sodipodi:guide
       id="guide4138"
       position="256,512"
       orientation="1,0" />
    <sodipodi:guide
       id="guide4140"
       position="288,256"
       orientation="0,1" />
    <sodipodi:guide
       id="guide4142"
       position="256,256"
       orientation="0.70710678,0.70710678" />
  </sodipodi:namedview>
  <defs
     id="defs3338">
    <linearGradient
       id="linearGradient7701">
      <stop
         offset="0"
         style="stop-color:#c557bc;stop-opacity:1"
         id="stop7693" />
      <stop
         offset="1"
         style="stop-color:#950ba8;stop-opacity:1"
         id="stop7699" />
    </linearGradient>
    <linearGradient
       id="linearGradient4360"
       inkscape:collect="always">
      <stop
         id="stop4362"
         offset="0"
         style="stop-color:#000000;stop-opacity:0.58823532" />
      <stop
         style="stop-color:#000000;stop-opacity:0"
         offset="0.88"
         id="stop4364" />
      <stop
         id="stop4366"
         offset="1"
         style="stop-color:#000000;stop-opacity:1" />
    </linearGradient>
    <linearGradient
       inkscape:collect="always"
       id="linearGradient4249">
      <stop
         style="stop-color:#d04616;stop-opacity:1;"
         offset="0"
         id="stop4251" />
      <stop
         style="stop-color:#d04616;stop-opacity:1"
         offset="1"
         id="stop4253" />
    </linearGradient>
    <linearGradient
       id="linearGradient4220"
       inkscape:collect="always">
      <stop
         id="stop4222"
         offset="0"
         style="stop-color:#e93549;stop-opacity:1" />
      <stop
         id="stop4224"
         offset="1"
         style="stop-color:#ef6b6b;stop-opacity:1" />
    </linearGradient>
    <filter
       id="filter4154"
       inkscape:label="Colorize"
       style="color-interpolation-filters:sRGB">
      <feComposite
         k4="0"
         k3="0"
         id="feComposite4156"
         result="composite1"
         k2="1"
         k1="0"
         operator="arithmetic"
         in2="SourceGraphic" />
      <feColorMatrix
         id="feColorMatrix4158"
         result="colormatrix1"
         type="saturate"
         values="0"
         in="composite1" />
      <feFlood
         id="feFlood4160"
         result="flood1"
         flood-color="rgb(89,132,51)"
         flood-opacity="1" />
      <feBlend
         id="feBlend4162"
         result="blend1"
         mode="multiply"
         in2="colormatrix1"
         in="flood1" />
      <feBlend
         id="feBlend4164"
         result="blend2"
         mode="screen"
         in2="blend1" />
      <feColorMatrix
         id="feColorMatrix4166"
         result="colormatrix2"
         type="saturate"
         values="1"
         in="blend2" />
      <feComposite
         id="feComposite4168"
         result="composite2"
         operator="in"
         in2="SourceGraphic"
         in="colormatrix2" />
    </filter>
    <filter
       height="1.048"
       y="-0.024"
       width="1.048"
       x="-0.024"
       id="filter4264"
       style="color-interpolation-filters:sRGB"
       inkscape:collect="always" />
    <linearGradient
       id="linearGradient7537">
      <stop
         id="stop7539"
         offset="0"
         style="stop-color:#44d459;stop-opacity:1" />
      <stop
         id="stop7541"
         offset="1"
         style="stop-color:#38b44a;stop-opacity:1" />
    </linearGradient>
    <clipPath
       id="clipPath4231-6"
       clipPathUnits="userSpaceOnUse">
      <rect
         y="18"
         x="0"
         height="238"
         width="256"
         id="rect4233-8"
         style="color:#000000;display:inline;overflow:visible;visibility:visible;opacity:0.46400003;fill:#ff00ff;fill-opacity:1;fill-rule:nonzero;stroke:none;stroke-width:1;marker:none;enable-background:accumulate" />
    </clipPath>
    <clipPath
       clipPathUnits="userSpaceOnUse"
       id="clipPath4258">
      <path
         style="color:#000000;display:inline;overflow:visible;visibility:visible;fill:url(#linearGradient4263);fill-opacity:1;fill-rule:nonzero;stroke:none;stroke-width:1;marker:none;enable-background:accumulate"
         d="M 126.05469,18 C -19.242615,18 -40,38.736657 -40,183.89844 l 0,144.20312 C -40,473.26274 -19.242615,494 126.05469,494 l 179.89062,0 C 451.2426,494 472,473.26274 472,328.10156 l 0,-144.20312 C 472,38.736657 451.2426,18 305.94531,18 l -179.89062,0 z"
         id="path4260"
         inkscape:connector-curvature="0" />
    </clipPath>
    <linearGradient
       inkscape:collect="always"
       xlink:href="#linearGradient4220"
       id="linearGradient4263"
       gradientUnits="userSpaceOnUse"
       gradientTransform="translate(-40)"
       x1="0"
       y1="18"
       x2="512"
       y2="494" />
    <clipPath
       clipPathUnits="userSpaceOnUse"
       id="clipPath4266">
      <path
         inkscape:connector-curvature="0"
         id="path4268"
         d="M 86.05469,16 C 8,15.999999 0,16.000001 0,93.89844 L 0,346.10156 C 0,424 8,432 86.05469,432 l 339.89062,0 C 504,432 512,424 512,346.10156 l 0,-212.20312 C 512,56.000001 503.99952,47.72673 425.94531,48 L 208,48.000001 l -32,-32 z"
         style="color:#000000;display:inline;overflow:visible;visibility:visible;fill:url(#linearGradient4270);fill-opacity:1;fill-rule:nonzero;stroke:none;stroke-width:1;marker:none;enable-background:accumulate"
         sodipodi:nodetypes="ssssssssccs" />
    </clipPath>
    <linearGradient
       inkscape:collect="always"
       xlink:href="#linearGradient4249"
       id="linearGradient4270"
       gradientUnits="userSpaceOnUse"
       x1="110.4"
       y1="112"
       x2="110.4"
       y2="16" />
    <clipPath
       clipPathUnits="userSpaceOnUse"
       id="clipPath4391">
      <path
         inkscape:connector-curvature="0"
         id="path4393"
         d="M 88.55469,36 C 10.5,35.999999 2.5,36.000001 2.5,113.89844 l 0,212.20312 C 2.5,404 10.5,412 88.55469,412 l 339.89062,0 C 506.5,412 514.5,404 514.5,326.10156 l 0,-172.20312 C 514.5,76.000001 506.5,68 428.44531,68 l -209.95709,10e-7 c -7.98822,0 -7.98822,0 -16.17203,-8.183809 L 190.5,48.000001 c -11.16101,-12 -16,-12 -24.1152,-12 z"
         style="color:#000000;display:inline;overflow:visible;visibility:visible;fill:#d04616;fill-opacity:1;fill-rule:nonzero;stroke:none;stroke-width:1;marker:none;enable-background:accumulate"
         sodipodi:nodetypes="ssssssssccccs" />
    </clipPath>
    <clipPath
       clipPathUnits="userSpaceOnUse"
       id="clipPath4255">
      <path
         inkscape:connector-curvature="0"
         id="path4257"
         d="M 88.55469,36 C 10.5,35.999999 2.5,36.000001 2.5,113.89844 l 0,212.20312 C 2.5,404 10.5,412 88.55469,412 l 339.89062,0 C 506.5,412 514.5,404 514.5,326.10156 l 0,-180.20312 C 514.5,68.000001 506.49923,59.652236 428.44531,60 L 200,60.000001 l -24,-24 z"
         style="color:#000000;display:inline;overflow:visible;visibility:visible;fill:#d04616;fill-opacity:1;fill-rule:nonzero;stroke:none;stroke-width:1;marker:none;enable-background:accumulate"
         sodipodi:nodetypes="ssssssssccs" />
    </clipPath>
    <linearGradient
       gradientUnits="userSpaceOnUse"
       y2="125.99394"
       x2="-1.0000001e-06"
       y1="397.99393"
       x1="512"
       id="linearGradient4226"
       xlink:href="#linearGradient4338"
       inkscape:collect="always"
       gradientTransform="matrix(0,-0.90625,0.90622407,0,4.0752003,488)" />
    <linearGradient
       inkscape:collect="always"
       id="linearGradient4338">
      <stop
         style="stop-color:#ebebeb;stop-opacity:1"
         offset="0"
         id="stop4340" />
      <stop
         style="stop-color:#f5f5f5;stop-opacity:1"
         offset="1"
         id="stop4342" />
    </linearGradient>
    <clipPath
       clipPathUnits="userSpaceOnUse"
       id="clipPath4255-2">
      <path
         inkscape:connector-curvature="0"
         id="path4257-0"
         d="M 88.55469,36 C 10.5,35.999999 2.5,36.000001 2.5,113.89844 l 0,212.20312 C 2.5,404 10.5,412 88.55469,412 l 339.89062,0 C 506.5,412 514.5,404 514.5,326.10156 l 0,-180.20312 C 514.5,68.000001 506.49923,59.652236 428.44531,60 L 200,60.000001 l -24,-24 z"
         style="color:#000000;display:inline;overflow:visible;visibility:visible;fill:#d04616;fill-opacity:1;fill-rule:nonzero;stroke:none;stroke-width:1;marker:none;enable-background:accumulate"
         sodipodi:nodetypes="ssssssssccs" />
    </clipPath>
    <filter
       inkscape:collect="always"
       style="color-interpolation-filters:sRGB"
       id="filter4346"
       x="-0.013249796"
       width="1.0264996"
       y="-0.010965657"
       height="1.0219313">
      <feGaussianBlur
         inkscape:collect="always"
         stdDeviation="2.120027"
         id="feGaussianBlur4348" />
    </filter>
    <linearGradient
       inkscape:collect="always"
       xlink:href="#linearGradient4360"
       id="linearGradient4358"
       x1="88"
       y1="88"
       x2="488"
       y2="488"
       gradientUnits="userSpaceOnUse" />
    <filter
       inkscape:collect="always"
       style="color-interpolation-filters:sRGB"
       id="filter4380"
       x="-0.052999185"
       width="1.1059984"
       y="-0.043862627"
       height="1.0877253">
      <feGaussianBlur
         inkscape:collect="always"
         stdDeviation="8.4801079"
         id="feGaussianBlur4382" />
    </filter>
    <linearGradient
       x1="1278"
       y1="-1062.6379"
       x2="1278"
       y2="-1118.6379"
       id="linearGradient21865"
       xlink:href="#linearGradient8754"
       gradientUnits="userSpaceOnUse"
       gradientTransform="matrix(2,0,0,2.00002,-1069,630.656)" />
    <linearGradient
       id="linearGradient8754">
      <stop
         id="stop8756"
         style="stop-color:#dc85e9;stop-opacity:1"
         offset="0" />
      <stop
         id="stop8758"
         style="stop-color:#f8dcfb;stop-opacity:1"
         offset="1" />
    </linearGradient>
    <linearGradient
       x1="1559.5"
       y1="184"
       x2="1542.0002"
       y2="184"
       id="linearGradient21867"
       xlink:href="#linearGradient8742"
       gradientUnits="userSpaceOnUse"
       gradientTransform="matrix(-1,0,0,1,2865,-1753.64)" />
    <linearGradient
       id="linearGradient8742">
      <stop
         id="stop8744"
         style="stop-color:#9200ff;stop-opacity:1"
         offset="0" />
      <stop
         id="stop8746"
         style="stop-color:#ff00ff;stop-opacity:0"
         offset="1" />
    </linearGradient>
    <linearGradient
       x1="1559.5"
       y1="184"
       x2="1542.0002"
       y2="184"
       id="linearGradient21869"
       xlink:href="#linearGradient8742"
       gradientUnits="userSpaceOnUse"
       gradientTransform="translate(-123,-1753.64)" />
    <radialGradient
       cx="152.3331"
       cy="-754.6377"
       r="15"
       fx="152.3331"
       fy="-754.6377"
       id="radialGradient21871"
       xlink:href="#linearGradient8717"
       gradientUnits="userSpaceOnUse"
       gradientTransform="matrix(4.06286e-6,1.01528,-4.27735,0,-1857.01,-1670.52)" />
    <linearGradient
       id="linearGradient8717">
      <stop
         id="stop8719"
         style="stop-color:#800080;stop-opacity:1"
         offset="0" />
      <stop
         id="stop8723"
         style="stop-color:#800080;stop-opacity:1"
         offset="0.7268371" />
      <stop
         id="stop8721"
         style="stop-color:#ff00ff;stop-opacity:0"
         offset="1" />
    </linearGradient>
    <linearGradient
       x1="453.50003"
       y1="970.5"
       x2="404.49997"
       y2="970.5"
       id="linearGradient21873"
       xlink:href="#linearGradient8964"
       gradientUnits="userSpaceOnUse"
       gradientTransform="matrix(2,0,0,2,513,-3495.64)" />
    <linearGradient
       id="linearGradient8964">
      <stop
         id="stop8966"
         style="stop-color:#e196fb;stop-opacity:1"
         offset="0" />
      <stop
         id="stop8968"
         style="stop-color:#f4c7fa;stop-opacity:1"
         offset="0.13010512" />
      <stop
         id="stop8970"
         style="stop-color:#e091f3;stop-opacity:1"
         offset="0.31360075" />
      <stop
         id="stop8972"
         style="stop-color:#d764e9;stop-opacity:1"
         offset="0.44078669" />
      <stop
         id="stop8974"
         style="stop-color:#e7adf0;stop-opacity:1"
         offset="0.68364757" />
      <stop
         id="stop8976"
         style="stop-color:#e6a9f8;stop-opacity:1"
         offset="0.75620717" />
      <stop
         id="stop8978"
         style="stop-color:#e595f2;stop-opacity:1"
         offset="0.88021636" />
      <stop
         id="stop8980"
         style="stop-color:#f2cbf8;stop-opacity:1"
         offset="1" />
    </linearGradient>
    <linearGradient
       x1="1322.0002"
       y1="-1568.5111"
       x2="1419.0002"
       y2="-1568.5111"
       id="linearGradient21875"
       xlink:href="#linearGradient8663"
       gradientUnits="userSpaceOnUse"
       gradientTransform="translate(0.022825,4.5e-5)" />
    <linearGradient
       id="linearGradient8663">
      <stop
         id="stop8665"
         style="stop-color:#9207a7;stop-opacity:1"
         offset="0" />
      <stop
         id="stop8667"
         style="stop-color:#c658bc;stop-opacity:1"
         offset="0.27254906" />
      <stop
         id="stop8669"
         style="stop-color:#a42eb6;stop-opacity:1"
         offset="0.50966245" />
      <stop
         id="stop8671"
         style="stop-color:#b415cd;stop-opacity:1"
         offset="0.83376038" />
      <stop
         id="stop8673"
         style="stop-color:#950ba8;stop-opacity:1"
         offset="1" />
    </linearGradient>
    <radialGradient
       cx="518.85358"
       cy="730.48431"
       r="22.889727"
       fx="518.85358"
       fy="730.48431"
       id="radialGradient21877"
       xlink:href="#linearGradient14494"
       gradientUnits="userSpaceOnUse"
       gradientTransform="matrix(0.959821,0,1.35768e-7,0.268231,21.681,534.374)" />
    <linearGradient
       id="linearGradient14494">
      <stop
         id="stop14496"
         style="stop-color:#dc85e9;stop-opacity:1"
         offset="0" />
      <stop
         id="stop14498"
         style="stop-color:#f2cbf8;stop-opacity:1"
         offset="1" />
    </linearGradient>
    <linearGradient
       id="linearGradient8859">
      <stop
         id="stop8861"
         style="stop-color:#ffffff;stop-opacity:1"
         offset="0" />
      <stop
         id="stop8863"
         style="stop-color:#aa0000;stop-opacity:0"
         offset="1" />
    </linearGradient>
    <linearGradient
       x1="1510.4767"
       y1="169.00002"
       x2="1485.8766"
       y2="193.9996"
       id="linearGradient21881"
       xlink:href="#linearGradient8984"
       gradientUnits="userSpaceOnUse"
       gradientTransform="matrix(0.984483,0,0,0.972527,-100.349,-1748.97)" />
    <linearGradient
       id="linearGradient8984">
      <stop
         id="stop8986"
         style="stop-color:#ffffff;stop-opacity:1"
         offset="0" />
      <stop
         id="stop8988"
         style="stop-color:#ffffff;stop-opacity:0"
         offset="1" />
    </linearGradient>
    <linearGradient
       x1="1354.5677"
       y1="-1522.3585"
       x2="1383.3801"
       y2="-1543.9813"
       id="linearGradient21883"
       xlink:href="#linearGradient8984"
       gradientUnits="userSpaceOnUse"
       gradientTransform="matrix(0.976263,0.126435,-0.367421,0.97673,-556.181,-210.596)" />
    <linearGradient
       x1="26.993208"
       y1="992.62183"
       x2="26.993208"
       y2="1008.6921"
       id="linearGradient21863"
       xlink:href="#linearGradient4145-42"
       gradientUnits="userSpaceOnUse"
       gradientTransform="matrix(15.9995,0,0,15.9955,-279.247,-17311.2)" />
    <linearGradient
       id="linearGradient4145-42">
      <stop
         id="stop4953"
         style="stop-color:#e694bb;stop-opacity:1"
         offset="0" />
      <stop
         id="stop4955"
         style="stop-color:#d3819a;stop-opacity:1"
         offset="0.26238" />
      <stop
         id="stop4957"
         style="stop-color:#b25a64;stop-opacity:1"
         offset="0.704952" />
      <stop
         id="stop4959"
         style="stop-color:#98313d;stop-opacity:1"
         offset="1" />
    </linearGradient>
    <linearGradient
       inkscape:collect="always"
       xlink:href="#linearGradient8859"
       id="linearGradient4479"
       gradientUnits="userSpaceOnUse"
       gradientTransform="translate(0,-0.4994)"
       x1="1372.8844"
       y1="-1544.3895"
       x2="1372.8844"
       y2="-1558.6382" />
    <linearGradient
       inkscape:collect="always"
       xlink:href="#linearGradient7701"
       id="linearGradient4483-4"
       gradientUnits="userSpaceOnUse"
       gradientTransform="matrix(0,0.90625,0.90622407,0,4.0752,24.000001)"
       x1="512"
       y1="397.99393"
       x2="-1.1034483e-06"
       y2="152.02483" />
    <linearGradient
       id="linearGradient6402">
      <stop
         id="stop6404"
         style="stop-color:#cd8033;stop-opacity:1"
         offset="0" />
      <stop
         id="stop6406"
         style="stop-color:#bb5e12;stop-opacity:1"
         offset="1" />
    </linearGradient>
  </defs>
  <metadata
     id="metadata3341">
    <rdf:RDF>
      <cc:Work
         rdf:about="">
        <dc:format>image/svg+xml</dc:format>
        <dc:type
           rdf:resource="http://purl.org/dc/dcmitype/StillImage" />
        <dc:title />
      </cc:Work>
    </rdf:RDF>
  </metadata>
  <g
     inkscape:groupmode="layer"
     id="layer2"
     inkscape:label="Shadow"
     style="display:inline"
     transform="translate(-32,-32)"
     sodipodi:insensitive="true">
    <path
       style="color:#000000;display:inline;overflow:visible;visibility:visible;opacity:0.1;fill:#000000;fill-opacity:1;fill-rule:nonzero;stroke:none;stroke-width:1;marker:none;filter:url(#filter4346);enable-background:accumulate"
       d="M 173.84323,58 C 103.24979,58 95.654019,65.250835 96,135.98706 L 96,290 96,444.01294 C 95.654019,514.74917 103.24979,522 173.84323,522 l 228.31354,0 C 472.75021,522 480,514.75001 480,444.01294 L 480,290 480,135.98706 C 480,65.249993 472.75021,58 402.15677,58 Z"
       id="rect4158-9"
       inkscape:connector-curvature="0"
       sodipodi:nodetypes="scccssscsss" />
    <path
       sodipodi:nodetypes="scccssscsss"
       inkscape:connector-curvature="0"
       id="path4350"
       d="M 173.84323,58 C 103.24979,58 95.654019,65.250835 96,135.98706 L 96,290 96,444.01294 C 95.654019,514.74917 103.24979,522 173.84323,522 l 228.31354,0 C 472.75021,522 480,514.75001 480,444.01294 L 480,290 480,135.98706 C 480,65.249993 472.75021,58 402.15677,58 Z"
       style="color:#000000;display:inline;overflow:visible;visibility:visible;opacity:0.3;fill:url(#linearGradient4358);fill-opacity:1;fill-rule:nonzero;stroke:none;stroke-width:1;marker:none;filter:url(#filter4380);enable-background:accumulate" />
  </g>
  <g
     inkscape:label="Background"
     id="layer3"
     inkscape:groupmode="layer"
     style="display:inline">
    <path
       style="color:#000000;display:inline;overflow:visible;visibility:visible;fill:url(#linearGradient4226);fill-opacity:1;fill-rule:nonzero;stroke:none;stroke-width:1;marker:none;enable-background:accumulate"
       d="M 141.84323,24.000001 C 71.249794,24.000001 63.654019,31.250836 64,101.98706 L 64,256 64,410.01294 C 63.654019,480.74917 71.249794,488 141.84323,488 l 228.31354,0 C 440.75021,488 448,480.75001 448,410.01294 L 448,256 448,101.98706 c 0,-70.737066 -7.24979,-77.987059 -77.84323,-77.987059 z"
       id="rect4158"
       inkscape:connector-curvature="0"
       sodipodi:nodetypes="scccssscsss" />
    <path
       inkscape:connector-curvature="0"
       style="color:#000000;display:inline;overflow:visible;visibility:visible;fill:url(#linearGradient4483-4);fill-opacity:1;fill-rule:nonzero;stroke:none;stroke-width:1;marker:none;enable-background:accumulate"
       d="M 141.84375,24 C 71.250314,24 63.654019,31.250095 64,101.98633 V 256 410.01367 C 63.654019,480.74989 71.250314,488 141.84375,488 h 228.3125 C 440.74969,488 448,480.75074 448,410.01367 V 256 140.75 L 432.02539,124.77539 V 256 410.01367 c 0,17.41138 -0.53086,30.534 -2.01562,39.38477 -1.48477,8.85076 -3.56686,12.64718 -5.76368,14.84765 -2.19681,2.20047 -5.9717,4.27862 -14.79687,5.76368 -8.82517,1.48506 -21.91801,2.01562 -39.29297,2.01562 h -228.3125 c -17.37492,0 -30.49114,-0.53065 -39.34961,-2.01758 -8.858466,-1.48693 -12.68172,-3.57761 -14.892578,-5.7832 -2.210853,-2.20559 -4.286439,-5.97481 -5.753906,-14.80273 -1.467467,-8.82795 -1.958137,-21.93327 -1.873047,-39.33008 6.4e-5,-0.026 6.4e-5,-0.0521 0,-0.0781 V 256.00003 101.98636 c 6.4e-5,-0.026 6.4e-5,-0.0521 0,-0.0781 -0.08509,-17.396809 0.40558,-30.502137 1.873047,-39.330075 1.467467,-8.827938 3.543053,-12.597147 5.753906,-14.802734 2.210856,-2.205587 6.034112,-4.296276 14.892578,-5.783203 8.85847,-1.486931 21.97469,-2.017579 39.34961,-2.017579 H 346.22461 L 330.25,24 Z M 328,24 343.97461,39.974609 432.02539,128.02539 448,144 V 101.98633 99.033203 C 447.8953,31.041593 440.39518,24 371.65234,24 Z"
       id="path4481-7"
       sodipodi:nodetypes="scccsssccccsccsssscscccccssssccsccccccsc" />
  </g>
  <g
     inkscape:label="Pictogram"
     id="layer4"
     inkscape:groupmode="layer"
     sodipodi:insensitive="true">
    <path
       sodipodi:nodetypes="cccsccccccccccccccc"
       style="color:#000000;display:inline;overflow:visible;visibility:visible;opacity:0.05;fill:#ff0000;fill-opacity:0;fill-rule:nonzero;stroke:none;stroke-width:40;marker:none;enable-background:accumulate"
       d="m 221.8125,124 -35.1875,71.65625 0,59.25 c -4.93993,5.78797 -10.33923,11.62048 -15.96875,17.25 -18.50312,18.50309 -39.2477,34.68678 -53.125,39.3125 L 94.15625,288.125 22.5,323.3125 22.5,494 l 256,0 0,-317.5625 C 263.08338,142.99385 246.13185,130.51631 221.8125,124 Z M 124.25,353 c 0.007,-0.005 0.0239,0.005 0.0312,0 -2.61074,1.63039 -5.25098,3.22668 -7.90625,4.8125 2.65593,-1.58559 5.2637,-3.18237 7.87505,-4.8125 z m -24.09375,14.0625 c 0.008,-0.004 0.0234,0.004 0.0312,0 -2.74184,1.4991 -5.52861,2.98055 -8.3125,4.4375 2.78427,-1.45683 5.53906,-2.93856 8.2813,-4.4375 z"
       id="path4505-6"
       inkscape:connector-curvature="0" />
  </g>
  <g
     inkscape:groupmode="layer"
     id="layer5"
     inkscape:label="Folds"
     transform="translate(-32,-32)">
    <path
       style="color:#000000;display:inline;overflow:visible;visibility:visible;opacity:0.07;fill:#ffffff;fill-opacity:1;fill-rule:nonzero;stroke:none;stroke-width:1;marker:none;enable-background:accumulate"
       d="M 288,56 V 520 H 402.15625 C 472.74969,520 480,512.75074 480,442.01367 V 288 133.98633 C 480,63.249262 472.74969,56 402.15625,56 Z"
       id="path4231"
       inkscape:connector-curvature="0" />
    <path
       inkscape:connector-curvature="0"
       style="color:#000000;display:inline;overflow:visible;visibility:visible;opacity:0.07;fill:#ffffff;fill-opacity:1;fill-rule:nonzero;stroke:none;stroke-width:1;marker:none;enable-background:accumulate"
       d="M 96,288 V 442.01367 C 95.654019,512.7499 103.25031,520 173.84375,520 h 228.3125 C 472.74969,520 480,512.75074 480,442.01367 V 288 Z"
       id="path4255" />
  </g>
  <g
     inkscape:groupmode="layer"
     id="layer1"
     inkscape:label="Corner &amp; borders"
     transform="translate(-32,-32)">
    <path
       style="color:#000000;display:inline;overflow:visible;visibility:visible;opacity:0.15;fill:#ffffff;fill-opacity:1;fill-rule:nonzero;stroke:none;stroke-width:7.99999952;stroke-linecap:butt;stroke-linejoin:miter;stroke-miterlimit:4;stroke-dasharray:none;stroke-dashoffset:0;stroke-opacity:1;marker:none;enable-background:accumulate"
       d="M 360,520 480,400 v 44.96776 C 479.8953,512.95937 472.39464,520 403.6518,520 Z"
       id="path4254"
       inkscape:connector-curvature="0"
       sodipodi:nodetypes="cccsc" />
    <path
       style="color:#000000;display:inline;overflow:visible;visibility:visible;opacity:0.3;fill:#ffffff;fill-opacity:1;fill-rule:nonzero;stroke:none;stroke-width:1;marker:none;enable-background:accumulate"
       d="M 173.84375,56 C 104.86158,56 96.038343,62.958914 95.994141,129.27734 96.216858,64.792552 105.55126,58 173.84375,58 h 228.3125 C 472.74969,58 480,65.249262 480,135.98633 v -2 C 480,63.249262 472.74969,56 402.15625,56 Z"
       id="path4286"
       inkscape:connector-curvature="0"
       sodipodi:nodetypes="scsscsss" />
    <path
       style="color:#000000;display:inline;overflow:visible;visibility:visible;opacity:0.1;fill:#000000;fill-opacity:1;fill-rule:nonzero;stroke:none;stroke-width:1;marker:none;enable-background:accumulate"
       d="M 480,440.01367 C 480,510.75074 472.74969,518 402.15625,518 H 173.84375 C 105.55126,518 96.216858,511.20745 95.994141,446.72266 96.038343,513.04109 104.86158,520 173.84375,520 h 228.3125 C 472.74969,520 480,512.75074 480,442.01367 Z"
       id="path4295"
       inkscape:connector-curvature="0"
       sodipodi:nodetypes="csscsssc" />
    <g
       style="display:inline;stroke-width:0.57142991"
       id="g21816"
       transform="matrix(1.7499959,0,0,1.7499959,-2111.2446,2994.61)">
      <path
         inkscape:connector-curvature="0"
         style="color:#000000;display:inline;overflow:visible;visibility:visible;fill:url(#linearGradient21865);fill-opacity:1;fill-rule:nonzero;stroke:none;stroke-width:1.14285982;marker:none"
         id="path11953"
         d="m 1307.0003,-1602.638 v 6 h 28 v -6 z m 32,0 v 6 h 30 v -6 z m 34,0 v 6 h 30 v -6 z m 34,0 v 6 h 28 v -6 z m -100,10 v 8 h 28 v -8 z m 32,0 v 8 h 30 v -8 z m 34,0 v 8 h 30 v -8 z m 34,0 v 8 h 28 v -8 z m -100,12 v 8 h 28 v -8 z m 32,0 v 8 h 30 v -8 z m 34,0 v 8 h 30 v -8 z m 34,0 v 8 h 28 v -8 z m -100,12 v 8 h 28 v -8 z m 32,0 v 8 h 30 v -8 z m 34,0 v 8 h 30 v -8 z m 34,0 v 8 h 28 v -8 z m -100,12 v 8 h 28 v -8 z m 32,0 v 8 h 30 v -8 z m 34,0 v 8 h 30 v -8 z m 34,0 v 8 h 28 v -8 z m -100,12 v 8 h 28 v -8 z m 32,0 v 8 h 30 v -8 z m 34,0 v 8 h 30 v -8 z m 34,0 v 8 h 28 v -8 z m -100,12 v 8 h 28 v -8 z m 32,0 v 8 h 30 v -8 z m 34,0 v 8 h 30 v -8 z m 34,0 v 8 h 28 v -8 z m -100,12 v 8 h 28 v -8 z m 32,0 v 8 h 30 v -8 z m 34,0 v 8 h 30 v -8 z m 34,0 v 8 h 28 v -8 z m -100,12 v 8 h 28 v -8 z m 32,0 v 8 h 30 v -8 z m 34,0 v 8 h 30 v -8 z m 34,0 v 8 h 28 v -8 z m -100,12 v 6 h 28 v -6 z m 32,0 v 6 h 30 v -6 z m 34,0 v 6 h 30 v -6 z m 34,0 v 6 h 28 v -6 z" />
      <path
         inkscape:connector-curvature="0"
         style="color:#000000;display:inline;overflow:visible;visibility:visible;opacity:0.25;fill:#800080;fill-opacity:1;fill-rule:nonzero;stroke:none;stroke-width:1.14285982;marker:none"
         id="path8700"
         d="m 1307,-1602.6378 v 1 h 28 v -1 z m 32,0 v 1 h 30 v -1 z m 34,0 v 1 h 30 v -1 z m 34,0 v 1 h 28 v -1 z m -100,10 v 1 h 28 v -1 z m 32,0 v 1 h 30 v -1 z m 34,0 v 1 h 30 v -1 z m 34,0 v 1 h 28 v -1 z m -100,12 v 1 h 28 v -1 z m 32,0 v 1 h 30 v -1 z m 34,0 v 1 h 30 v -1 z m 34,0 v 1 h 28 v -1 z m -100,12 v 1 h 28 v -1 z m 32,0 v 1 h 30 v -1 z m 34,0 v 1 h 30 v -1 z m 34,0 v 1 h 28 v -1 z m -100,12 v 1 h 28 v -1 z m 32,0 v 1 h 30 v -1 z m 34,0 v 1 h 30 v -1 z m 34,0 v 1 h 28 v -1 z m -100,12 v 1 h 28 v -1 z m 32,0 v 1 h 30 v -1 z m 34,0 v 1 h 30 v -1 z m 34,0 v 1 h 28 v -1 z m -100,12 v 1 h 28 v -1 z m 32,0 v 1 h 30 v -1 z m 34,0 v 1 h 30 v -1 z m 34,0 v 1 h 28 v -1 z m -100,12 v 1 h 28 v -1 z m 32,0 v 1 h 30 v -1 z m 34,0 v 1 h 30 v -1 z m 34,0 v 1 h 28 v -1 z m -100,12 v 1 h 28 v -1 z m 32,0 v 1 h 30 v -1 z m 34,0 v 1 h 30 v -1 z m 34,0 v 1 h 28 v -1 z m -100,12 v 1 h 28 v -1 z m 32,0 v 1 h 30 v -1 z m 34,0 v 1 h 30 v -1 z m 34,0 v 1 h 28 v -1 z" />
      <path
         inkscape:connector-curvature="0"
         style="color:#000000;font-style:normal;font-variant:normal;font-weight:normal;font-stretch:normal;font-size:medium;line-height:normal;font-family:Sans;text-indent:0pt;text-align:start;text-decoration:none;text-decoration-line:none;letter-spacing:normal;word-spacing:normal;text-transform:none;direction:ltr;text-anchor:start;display:inline;overflow:visible;visibility:visible;opacity:0.5;fill:none;stroke:#ffffff;stroke-width:1.14285982;stroke-miterlimit:4;stroke-dasharray:none;marker:none"
         id="path14181"
         d="m 1336.8667,-1582.8566 c -4.4225,1.1052 -8.0003,2.6406 -10.5626,4.2813 -2.5623,1.6406 -4.2094,3.5916 -4.2187,5.9375 -0.078,19.6496 -0.062,38.3855 -0.062,54 0,2.2938 1.6506,4.2616 4.2188,5.9062 2.5682,1.6445 6.1886,3.057 10.5937,4.25 8.8102,2.3861 20.8595,3.8438 34.1875,3.8438 13.328,0 25.3773,-1.4577 34.1875,-3.8438 4.4051,-1.193 8.0254,-2.6054 10.5937,-4.25 2.5682,-1.6445 4.1959,-3.6233 4.1959,-5.9171 v -54 c 0,-2.3459 -1.6956,-4.286 -4.2578,-5.9266 -2.5623,-1.6407 -6.1626,-3.0896 -10.5626,-4.2813 -8.7998,-2.3834 -20.8257,-3.7812 -34.1562,-3.7812 -13.4197,0 -24.7005,1.4179 -34.1572,3.7812 z m 34.1562,-1.7812 c 13.1884,-0.024 25.1148,1.4594 33.6875,3.7812 4.2863,1.1609 7.7357,2.5926 10.0313,4.0625 2.2956,1.47 3.4615,2.9179 3.3437,4.1563 -0.2099,2.2051 -2.5786,3.7353 -4.2498,4.6877 -2.7109,1.5447 -5.9518,2.7094 -8.875,3.4682 -9.9807,2.5907 -19.9474,3.5351 -29.5313,3.7808 -13.2609,0.2127 -26.4103,-0.7313 -38.5312,-3.8423 -2.8126,-0.7333 -5.249,-1.6374 -7.6562,-2.8437 -2.1609,-1.0829 -5.0631,-2.882 -5.2805,-5.2495 -0.117,-1.2738 1.048,-2.6864 3.3437,-4.1563 2.2956,-1.47 5.6973,-3.0942 10.0313,-4.0625 11.926,-2.6645 23.6544,-3.7638 33.6865,-3.7824 z m -47,16.125 c 0.633,0.635 1.3925,1.2732 2.2812,1.8125 3.29,1.9964 7.3084,3.4876 10.5626,4.2812 13.1049,3.0399 26.1178,4.0856 38.625,3.7191 10.112,-0.3193 20.3214,-1.0694 29.6874,-3.7191 4.6348,-1.3113 9.5649,-2.8964 12.8438,-6.0937 v 12.875 c 0,0.5819 0,1.2208 -0.125,1.7187 -0.2732,1.1053 -1.3688,2.437 -3.3438,3.5938 -3.2639,1.9117 -6.8389,3.0829 -9.9998,3.9374 -11.2316,2.7397 -22.9156,3.7351 -33.5312,3.75 -11.4559,-0.088 -23.5356,-1.1252 -33.6875,-3.7813 -4.3563,-1.3747 -8.7244,-2.5615 -11.8745,-5.4685 -0.7253,-0.677 -1.1339,-1.4058 -1.3125,-2.0313 -0.1617,-0.5663 -0.124,-1.122 -0.124,-1.7187 v -12.875 z m 0,18.0312 c 0.3881,0.384 0.8349,0.7645 1.3125,1.125 3.8328,2.6485 8.599,4.1875 12.7498,5.2191 11.4816,2.6061 21.6513,3.4771 32.9375,3.4992 11.3534,-0.2328 22.4745,-0.8133 32.9375,-3.4995 3.7047,-0.9664 7.6813,-2.3851 10.6879,-3.9063 1.1439,-0.5788 2.9374,-2.034 3.375,-2.4378 0,0 0,8.5625 0,12.8438 0,0.5819 0,1.2208 -0.125,1.7187 -0.2732,1.1053 -1.4022,2.3818 -3.3438,3.5938 -4.2885,2.5159 -9.373,3.9033 -13.8435,4.8749 -10.3889,2.0162 -19.9086,2.7984 -29.6875,2.8125 -4.946,0 -9.7115,-0.172 -14.1875,-0.5938 -10.0501,-1.2286 -18.9816,-2.1518 -27.5,-6.0625 -1.4518,-0.6725 -2.7953,-1.6037 -3.8745,-2.5935 -0.7312,-0.6706 -1.117,-1.4108 -1.3125,-2.0313 -0.075,-0.2376 -0.1224,-0.5025 -0.124,-0.7187 -0.035,-4.6145 0,-9.2292 0,-13.8438 z m 0,18 c 1.5656,1.541 3.6376,2.7051 5.531,3.5003 8.6756,3.5974 18.9429,5.0615 27.125,5.7497 4.9351,0.4055 9.7705,0.5946 14.3438,0.5933 11.3687,-0.1838 22.4492,-0.8859 32.9375,-3.4995 4.2187,-1.1456 8.1701,-2.4102 11.6567,-4.4691 0.9341,-0.5547 1.6709,-1.1929 2.4062,-1.875 0,0 0,8.5625 0,12.8438 0,0.3333 0,-0.7879 0,1 0,1.2961 -1.0229,2.7528 -3.3125,4.2187 -2.2896,1.4662 -5.7189,2.8405 -10,4 -8.5625,2.3189 -20.5059,3.7813 -33.6875,3.7813 -13.1817,0 -25.1251,-1.4623 -33.6875,-3.7813 -4.2812,-1.1594 -7.7104,-2.5339 -10,-4 -2.2896,-1.466 -3.3125,-2.9226 -3.3125,-4.2187 0,-4.6146 0,-9.2292 0,-13.8438 z" />
      <path
         inkscape:connector-curvature="0"
         style="color:#000000;display:inline;overflow:visible;visibility:visible;opacity:0.35;fill:url(#linearGradient21867);fill-opacity:1;fill-rule:nonzero;stroke:none;stroke-width:0.57142991;marker:none"
         id="path8750"
         d="m 1322,-1602.6378 v 6 h -15 v -6 z m 0,10 v 8 h -15 v -8 z m 0,12 v 8 h -15 v -8 z m 0,12 v 8 h -15 v -8 z m 0,12 v 8 h -15 v -8 z m 0,12 v 8 h -15 v -8 z m 0,12 v 8 h -15 v -8 z m 0,12 v 8 h -15 v -8 z m 0,12 v 8 h -15 v -8 z m 0,12 v 6 h -15 v -6 z" />
      <path
         inkscape:connector-curvature="0"
         style="color:#000000;display:inline;overflow:visible;visibility:visible;opacity:0.35;fill:url(#linearGradient21869);fill-opacity:1;fill-rule:nonzero;stroke:none;stroke-width:0.57142991;marker:none"
         id="rect8729"
         d="m 1420,-1602.6378 v 6 h 15 v -6 z m 0,10 v 8 h 15 v -8 z m 0,12 v 8 h 15 v -8 z m 0,12 v 8 h 15 v -8 z m 0,12 v 8 h 15 v -8 z m 0,12 v 8 h 15 v -8 z m 0,12 v 8 h 15 v -8 z m 0,12 v 8 h 15 v -8 z m 0,12 v 8 h 15 v -8 z m 0,12 v 6 h 15 v -6 z" />
      <rect
         style="color:#000000;display:inline;overflow:visible;visibility:visible;opacity:0.5;fill:url(#radialGradient21871);fill-opacity:1;fill-rule:nonzero;stroke:none;stroke-width:0.57142991;marker:none"
         id="rect8713"
         y="-1530.6377"
         x="1307"
         height="30"
         width="128" />
      <path
         inkscape:connector-curvature="0"
         style="color:#000000;display:inline;overflow:visible;visibility:visible;fill:url(#linearGradient21873);fill-opacity:1;fill-rule:nonzero;stroke:none;stroke-width:1.14285982;marker:none"
         id="path11957"
         d="m 1323,-1570.6378 v 52 c 0,7.1797 21.4903,13 48,13 26.5096,0 48,-5.8203 48,-13 v -52 z" />
      <path
         inkscape:connector-curvature="0"
         style="color:#000000;font-style:normal;font-variant:normal;font-weight:normal;font-stretch:normal;font-size:medium;line-height:normal;font-family:Sans;text-indent:0pt;text-align:start;text-decoration:none;text-decoration-line:none;letter-spacing:normal;word-spacing:normal;text-transform:none;direction:ltr;text-anchor:start;display:inline;overflow:visible;visibility:visible;fill:url(#linearGradient21875);fill-opacity:1;fill-rule:nonzero;stroke:none;stroke-width:1.14285982;marker:none"
         id="path8875-6"
         d="m 1336.8667,-1582.8566 c -4.4225,1.1052 -8.0003,2.6406 -10.5626,4.2813 -2.5623,1.6406 -4.2094,3.5916 -4.2187,5.9375 -0.078,19.6496 -0.062,38.3855 -0.062,54 0,2.2938 1.6506,4.2616 4.2188,5.9062 2.5682,1.6445 6.1886,3.057 10.5937,4.25 8.8102,2.3861 20.8595,3.8438 34.1875,3.8438 13.328,0 25.3773,-1.4577 34.1875,-3.8438 4.4051,-1.193 8.0254,-2.6054 10.5937,-4.25 2.5682,-1.6445 4.1959,-3.6233 4.1959,-5.9171 v -54 c 0,-2.3459 -1.6956,-4.286 -4.2578,-5.9266 -2.5623,-1.6407 -6.1626,-3.0896 -10.5626,-4.2813 -8.7998,-2.3834 -20.8257,-3.7812 -34.1562,-3.7812 -13.4197,0 -24.7005,1.4179 -34.1572,3.7812 z m 34.1562,-1.7812 c 13.1884,-0.024 25.1148,1.4594 33.6875,3.7812 4.2863,1.1609 7.7357,2.5926 10.0313,4.0625 2.2956,1.47 3.4615,2.9179 3.3437,4.1563 -0.2099,2.2051 -2.5786,3.7353 -4.2498,4.6877 -2.7109,1.5447 -5.9518,2.7094 -8.875,3.4682 -9.9807,2.5907 -19.9474,3.5351 -29.5313,3.7808 -13.2609,0.2127 -26.4103,-0.7313 -38.5312,-3.8423 -2.8126,-0.7333 -5.249,-1.6374 -7.6562,-2.8437 -2.1609,-1.0829 -5.0631,-2.882 -5.2805,-5.2495 -0.117,-1.2738 1.048,-2.6864 3.3437,-4.1563 2.2956,-1.47 5.6973,-3.0942 10.0313,-4.0625 11.926,-2.6645 23.6544,-3.7638 33.6865,-3.7824 z m -47,16.125 c 0.633,0.635 1.3925,1.2732 2.2812,1.8125 3.29,1.9964 7.3084,3.4876 10.5626,4.2812 13.1049,3.0399 26.1178,4.0856 38.625,3.7191 10.112,-0.3193 20.3214,-1.0694 29.6874,-3.7191 4.6348,-1.3113 9.5649,-2.8964 12.8438,-6.0937 v 12.875 c 0,0.5819 0,1.2208 -0.125,1.7187 -0.2732,1.1053 -1.3688,2.437 -3.3438,3.5938 -3.2639,1.9117 -6.8389,3.0829 -9.9998,3.9374 -11.2316,2.7397 -22.9156,3.7351 -33.5312,3.75 -11.4559,-0.088 -23.5356,-1.1252 -33.6875,-3.7813 -4.3563,-1.3747 -8.7244,-2.5615 -11.8745,-5.4685 -0.7253,-0.677 -1.1339,-1.4058 -1.3125,-2.0313 -0.1617,-0.5663 -0.124,-1.122 -0.124,-1.7187 v -12.875 z m 0,18.0312 c 0.3881,0.384 0.8349,0.7645 1.3125,1.125 3.8328,2.6485 8.599,4.1875 12.7498,5.2191 11.4816,2.6061 21.6513,3.4771 32.9375,3.4992 11.3534,-0.2328 22.4745,-0.8133 32.9375,-3.4995 3.7047,-0.9664 7.6813,-2.3851 10.6879,-3.9063 1.1439,-0.5788 2.9374,-2.034 3.375,-2.4378 0,0 0,8.5625 0,12.8438 0,0.5819 0,1.2208 -0.125,1.7187 -0.2732,1.1053 -1.4022,2.3818 -3.3438,3.5938 -4.2885,2.5159 -9.373,3.9033 -13.8435,4.8749 -10.3889,2.0162 -19.9086,2.7984 -29.6875,2.8125 -4.946,0 -9.7115,-0.172 -14.1875,-0.5938 -10.0501,-1.2286 -18.9816,-2.1518 -27.5,-6.0625 -1.4518,-0.6725 -2.7953,-1.6037 -3.8745,-2.5935 -0.7312,-0.6706 -1.117,-1.4108 -1.3125,-2.0313 -0.075,-0.2376 -0.1224,-0.5025 -0.124,-0.7187 -0.035,-4.6145 0,-9.2292 0,-13.8438 z m 0,18 c 1.5656,1.541 3.6376,2.7051 5.531,3.5003 8.6756,3.5974 18.9429,5.0615 27.125,5.7497 4.9351,0.4055 9.7705,0.5946 14.3438,0.5933 11.3687,-0.1838 22.4492,-0.8859 32.9375,-3.4995 4.2187,-1.1456 8.1701,-2.4102 11.6567,-4.4691 0.9341,-0.5547 1.6709,-1.1929 2.4062,-1.875 0,0 0,8.5625 0,12.8438 0,0.3333 0,-0.7879 0,1 0,1.2961 -1.0229,2.7528 -3.3125,4.2187 -2.2896,1.4662 -5.7189,2.8405 -10,4 -8.5625,2.3189 -20.5059,3.7813 -33.6875,3.7813 -13.1817,0 -25.1251,-1.4623 -33.6875,-3.7813 -4.2812,-1.1594 -7.7104,-2.5339 -10,-4 -2.2896,-1.466 -3.3125,-2.9226 -3.3125,-4.2187 0,-4.6146 0,-9.2292 0,-13.8438 z" />
      <path
         inkscape:connector-curvature="0"
         style="color:#000000;display:inline;overflow:visible;visibility:visible;fill:url(#radialGradient21877);fill-opacity:1;fill-rule:nonzero;stroke:none;stroke-width:0.51683092;marker:none"
         id="path11967"
         transform="matrix(2.09471,0,0,2.10989,282.407,-3113.52)"
         d="m 542.125,730.3125 a 22.4375,5.6875 0 1 1 -44.875,0 22.4375,5.6875 0 1 1 44.875,0 z" />
      <path
         inkscape:connector-curvature="0"
         style="color:#000000;display:inline;overflow:visible;visibility:visible;opacity:0.5;fill:none;stroke:#ffffff;stroke-width:0.57142991;stroke-linejoin:miter;stroke-miterlimit:4;stroke-dasharray:none;marker:none"
         id="path12064"
         d="m 1324.4843,-1567.3581 v 11.1536 c 0,0 0,0.6884 0,0.9333 0,6.7008 20.8164,12.1328 46.4948,12.1328 25.6783,0 46.4947,-5.432 46.4947,-12.1328 v -0.9333 -11.093 c -4.1571,3.7151 -19.6266,9.1956 -46.3488,9.1956 -26.7222,0 -42.7516,-5.5408 -46.6407,-9.2562 z" />
      <path
         inkscape:connector-curvature="0"
         style="color:#000000;display:inline;overflow:visible;visibility:visible;opacity:0.5;fill:none;stroke:#ffffff;stroke-width:0.27914864;stroke-linecap:butt;stroke-linejoin:miter;stroke-miterlimit:4;stroke-dasharray:none;stroke-dashoffset:0;stroke-opacity:1;marker:none"
         id="path12066"
         transform="matrix(2.07242,0,0,2.02198,293.987,-3049.31)"
         d="m 542.125,730.3125 a 22.4375,5.6875 0 1 1 -44.875,0 22.4375,5.6875 0 1 1 44.875,0 z" />
      <path
         inkscape:connector-curvature="0"
         style="color:#000000;display:inline;overflow:visible;visibility:visible;opacity:0.25;fill:url(#linearGradient4479);fill-opacity:1;stroke:none;stroke-width:0.57142991;marker:none"
         id="path8855"
         d="m 1324.4843,-1566.8575 v 9.1536 c 0,0 0,0.6884 0,0.9333 0,6.7008 20.8164,12.1328 46.4948,12.1328 25.6783,0 46.4947,-5.432 46.4947,-12.1328 v -0.9333 -9.093 c -4.1571,3.7151 -19.6266,9.1956 -46.3488,9.1956 -26.7222,0 -42.7516,-5.5408 -46.6407,-9.2562 z" />
      <path
         inkscape:connector-curvature="0"
         style="opacity:0.25;fill:url(#linearGradient21881);fill-opacity:1;stroke:none;stroke-width:0.57142991"
         id="path8982"
         d="m 1336.75,-1580.4771 71.375,15.0742 -19.4435,3.8901 -31.5035,-22.125 z" />
      <use
         xlink:href="#path12064"
         height="1085"
         width="5033"
         y="0"
         x="0"
         id="use14183"
         transform="translate(0,18)"
         style="stroke-width:0.57142991" />
      <use
         xlink:href="#path8855"
         height="1085"
         width="5033"
         y="0"
         x="0"
         id="use14185"
         transform="translate(0,18)"
         style="stroke-width:0.57142991" />
      <use
         xlink:href="#path12064"
         height="1085"
         width="5033"
         y="0"
         x="0"
         id="use14187"
         transform="translate(0,36)"
         style="stroke-width:0.57142991" />
      <use
         xlink:href="#path8855"
         height="1085"
         width="5033"
         y="0"
         x="0"
         id="use14189"
         transform="translate(0,36)"
         style="stroke-width:0.57142991" />
      <path
         inkscape:connector-curvature="0"
         style="display:inline;opacity:0.25;fill:url(#linearGradient21883);fill-opacity:1;stroke:none;stroke-width:0.57142991"
         id="path8992"
         d="m 1331.7271,-1563.8805 c 0,0 1.2809,21.6144 9.4257,36.5283 8.1448,14.9139 15.2451,19.1332 15.2451,19.1332 l 16.8342,-1.4495 c 0,0 -17.0503,-11.4476 -25.0669,-27.6647 -8.0166,-16.2172 -10.0081,-24.3946 -10.0081,-24.3946 z" />
    </g>
  </g>
</svg>
