<?xml version="1.0" encoding="UTF-8" standalone="no"?>
<!-- Created with Inkscape (http://www.inkscape.org/) -->

<svg
   xmlns:dc="http://purl.org/dc/elements/1.1/"
   xmlns:cc="http://creativecommons.org/ns#"
   xmlns:rdf="http://www.w3.org/1999/02/22-rdf-syntax-ns#"
   xmlns:svg="http://www.w3.org/2000/svg"
   xmlns="http://www.w3.org/2000/svg"
   xmlns:xlink="http://www.w3.org/1999/xlink"
   xmlns:sodipodi="http://sodipodi.sourceforge.net/DTD/sodipodi-0.dtd"
   xmlns:inkscape="http://www.inkscape.org/namespaces/inkscape"
   width="512"
   height="512"
   id="svg3336"
   version="1.1"
   inkscape:version="0.91+devel unknown"
   sodipodi:docname="text-x-makefile.svg"
   inkscape:export-filename="app_shape02.png"
   inkscape:export-xdpi="180"
   inkscape:export-ydpi="180"
   style="enable-background:new"
   viewBox="0 0 512 512">
  <sodipodi:namedview
     id="base"
     pagecolor="#b4b4b4"
     bordercolor="#666666"
     borderopacity="1.0"
     inkscape:pageopacity="0"
     inkscape:pageshadow="2"
     inkscape:zoom="1.5625"
     inkscape:cx="-2.58033"
     inkscape:cy="190.45942"
     inkscape:document-units="px"
     inkscape:current-layer="layer5"
     showgrid="true"
     inkscape:window-width="1920"
     inkscape:window-height="1029"
     inkscape:window-x="0"
     inkscape:window-y="24"
     inkscape:window-maximized="1"
     inkscape:snap-page="true"
     inkscape:showpageshadow="false"
     showborder="true"
     inkscape:snap-bbox="true"
     inkscape:bbox-paths="true"
     inkscape:bbox-nodes="true"
     inkscape:snap-bbox-edge-midpoints="true"
     inkscape:snap-bbox-midpoints="true"
     inkscape:object-paths="true"
     inkscape:object-nodes="true"
     inkscape:snap-intersection-paths="true"
     inkscape:snap-smooth-nodes="true"
     inkscape:snap-midpoints="true"
     inkscape:snap-object-midpoints="true"
     inkscape:snap-center="true"
     showguides="true"
     inkscape:guide-bbox="true"
     inkscape:snap-grids="true"
     fit-margin-top="0"
     fit-margin-left="48"
     fit-margin-right="48"
     fit-margin-bottom="0"
     inkscape:snap-global="true">
    <inkscape:grid
       enabled="true"
       visible="true"
       originy="15.999999"
       originx="-5.4802925e-08"
       id="grid811"
       type="xygrid" />
    <sodipodi:guide
       id="guide819"
       position="128,512"
       orientation="1,0"
       inkscape:locked="false" />
    <sodipodi:guide
       id="guide821"
       position="144,512"
       orientation="1,0"
       inkscape:locked="false" />
    <sodipodi:guide
       id="guide823"
       position="368,512"
       orientation="1,0"
       inkscape:locked="false" />
    <sodipodi:guide
       id="guide825"
       position="384,504"
       orientation="1,0"
       inkscape:locked="false" />
    <sodipodi:guide
       id="guide827"
       position="512,384"
       orientation="0,1"
       inkscape:locked="false" />
    <sodipodi:guide
       id="guide829"
       position="512,368"
       orientation="0,1"
       inkscape:locked="false" />
    <sodipodi:guide
       id="guide831"
       position="512,144"
       orientation="0,1"
       inkscape:locked="false" />
    <sodipodi:guide
       id="guide833"
       position="512,128"
       orientation="0,1"
       inkscape:locked="false" />
    <inkscape:grid
       originy="16.999996"
       originx="-5.4802925e-08"
       enabled="false"
       spacingy="3.522px"
       gridanglez="42.9"
       gridanglex="42.9"
       empspacing="60"
       units="px"
       id="grid835"
       type="axonomgrid" />
    <sodipodi:guide
       id="guide4126"
       position="512,352"
       orientation="0,1"
       inkscape:locked="false" />
    <sodipodi:guide
       id="guide4128"
       position="512,160"
       orientation="0,1"
       inkscape:locked="false" />
    <sodipodi:guide
       id="guide4130"
       position="160,512"
       orientation="1,0"
       inkscape:locked="false" />
    <sodipodi:guide
       id="guide4134"
       position="352,512"
       orientation="1,0"
       inkscape:locked="false" />
    <sodipodi:guide
       id="guide4136"
       position="256,256"
       orientation="-0.70710678,0.70710678"
       inkscape:locked="false" />
    <sodipodi:guide
       id="guide4138"
       position="256,512"
       orientation="1,0"
       inkscape:locked="false" />
    <sodipodi:guide
       id="guide4140"
       position="288,256"
       orientation="0,1"
       inkscape:locked="false" />
    <sodipodi:guide
       id="guide4142"
       position="256,256"
       orientation="0.70710678,0.70710678"
       inkscape:locked="false" />
  </sodipodi:namedview>
  <defs
     id="defs3338">
    <linearGradient
       id="linearGradient4360"
       inkscape:collect="always">
      <stop
         id="stop4362"
         offset="0"
         style="stop-color:#000000;stop-opacity:0.58823532" />
      <stop
         style="stop-color:#000000;stop-opacity:0"
         offset="0.88"
         id="stop4364" />
      <stop
         id="stop4366"
         offset="1"
         style="stop-color:#000000;stop-opacity:1" />
    </linearGradient>
    <linearGradient
       inkscape:collect="always"
       id="linearGradient4249">
      <stop
         style="stop-color:#d04616;stop-opacity:1;"
         offset="0"
         id="stop4251" />
      <stop
         style="stop-color:#d04616;stop-opacity:1"
         offset="1"
         id="stop4253" />
    </linearGradient>
    <linearGradient
       id="linearGradient4220"
       inkscape:collect="always">
      <stop
         id="stop4222"
         offset="0"
         style="stop-color:#e93549;stop-opacity:1" />
      <stop
         id="stop4224"
         offset="1"
         style="stop-color:#ef6b6b;stop-opacity:1" />
    </linearGradient>
    <filter
       id="filter4154"
       inkscape:label="Colorize"
       style="color-interpolation-filters:sRGB">
      <feComposite
         k4="0"
         k3="0"
         id="feComposite4156"
         result="composite1"
         k2="1"
         k1="0"
         operator="arithmetic"
         in2="SourceGraphic" />
      <feColorMatrix
         id="feColorMatrix4158"
         result="colormatrix1"
         type="saturate"
         values="0"
         in="composite1" />
      <feFlood
         id="feFlood4160"
         result="flood1"
         flood-color="rgb(89,132,51)"
         flood-opacity="1" />
      <feBlend
         id="feBlend4162"
         result="blend1"
         mode="multiply"
         in2="colormatrix1"
         in="flood1" />
      <feBlend
         id="feBlend4164"
         result="blend2"
         mode="screen"
         in2="blend1" />
      <feColorMatrix
         id="feColorMatrix4166"
         result="colormatrix2"
         type="saturate"
         values="1"
         in="blend2" />
      <feComposite
         id="feComposite4168"
         result="composite2"
         operator="in"
         in2="SourceGraphic"
         in="colormatrix2" />
    </filter>
    <filter
       height="1.048"
       y="-0.024"
       width="1.048"
       x="-0.024"
       id="filter4264"
       style="color-interpolation-filters:sRGB"
       inkscape:collect="always" />
    <linearGradient
       id="linearGradient7537">
      <stop
         id="stop7539"
         offset="0"
         style="stop-color:#44d459;stop-opacity:1" />
      <stop
         id="stop7541"
         offset="1"
         style="stop-color:#38b44a;stop-opacity:1" />
    </linearGradient>
    <clipPath
       id="clipPath4231-6"
       clipPathUnits="userSpaceOnUse">
      <rect
         y="18"
         x="0"
         height="238"
         width="256"
         id="rect4233-8"
         style="color:#000000;display:inline;overflow:visible;visibility:visible;opacity:0.46400003;fill:#ff00ff;fill-opacity:1;fill-rule:nonzero;stroke:none;stroke-width:1;marker:none;enable-background:accumulate" />
    </clipPath>
    <clipPath
       clipPathUnits="userSpaceOnUse"
       id="clipPath4258">
      <path
         style="color:#000000;display:inline;overflow:visible;visibility:visible;fill:url(#linearGradient4263);fill-opacity:1;fill-rule:nonzero;stroke:none;stroke-width:1;marker:none;enable-background:accumulate"
         d="M 126.05469,18 C -19.242615,18 -40,38.736657 -40,183.89844 l 0,144.20312 C -40,473.26274 -19.242615,494 126.05469,494 l 179.89062,0 C 451.2426,494 472,473.26274 472,328.10156 l 0,-144.20312 C 472,38.736657 451.2426,18 305.94531,18 l -179.89062,0 z"
         id="path4260"
         inkscape:connector-curvature="0" />
    </clipPath>
    <linearGradient
       inkscape:collect="always"
       xlink:href="#linearGradient4220"
       id="linearGradient4263"
       gradientUnits="userSpaceOnUse"
       gradientTransform="translate(-40)"
       x1="0"
       y1="18"
       x2="512"
       y2="494" />
    <clipPath
       clipPathUnits="userSpaceOnUse"
       id="clipPath4266">
      <path
         inkscape:connector-curvature="0"
         id="path4268"
         d="M 86.05469,16 C 8,15.999999 0,16.000001 0,93.89844 L 0,346.10156 C 0,424 8,432 86.05469,432 l 339.89062,0 C 504,432 512,424 512,346.10156 l 0,-212.20312 C 512,56.000001 503.99952,47.72673 425.94531,48 L 208,48.000001 l -32,-32 z"
         style="color:#000000;display:inline;overflow:visible;visibility:visible;fill:url(#linearGradient4270);fill-opacity:1;fill-rule:nonzero;stroke:none;stroke-width:1;marker:none;enable-background:accumulate"
         sodipodi:nodetypes="ssssssssccs" />
    </clipPath>
    <linearGradient
       inkscape:collect="always"
       xlink:href="#linearGradient4249"
       id="linearGradient4270"
       gradientUnits="userSpaceOnUse"
       x1="110.4"
       y1="112"
       x2="110.4"
       y2="16" />
    <clipPath
       clipPathUnits="userSpaceOnUse"
       id="clipPath4391">
      <path
         inkscape:connector-curvature="0"
         id="path4393"
         d="M 88.55469,36 C 10.5,35.999999 2.5,36.000001 2.5,113.89844 l 0,212.20312 C 2.5,404 10.5,412 88.55469,412 l 339.89062,0 C 506.5,412 514.5,404 514.5,326.10156 l 0,-172.20312 C 514.5,76.000001 506.5,68 428.44531,68 l -209.95709,10e-7 c -7.98822,0 -7.98822,0 -16.17203,-8.183809 L 190.5,48.000001 c -11.16101,-12 -16,-12 -24.1152,-12 z"
         style="color:#000000;display:inline;overflow:visible;visibility:visible;fill:#d04616;fill-opacity:1;fill-rule:nonzero;stroke:none;stroke-width:1;marker:none;enable-background:accumulate"
         sodipodi:nodetypes="ssssssssccccs" />
    </clipPath>
    <clipPath
       clipPathUnits="userSpaceOnUse"
       id="clipPath4255">
      <path
         inkscape:connector-curvature="0"
         id="path4257"
         d="M 88.55469,36 C 10.5,35.999999 2.5,36.000001 2.5,113.89844 l 0,212.20312 C 2.5,404 10.5,412 88.55469,412 l 339.89062,0 C 506.5,412 514.5,404 514.5,326.10156 l 0,-180.20312 C 514.5,68.000001 506.49923,59.652236 428.44531,60 L 200,60.000001 l -24,-24 z"
         style="color:#000000;display:inline;overflow:visible;visibility:visible;fill:#d04616;fill-opacity:1;fill-rule:nonzero;stroke:none;stroke-width:1;marker:none;enable-background:accumulate"
         sodipodi:nodetypes="ssssssssccs" />
    </clipPath>
    <linearGradient
       gradientUnits="userSpaceOnUse"
       y2="125.99394"
       x2="-1.0000001e-06"
       y1="397.99393"
       x1="512"
       id="linearGradient4226"
       xlink:href="#linearGradient4338"
       inkscape:collect="always"
       gradientTransform="matrix(0,-0.90625,0.90622407,0,4.0752003,488)" />
    <linearGradient
       inkscape:collect="always"
       id="linearGradient4338">
      <stop
         style="stop-color:#ebebeb;stop-opacity:1"
         offset="0"
         id="stop4340" />
      <stop
         style="stop-color:#f5f5f5;stop-opacity:1"
         offset="1"
         id="stop4342" />
    </linearGradient>
    <clipPath
       clipPathUnits="userSpaceOnUse"
       id="clipPath4255-2">
      <path
         inkscape:connector-curvature="0"
         id="path4257-0"
         d="M 88.55469,36 C 10.5,35.999999 2.5,36.000001 2.5,113.89844 l 0,212.20312 C 2.5,404 10.5,412 88.55469,412 l 339.89062,0 C 506.5,412 514.5,404 514.5,326.10156 l 0,-180.20312 C 514.5,68.000001 506.49923,59.652236 428.44531,60 L 200,60.000001 l -24,-24 z"
         style="color:#000000;display:inline;overflow:visible;visibility:visible;fill:#d04616;fill-opacity:1;fill-rule:nonzero;stroke:none;stroke-width:1;marker:none;enable-background:accumulate"
         sodipodi:nodetypes="ssssssssccs" />
    </clipPath>
    <filter
       inkscape:collect="always"
       style="color-interpolation-filters:sRGB"
       id="filter4346"
       x="-0.013249796"
       width="1.0264996"
       y="-0.010965657"
       height="1.0219313">
      <feGaussianBlur
         inkscape:collect="always"
         stdDeviation="2.120027"
         id="feGaussianBlur4348" />
    </filter>
    <linearGradient
       inkscape:collect="always"
       xlink:href="#linearGradient4360"
       id="linearGradient4358"
       x1="88"
       y1="88"
       x2="488"
       y2="488"
       gradientUnits="userSpaceOnUse" />
    <filter
       inkscape:collect="always"
       style="color-interpolation-filters:sRGB"
       id="filter4380"
       x="-0.052999185"
       width="1.1059984"
       y="-0.043862627"
       height="1.0877253">
      <feGaussianBlur
         inkscape:collect="always"
         stdDeviation="8.4801079"
         id="feGaussianBlur4382" />
    </filter>
  </defs>
  <metadata
     id="metadata3341">
    <rdf:RDF>
      <cc:Work
         rdf:about="">
        <dc:format>image/svg+xml</dc:format>
        <dc:type
           rdf:resource="http://purl.org/dc/dcmitype/StillImage" />
        <dc:title />
      </cc:Work>
    </rdf:RDF>
  </metadata>
  <g
     inkscape:groupmode="layer"
     id="layer2"
     inkscape:label="Shadow"
     style="display:inline"
     transform="translate(-32,-32)"
     sodipodi:insensitive="true">
    <path
       style="color:#000000;display:inline;overflow:visible;visibility:visible;opacity:0.1;fill:#000000;fill-opacity:1;fill-rule:nonzero;stroke:none;stroke-width:1;marker:none;filter:url(#filter4346);enable-background:accumulate"
       d="M 173.84323,58 C 103.24979,58 95.654019,65.250835 96,135.98706 L 96,290 96,444.01294 C 95.654019,514.74917 103.24979,522 173.84323,522 l 228.31354,0 C 472.75021,522 480,514.75001 480,444.01294 L 480,290 480,135.98706 C 480,65.249993 472.75021,58 402.15677,58 Z"
       id="rect4158-9"
       inkscape:connector-curvature="0"
       sodipodi:nodetypes="scccssscsss" />
    <path
       sodipodi:nodetypes="scccssscsss"
       inkscape:connector-curvature="0"
       id="path4350"
       d="M 173.84323,58 C 103.24979,58 95.654019,65.250835 96,135.98706 L 96,290 96,444.01294 C 95.654019,514.74917 103.24979,522 173.84323,522 l 228.31354,0 C 472.75021,522 480,514.75001 480,444.01294 L 480,290 480,135.98706 C 480,65.249993 472.75021,58 402.15677,58 Z"
       style="color:#000000;display:inline;overflow:visible;visibility:visible;opacity:0.3;fill:url(#linearGradient4358);fill-opacity:1;fill-rule:nonzero;stroke:none;stroke-width:1;marker:none;filter:url(#filter4380);enable-background:accumulate" />
  </g>
  <g
     inkscape:label="Background"
     id="layer3"
     inkscape:groupmode="layer"
     style="display:inline"
     sodipodi:insensitive="true">
    <path
       style="color:#000000;display:inline;overflow:visible;visibility:visible;fill:url(#linearGradient4226);fill-opacity:1;fill-rule:nonzero;stroke:none;stroke-width:1;marker:none;enable-background:accumulate"
       d="M 141.84323,24.000001 C 71.249794,24.000001 63.654019,31.250836 64,101.98706 L 64,256 64,410.01294 C 63.654019,480.74917 71.249794,488 141.84323,488 l 228.31354,0 C 440.75021,488 448,480.75001 448,410.01294 L 448,256 448,101.98706 c 0,-70.737066 -7.24979,-77.987059 -77.84323,-77.987059 z"
       id="rect4158"
       inkscape:connector-curvature="0"
       sodipodi:nodetypes="scccssscsss" />
  </g>
  <g
     inkscape:label="Pictogram"
     id="layer4"
     inkscape:groupmode="layer">
    <path
       sodipodi:nodetypes="cccsccccccccccccccc"
       style="color:#000000;display:inline;overflow:visible;visibility:visible;opacity:0.05;fill:#ff0000;fill-opacity:0;fill-rule:nonzero;stroke:none;stroke-width:40;marker:none;enable-background:accumulate"
       d="m 221.8125,124 -35.1875,71.65625 0,59.25 c -4.93993,5.78797 -10.33923,11.62048 -15.96875,17.25 -18.50312,18.50309 -39.2477,34.68678 -53.125,39.3125 L 94.15625,288.125 22.5,323.3125 22.5,494 l 256,0 0,-317.5625 C 263.08338,142.99385 246.13185,130.51631 221.8125,124 Z M 124.25,353 c 0.007,-0.005 0.0239,0.005 0.0312,0 -2.61074,1.63039 -5.25098,3.22668 -7.90625,4.8125 2.65593,-1.58559 5.2637,-3.18237 7.87505,-4.8125 z m -24.09375,14.0625 c 0.008,-0.004 0.0234,0.004 0.0312,0 -2.74184,1.4991 -5.52861,2.98055 -8.3125,4.4375 2.78427,-1.45683 5.53906,-2.93856 8.2813,-4.4375 z"
       id="path4505-6"
       inkscape:connector-curvature="0" />
    <path
       id="path5417"
       d="m 276.70697,128.74613 -41.41406,6.1875 0,15.11133 c -11.03073,2.14307 -21.70802,5.96864 -31.59961,11.40821 l -11.72461,-13.97461 -31.55273,26.82422 11.52539,13.73437 c -3.48007,4.31261 -6.67257,8.94334 -9.52735,13.89258 -2.86482,4.96665 -5.27617,10.07191 -7.27148,15.26367 l -17.94727,-3.16992 -6.93164,40.83399 17.76563,3.13476 c 0.2427,11.26778 2.26932,22.4075 5.91797,33.01758 l -15.9375,9.20508 -0.006,0 20.9414,35.73047 15.69727,-9.06445 c 7.21127,8.28412 15.80293,15.58637 25.68164,21.54492 l -6.29297,17.28515 39.01172,13.91602 6.17578,-16.96875 c 11.21453,1.77347 22.53874,1.74347 33.56836,0.0177 l 6.26366,17.20301 38.82422,-14.41993 -6.14063,-16.86328 c 9.54329,-5.71318 18.2728,-12.95163 25.79883,-21.60938 l 15.75,9.09375 20.47852,-36 -15.55078,-8.98242 c 3.70942,-10.83555 5.59349,-22.00229 5.75976,-33.11133 l 18.0293,-3.17578 -7.45313,-40.74023 -17.87109,3.15234 c -4.01247,-10.39682 -9.63499,-20.20521 -16.75195,-29.02148 l 11.83594,-14.10352 -31.89844,-26.41992 -11.66602,13.91015 c -10.09468,-5.59416 -20.7131,-9.40257 -31.48828,-11.51953 l 0,-21.31641 0,-0.006 z m -22.88086,31.24219 c 16.97809,-0.35803 34.28623,3.79099 50.10352,12.93165 46.01391,26.59095 61.77087,85.22588 35.26758,131.17383 -26.50332,45.948 -85.11305,61.60075 -131.12696,35.00976 -46.01394,-26.59096 -61.7709,-85.22 -35.26758,-131.16797 17.39279,-30.15336 48.61073,-47.26375 81.02344,-47.94727 z m 0.58594,24.0293 c -24.33303,0.5353 -47.81873,13.36322 -60.83203,35.92383 -19.82976,34.37804 -7.95132,78.54284 26.45508,98.42578 34.40634,19.88298 78.54911,8.09292 98.3789,-26.28515 19.82979,-34.37804 7.95715,-78.53698 -26.44922,-98.41993 -11.8272,-6.83477 -24.80686,-9.92492 -37.55273,-9.64453 z m 3.12305,11.94727 c 9.676,0.26706 19.43593,2.89104 28.43554,8.09179 28.7988,16.64243 38.63974,53.26676 22.05469,82.01954 -16.58502,28.75277 -53.19732,38.53888 -81.99609,21.89648 -28.7988,-16.64242 -38.63974,-53.27262 -22.05469,-82.02539 11.4022,-19.76753 32.27333,-30.56998 53.56055,-29.98242 z"
       style="color:#000000;font-style:normal;font-variant:normal;font-weight:normal;font-stretch:normal;font-size:medium;line-height:normal;font-family:sans-serif;text-indent:0;text-align:start;text-decoration:none;text-decoration-line:none;text-decoration-style:solid;text-decoration-color:#000000;letter-spacing:normal;word-spacing:normal;text-transform:none;direction:ltr;block-progression:tb;writing-mode:lr-tb;baseline-shift:baseline;text-anchor:start;white-space:normal;shape-padding:0;clip-rule:nonzero;display:inline;overflow:visible;visibility:visible;opacity:1;isolation:auto;mix-blend-mode:normal;color-interpolation:sRGB;color-interpolation-filters:linearRGB;solid-color:#000000;solid-opacity:1;fill:#888888;fill-opacity:1;fill-rule:nonzero;stroke:none;stroke-width:10.00000381;stroke-linecap:butt;stroke-linejoin:miter;stroke-miterlimit:4;stroke-dasharray:none;stroke-dashoffset:0;stroke-opacity:1;marker:none;color-rendering:auto;image-rendering:auto;shape-rendering:auto;text-rendering:auto;enable-background:accumulate"
       inkscape:connector-curvature="0" />
  </g>
  <g
     inkscape:groupmode="layer"
     id="layer5"
     inkscape:label="Folds"
     transform="translate(-32,-32)">
    <path
       style="color:#000000;display:inline;overflow:visible;visibility:visible;opacity:0.12;fill:#ffffff;fill-opacity:1;fill-rule:nonzero;stroke:none;stroke-width:1;marker:none;enable-background:accumulate"
       d="M 288,56 V 520 H 402.15625 C 472.74969,520 480,512.75074 480,442.01367 V 288 133.98633 C 480,63.249262 472.74969,56 402.15625,56 Z"
       id="path4231"
       inkscape:connector-curvature="0" />
    <path
       inkscape:connector-curvature="0"
       style="color:#000000;display:inline;overflow:visible;visibility:visible;opacity:0.12;fill:#ffffff;fill-opacity:1;fill-rule:nonzero;stroke:none;stroke-width:1;marker:none;enable-background:accumulate"
       d="M 96,288 V 442.01367 C 95.654019,512.7499 103.25031,520 173.84375,520 h 228.3125 C 472.74969,520 480,512.75074 480,442.01367 V 288 Z"
       id="path4255" />
  </g>
  <g
     inkscape:groupmode="layer"
     id="layer1"
     inkscape:label="Corner &amp; borders"
     transform="translate(-32,-32)"
     sodipodi:insensitive="true">
    <path
       style="color:#000000;display:inline;overflow:visible;visibility:visible;opacity:0.5;fill:#ffffff;fill-opacity:1;fill-rule:nonzero;stroke:none;stroke-width:7.99999952;stroke-linecap:butt;stroke-linejoin:miter;stroke-miterlimit:4;stroke-dasharray:none;stroke-dashoffset:0;stroke-opacity:1;marker:none;enable-background:accumulate"
       d="M 360,520 480,400 v 44.96776 C 479.8953,512.95937 472.39464,520 403.6518,520 Z"
       id="path4254"
       inkscape:connector-curvature="0"
       sodipodi:nodetypes="cccsc" />
    <path
       style="color:#000000;display:inline;overflow:visible;visibility:visible;opacity:0.6;fill:#ffffff;fill-opacity:1;fill-rule:nonzero;stroke:none;stroke-width:1;marker:none;enable-background:accumulate"
       d="M 173.84375,56 C 104.86158,56 96.038343,62.958914 95.994141,129.27734 96.216858,64.792552 105.55126,58 173.84375,58 h 228.3125 C 472.74969,58 480,65.249262 480,135.98633 v -2 C 480,63.249262 472.74969,56 402.15625,56 Z"
       id="path4286"
       inkscape:connector-curvature="0"
       sodipodi:nodetypes="scsscsss" />
    <path
       style="color:#000000;display:inline;overflow:visible;visibility:visible;opacity:0.1;fill:#000000;fill-opacity:1;fill-rule:nonzero;stroke:none;stroke-width:1;marker:none;enable-background:accumulate"
       d="M 480,440.01367 C 480,510.75074 472.74969,518 402.15625,518 H 173.84375 C 105.55126,518 96.216858,511.20745 95.994141,446.72266 96.038343,513.04109 104.86158,520 173.84375,520 h 228.3125 C 472.74969,520 480,512.75074 480,442.01367 Z"
       id="path4295"
       inkscape:connector-curvature="0"
       sodipodi:nodetypes="csscsssc" />
  </g>
</svg>
