<?xml version="1.0" encoding="UTF-8" standalone="no"?>
<!-- Created with Inkscape (http://www.inkscape.org/) -->

<svg
   xmlns:dc="http://purl.org/dc/elements/1.1/"
   xmlns:cc="http://creativecommons.org/ns#"
   xmlns:rdf="http://www.w3.org/1999/02/22-rdf-syntax-ns#"
   xmlns:svg="http://www.w3.org/2000/svg"
   xmlns="http://www.w3.org/2000/svg"
   xmlns:sodipodi="http://sodipodi.sourceforge.net/DTD/sodipodi-0.dtd"
   xmlns:inkscape="http://www.inkscape.org/namespaces/inkscape"
   width="96"
   height="96"
   id="svg4874"
   version="1.1"
   inkscape:version="0.91+devel r"
   viewBox="0 0 96 96.000001"
   sodipodi:docname="import.svg">
  <defs
     id="defs4876" />
  <sodipodi:namedview
     id="base"
     pagecolor="#ffffff"
     bordercolor="#666666"
     borderopacity="1.0"
     inkscape:pageopacity="0.0"
     inkscape:pageshadow="2"
     inkscape:zoom="7.0249991"
     inkscape:cx="-7.31673"
     inkscape:cy="58.071164"
     inkscape:document-units="px"
     inkscape:current-layer="layer1"
     showgrid="true"
     showborder="true"
     fit-margin-top="0"
     fit-margin-left="0"
     fit-margin-right="0"
     fit-margin-bottom="0"
     inkscape:snap-bbox="true"
     inkscape:bbox-paths="true"
     inkscape:bbox-nodes="true"
     inkscape:snap-bbox-edge-midpoints="true"
     inkscape:snap-bbox-midpoints="true"
     inkscape:object-paths="true"
     inkscape:snap-intersection-paths="true"
     inkscape:object-nodes="true"
     inkscape:snap-smooth-nodes="true"
     inkscape:snap-midpoints="true"
     inkscape:snap-object-midpoints="true"
     inkscape:snap-center="true"
     showguides="true"
     inkscape:guide-bbox="true"
     inkscape:snap-global="true">
    <inkscape:grid
       type="xygrid"
       id="grid5451"
       empspacing="8" />
    <sodipodi:guide
       orientation="1,0"
       position="8,-8.0000001"
       id="guide4063" />
    <sodipodi:guide
       orientation="1,0"
       position="4,-8.0000001"
       id="guide4065" />
    <sodipodi:guide
       orientation="0,1"
       position="-8,88.000001"
       id="guide4067" />
    <sodipodi:guide
       orientation="0,1"
       position="-8,92.000001"
       id="guide4069" />
    <sodipodi:guide
       orientation="0,1"
       position="104,4"
       id="guide4071" />
    <sodipodi:guide
       orientation="0,1"
       position="-5,8.0000001"
       id="guide4073" />
    <sodipodi:guide
       orientation="1,0"
       position="88,-8.0000001"
       id="guide4077" />
    <sodipodi:guide
       orientation="0,1"
       position="-8,84.000001"
       id="guide4074" />
    <sodipodi:guide
       orientation="1,0"
       position="12,-8.0000001"
       id="guide4076" />
    <sodipodi:guide
       orientation="1,0"
       position="84,-8.0000001"
       id="guide4080" />
    <sodipodi:guide
       position="48,-8.0000001"
       orientation="1,0"
       id="guide4170" />
    <sodipodi:guide
       position="-8,48"
       orientation="0,1"
       id="guide4172" />
    <sodipodi:guide
       position="92,-8.0000001"
       orientation="1,0"
       id="guide4760" />
  </sodipodi:namedview>
  <metadata
     id="metadata4879">
    <rdf:RDF>
      <cc:Work
         rdf:about="">
        <dc:format>image/svg+xml</dc:format>
        <dc:type
           rdf:resource="http://purl.org/dc/dcmitype/StillImage" />
        <dc:title></dc:title>
      </cc:Work>
    </rdf:RDF>
  </metadata>
  <g
     inkscape:label="Layer 1"
     inkscape:groupmode="layer"
     id="layer1"
     transform="translate(67.857146,-78.50504)">
    <rect
       transform="rotate(90)"
       y="-28.142857"
       x="78.505051"
       height="96"
       width="96"
       id="rect4782"
       style="color:#000000;display:inline;overflow:visible;visibility:visible;fill:none;stroke:none;stroke-width:4;marker:none;enable-background:accumulate" />
    <path
       style="color:#000000;font-style:normal;font-variant:normal;font-weight:normal;font-stretch:normal;font-size:medium;line-height:normal;font-family:sans-serif;font-variant-ligatures:normal;font-variant-position:normal;font-variant-caps:normal;font-variant-numeric:normal;font-variant-alternates:normal;font-feature-settings:normal;text-indent:0;text-align:start;text-decoration:none;text-decoration-line:none;text-decoration-style:solid;text-decoration-color:#000000;letter-spacing:normal;word-spacing:normal;text-transform:none;direction:ltr;block-progression:tb;writing-mode:lr-tb;baseline-shift:baseline;text-anchor:start;white-space:normal;shape-padding:0;clip-rule:nonzero;display:inline;overflow:visible;visibility:visible;opacity:1;isolation:auto;mix-blend-mode:normal;color-interpolation:sRGB;color-interpolation-filters:linearRGB;solid-color:#000000;solid-opacity:1;fill:#808080;fill-opacity:1;fill-rule:nonzero;stroke:none;stroke-width:4.00000048;stroke-linecap:butt;stroke-linejoin:miter;stroke-miterlimit:4;stroke-dasharray:none;stroke-dashoffset:0;stroke-opacity:1;marker:none;color-rendering:auto;image-rendering:auto;shape-rendering:auto;text-rendering:auto;enable-background:accumulate"
       d="m -39.869141,98.503906 -0.01172,0.002 c -5.032776,0.05818 -8.713619,-0.120274 -11.72461,1.541021 -1.505495,0.83064 -2.696806,2.23557 -3.355469,3.99023 -0.658662,1.75466 -0.896484,3.83636 -0.896484,6.4668 v 48.00195 c 0,2.63043 0.237822,4.71214 0.896484,6.4668 0.658663,1.75465 1.849974,3.15959 3.355469,3.99023 3.010991,1.66129 6.691834,1.48479 11.72461,1.54297 h 0.01172 40.02343788 0.0117187 c 5.03277538,-0.0582 8.71361908,0.11832 11.72460938,-1.54297 1.505495,-0.83064 2.696807,-2.23558 3.355469,-3.99023 0.658662,-1.75466 0.896484,-3.83637 0.896484,-6.4668 v -48.00195 c 0,-2.63044 -0.237822,-4.71214 -0.896484,-6.4668 -0.658662,-1.75466 -1.849974,-3.15959 -3.355469,-3.99023 C 8.8796347,98.385585 5.198791,98.564041 0.16601562,98.505859 l -0.0117187,-0.002 -12.01171888,0.002 v 4.000001 l 11.97656262,-0.002 c 5.05416468,0.0584 8.37256908,0.23536 9.83984378,1.04492 0.7336376,0.40478 1.1527156,0.85491 1.5429686,1.89453 0.390254,1.03962 0.640625,2.69098 0.640625,5.06055 v 48.00195 c 0,2.36956 -0.250371,4.02092 -0.640625,5.06055 -0.390253,1.03962 -0.809331,1.48975 -1.5429686,1.89453 -1.4645345,0.80804 -4.778153,0.98616 -9.81640628,1.04492 h -39.97656212 -0.02344 c -5.038253,-0.0588 -8.351872,-0.23688 -9.816406,-1.04492 -0.733637,-0.40478 -1.150762,-0.85491 -1.541016,-1.89453 -0.390253,-1.03963 -0.642578,-2.69099 -0.642578,-5.06055 v -48.00195 c 0,-2.36957 0.252325,-4.02093 0.642578,-5.06055 0.390254,-1.03962 0.807379,-1.48975 1.541016,-1.89453 1.464534,-0.80805 4.778153,-0.98616 9.816406,-1.04492 l 12,0.002 v -4.000001 z"
       id="path4643"
       inkscape:connector-curvature="0" />
    <path
       style="font-style:normal;font-variant:normal;font-weight:normal;font-stretch:normal;font-size:15px;line-height:125%;font-family:Ubuntu;-inkscape-font-specification:Ubuntu;text-align:center;letter-spacing:0px;word-spacing:0px;writing-mode:lr-tb;text-anchor:middle;display:inline;fill:#808080;fill-opacity:1;stroke:none;stroke-width:0.99980229"
       d="m -21.85758,82.505039 v 50.000071 h 3.99998 V 82.505039 Z"
       id="path4237"
       inkscape:connector-curvature="0" />
    <path
       style="color:#000000;display:inline;overflow:visible;visibility:visible;fill:#808080;fill-opacity:1;fill-rule:nonzero;stroke:none;stroke-width:3.00000024;marker:none;enable-background:accumulate"
       d="m -32.94857,126.50504 h 26.18271 c 0,0 -6.18094,14.24972 -13.09065,24 -6.9097,-9.75028 -13.09206,-24 -13.09206,-24 z"
       id="path4198"
       inkscape:connector-curvature="0"
       inkscape:transform-center-x="0.00072211459"
       inkscape:transform-center-y="-12.000011" />
  </g>
</svg>
