<?xml version="1.0" encoding="UTF-8" standalone="no"?>
<!-- Created with Inkscape (http://www.inkscape.org/) -->

<svg
   xmlns:dc="http://purl.org/dc/elements/1.1/"
   xmlns:cc="http://creativecommons.org/ns#"
   xmlns:rdf="http://www.w3.org/1999/02/22-rdf-syntax-ns#"
   xmlns:svg="http://www.w3.org/2000/svg"
   xmlns="http://www.w3.org/2000/svg"
   xmlns:sodipodi="http://sodipodi.sourceforge.net/DTD/sodipodi-0.dtd"
   xmlns:inkscape="http://www.inkscape.org/namespaces/inkscape"
   width="96"
   height="96"
   id="svg4874"
   version="1.1"
   inkscape:version="0.91+devel r"
   viewBox="0 0 96 96.000001"
   sodipodi:docname="insert-link.svg">
  <defs
     id="defs4876" />
  <sodipodi:namedview
     id="base"
     pagecolor="#ffffff"
     bordercolor="#666666"
     borderopacity="1.0"
     inkscape:pageopacity="0.0"
     inkscape:pageshadow="2"
     inkscape:zoom="5.6199992"
     inkscape:cx="-4.3772307"
     inkscape:cy="31.548024"
     inkscape:document-units="px"
     inkscape:current-layer="g4780"
     showgrid="true"
     showborder="true"
     fit-margin-top="0"
     fit-margin-left="0"
     fit-margin-right="0"
     fit-margin-bottom="0"
     inkscape:snap-bbox="true"
     inkscape:bbox-paths="true"
     inkscape:bbox-nodes="true"
     inkscape:snap-bbox-edge-midpoints="true"
     inkscape:snap-bbox-midpoints="true"
     inkscape:object-paths="true"
     inkscape:snap-intersection-paths="true"
     inkscape:object-nodes="true"
     inkscape:snap-smooth-nodes="true"
     inkscape:snap-midpoints="true"
     inkscape:snap-object-midpoints="true"
     inkscape:snap-center="true"
     showguides="true"
     inkscape:guide-bbox="true"
     inkscape:snap-global="true">
    <inkscape:grid
       type="xygrid"
       id="grid5451"
       empspacing="8" />
    <sodipodi:guide
       orientation="1,0"
       position="8,-8.0000001"
       id="guide4063" />
    <sodipodi:guide
       orientation="1,0"
       position="4,-8.0000001"
       id="guide4065" />
    <sodipodi:guide
       orientation="0,1"
       position="-8,88.000001"
       id="guide4067" />
    <sodipodi:guide
       orientation="0,1"
       position="-8,92.000001"
       id="guide4069" />
    <sodipodi:guide
       orientation="0,1"
       position="104,4"
       id="guide4071" />
    <sodipodi:guide
       orientation="0,1"
       position="-5,8.0000001"
       id="guide4073" />
    <sodipodi:guide
       orientation="1,0"
       position="88,-8.0000001"
       id="guide4077" />
    <sodipodi:guide
       orientation="0,1"
       position="-8,84.000001"
       id="guide4074" />
    <sodipodi:guide
       orientation="1,0"
       position="12,-8.0000001"
       id="guide4076" />
    <sodipodi:guide
       orientation="1,0"
       position="84,-8.0000001"
       id="guide4080" />
    <sodipodi:guide
       position="48,-8.0000001"
       orientation="1,0"
       id="guide4170" />
    <sodipodi:guide
       position="-8,48"
       orientation="0,1"
       id="guide4172" />
    <sodipodi:guide
       position="92,-8.0000001"
       orientation="1,0"
       id="guide4760" />
  </sodipodi:namedview>
  <metadata
     id="metadata4879">
    <rdf:RDF>
      <cc:Work
         rdf:about="">
        <dc:format>image/svg+xml</dc:format>
        <dc:type
           rdf:resource="http://purl.org/dc/dcmitype/StillImage" />
        <dc:title></dc:title>
      </cc:Work>
    </rdf:RDF>
  </metadata>
  <g
     inkscape:label="Layer 1"
     inkscape:groupmode="layer"
     id="layer1"
     transform="translate(67.857146,-78.50504)">
    <g
       transform="matrix(0,-1,-1,0,373.50506,516.50504)"
       id="g4845"
       style="display:inline">
      <g
         inkscape:export-ydpi="90"
         inkscape:export-xdpi="90"
         inkscape:export-filename="next01.png"
         transform="matrix(-0.9996045,0,0,1,575.94296,-611.00001)"
         id="g4778"
         inkscape:label="Layer 1">
        <g
           transform="matrix(-1,0,0,1,575.99999,611)"
           id="g4780"
           style="display:inline">
          <rect
             style="color:#000000;display:inline;overflow:visible;visibility:visible;fill:none;stroke:none;stroke-width:4;marker:none;enable-background:accumulate"
             id="rect4782"
             width="96.037987"
             height="96"
             x="-438.00244"
             y="345.36221"
             transform="scale(-1,1)" />
          <path
             inkscape:transform-center-y="-10.000961"
             inkscape:transform-center-x="0.0080472858"
             inkscape:connector-curvature="0"
             id="path1807"
             d="m 365.97394,406.37828 c -2.91263,-1.62857 -5.86335,-3.38578 -8.85661,-5.29631 -3.85821,-2.49192 -7.58157,-5.06901 -11.16461,-7.71976 0,-0.008 0.0134,-0.0223 0.0138,-0.0321 3.57999,-2.59529 7.29613,-5.13386 11.15072,-7.62346 2.99143,-1.90936 5.94536,-3.6842 8.85662,-5.34446 l 10e-5,26.01612 z"
             style="color:#000000;display:inline;overflow:visible;visibility:visible;fill:#808080;fill-opacity:1;fill-rule:nonzero;stroke:none;stroke-width:3;marker:none;enable-background:accumulate"
             sodipodi:nodetypes="cccccccc" />
          <path
             style="color:#000000;display:inline;overflow:visible;visibility:visible;opacity:1;fill:none;fill-opacity:1;fill-rule:nonzero;stroke:#808080;stroke-width:4.00079107;stroke-linecap:butt;stroke-linejoin:miter;stroke-miterlimit:4;stroke-dasharray:none;stroke-dashoffset:0;stroke-opacity:1;marker:none;enable-background:accumulate"
             d="m 399.98742,413.36221 0,-39.99998"
             id="path4188"
             inkscape:connector-curvature="0"
             sodipodi:nodetypes="cc" />
          <path
             style="color:#000000;font-style:normal;font-variant:normal;font-weight:normal;font-stretch:normal;font-size:medium;line-height:normal;font-family:sans-serif;text-indent:0;text-align:start;text-decoration:none;text-decoration-line:none;text-decoration-style:solid;text-decoration-color:#000000;letter-spacing:normal;word-spacing:normal;text-transform:none;direction:ltr;block-progression:tb;writing-mode:lr-tb;baseline-shift:baseline;text-anchor:start;white-space:normal;clip-rule:nonzero;display:inline;overflow:visible;visibility:visible;opacity:1;isolation:auto;mix-blend-mode:normal;color-interpolation:sRGB;color-interpolation-filters:linearRGB;solid-color:#000000;solid-opacity:1;fill:#808080;fill-opacity:1;fill-rule:nonzero;stroke:none;stroke-width:4.00079155;stroke-linecap:butt;stroke-linejoin:miter;stroke-miterlimit:4;stroke-dasharray:none;stroke-dashoffset:0;stroke-opacity:1;marker:none;color-rendering:auto;image-rendering:auto;shape-rendering:auto;text-rendering:auto;enable-background:accumulate"
             d="M 21.976562 22 C 16.945323 22.058167 12.799141 21.937084 9.3945312 23.472656 C 7.6922312 24.240432 6.2109781 25.538133 5.2988281 27.328125 C 4.3866781 29.118107 3.9980469 31.303017 3.9980469 34 L 3.9980469 42 C 3.9980469 44.696983 4.3866781 46.881893 5.2988281 48.671875 C 6.2109781 50.461867 7.6922313 51.761511 9.3945312 52.529297 C 12.799141 54.064839 16.945322 53.941823 21.976562 54 L 21.988281 54 L 26.009766 54 L 26.021484 54 C 31.052724 53.941833 35.198906 54.064859 38.603516 52.529297 C 39.850359 51.966935 40.976707 51.116275 41.849609 50 L 25.998047 50 L 25.974609 50 L 24 50 L 22.021484 50 L 22 50 C 16.95641 49.941433 13.109362 49.816573 11.039062 48.882812 C 10.002233 48.415178 9.3750513 47.861715 8.8632812 46.857422 C 8.3515113 45.853129 8 44.303019 8 42 L 8 34 C 8 31.696981 8.3515112 30.146881 8.8632812 29.142578 C 9.3750512 28.138285 10.002232 27.584822 11.039062 27.117188 C 13.112723 26.181908 16.965784 26.058477 22.021484 26 L 24 26 L 25.998047 26 L 41.849609 26 C 40.976707 24.883726 39.850359 24.035011 38.603516 23.472656 C 35.198906 21.937104 31.052724 22.058177 26.021484 22 L 26.009766 22 L 21.988281 22 L 21.976562 22 z "
             transform="matrix(0,-1,-1.0003957,0,438.00245,441.36222)"
             id="path4156" />
          <path
             id="path4161"
             d="m 415.99374,367.49113 c -0.0582,-5.03124 0.063,-9.17742 -1.47323,-12.58203 -0.76808,-1.7023 -2.0663,-3.18356 -3.857,-4.09571 -1.79069,-0.91215 -3.97646,-1.30078 -6.67451,-1.30078 l -8.00317,0 c -2.69805,0 -4.88382,0.38863 -6.67451,1.30078 -1.7907,0.91215 -3.09086,2.39341 -3.85895,4.09571 -1.53615,3.40461 -1.41309,7.55079 -1.47129,12.58203 l 0,0.0117 0,4.02148 0,0.0117 c 0.0582,5.03124 -0.0649,9.17742 1.47129,12.58203 0.56258,1.24684 1.41358,2.37319 2.53029,3.24609 l 0,-15.85156 0,-0.0234 0,-1.97461 0,-1.97851 0,-0.0215 c 0.0586,-5.04359 0.1835,-8.89063 1.11764,-10.96093 0.46781,-1.03683 1.0215,-1.66401 2.02619,-2.17578 1.00469,-0.51177 2.55541,-0.86329 4.85934,-0.86329 l 8.00317,0 c 2.30393,0 3.85464,0.35152 4.85934,0.86329 1.00469,0.51177 1.55837,1.13895 2.02619,2.17578 0.93565,2.07366 1.05913,5.92672 1.11763,10.98242 l 0,1.97851 0,1.99805 0,15.85156 c 1.11672,-0.8729 1.96577,-1.99925 2.52835,-3.24609 1.53616,-3.40461 1.41503,-7.55079 1.47323,-12.58203 l 0,-0.0117 0,-4.02148 0,-0.0117 z"
             style="color:#000000;font-style:normal;font-variant:normal;font-weight:normal;font-stretch:normal;font-size:medium;line-height:normal;font-family:sans-serif;text-indent:0;text-align:start;text-decoration:none;text-decoration-line:none;text-decoration-style:solid;text-decoration-color:#000000;letter-spacing:normal;word-spacing:normal;text-transform:none;direction:ltr;block-progression:tb;writing-mode:lr-tb;baseline-shift:baseline;text-anchor:start;white-space:normal;clip-rule:nonzero;display:inline;overflow:visible;visibility:visible;opacity:1;isolation:auto;mix-blend-mode:normal;color-interpolation:sRGB;color-interpolation-filters:linearRGB;solid-color:#000000;solid-opacity:1;fill:#808080;fill-opacity:1;fill-rule:nonzero;stroke:none;stroke-width:4.00079155;stroke-linecap:butt;stroke-linejoin:miter;stroke-miterlimit:4;stroke-dasharray:none;stroke-dashoffset:0;stroke-opacity:1;marker:none;color-rendering:auto;image-rendering:auto;shape-rendering:auto;text-rendering:auto;enable-background:accumulate"
             inkscape:connector-curvature="0" />
        </g>
      </g>
    </g>
  </g>
</svg>
