<?xml version="1.0" encoding="UTF-8" standalone="no"?>
<!-- Created with Inkscape (http://www.inkscape.org/) -->

<svg
   xmlns:dc="http://purl.org/dc/elements/1.1/"
   xmlns:cc="http://creativecommons.org/ns#"
   xmlns:rdf="http://www.w3.org/1999/02/22-rdf-syntax-ns#"
   xmlns:svg="http://www.w3.org/2000/svg"
   xmlns="http://www.w3.org/2000/svg"
   xmlns:sodipodi="http://sodipodi.sourceforge.net/DTD/sodipodi-0.dtd"
   xmlns:inkscape="http://www.inkscape.org/namespaces/inkscape"
   width="96"
   height="96"
   id="svg4874"
   version="1.1"
   inkscape:version="0.91+devel r"
   viewBox="0 0 96 96.000001"
   sodipodi:docname="swap.svg">
  <defs
     id="defs4876" />
  <sodipodi:namedview
     id="base"
     pagecolor="#ffffff"
     bordercolor="#666666"
     borderopacity="1.0"
     inkscape:pageopacity="0.0"
     inkscape:pageshadow="2"
     inkscape:zoom="2.3019517"
     inkscape:cx="14.292206"
     inkscape:cy="69.636506"
     inkscape:document-units="px"
     inkscape:current-layer="g4780"
     showgrid="true"
     showborder="true"
     fit-margin-top="0"
     fit-margin-left="0"
     fit-margin-right="0"
     fit-margin-bottom="0"
     inkscape:snap-bbox="true"
     inkscape:bbox-paths="true"
     inkscape:bbox-nodes="true"
     inkscape:snap-bbox-edge-midpoints="true"
     inkscape:snap-bbox-midpoints="true"
     inkscape:object-paths="true"
     inkscape:snap-intersection-paths="true"
     inkscape:object-nodes="true"
     inkscape:snap-smooth-nodes="true"
     inkscape:snap-midpoints="true"
     inkscape:snap-object-midpoints="true"
     inkscape:snap-center="true"
     showguides="true"
     inkscape:guide-bbox="true"
     inkscape:snap-global="true">
    <inkscape:grid
       type="xygrid"
       id="grid5451"
       empspacing="8" />
    <sodipodi:guide
       orientation="1,0"
       position="8,-8.0000001"
       id="guide4063" />
    <sodipodi:guide
       orientation="1,0"
       position="4,-8.0000001"
       id="guide4065" />
    <sodipodi:guide
       orientation="0,1"
       position="-8,88.000001"
       id="guide4067" />
    <sodipodi:guide
       orientation="0,1"
       position="-8,92.000001"
       id="guide4069" />
    <sodipodi:guide
       orientation="0,1"
       position="104,4"
       id="guide4071" />
    <sodipodi:guide
       orientation="0,1"
       position="-5,8.0000001"
       id="guide4073" />
    <sodipodi:guide
       orientation="1,0"
       position="88,-8.0000001"
       id="guide4077" />
    <sodipodi:guide
       orientation="0,1"
       position="-8,84.000001"
       id="guide4074" />
    <sodipodi:guide
       orientation="1,0"
       position="12,-8.0000001"
       id="guide4076" />
    <sodipodi:guide
       orientation="1,0"
       position="84,-8.0000001"
       id="guide4080" />
    <sodipodi:guide
       position="48,-8.0000001"
       orientation="1,0"
       id="guide4170" />
    <sodipodi:guide
       position="-8,48"
       orientation="0,1"
       id="guide4172" />
    <sodipodi:guide
       position="92,-8.0000001"
       orientation="1,0"
       id="guide4760" />
  </sodipodi:namedview>
  <metadata
     id="metadata4879">
    <rdf:RDF>
      <cc:Work
         rdf:about="">
        <dc:format>image/svg+xml</dc:format>
        <dc:type
           rdf:resource="http://purl.org/dc/dcmitype/StillImage" />
        <dc:title></dc:title>
      </cc:Work>
    </rdf:RDF>
  </metadata>
  <g
     inkscape:label="Layer 1"
     inkscape:groupmode="layer"
     id="layer1"
     transform="translate(67.857146,-78.50504)">
    <g
       transform="matrix(0,-1,-1,0,373.50506,516.50504)"
       id="g4845"
       style="display:inline">
      <g
         inkscape:export-ydpi="90"
         inkscape:export-xdpi="90"
         inkscape:export-filename="next01.png"
         transform="matrix(-0.9996045,0,0,1,575.94296,-611.00001)"
         id="g4778"
         inkscape:label="Layer 1">
        <g
           transform="matrix(-1,0,0,1,575.99999,611)"
           id="g4780"
           style="display:inline">
          <rect
             style="color:#000000;display:inline;overflow:visible;visibility:visible;fill:none;stroke:none;stroke-width:4;marker:none;enable-background:accumulate"
             id="rect4782"
             width="96.037987"
             height="96"
             x="-438.00244"
             y="345.36221"
             transform="scale(-1,1)" />
          <path
             style="color:#000000;font-style:normal;font-variant:normal;font-weight:normal;font-stretch:normal;font-size:medium;line-height:normal;font-family:sans-serif;font-variant-ligatures:none;font-variant-position:normal;font-variant-caps:normal;font-variant-numeric:normal;font-variant-alternates:normal;font-feature-settings:normal;text-indent:0;text-align:start;text-decoration:none;text-decoration-line:none;text-decoration-style:solid;text-decoration-color:#000000;letter-spacing:normal;word-spacing:normal;text-transform:none;direction:ltr;block-progression:tb;writing-mode:lr-tb;baseline-shift:baseline;text-anchor:start;white-space:normal;shape-padding:0;clip-rule:nonzero;display:inline;overflow:visible;visibility:visible;opacity:1;isolation:auto;mix-blend-mode:normal;color-interpolation:sRGB;color-interpolation-filters:linearRGB;solid-color:#000000;solid-opacity:1;fill:#808080;fill-opacity:1;fill-rule:nonzero;stroke:none;stroke-width:4.00079107;stroke-linecap:butt;stroke-linejoin:round;stroke-miterlimit:4;stroke-dasharray:none;stroke-dashoffset:0;stroke-opacity:1;marker:none;color-rendering:auto;image-rendering:auto;shape-rendering:auto;text-rendering:auto;enable-background:accumulate"
             d="m 377.97852,359.36133 c -6.00266,0 -9.97383,2.56252 -11.9004,6.23242 -1.92656,3.6699 -2.10546,8.0754 -2.10546,12.28516 l 0,37.16015 4.00195,0 0,-37.16015 c 0,-4.0482 0.3217,-7.90222 1.64648,-10.42579 1.32479,-2.52356 3.35551,-4.08984 8.35743,-4.08984 5.00191,0 7.03263,1.56628 8.35742,4.08984 1.32478,2.52357 1.64648,6.37759 1.64648,10.42579 l 0,15.48242 0,15.48437 c 0,4.20977 0.1789,8.61525 2.10547,12.28516 1.92657,3.6699 5.89773,6.23047 11.90039,6.23047 6.00266,0 9.97382,-2.56057 11.90039,-6.23047 1.92657,-3.66991 2.10547,-8.07539 2.10547,-12.28516 l 0,-37.16015 -4.00195,0 0,37.16015 c 0,4.04821 -0.3217,7.90222 -1.64649,10.42578 -1.32478,2.52357 -3.3555,4.08985 -8.35742,4.08985 -5.00191,0 -7.03264,-1.56628 -8.35742,-4.08985 -1.32478,-2.52356 -1.64648,-6.37757 -1.64648,-10.42578 l 0,-15.48437 0,-15.48242 c 0,-4.20976 -0.1789,-8.61526 -2.10547,-12.28516 -1.92657,-3.6699 -5.89774,-6.23242 -11.90039,-6.23242 z"
             id="path4122"
             inkscape:connector-curvature="0" />
          <path
             style="color:#000000;display:inline;overflow:visible;visibility:visible;fill:#808080;fill-opacity:1;fill-rule:nonzero;stroke:none;stroke-width:3;marker:none;enable-background:accumulate"
             d="m 401.94431,375.36222 c 0,0 4.92115,-11.74727 12.01661,-22.02297 0.004,0 0.006,9.8e-4 0.008,0.004 0.006,9.7e-4 0.006,0.004 0.008,0.006 0.005,0.002 0.007,0.004 0.008,0.006 0.005,0.002 0.005,0.002 0.008,0.004 7.33765,10.82654 12.00573,21.98779 12.00573,21.98779 z"
             id="path2194-7"
             inkscape:connector-curvature="0"
             inkscape:transform-center-x="11.119949"
             inkscape:transform-center-y="-0.011096303"
             sodipodi:nodetypes="ccsssccc" />
          <path
             sodipodi:nodetypes="ccsssccc"
             inkscape:transform-center-y="-0.011096303"
             inkscape:transform-center-x="-11.119949"
             inkscape:connector-curvature="0"
             id="path4215"
             d="m 353.93335,411.35525 c 0,0 4.92115,11.74727 12.01661,22.02297 0.004,0 0.006,-9.8e-4 0.008,-0.004 0.006,-9.7e-4 0.006,-0.004 0.008,-0.006 0.005,-0.002 0.007,-0.004 0.008,-0.006 0.005,-0.002 0.005,-0.002 0.008,-0.004 7.33765,-10.82654 12.00573,-21.98779 12.00573,-21.98779 z"
             style="color:#000000;display:inline;overflow:visible;visibility:visible;fill:#808080;fill-opacity:1;fill-rule:nonzero;stroke:none;stroke-width:3;marker:none;enable-background:accumulate" />
        </g>
      </g>
    </g>
  </g>
</svg>
