<?xml version="1.0" encoding="UTF-8" standalone="no"?>
<!-- Created with Inkscape (http://www.inkscape.org/) -->

<svg
   xmlns:dc="http://purl.org/dc/elements/1.1/"
   xmlns:cc="http://creativecommons.org/ns#"
   xmlns:rdf="http://www.w3.org/1999/02/22-rdf-syntax-ns#"
   xmlns:svg="http://www.w3.org/2000/svg"
   xmlns="http://www.w3.org/2000/svg"
   xmlns:sodipodi="http://sodipodi.sourceforge.net/DTD/sodipodi-0.dtd"
   xmlns:inkscape="http://www.inkscape.org/namespaces/inkscape"
   width="96"
   height="96"
   id="svg4874"
   version="1.1"
   inkscape:version="0.91+devel r"
   viewBox="0 0 96 96.000001"
   sodipodi:docname="address-book-app-symbolic.svg">
  <defs
     id="defs4876" />
  <sodipodi:namedview
     id="base"
     pagecolor="#ffffff"
     bordercolor="#666666"
     borderopacity="1.0"
     inkscape:pageopacity="0.0"
     inkscape:pageshadow="2"
     inkscape:zoom="8.7812489"
     inkscape:cx="51.570109"
     inkscape:cy="35.923121"
     inkscape:document-units="px"
     inkscape:current-layer="layer1"
     showgrid="true"
     showborder="true"
     fit-margin-top="0"
     fit-margin-left="0"
     fit-margin-right="0"
     fit-margin-bottom="0"
     inkscape:snap-bbox="true"
     inkscape:bbox-paths="true"
     inkscape:bbox-nodes="true"
     inkscape:snap-bbox-edge-midpoints="true"
     inkscape:snap-bbox-midpoints="true"
     inkscape:object-paths="true"
     inkscape:snap-intersection-paths="true"
     inkscape:object-nodes="true"
     inkscape:snap-smooth-nodes="true"
     inkscape:snap-midpoints="true"
     inkscape:snap-object-midpoints="true"
     inkscape:snap-center="true"
     showguides="true"
     inkscape:guide-bbox="true"
     inkscape:snap-global="true">
    <inkscape:grid
       type="xygrid"
       id="grid5451"
       empspacing="8" />
    <sodipodi:guide
       orientation="1,0"
       position="8,-8.0000001"
       id="guide4063" />
    <sodipodi:guide
       orientation="1,0"
       position="4,-8.0000001"
       id="guide4065" />
    <sodipodi:guide
       orientation="0,1"
       position="-8,88.000001"
       id="guide4067" />
    <sodipodi:guide
       orientation="0,1"
       position="-8,92.000001"
       id="guide4069" />
    <sodipodi:guide
       orientation="0,1"
       position="104,4"
       id="guide4071" />
    <sodipodi:guide
       orientation="0,1"
       position="-5,8.0000001"
       id="guide4073" />
    <sodipodi:guide
       orientation="1,0"
       position="88,-8.0000001"
       id="guide4077" />
    <sodipodi:guide
       orientation="0,1"
       position="-8,84.000001"
       id="guide4074" />
    <sodipodi:guide
       orientation="1,0"
       position="12,-8.0000001"
       id="guide4076" />
    <sodipodi:guide
       orientation="1,0"
       position="84,-8.0000001"
       id="guide4080" />
    <sodipodi:guide
       position="48,-8.0000001"
       orientation="1,0"
       id="guide4170" />
    <sodipodi:guide
       position="-8,48"
       orientation="0,1"
       id="guide4172" />
    <sodipodi:guide
       position="92,-8.0000001"
       orientation="1,0"
       id="guide4760" />
    <sodipodi:guide
       position="118,12"
       orientation="0,1"
       id="guide4177" />
  </sodipodi:namedview>
  <metadata
     id="metadata4879">
    <rdf:RDF>
      <cc:Work
         rdf:about="">
        <dc:format>image/svg+xml</dc:format>
        <dc:type
           rdf:resource="http://purl.org/dc/dcmitype/StillImage" />
        <dc:title />
      </cc:Work>
    </rdf:RDF>
  </metadata>
  <g
     inkscape:label="Layer 1"
     inkscape:groupmode="layer"
     id="layer1"
     transform="translate(67.857146,-78.50504)">
    <rect
       transform="rotate(90)"
       y="-28.142857"
       x="78.505051"
       height="96"
       width="96"
       id="rect4782"
       style="color:#000000;display:inline;overflow:visible;visibility:visible;fill:none;stroke:none;stroke-width:4;marker:none;enable-background:accumulate" />
    <path
       style="color:#000000;font-style:normal;font-variant:normal;font-weight:normal;font-stretch:normal;font-size:medium;line-height:normal;font-family:sans-serif;font-variant-ligatures:normal;font-variant-position:normal;font-variant-caps:normal;font-variant-numeric:normal;font-variant-alternates:normal;font-feature-settings:normal;text-indent:0;text-align:start;text-decoration:none;text-decoration-line:none;text-decoration-style:solid;text-decoration-color:#000000;letter-spacing:normal;word-spacing:normal;text-transform:none;writing-mode:lr-tb;direction:ltr;text-orientation:mixed;baseline-shift:baseline;text-anchor:start;white-space:normal;shape-padding:0;clip-rule:nonzero;display:inline;overflow:visible;visibility:visible;opacity:1;isolation:auto;mix-blend-mode:normal;color-interpolation:sRGB;color-interpolation-filters:linearRGB;solid-color:#000000;solid-opacity:1;fill:#808080;fill-opacity:1;fill-rule:nonzero;stroke:none;stroke-width:4.00000048;stroke-linecap:butt;stroke-linejoin:miter;stroke-miterlimit:4;stroke-dasharray:none;stroke-dashoffset:0;stroke-opacity:1;marker:none;color-rendering:auto;image-rendering:auto;shape-rendering:auto;text-rendering:auto;enable-background:accumulate"
       d="M 23.976562 8 C 18.943787 8.05818 15.262944 7.8797246 12.251953 9.5410156 C 10.746458 10.371661 9.5551474 11.776594 8.8964844 13.53125 C 8.2378224 15.285907 8 17.369563 8 20 L 8 76 C 8 78.63043 8.2378224 80.712137 8.8964844 82.466797 C 9.5551474 84.221447 10.746458 85.626391 12.251953 86.457031 C 15.262944 88.118321 18.94379 87.94182 23.976562 88 L 23.988281 88 L 72.011719 88 L 72.023438 88 C 77.056213 87.9418 80.737057 88.118321 83.748047 86.457031 C 85.253542 85.626391 86.444854 84.221447 87.103516 82.466797 C 87.762178 80.712137 88 78.63043 88 76 L 88 66 L 84 66 L 84 76 C 84 78.36956 83.749629 80.02288 83.359375 81.0625 C 82.969122 82.10212 82.550044 82.550298 81.816406 82.955078 C 81.051638 83.37703 79.75548 83.624277 78 83.775391 L 78 62 L 79 62 L 84 62 L 88 62 L 88 40 L 84 40 L 84 58 L 78 58 L 78 36 L 79 36 L 84 36 L 88 36 L 88 32 L 88 20 C 88 17.369563 87.762178 15.285907 87.103516 13.53125 C 86.444851 11.776594 85.253542 10.371661 83.748047 9.5410156 C 80.737057 7.8797246 77.056213 8.058184 72.023438 8 L 72.011719 8 L 23.988281 8 L 23.976562 8 z M 24 12 L 72 12 C 77.038253 12.05877 80.351872 12.236877 81.816406 13.044922 C 82.550044 13.449701 82.969122 13.897876 83.359375 14.9375 C 83.749629 15.977125 84 17.630434 84 20 L 84 32 L 74 32 L 74 58 L 74 62 L 74 83.957031 C 73.343174 83.972094 72.729521 83.991492 72 84 L 24.023438 84 L 24 84 C 23.270479 83.991486 22.656826 83.972097 22 83.957031 L 22 12.042969 C 22.656826 12.027905 23.270479 12.008509 24 12 z "
       transform="translate(-67.857146,78.50504)"
       id="path4179" />
    <path
       style="color:#000000;font-style:normal;font-variant:normal;font-weight:normal;font-stretch:normal;font-size:medium;line-height:125%;font-family:Ubuntu;-inkscape-font-specification:'Ubuntu, Normal';font-variant-ligatures:normal;font-variant-position:normal;font-variant-caps:normal;font-variant-numeric:normal;font-variant-alternates:normal;font-feature-settings:normal;text-indent:0;text-align:start;text-decoration:none;text-decoration-line:none;text-decoration-style:solid;text-decoration-color:#000000;letter-spacing:0px;word-spacing:0px;text-transform:none;writing-mode:lr-tb;direction:ltr;text-orientation:mixed;baseline-shift:baseline;text-anchor:start;white-space:normal;shape-padding:0;clip-rule:nonzero;display:inline;overflow:visible;visibility:visible;opacity:1;isolation:auto;mix-blend-mode:normal;color-interpolation:sRGB;color-interpolation-filters:linearRGB;solid-color:#000000;solid-opacity:1;fill:#808080;fill-opacity:1;fill-rule:nonzero;stroke:none;stroke-width:4.00000048;stroke-linecap:butt;stroke-linejoin:miter;stroke-miterlimit:4;stroke-dasharray:none;stroke-dashoffset:0;stroke-opacity:1;color-rendering:auto;image-rendering:auto;shape-rendering:auto;text-rendering:auto;enable-background:accumulate"
       d="m -20.402068,102.50504 c -1.610781,0 -3.16038,0.3093 -4.582031,0.93359 -1.406901,0.59259 -2.660669,1.46619 -3.695313,2.58594 l -0.0098,0.0117 -0.01172,0.0117 c -1.013107,1.13071 -1.786427,2.48242 -2.326172,3.99805 -0.551324,1.52231 -0.814453,3.17755 -0.814453,4.93359 0,1.78125 0.261807,3.45213 0.816406,4.98047 0.541304,1.49173 1.316295,2.82821 2.324219,3.95312 l 0.01172,0.0117 0.0098,0.0117 c 0.250158,0.27074 0.514803,0.5266 0.789063,0.76953 -0.0627,0.0242 -0.127243,0.0454 -0.189453,0.0703 -2.188192,0.87636 -4.061541,2.10459 -5.53711,3.6875 l -0.0098,0.0117 -0.0098,0.01 c -1.443299,1.59133 -2.526986,3.4741 -3.234375,5.58203 l -0.0059,0.0176 -0.0059,0.0195 c -0.654057,2.0789 -0.974609,4.30296 -0.974609,6.65039 v 4.51172 l 0.738281,0.59961 c 0,0 1.579891,1.26121 4.371094,2.39648 2.791203,1.13527 6.923073,2.24414 12.345703,2.24414 5.422631,0 9.552547,-1.10887 12.34375,-2.24414 2.791203,-1.13528 4.371094,-2.39648 4.371094,-2.39648 l 0.738281,-0.59961 v -4.51172 c 0,-2.351 -0.341428,-4.58182 -1.037109,-6.66406 -0.671186,-2.12631 -1.768146,-4.02929 -3.259766,-5.625 -0.608954,-0.65324 -1.301902,-1.23107 -2.041016,-1.76367 -0.947478,1.0321 -2.053709,1.91952 -3.253906,2.64257 0.921274,0.53559 1.715605,1.14464 2.369141,1.84571 v 0.002 h 0.002 c 1.089008,1.1643 1.869077,2.50744 2.373047,4.10937 l 0.0059,0.0195 0.0059,0.0176 c 0.552515,1.64677 0.835937,3.44041 0.835937,5.41407 v 2.40429 c -0.355424,0.25956 -0.776334,0.64971 -2.617187,1.39844 -2.360152,0.95995 -5.955604,1.94922 -10.835938,1.94922 -4.880333,0 -8.477739,-0.98927 -10.83789,-1.94922 -1.840855,-0.74873 -2.261763,-1.13888 -2.617188,-1.39844 v -2.40429 c 0,-1.9801 0.268858,-3.78284 0.787109,-5.43555 0.544183,-1.61208 1.333106,-2.96997 2.386719,-4.13477 1.030578,-1.10304 2.364659,-2.00242 4.089844,-2.69336 1.6627,-0.66589 3.71131,-1.0308 6.167969,-1.0332 0.0079,2e-5 0.01554,0.002 0.02344,0.002 1.603853,0 3.143983,-0.28863 4.5625,-0.88282 l 0.01758,-0.01 0.01758,-0.008 c 1.401772,-0.61806 2.638644,-1.5102 3.650391,-2.63671 1.035162,-1.1241 1.829865,-2.464 2.373047,-3.96094 0.554595,-1.52834 0.816406,-3.19922 0.816406,-4.98047 0,-1.75604 -0.263133,-3.41128 -0.814453,-4.93359 -0.541858,-1.52153 -1.33564,-2.87752 -2.376953,-4.00782 -1.01153,-1.12555 -2.255468,-2.00501 -3.660156,-2.59765 -1.422711,-0.62543 -2.973691,-0.93555 -4.585938,-0.93555 z m 0,4 c 1.117168,0 2.087211,0.20292 2.982422,0.59766 l 0.01758,0.006 0.01758,0.01 c 0.901088,0.37744 1.630764,0.89735 2.261719,1.60156 l 0.0098,0.01 0.0098,0.0117 c 0.654528,0.70835 1.173993,1.57123 1.558594,2.65234 l 0.002,0.006 0.002,0.006 c 0.375218,1.03402 0.576172,2.2139 0.576172,3.57617 0,1.39106 -0.202415,2.5872 -0.576172,3.61719 -0.382976,1.05543 -0.901712,1.90988 -1.5625,2.625 l -0.0098,0.0117 -0.0098,0.01 c -0.633315,0.70686 -1.375428,1.2418 -2.283203,1.64454 -0.897125,0.37272 -1.874474,0.56836 -2.996094,0.56836 v -0.002 c -0.008,0 -0.01544,0 -0.02344,0 -1.111515,-0.003 -2.083942,-0.19635 -2.97461,-0.5664 -0.906917,-0.40227 -1.66452,-0.94198 -2.326172,-1.6543 -0.639133,-0.71547 -1.153459,-1.57407 -1.539062,-2.63672 -0.373759,-1.02999 -0.576172,-2.22613 -0.576172,-3.61719 0,-1.36227 0.200952,-2.54215 0.576172,-3.57617 l 0.002,-0.006 0.0039,-0.006 c 0.386888,-1.08751 0.900597,-1.95356 1.533203,-2.66211 0.659352,-0.70988 1.404606,-1.23627 2.304688,-1.61328 l 0.01758,-0.008 0.01758,-0.006 c 0.8952,-0.39474 1.867227,-0.59766 2.984375,-0.59766 z"
       id="path4202"
       inkscape:connector-curvature="0" />
  </g>
</svg>
