<?xml version="1.0" encoding="UTF-8"?>
<!-- Created with Inkscape (http://www.inkscape.org/) -->
<svg id="svg4874" width="96" height="96" version="1.1" viewBox="0 0 96 96" xmlns="http://www.w3.org/2000/svg" xmlns:cc="http://creativecommons.org/ns#" xmlns:dc="http://purl.org/dc/elements/1.1/" xmlns:rdf="http://www.w3.org/1999/02/22-rdf-syntax-ns#">
 <metadata id="metadata4879">
  <rdf:RDF>
   <cc:Work rdf:about="">
    <dc:format>image/svg+xml</dc:format>
    <dc:type rdf:resource="http://purl.org/dc/dcmitype/StillImage"/>
    <dc:title/>
   </cc:Work>
  </rdf:RDF>
 </metadata>
 <g id="layer1" transform="translate(67.857 -78.505)">
  <g id="g4845" transform="matrix(0 -1 -1 0 373.51 516.51)">
   <g id="g4778" transform="matrix(-.9996 0 0 1 575.94 -611)">
    <g id="g4780" transform="matrix(-1 0 0 1 576 611)">
     <rect id="rect4782" transform="scale(-1,1)" x="-438" y="345.36" width="96.038" height="96" color="#000000" fill="none"/>
     <path id="path6255" d="m349.98 406.21 16.157 10.987 10.992 16.15 2.206-2.2053-4.5939-19.458-3.0885-3.0874-19.466-4.5921z" color="#000000" fill="#808080"/>
     <path id="path6259" d="m422 430.48-2.8865 2.8854-27.941-41.186-41.201-27.93 2.8845-2.8834 48.578 14.282 6.278 6.2755 14.288 48.557z" color="#000000" fill="#808080"/>
     <path id="path6261" d="m430 354.65-1.2908-1.2902c-1.7476 0.74872-3.671 1.6328-5.7793 2.6807-2.2831 1.1647-4.5378 2.4249-6.3695 3.5532l-26.317 26.331c-4.65 4.6482-7.9433 8.2098-11.475 12.315-3.4765 4.05-11.96 15.277-15.01 19.414l1.9255 1.8983c4.139-3.0489 15.343-11.502 19.395-14.977 4.1069-3.531 7.6955-6.8245 12.346-11.473 8.7242-8.8806 17.734-17.521 26.401-26.437 1.2935-2.078 2.4655-4.1687 3.495-6.2382 1.0369-2.1173 1.9313-4.0297 2.6806-5.7769z" fill="#808080"/>
    </g>
   </g>
  </g>
 </g>
</svg>
