<?xml version="1.0" encoding="UTF-8" standalone="no"?>
<svg xmlns="http://www.w3.org/2000/svg" height="90" viewBox="0 0 90 90.000001" width="90" version="1.1" xmlns:xlink="http://www.w3.org/1999/xlink">
 <defs>
  <clipPath id="a" clipPathUnits="userSpaceOnUse">
   <path d="m199 186.4v27h39v-27h-39zm25.14 7.5c0.532 0.00001 0.9828 0.0788 1.406 0.1562 0.4343 0.0665 0.8523 0.1503 1.156 0.25 0.3149 0.0883 0.5233 0.1505 0.7188 0.25 0.2063 0.0995 0.3975 0.2104 0.4844 0.2656l-0.7188 2.047c-0.3474-0.188-0.7315-0.336-1.188-0.4688-0.4452-0.1437-0.9524-0.1875-1.484-0.1875-1.183 0.00002-2.077 0.2942-2.609 0.9688-0.5211 0.6634-0.7656 1.589-0.7656 2.75 0 0.564 0.0883 1.082 0.2188 1.547 0.1302 0.4534 0.2863 0.8401 0.5469 1.172 0.2605 0.3317 0.6091 0.5933 1 0.7812 0.3909 0.1769 0.8695 0.2344 1.391 0.2344 0.2823 0 0.4764 0.0119 0.6719 0 0.2062-0.0118 0.3949-0.029 0.5469-0.0625v-4.016h2.578v5.688c-0.304 0.1218-0.78 0.3048-1.453 0.4375-0.6732 0.1437-1.528 0.1875-2.516 0.1875-0.8469 0-1.586-0.1096-2.281-0.375-0.684-0.2654-1.34-0.6632-1.828-1.172-0.4886-0.5086-0.8536-1.15-1.125-1.891-0.2605-0.7409-0.3906-1.58-0.3906-2.531 0-0.962 0.16-1.822 0.4531-2.562 0.2932-0.7408 0.7084-1.382 1.219-1.891 0.5103-0.5197 1.082-0.8752 1.766-1.141 0.6948-0.2654 1.421-0.4375 2.203-0.4375zm-11.95 0.0312c0.1626-0.0119 0.3529 0 0.5312 0 0.6592 0.00002 1.243 0.1162 1.719 0.2812 0.4863 0.1542 0.8741 0.3747 1.188 0.6719 0.3134 0.2862 0.5518 0.6038 0.7031 1 0.1514 0.3852 0.2031 0.8659 0.2031 1.328 0 0.4513-0.1106 0.8676-0.3594 1.297-0.2486 0.4182-0.5786 0.733-1 0.9531 0.5835 0.2421 1.046 0.5782 1.359 1.062 0.3242 0.4732 0.4687 1.047 0.4688 1.719-0.00001 0.5283-0.0772 1.033-0.25 1.484-0.1729 0.4403-0.4451 0.8573-0.8125 1.188-0.3674 0.3192-0.8335 0.5472-1.406 0.7344-0.5619 0.1761-1.222 0.25-2 0.25-0.2918 0-0.6133 0.0114-0.9375-0.0312-0.3242-0.033-0.6505-0.1214-0.9531-0.1875-0.3026-0.0659-0.5327-0.1102-0.7812-0.1875-0.2486-0.077-0.4689-0.1526-0.6094-0.2188l0.4531-2.062c0.281 0.1209 0.6615 0.2475 1.094 0.3906 0.4431 0.1322 1.024 0.2188 1.672 0.2188 0.7456 0 1.232-0.1358 1.578-0.4219 0.3458-0.2862 0.5469-0.672 0.5469-1.156 0-0.2972-0.0577-0.5362-0.1875-0.7344-0.1187-0.2091-0.2995-0.3789-0.5156-0.5-0.2162-0.1322-0.5099-0.2685-0.8125-0.3125-0.2918-0.0549-0.5712-0.0625-0.9062-0.0625h-0.9844v-1.938h1.125c0.2378 0 0.4245-0.0808 0.6406-0.125 0.2269-0.044 0.4677-0.0885 0.6406-0.1875 0.173-0.11 0.2934-0.2614 0.3906-0.4375 0.108-0.187 0.125-0.428 0.125-0.7031 0-0.2091-0.0387-0.3772-0.125-0.5312-0.0864-0.1542-0.1876-0.2759-0.3281-0.375-0.1298-0.0994-0.2382-0.1904-0.4219-0.2344-0.173-0.0549-0.3632-0.0625-0.5469-0.0625-0.4647 0.00003-0.9439 0.0601-1.344 0.2031-0.389 0.1429-0.7383 0.3222-1.062 0.5312l-0.8438-1.828c0.173-0.1103 0.3824-0.1757 0.6094-0.2969 0.2377-0.1208 0.469-0.2447 0.75-0.3438 0.281-0.0989 0.5929-0.2152 0.9062-0.2812 0.1621-0.0332 0.3217-0.0833 0.4844-0.0937z" style="color:#000000;fill:#f0f"/>
  </clipPath>
 </defs>
 <g transform="translate(-283.6 -358.8)">
  <g transform="translate(-810.4 -289.6)">
   <path style="fill:#808080" d="m16.86 17c-4.24-0.05-7.082 0.9-8.542 2.65-1.532 1.82-2.318 4.82-2.318 8.98v32.75c0 4.16 0.786 7.15 2.318 8.97 1.46 1.76 4.302 2.65 8.542 2.65h56.29c4.23 0 7.07-0.89 8.53-2.65 1.54-1.82 2.32-4.81 2.32-8.97v-32.75c0-4.16-0.78-7.16-2.32-8.98-1.46-1.75-4.3-2.65-8.53-2.65h-56.29zm17.38 10.82h6.19v28.69h15.33v5.35h-21.52v-34.04z" transform="translate(1094 648.4)"/>
   <rect style="fill:none" height="90" width="90" y="648.4" x="1094"/>
   <path style="fill:#ccc;display:none" d="m213.5 189.4c-9 0-10 0-10 6v9c0 6 1 6 10 6h10c9 0 10 0 10-6v-9c0-6-1-6-10-6z" clip-path="url(#a)" transform="matrix(2 0 0 2 702 293.6)"/>
  </g>
 </g>
</svg>
