<?xml version="1.0" encoding="UTF-8" standalone="no"?>
<svg xmlns="http://www.w3.org/2000/svg" height="90" viewBox="0 0 90 90.000001" width="90" version="1.1" xmlns:xlink="http://www.w3.org/1999/xlink">
 <defs>
  <clipPath id="a" clipPathUnits="userSpaceOnUse">
   <path d="m199 186.4v27h39v-27h-39zm25.14 7.5c0.532 0.00001 0.9828 0.0788 1.406 0.1562 0.4343 0.0665 0.8523 0.1503 1.156 0.25 0.3149 0.0883 0.5233 0.1505 0.7188 0.25 0.2063 0.0995 0.3975 0.2104 0.4844 0.2656l-0.7188 2.047c-0.3474-0.188-0.7315-0.336-1.188-0.4688-0.4452-0.1437-0.9524-0.1875-1.484-0.1875-1.183 0.00002-2.077 0.2942-2.609 0.9688-0.5211 0.6634-0.7656 1.589-0.7656 2.75 0 0.564 0.0883 1.082 0.2188 1.547 0.1302 0.4534 0.2863 0.8401 0.5469 1.172 0.2605 0.3317 0.6091 0.5933 1 0.7812 0.3909 0.1769 0.8695 0.2344 1.391 0.2344 0.2823 0 0.4764 0.0119 0.6719 0 0.2062-0.0118 0.3949-0.029 0.5469-0.0625v-4.016h2.578v5.688c-0.304 0.1218-0.78 0.3048-1.453 0.4375-0.6732 0.1437-1.528 0.1875-2.516 0.1875-0.8469 0-1.586-0.1096-2.281-0.375-0.684-0.2654-1.34-0.6632-1.828-1.172-0.4886-0.5086-0.8536-1.15-1.125-1.891-0.2605-0.7409-0.3906-1.58-0.3906-2.531 0-0.962 0.16-1.822 0.4531-2.562 0.2932-0.7408 0.7084-1.382 1.219-1.891 0.5103-0.5197 1.082-0.8752 1.766-1.141 0.6948-0.2654 1.421-0.4375 2.203-0.4375zm-11.95 0.0312c0.1626-0.0119 0.3529 0 0.5312 0 0.6592 0.00002 1.243 0.1162 1.719 0.2812 0.4863 0.1542 0.8741 0.3747 1.188 0.6719 0.3134 0.2862 0.5518 0.6038 0.7031 1 0.1514 0.3852 0.2031 0.8659 0.2031 1.328 0 0.4513-0.1106 0.8676-0.3594 1.297-0.2486 0.4182-0.5786 0.733-1 0.9531 0.5835 0.2421 1.046 0.5782 1.359 1.062 0.3242 0.4732 0.4687 1.047 0.4688 1.719-0.00001 0.5283-0.0772 1.033-0.25 1.484-0.1729 0.4403-0.4451 0.8573-0.8125 1.188-0.3674 0.3192-0.8335 0.5472-1.406 0.7344-0.5619 0.1761-1.222 0.25-2 0.25-0.2918 0-0.6133 0.0114-0.9375-0.0312-0.3242-0.033-0.6505-0.1214-0.9531-0.1875-0.3026-0.0659-0.5327-0.1102-0.7812-0.1875-0.2486-0.077-0.4689-0.1526-0.6094-0.2188l0.4531-2.062c0.281 0.1209 0.6615 0.2475 1.094 0.3906 0.4431 0.1322 1.024 0.2188 1.672 0.2188 0.7456 0 1.232-0.1358 1.578-0.4219 0.3458-0.2862 0.5469-0.672 0.5469-1.156 0-0.2972-0.0577-0.5362-0.1875-0.7344-0.1187-0.2091-0.2995-0.3789-0.5156-0.5-0.2162-0.1322-0.5099-0.2685-0.8125-0.3125-0.2918-0.0549-0.5712-0.0625-0.9062-0.0625h-0.9844v-1.938h1.125c0.2378 0 0.4245-0.0808 0.6406-0.125 0.2269-0.044 0.4677-0.0885 0.6406-0.1875 0.173-0.11 0.2934-0.2614 0.3906-0.4375 0.108-0.187 0.125-0.428 0.125-0.7031 0-0.2091-0.0387-0.3772-0.125-0.5312-0.0864-0.1542-0.1876-0.2759-0.3281-0.375-0.1298-0.0994-0.2382-0.1904-0.4219-0.2344-0.173-0.0549-0.3632-0.0625-0.5469-0.0625-0.4647 0.00003-0.9439 0.0601-1.344 0.2031-0.389 0.1429-0.7383 0.3222-1.062 0.5312l-0.8438-1.828c0.173-0.1103 0.3824-0.1757 0.6094-0.2969 0.2377-0.1208 0.469-0.2447 0.75-0.3438 0.281-0.0989 0.5929-0.2152 0.9062-0.2812 0.1621-0.0332 0.3217-0.0833 0.4844-0.0937z" style="color:#000000;fill:#f0f"/>
  </clipPath>
 </defs>
 <g transform="translate(-283.6 -358.8)">
  <g transform="translate(-810.4 -289.6)">
   <path style="fill:#808080" d="m16.86 17c-4.24-0.05-7.082 0.9-8.542 2.65-1.532 1.82-2.318 4.82-2.318 8.98v32.75c0 4.16 0.786 7.15 2.318 8.97 1.46 1.76 4.302 2.65 8.542 2.65h56.29c4.23 0 7.07-0.89 8.53-2.65 1.54-1.82 2.32-4.81 2.32-8.97v-32.75c0-4.16-0.78-7.16-2.32-8.98-1.46-1.75-4.3-2.65-8.53-2.65h-56.29zm3.59 10.8h17.45v5.03h-12.38c-0.03 0.55-0.08 1.2-0.14 1.92-0.04 0.69-0.09 1.4-0.15 2.12-0.03 0.72-0.08 1.41-0.15 2.07s-0.13 1.22-0.2 1.68c4.87 0.26 8.45 1.38 10.75 3.35 2.33 1.94 3.5 4.6 3.5 7.98 0 1.55-0.26 2.98-0.79 4.29s-1.33 2.45-2.41 3.4c-1.09 0.96-2.45 1.71-4.1 2.27-1.64 0.52-3.56 0.79-5.76 0.79-0.89 0-1.79-0.07-2.71-0.2s-1.81-0.3-2.67-0.49c-0.82-0.17-1.56-0.35-2.22-0.55-0.65-0.19-1.15-0.37-1.47-0.54l1.13-5.03c0.69 0.33 1.68 0.7 2.96 1.09 1.31 0.36 2.91 0.54 4.78 0.54 1.28 0 2.38-0.13 3.3-0.39 0.92-0.3 1.66-0.69 2.22-1.18 0.59-0.5 1.02-1.06 1.28-1.68 0.26-0.66 0.4-1.35 0.4-2.07 0-1.09-0.22-2.05-0.64-2.91-0.43-0.85-1.19-1.58-2.27-2.17-1.05-0.59-2.48-1.03-4.29-1.33-1.78-0.29-4.03-0.44-6.75-0.44 0.36-3.16 0.64-6.15 0.84-8.97 0.19-2.86 0.36-5.72 0.49-8.58zm40.3 0.23c1.5 0 2.77 0.22 3.97 0.44 1.22 0.19 2.4 0.42 3.25 0.7 0.89 0.25 1.48 0.43 2.03 0.71 0.58 0.28 1.12 0.59 1.37 0.75l-2.03 5.76c-0.98-0.53-2.06-0.94-3.35-1.32-1.25-0.4-2.68-0.52-4.18-0.52-3.33 0-5.85 0.82-7.35 2.73-1.47 1.86-2.16 4.47-2.16 7.75 0 1.58 0.25 3.04 0.62 4.35 0.36 1.28 0.8 2.37 1.54 3.3 0.73 0.94 1.71 1.68 2.82 2.21 1.1 0.5 2.44 0.66 3.91 0.66 0.8 0 1.35 0.03 1.9 0 0.58-0.04 1.11-0.08 1.54-0.18v-11.32h7.26v16.03c-0.85 0.34-2.19 0.86-4.09 1.24-1.9 0.4-4.31 0.52-7.09 0.52-2.39 0-4.47-0.3-6.43-1.05-1.93-0.75-3.77-1.87-5.15-3.31-1.38-1.43-2.4-3.23-3.17-5.32-0.73-2.09-1.1-4.46-1.1-7.13 0-2.72 0.45-5.14 1.28-7.23 0.82-2.08 1.99-3.89 3.43-5.32 1.44-1.47 3.05-2.47 4.97-3.22 1.96-0.75 4.01-1.23 6.21-1.23z" transform="translate(1094 648.4)"/>
   <rect style="fill:none" height="90" width="90" y="648.4" x="1094"/>
   <path style="fill:#ccc;display:none" d="m213.5 189.4c-9 0-10 0-10 6v9c0 6 1 6 10 6h10c9 0 10 0 10-6v-9c0-6-1-6-10-6z" clip-path="url(#a)" transform="matrix(2 0 0 2 702 293.6)"/>
  </g>
 </g>
</svg>
