<?xml version="1.0" encoding="UTF-8" standalone="no"?>
<svg xmlns="http://www.w3.org/2000/svg" height="96" width="96" version="1.1" viewBox="0 0 96 96">
 <path opacity=".5" d="m48.03 23.47h-0.04-13-1.26c-2.72 0-5.82-0.01-7.94 1.1-1.33 0.69-2.37 1.87-2.93 3.29-0.54 1.34-0.68 2.78-0.68 4.4v31.67c0 1.62 0.14 3.05 0.68 4.4 0.56 1.42 1.6 2.59 2.93 3.29 2.45 1.28 4.96 1.07 7.92 1.1h0.01 0.01 28.7 0.02 0.01c2.95-0.03 5.47 0.18 7.91-1.1 1.34-0.7 2.38-1.87 2.94-3.29 0.54-1.35 0.68-2.78 0.68-4.4v-31.67c0-1.62-0.14-3.06-0.68-4.4-0.56-1.42-1.6-2.6-2.94-3.29-2.44-1.28-4.96-1.07-7.91-1.1h-0.01-0.02-2.24c-2.7-0.04-2.7 4.04 0 4h2.24c3.05 0.03 4.94 0.04 6.09 0.64 0.46 0.25 0.85 0.66 1.07 1.22 0.26 0.65 0.4 1.57 0.4 2.93v31.67c0 1.36-0.14 2.28-0.4 2.92-0.22 0.57-0.6 0.98-1.07 1.22-1.15 0.61-3.04 0.62-6.09 0.65h-28.68-0.02c-3.05-0.03-4.93-0.04-6.09-0.65-0.46-0.24-0.84-0.65-1.07-1.22-0.25-0.64-0.39-1.56-0.39-2.92v-31.67c0-1.36 0.14-2.28 0.39-2.93 0.23-0.56 0.61-0.97 1.07-1.22 1.16-0.6 4.32-0.61 7.37-0.64h11.02v8.83c-5.59 0.98-9.88 5.87-9.88 11.73 0 6.56 5.38 11.94 11.93 11.94 6.56 0 11.94-5.38 11.94-11.94 0-5.75-4.14-10.6-9.58-11.7l-0.37-0.01v-10.85c0-0.62-0.29-1.21-0.78-1.59-0.11-0.08-0.22-0.15-0.34-0.21-0.06-0.03-0.12-0.05-0.18-0.08-0.07-0.02-0.13-0.04-0.19-0.06-0.07-0.01-0.13-0.03-0.2-0.04-0.06-0.01-0.13-0.01-0.19-0.02h-0.01-0.02-0.09-0.04zm0.05 19.88c2.65 0 4.69 2.04 4.69 4.68s-2.04 4.68-4.69 4.68c-2.64 0-4.68-2.04-4.68-4.68s2.04-4.68 4.68-4.68z" fill="#808080"/>
 <path opacity=".5" d="m25.61 7.912c-4.73 0.055-8.52-0.223-11.99 1.699-1.84 1.019-3.28 2.739-4.066 4.849-0.756 2.02-0.983 4.27-0.983 6.91v53.46c0 2.638 0.2274 4.886 0.9838 6.912 0.7854 2.103 2.226 3.821 4.066 4.842 3.466 1.923 7.259 1.644 11.99 1.699h0.0092 0.02207 45.6 0.02207 0.01103c4.727-0.0549 8.518 0.2233 11.98-1.699 1.84-1.02 3.281-2.738 4.066-4.842 0.7564-2.026 0.9838-4.274 0.9838-6.912v-53.46c0-2.638-0.2276-4.885-0.9838-6.91-0.79-2.11-2.23-3.83-4.07-4.849-3.46-1.922-7.26-1.644-11.98-1.699h-0.01103-0.02207-45.6-0.02207-0.0092zm0.02022 4h0.02022 45.59c4.825 0.05592 8.024-0.0039 10.27 1.244 1.019 0.565 1.842 1.527 2.308 2.773 0.4944 1.324 0.719 3.052 0.719 5.436v53.46c0 2.383-0.2248 4.114-0.719 5.438-0.4653 1.246-1.288 2.206-2.308 2.771-2.251 1.248-5.45 1.188-10.27 1.244h-45.59-0.02022c-4.817-0.05566-8.015 0.003-10.26-1.244-1.02-0.5656-1.843-1.525-2.308-2.771-0.4943-1.324-0.719-3.054-0.719-5.438v-53.46c0-2.383 0.2246-4.111 0.719-5.436 0.4655-1.247 1.289-2.208 2.308-2.773 2.248-1.247 5.446-1.189 10.26-1.244z" fill="#808080"/>
</svg>
