<?xml version="1.0" encoding="UTF-8" standalone="no"?>
<svg xmlns="http://www.w3.org/2000/svg" height="96" width="96" version="1.1" viewBox="0 0 96 96">
 <path d="m25.61 7.912h45.66c4.727 0.05492 8.518-0.2236 11.98 1.699 1.841 1.021 3.281 2.741 4.066 4.844 0.7563 2.025 0.9844 4.272 0.9844 6.91v53.46c0 2.638-0.2279 4.886-0.9844 6.912-0.7854 2.103-2.227 3.821-4.066 4.842-3.466 1.923-7.257 1.644-11.98 1.699h-45.66c-4.73-0.05-8.52 0.23-11.99-1.7-1.84-1.02-3.28-2.73-4.065-4.84-0.757-2.02-0.985-4.27-0.985-6.91v-53.45c0-2.638 0.2281-4.885 0.9844-6.91 0.786-2.11 2.226-3.83 4.066-4.849 3.47-1.922 7.26-1.644 11.99-1.699zm22.42 15.56c-0.01303 0.000524-0.02605 0.0012-0.03906 0.002h-14.26v0.0039c-2.717-0.0017-5.818-0.01095-7.934 1.094-1.336 0.6979-2.374 1.872-2.938 3.293-0.5326 1.343-0.6777 2.781-0.6777 4.396v31.68c0 1.615 0.1449 3.053 0.6777 4.396 0.5636 1.421 1.602 2.594 2.938 3.291 2.444 1.276 4.959 1.067 7.912 1.1h28.76c2.953-0.0323 5.468 0.1768 7.912-1.1 1.335-0.6973 2.376-1.87 2.939-3.291 0.5328-1.343 0.6758-2.781 0.6758-4.396v-31.67c0-1.615-0.1431-3.053-0.6758-4.396-0.5634-1.421-1.603-2.595-2.939-3.293-2.445-1.277-4.96-1.065-7.912-1.098h-2.267c-2.705-0.03825-2.705 4.038 0 4h2.238c3.053 0.03337 4.938 0.04278 6.09 0.6445 0.4633 0.2419 0.8485 0.6564 1.072 1.221 0.2545 0.6418 0.3945 1.561 0.3945 2.922v31.68c0 1.36-0.1402 2.281-0.3945 2.922-0.2236 0.5639-0.6079 0.9782-1.072 1.221-1.153 0.6021-3.037 0.6112-6.09 0.6445h-28.7c-3.047-0.03328-4.93-0.04311-6.082-0.6445-0.4644-0.2425-0.8486-0.6568-1.072-1.221-0.2544-0.6414-0.3945-1.561-0.3945-2.922v-31.68c0-1.36 0.14-2.28 0.3945-2.922 0.2238-0.5643 0.609-0.9788 1.072-1.221 1.151-0.6011 4.316-0.6113 7.363-0.6445h11.02v8.828c-5.586 0.9862-9.881 5.877-9.881 11.73 0 6.558 5.379 11.94 11.94 11.94 6.558 0 11.94-5.379 11.94-11.94 0-5.752-4.138-10.59-9.58-11.7l-0.3691-0.0098v-10.85c-0.001-0.6209-0.2904-1.206-0.7832-1.584-0.1059-0.08149-0.2198-0.1522-0.3398-0.2109-0.05986-0.02908-0.1211-0.05514-0.1836-0.07813-0.06211-0.02331-0.1253-0.04352-0.1895-0.06055-0.06502-0.01698-0.1309-0.03067-0.1973-0.04102-0.06216-0.0095-0.1247-0.01597-0.1875-0.01953l-0.0098-0.002h-0.02344c-0.02861-0.0019-0.05727-0.0032-0.08594-0.0039zm0.05664 19.88c2.641 0 4.682 2.04 4.682 4.682 0 2.641-2.04 4.682-4.682 4.682-2.641 0-4.682-2.04-4.682-4.682 0-2.641 2.04-4.682 4.682-4.682z" fill="#808080"/>
</svg>
